<svg width="130" height="130" viewBox="0 0 130 130" fill="none" xmlns="http://www.w3.org/2000/svg">
<g clip-path="url(#clip0_404_9)">
<path d="M102.902 14.791C102.902 14.791 111.128 0.877352 113.845 3.88633C116.563 6.89531 117.358 20.7762 116.075 20.76C114.791 20.744 102.902 14.791 102.902 14.791Z" fill="#251326"/>
<path d="M106.772 13.3021C106.984 12.5739 111.33 5.62029 112.308 6.5982C113.286 7.57612 113.938 13.3745 113.938 13.3745" fill="#251326"/>
<path d="M113.632 13.4088L114.243 13.3402C114.175 12.7357 113.549 7.405 112.525 6.38045C112.358 6.21424 112.126 6.15832 111.869 6.22378C110.327 6.62009 106.683 12.5079 106.477 13.2158L107.068 13.3874C107.227 12.8385 110.48 7.59749 111.889 6.87263C112.031 6.79944 112.088 6.81027 112.087 6.81258C112.747 7.47226 113.385 11.2082 113.632 13.4088Z" fill="#FFE9CB"/>
<path d="M115.152 91.0156C115.152 91.0156 112.55 122.118 115.54 123.813C118.53 125.508 103.26 129.646 100.263 104.856" fill="#EA7033"/>
<path d="M90.0461 47.0085C90.0461 47.0085 96.1419 65.1814 73.4309 76.888C51.5944 88.1437 44.3651 106.172 50.8332 110.819C57.3014 115.467 95.1343 113.361 104.715 109.244C114.296 105.127 97.27 72.5296 100.375 59.7623C103.479 46.9948 105.428 31.0617 90.0461 47.0085Z" fill="#EA7033"/>
<path d="M105.464 45.4227C105.464 45.4227 116.055 64.2447 117.503 71.7086C120.201 85.6209 114.703 103.301 109.377 102.099C104.05 100.897 98.8012 93.898 95.6963 82.6473C92.6206 71.5022 102.088 44.1531 105.464 45.4227Z" fill="#FFE9CB"/>
<path d="M84.4838 16.7765C84.4838 16.7765 67.5988 8.7509 66.6644 10.8371C65.73 12.9231 69.0807 28.0244 70.3782 28.1816C71.6756 28.3388 84.4838 16.7765 84.4838 16.7765Z" fill="#251326"/>
<path d="M59.7341 36.0262C59.7341 36.0262 76.3553 13.1351 98.0288 12.1103C110.078 11.5406 125.544 17.1689 129.29 19.0263C129.29 19.0263 120.637 48.2696 106.045 49.2594C91.4533 50.2491 59.7341 36.0262 59.7341 36.0262Z" fill="#EA7033"/>
<path d="M59.7342 36.0263C59.7342 36.0263 100.978 27.1266 108.288 41.7693C108.288 41.7693 115.524 39.4256 115.132 38.324C112.045 29.6308 112.851 19.3373 129.289 19.0266C129.289 19.0266 129.409 45.6335 110.81 50.5962C92.2112 55.559 59.6473 40.5115 59.7342 36.0263Z" fill="#FFE9CB"/>
<path d="M106.781 40.1976C106.781 40.1976 108.765 47.3399 113.368 44.8932C117.97 42.4464 115.202 36.0239 115.202 36.0239C115.202 36.0239 106.463 37.9743 106.781 40.1976Z" fill="#251326"/>
<path d="M94.3562 32.3014C94.4943 32.3014 94.6234 32.2504 94.7303 32.1512C95.5294 31.4086 94.7736 26.8854 94.5232 25.5169C94.492 25.3494 94.3291 25.2424 94.1652 25.2695C93.9983 25.3002 93.8872 25.4604 93.9179 25.6274C94.4654 28.6171 94.6456 31.3983 94.3119 31.7008C93.6022 31.4887 91.8572 28.6565 90.9349 26.9171C90.855 26.7669 90.67 26.71 90.5195 26.7898C90.3693 26.8692 90.3123 27.0552 90.3922 27.2052C90.8112 27.9961 92.9662 31.959 94.2039 32.2808C94.2554 32.295 94.3065 32.3014 94.3562 32.3014Z" fill="#251426"/>
<path d="M110.465 26.503C110.603 26.503 110.733 26.452 110.839 26.3528C111.639 25.6102 110.883 21.087 110.632 19.7185C110.601 19.551 110.438 19.4445 110.274 19.4711C110.107 19.5018 109.996 19.662 110.027 19.829C110.575 22.8187 110.755 25.5999 110.421 25.9024C109.711 25.6903 107.966 22.8581 107.044 21.1187C106.964 20.9685 106.78 20.911 106.629 20.9914C106.478 21.0708 106.421 21.2568 106.501 21.4068C106.92 22.1976 109.075 26.1606 110.313 26.4824C110.365 26.4963 110.416 26.503 110.465 26.503Z" fill="#251426"/>
<path d="M57.3622 101.641C57.3622 101.641 31.2261 99.8554 35.1643 89.2865C39.1024 78.7176 67.9048 49.3248 27.293 18.7063C27.293 18.7063 28.8559 38.6196 18.9698 44.8576C-4.90255 59.9205 -15.463 128.93 49.0174 107.362L57.3622 101.641Z" fill="#EA7033"/>
<path d="M101.721 98.0964C101.721 98.0964 108.386 121.724 110.325 124.904C112.264 128.084 95.4111 128.743 90.0461 106.605" fill="#EA7033"/>
<path d="M103.234 49.6763C103.372 49.6763 103.511 49.641 103.647 49.5707C105.486 48.6268 106.07 44.2003 106.094 44.0124C106.115 43.8436 105.996 43.69 105.828 43.6684C105.661 43.6437 105.505 43.7663 105.484 43.9343C105.332 45.1256 104.654 48.3626 103.367 49.0244C103.272 49.0718 103.201 49.0731 103.118 49.0275C102.261 48.5543 101.623 44.7937 101.423 42.5343C101.408 42.365 101.246 42.2413 101.09 42.255C100.92 42.2699 100.795 42.4194 100.81 42.5882C100.902 43.6187 101.427 48.7973 102.82 49.5652C102.954 49.6392 103.094 49.6763 103.234 49.6763Z" fill="#251426"/>
<path d="M18.9699 44.8576C18.9699 44.8576 18.5704 51.8331 22.0136 51.4641C25.4568 51.0951 31.1952 47.0085 31.1952 47.0085C31.1952 47.0085 32.1133 54.9972 33.9496 55.2268C35.7858 55.4564 40.3767 51.4641 40.3767 51.4641C40.3767 51.4641 41.5324 56.6799 42.4426 58.0042C43.1481 59.0308 48.836 56.3911 49.0991 56.0849C49.0991 56.0849 49.7881 19.3121 25.2272 16.3812C25.2272 16.3812 30.092 28.9634 18.9699 44.8576Z" fill="#FFE9CB"/>
<path d="M65.6251 101.137C65.6251 101.137 63.7909 122.378 65.6272 125.362C67.4634 128.346 51.8527 125.701 49.3276 108.025C46.8026 90.3484 65.8547 88.7415 65.6251 101.137Z" fill="#EA7033"/>
<path d="M84.6772 103.014C84.6772 103.014 79.3978 120.689 81.2341 123.673C83.0703 126.657 70.9048 127.579 68.3797 109.902C65.8547 92.2256 84.9066 90.6187 84.6772 103.014Z" fill="#EA7033"/>
<path d="M87.259 44.8576C89.6984 44.8576 91.676 42.8801 91.676 40.4406C91.676 38.0012 89.6984 36.0237 87.259 36.0237C84.8196 36.0237 82.842 38.0012 82.842 40.4406C82.842 42.8801 84.8196 44.8576 87.259 44.8576Z" fill="#F2AC9F"/>
<path d="M120.386 33.191C122.826 33.191 124.803 31.2134 124.803 28.774C124.803 26.3346 122.826 24.357 120.386 24.357C117.947 24.357 115.969 26.3346 115.969 28.774C115.969 31.2134 117.947 33.191 120.386 33.191Z" fill="#F2AC9F"/>
<path d="M71.4555 22.9848C71.4555 22.9848 68.4133 12.328 70.1516 13.3745C71.89 14.421 77.1052 16.3812 77.1052 16.3812" fill="#251326"/>
<path d="M71.1602 23.0691L71.751 22.8998C70.6149 18.9188 69.637 14.3297 69.9761 13.6283C69.9815 13.6306 69.9869 13.6343 69.9929 13.6379C71.7358 14.6869 76.7826 16.5878 76.997 16.6682L77.2132 16.0931C77.1616 16.0732 72.0049 14.1308 70.3098 13.1106C69.9681 12.9066 69.7334 13.0171 69.6236 13.1003C68.6539 13.8435 70.3747 20.3191 71.1602 23.0691Z" fill="#FFE9CB"/>
<path d="M95.6674 21.3537C95.6999 21.3537 95.7324 21.3488 95.7648 21.338C95.9256 21.2839 96.0127 21.1099 95.9594 20.9489C95.419 19.3265 93.4856 18.8204 93.4039 18.7998C93.2341 18.7547 93.0726 18.8575 93.0306 19.0219C92.9891 19.1858 93.0883 19.3533 93.2527 19.3953C93.2694 19.3994 94.9428 19.8426 95.3757 21.1432C95.419 21.272 95.5391 21.3537 95.6674 21.3537Z" fill="#251426"/>
<path d="M95.2021 17.3823C95.2124 17.3823 95.2224 17.3818 95.2327 17.381C95.4015 17.3642 95.5252 17.2135 95.509 17.0447C95.3415 15.3425 93.5689 14.4202 93.4939 14.3818C93.3408 14.305 93.1571 14.3656 93.0808 14.5158C93.0032 14.6665 93.0633 14.8521 93.214 14.9294C93.2297 14.9371 94.7624 15.7406 94.8964 17.1048C94.9122 17.2635 95.0462 17.3823 95.2021 17.3823Z" fill="#251426"/>
<path d="M100.443 16.4853C100.544 16.4853 100.643 16.4361 100.702 16.3448C101.631 14.9098 100.819 13.0833 100.785 13.0063C100.714 12.8525 100.533 12.7847 100.378 12.8537C100.224 12.9233 100.155 13.106 100.225 13.2601C100.232 13.2758 100.931 14.8603 100.185 16.0106C100.094 16.1529 100.134 16.3433 100.277 16.4358C100.328 16.4691 100.386 16.4853 100.443 16.4853Z" fill="#251426"/>
<path d="M101.878 21.6526C101.979 21.6526 102.078 21.6034 102.137 21.5122C103.066 20.0772 102.254 18.2512 102.219 18.1744C102.149 18.0201 101.968 17.9518 101.813 18.0219C101.658 18.0914 101.59 18.2741 101.659 18.4282C101.666 18.4445 102.365 20.0277 101.621 21.1782C101.529 21.3205 101.569 21.5109 101.712 21.6034C101.763 21.6364 101.821 21.6526 101.878 21.6526Z" fill="#251426"/>
<path d="M99.9066 23.2552C99.9169 23.2552 99.927 23.2547 99.9373 23.2539C100.107 23.2371 100.23 23.0864 100.214 22.9176C100.046 21.2159 98.2734 20.2931 98.1984 20.2547C98.0454 20.1779 97.8616 20.238 97.7854 20.3887C97.7078 20.5394 97.7673 20.7245 97.9186 20.8023C97.9335 20.81 99.467 21.6135 99.601 22.9777C99.6172 23.1369 99.7505 23.2552 99.9066 23.2552Z" fill="#251426"/>
<path d="M116.273 77.6422C116.394 77.6422 116.509 77.5709 116.557 77.4526C117.211 75.8717 116.082 74.2241 116.033 74.1545C115.936 74.0151 115.746 73.9811 115.606 74.0782C115.466 74.1748 115.432 74.3663 115.529 74.5057C115.538 74.5201 116.513 75.9503 115.989 77.2173C115.924 77.3748 115.999 77.5541 116.156 77.619C116.194 77.6353 116.234 77.6422 116.273 77.6422Z" fill="#251426"/>
<path d="M114.094 71.8343C114.214 71.8343 114.328 71.7629 114.378 71.6447C115.032 70.0643 113.903 68.4161 113.854 68.3466C113.758 68.2072 113.566 68.1731 113.427 68.2703C113.287 68.3669 113.253 68.5584 113.35 68.6978C113.359 68.7122 114.334 70.1431 113.81 71.4094C113.745 71.5661 113.819 71.7462 113.976 71.8111C114.015 71.8271 114.055 71.8343 114.094 71.8343Z" fill="#251426"/>
<path d="M111.221 66.0364C111.342 66.0364 111.457 65.965 111.505 65.8468C112.159 64.2664 111.03 62.6182 110.981 62.5487C110.884 62.41 110.693 62.3752 110.554 62.4724C110.414 62.569 110.38 62.7605 110.477 62.8999C110.486 62.9143 111.461 64.3452 110.937 65.6115C110.872 65.7687 110.947 65.9483 111.104 66.0132C111.142 66.0292 111.182 66.0364 111.221 66.0364Z" fill="#251426"/>
<path d="M114.429 81.0048C114.55 81.0048 114.665 80.9334 114.713 80.8151C115.367 79.2348 114.239 77.5866 114.19 77.517C114.094 77.3784 113.902 77.3436 113.762 77.4408C113.623 77.5374 113.589 77.7288 113.685 77.8683C113.695 77.8827 114.669 79.3136 114.145 80.5799C114.08 80.7373 114.155 80.9167 114.311 80.9816C114.35 80.9976 114.39 81.0048 114.429 81.0048Z" fill="#251426"/>
<path d="M111.556 76.1402C111.677 76.1402 111.792 76.0688 111.84 75.9505C112.494 74.3697 111.365 72.722 111.317 72.6524C111.221 72.5138 111.029 72.479 110.889 72.5762C110.75 72.6728 110.716 72.8643 110.812 73.0037C110.822 73.0181 111.796 74.4482 111.272 75.7153C111.207 75.8727 111.282 76.0521 111.439 76.117C111.477 76.133 111.517 76.1402 111.556 76.1402Z" fill="#251426"/>
<path d="M75.5954 78.1604C75.6686 78.1604 75.7421 78.1339 75.8008 78.0818C75.814 78.0697 77.1163 76.9266 78.4349 77.2887C78.5964 77.333 78.767 77.2377 78.8126 77.073C78.8577 76.9096 78.7611 76.7403 78.597 76.6952C76.948 76.2456 75.4524 77.5683 75.3893 77.6247C75.2633 77.7381 75.2535 77.9321 75.3664 78.0581C75.4274 78.1257 75.5114 78.1604 75.5954 78.1604Z" fill="#251426"/>
<path d="M75.5954 81.9482C75.6686 81.9482 75.7421 81.9216 75.8008 81.8696C75.814 81.8575 77.1163 80.7136 78.4349 81.0764C78.5964 81.1197 78.767 81.0249 78.8126 80.8607C78.8577 80.6974 78.7611 80.5281 78.597 80.483C76.948 80.0343 75.4524 81.356 75.3893 81.4124C75.2633 81.5258 75.2535 81.7199 75.3664 81.8459C75.4274 81.9134 75.5114 81.9482 75.5954 81.9482Z" fill="#251426"/>
<path d="M74.9543 85.0973C75.0275 85.0973 75.1009 85.0708 75.1597 85.0187C75.1728 85.0066 76.4698 83.8604 77.7927 84.2256C77.9571 84.2699 78.1259 84.1745 78.171 84.0107C78.2161 83.8468 78.1195 83.6775 77.9561 83.6324C76.3043 83.1827 74.8116 84.5049 74.7484 84.5618C74.6224 84.6752 74.6126 84.8693 74.7255 84.9953C74.7861 85.0625 74.8701 85.0973 74.9543 85.0973Z" fill="#251426"/>
<path d="M80.4142 80.2856C80.5131 80.2856 80.611 80.2369 80.6706 80.148C80.6801 80.1335 81.6379 78.7196 82.9936 78.7196C83.0039 78.7196 83.0147 78.7191 83.0255 78.7196C83.1935 78.7196 83.3306 78.5851 83.333 78.4163C83.3353 78.247 83.1997 78.1071 83.0297 78.1048C83.0175 78.1048 83.0049 78.1048 82.9926 78.1048C81.3042 78.1048 80.2042 79.7385 80.1578 79.8089C80.0642 79.9501 80.1031 80.1402 80.2444 80.234C80.2964 80.2686 80.3552 80.2856 80.4142 80.2856Z" fill="#251426"/>
<path d="M81.0133 77.2165C81.1122 77.2165 81.2101 77.1678 81.2697 77.0789C81.2792 77.0645 82.2365 75.6506 83.5922 75.6506C83.6025 75.6506 83.612 75.6519 83.6241 75.6506C83.7921 75.6506 83.9292 75.5161 83.9315 75.3473C83.9339 75.178 83.7983 75.0381 83.6283 75.0358C83.6161 75.0358 83.6035 75.0358 83.5912 75.0358C81.9028 75.0358 80.8033 76.6695 80.7571 76.7398C80.6636 76.881 80.7025 77.0712 80.8437 77.165C80.8955 77.1998 80.9545 77.2165 81.0133 77.2165Z" fill="#251426"/>
<path d="M62.7071 86.73C62.7803 86.73 62.8538 86.7035 62.9125 86.6514C62.9256 86.6401 64.2239 85.4926 65.546 85.8582C65.7081 85.9021 65.8782 85.8072 65.9238 85.6433C65.9689 85.4794 65.8723 85.3102 65.7089 85.2651C64.0571 84.8159 62.5644 86.1376 62.5012 86.1945C62.3752 86.3079 62.3654 86.5019 62.4783 86.6279C62.5391 86.6952 62.6231 86.73 62.7071 86.73Z" fill="#251426"/>
<path d="M67.271 87.6739C67.3442 87.6739 67.4176 87.6474 67.4764 87.5953C67.4895 87.584 68.7918 86.4383 70.1104 86.8022C70.2725 86.846 70.4426 86.7511 70.4882 86.5865C70.5333 86.4231 70.4366 86.2538 70.2725 86.2087C68.6236 85.759 67.128 87.0812 67.0648 87.1382C66.9388 87.2515 66.929 87.4456 67.0419 87.5716C67.103 87.6391 67.187 87.6739 67.271 87.6739Z" fill="#251426"/>
<path d="M63.8035 91.543C63.9194 91.543 64.0297 91.4771 64.082 91.3652C64.0898 91.349 64.8337 89.7862 66.1914 89.5993C66.3594 89.5764 66.4772 89.421 66.4538 89.253C66.4308 89.085 66.27 88.9719 66.1074 88.9907C64.4137 89.2231 63.5597 91.0297 63.5244 91.1065C63.4535 91.2601 63.5203 91.4428 63.6739 91.5142C63.7159 91.5335 63.7597 91.543 63.8035 91.543Z" fill="#251426"/>
<path d="M59.8622 91.4206C59.971 91.4206 60.0766 91.3629 60.1325 91.2609C60.141 91.2459 60.9881 89.7364 62.3553 89.6416C62.5251 89.6295 62.6524 89.4831 62.6411 89.3138C62.629 89.1445 62.4844 89.0118 62.3133 89.028C60.6069 89.1463 59.6337 90.8919 59.5935 90.9655C59.5118 91.1145 59.5664 91.3013 59.7154 91.3822C59.762 91.408 59.8122 91.4206 59.8622 91.4206Z" fill="#251426"/>
<path d="M109.944 70.332C110.065 70.332 110.179 70.2606 110.228 70.1423C110.882 68.562 109.753 66.9138 109.705 66.8442C109.608 66.7056 109.416 66.6708 109.277 66.768C109.138 66.8646 109.104 67.0561 109.2 67.1955C109.21 67.2099 110.184 68.6408 109.66 69.9071C109.595 70.0645 109.67 70.2439 109.826 70.3088C109.865 70.3248 109.905 70.332 109.944 70.332Z" fill="#251426"/>
<path d="M66.7481 83.8803C66.8329 83.8803 66.9174 83.845 66.978 83.7764C66.9901 83.7633 68.1548 82.4772 69.5035 82.6867C69.6679 82.7137 69.8285 82.5978 69.8542 82.4298C69.88 82.2623 69.7648 82.1048 69.5973 82.0791C67.91 81.8178 66.5742 83.3056 66.5177 83.3693C66.4054 83.4966 66.4175 83.6906 66.5448 83.8027C66.6028 83.8545 66.6754 83.8803 66.7481 83.8803Z" fill="#251426"/>
<path d="M70.1915 85.0973C70.2763 85.0973 70.3608 85.062 70.4222 84.9935C70.4335 84.9803 71.5887 83.696 72.9469 83.9037C73.1103 83.9321 73.2719 83.8148 73.2977 83.6468C73.3234 83.4793 73.2088 83.3219 73.0407 83.2961C71.3547 83.0343 70.0168 84.5227 69.9612 84.5863C69.8488 84.7136 69.8614 84.9077 69.9882 85.0198C70.0462 85.0716 70.1189 85.0973 70.1915 85.0973Z" fill="#251426"/>
<path d="M71.5924 81.0048C71.6771 81.0048 71.7616 80.9695 71.8222 80.9009C71.8335 80.8878 72.996 79.6009 74.3483 79.8112C74.5117 79.8377 74.6732 79.7223 74.699 79.5543C74.7248 79.3863 74.6096 79.2293 74.4421 79.2036C72.7488 78.9382 71.4182 80.4301 71.3617 80.4938C71.2494 80.6211 71.2615 80.8151 71.3888 80.9272C71.447 80.979 71.5197 81.0048 71.5924 81.0048Z" fill="#251426"/>
<path d="M6.64939 67.6709C6.78209 67.6709 6.90398 67.5843 6.94418 67.4511C6.94907 67.4344 7.45877 65.78 8.77554 65.3989C8.93814 65.3515 9.03193 65.1809 8.98504 65.0175C8.93762 64.8549 8.76832 64.7588 8.60366 64.808C6.96144 65.2842 6.37856 67.1955 6.35434 67.2764C6.30641 67.4385 6.39866 67.6096 6.56152 67.6578C6.59115 67.6668 6.62078 67.6709 6.64939 67.6709Z" fill="#251426"/>
<path d="M7.99946 63.1076C8.13216 63.1076 8.25405 63.021 8.29425 62.8878C8.29914 62.871 8.80884 61.2167 10.1251 60.8361C10.2885 60.7887 10.382 60.6181 10.3354 60.4555C10.288 60.2921 10.1163 60.1968 9.95476 60.2452C8.31203 60.7207 7.72889 62.6319 7.70492 62.7131C7.65699 62.8752 7.74925 63.0463 7.9121 63.0944C7.94122 63.1035 7.9706 63.1076 7.99946 63.1076Z" fill="#251426"/>
<path d="M10.8154 63.6773C10.9481 63.6773 11.07 63.5907 11.1102 63.4575C11.1151 63.4408 11.6248 61.7859 12.941 61.4053C13.1044 61.3579 13.1979 61.1873 13.1513 61.0247C13.1044 60.8613 12.9323 60.766 12.7707 60.8144C11.1279 61.2899 10.5448 63.2019 10.5208 63.2828C10.4729 63.4454 10.5652 63.616 10.728 63.6642C10.7571 63.6732 10.7865 63.6773 10.8154 63.6773Z" fill="#251426"/>
<path d="M10.8154 59.2552C10.9481 59.2552 11.07 59.1686 11.1102 59.0354C11.1151 59.0187 11.6248 57.3643 12.9416 56.9832C13.1042 56.9358 13.1979 56.7652 13.1511 56.6018C13.1042 56.4385 12.9354 56.3441 12.7697 56.3923C11.1275 56.8685 10.5446 58.7798 10.5204 58.8607C10.4724 59.0228 10.5647 59.1939 10.7275 59.2421C10.7572 59.2511 10.7865 59.2552 10.8154 59.2552Z" fill="#251426"/>
<path d="M9.1263 72.0157C9.15207 72.0157 9.17784 72.0121 9.20386 72.0054C9.36775 71.9634 9.46696 71.7959 9.4247 71.6313C9.42058 71.6145 9.00442 69.9344 9.93569 68.9287C10.0509 68.8037 10.0431 68.6091 9.91894 68.494C9.79345 68.3788 9.60018 68.386 9.48422 68.5107C8.32233 69.7656 8.80806 71.7032 8.82919 71.7856C8.86527 71.9237 8.98999 72.0157 9.1263 72.0157Z" fill="#251426"/>
<path d="M5.32985 73.5103C5.35562 73.5103 5.38139 73.5067 5.40742 73.5C5.5713 73.458 5.67051 73.2905 5.62825 73.1258C5.62413 73.1091 5.20797 71.4285 6.13924 70.4232C6.2552 70.299 6.24721 70.1045 6.12301 69.989C5.99983 69.8731 5.80348 69.8803 5.68881 70.0053C4.52588 71.2589 5.01161 73.1977 5.03249 73.2802C5.06856 73.4183 5.19354 73.5103 5.32985 73.5103Z" fill="#251426"/>
<path d="M7.43123 77.1952C7.457 77.1952 7.48277 77.1916 7.5088 77.1849C7.67268 77.1429 7.77189 76.9754 7.72963 76.8107C7.72551 76.794 7.30935 75.1139 8.24062 74.1086C8.3558 73.9844 8.34807 73.7899 8.22387 73.6739C8.09889 73.5593 7.90563 73.566 7.78916 73.6907C6.62726 74.9443 7.11299 76.8826 7.13412 76.9648C7.1702 77.1032 7.29492 77.1952 7.43123 77.1952Z" fill="#251426"/>
<path d="M3.69246 79.9011C3.71823 79.9011 3.744 79.8975 3.77003 79.8908C3.93391 79.8488 4.03312 79.6813 3.99086 79.5167C3.98674 79.4999 3.57058 77.8198 4.50185 76.8146C4.61703 76.6904 4.6093 76.4958 4.4851 76.3799C4.3609 76.2652 4.16634 76.2711 4.05039 76.3966C2.88849 77.6502 3.37422 79.5886 3.39535 79.6708C3.43117 79.8094 3.55615 79.9011 3.69246 79.9011Z" fill="#251426"/>
<path d="M5.67566 81.8214C5.70143 81.8214 5.7272 81.8178 5.75323 81.8111C5.91711 81.7691 6.01632 81.6016 5.97406 81.4369C5.96994 81.4202 5.55326 79.7396 6.48453 78.7343C6.60049 78.6101 6.5925 78.4156 6.4683 78.3001C6.34461 78.1842 6.14877 78.1914 6.0341 78.3164C4.87117 79.57 5.35742 81.5088 5.37829 81.5913C5.41437 81.7296 5.53935 81.8214 5.67566 81.8214Z" fill="#251426"/>
<path d="M4.03756 86.4597C4.06332 86.4597 4.08909 86.4561 4.11512 86.4494C4.27901 86.4074 4.37821 86.2399 4.33595 86.0752C4.33183 86.0585 3.91567 84.3784 4.84694 83.3726C4.96213 83.2477 4.9544 83.0531 4.83019 82.9379C4.7047 82.8227 4.51144 82.8305 4.39548 82.9547C3.23358 84.2096 3.71932 86.1471 3.74045 86.2296C3.77652 86.368 3.90124 86.4597 4.03756 86.4597Z" fill="#251426"/>
<path d="M10.2318 75.7011C10.2575 75.7011 10.2833 75.6975 10.3093 75.6908C10.4732 75.6488 10.5724 75.4813 10.5302 75.3166C10.526 75.2999 10.1099 73.6198 11.0412 72.614C11.1563 72.4891 11.1486 72.2945 11.0244 72.1793C10.8989 72.0647 10.7057 72.0719 10.5897 72.1961C9.42779 73.451 9.91353 75.3885 9.93466 75.471C9.97048 75.6094 10.0955 75.7011 10.2318 75.7011Z" fill="#251426"/>
<path d="M10.9224 68.8346C10.9482 68.8346 10.9739 68.831 10.9999 68.8243C11.1638 68.7823 11.263 68.6148 11.2208 68.4501C11.2167 68.4334 10.8005 66.7533 11.7318 65.7481C11.8477 65.6239 11.8397 65.4293 11.7155 65.3139C11.5918 65.1979 11.396 65.2051 11.2813 65.3301C10.1184 66.5837 10.6041 68.522 10.625 68.6042C10.6611 68.7426 10.7861 68.8346 10.9224 68.8346Z" fill="#251426"/>
<path d="M98.5437 18.8163C98.6855 18.8163 98.8128 18.7179 98.8439 18.5738C99.2042 16.9022 97.7985 15.4821 97.7385 15.4226C97.6184 15.3038 97.4244 15.3025 97.3043 15.4239C97.1842 15.544 97.1847 15.7385 97.3048 15.8586C97.3169 15.8707 98.5314 17.1045 98.2428 18.4442C98.2067 18.6104 98.3123 18.7738 98.478 18.8094C98.4997 18.8137 98.5221 18.8163 98.5437 18.8163Z" fill="#251426"/>
<path d="M89.4699 19.2948C89.525 19.2948 89.5804 19.2804 89.6301 19.2497C89.775 19.1608 89.8206 18.9717 89.7322 18.8271C88.8398 17.3681 86.8423 17.3104 86.7578 17.3086C86.6003 17.2936 86.4485 17.44 86.4449 17.6093C86.4408 17.7786 86.5753 17.919 86.7451 17.9234C86.7626 17.9239 88.4925 17.978 89.2076 19.1477C89.2655 19.2425 89.3665 19.2948 89.4699 19.2948Z" fill="#251426"/>
<path d="M91.5154 17.1746C91.5706 17.1746 91.626 17.1602 91.6757 17.1295C91.8205 17.0406 91.8661 16.8514 91.7777 16.7069C90.8854 15.2484 88.8883 15.1902 88.8038 15.1884C88.8015 15.1884 88.7989 15.1884 88.7971 15.1884C88.6301 15.1884 88.4938 15.3216 88.4902 15.4891C88.4861 15.6584 88.6206 15.7988 88.7904 15.8032C88.8072 15.8037 90.5378 15.8583 91.2528 17.0274C91.3113 17.1223 91.4123 17.1746 91.5154 17.1746Z" fill="#251426"/>
<path d="M110.325 125.211C110.395 125.211 110.465 125.188 110.523 125.139C110.653 125.03 110.67 124.836 110.56 124.705C106.687 120.101 107.967 105.651 107.98 105.506C107.996 105.337 107.871 105.187 107.702 105.171C107.538 105.163 107.384 105.28 107.367 105.449C107.312 106.053 106.052 120.301 110.089 125.102C110.15 125.174 110.237 125.211 110.325 125.211Z" fill="#251426"/>
<path d="M111.294 123.24C111.324 123.24 111.355 123.236 111.386 123.226C111.529 123.181 111.619 123.04 111.599 122.891C111.595 122.863 111.242 120.193 111.544 118.985C111.863 119.462 112.405 120.854 112.788 122.086C112.834 122.233 112.976 122.325 113.133 122.298C113.286 122.271 113.394 122.137 113.389 121.983C113.388 121.955 113.303 119.675 113.376 118.404C113.606 118.946 113.904 119.796 114.137 120.557C114.187 120.72 114.361 120.812 114.521 120.761C114.684 120.712 114.774 120.539 114.725 120.377C113.769 117.259 113.432 117.277 113.205 117.297C113.091 117.303 112.89 117.367 112.828 117.714C112.744 118.188 112.727 119.152 112.732 120.047C112.014 118.234 111.628 118.23 111.481 118.229C111.479 118.229 111.477 118.229 111.476 118.229C111.35 118.229 111.124 118.284 111.003 118.646C110.777 119.325 110.787 120.496 110.845 121.449C110.085 120.134 109.242 119.019 108.636 119.171C108.121 119.306 108.089 120.081 108.119 120.741C108.127 120.91 108.252 121.052 108.44 121.034C108.61 121.026 108.741 120.882 108.733 120.713C108.705 120.086 108.773 119.855 108.808 119.78C109.18 119.93 110.187 121.422 111.021 123.071C111.074 123.177 111.181 123.24 111.294 123.24Z" fill="#251426"/>
<path d="M102.242 125.211C102.284 125.211 102.326 125.203 102.366 125.185C102.522 125.117 102.592 124.936 102.524 124.78C102.002 123.591 101.631 122.351 101.677 121.981C102.47 122.253 103.697 123.556 104.116 124.049C104.217 124.169 104.392 124.193 104.523 124.105C104.652 124.017 104.696 123.846 104.623 123.707C103.721 121.999 103.064 120.3 103.131 119.868C103.164 119.877 103.217 119.897 103.291 119.935C104.977 120.805 106.146 122.621 106.157 122.639C106.239 122.766 106.4 122.814 106.539 122.756C106.677 122.696 106.752 122.544 106.715 122.398C106.405 121.179 106.246 119.685 106.5 119.406C107.233 119.502 107.903 121.183 108.122 121.981C108.167 122.145 108.335 122.239 108.5 122.196C108.664 122.151 108.76 121.982 108.715 121.818C108.635 121.529 107.903 118.985 106.653 118.787C106.418 118.751 106.201 118.822 106.046 118.992C105.679 119.395 105.723 120.38 105.853 121.24C105.31 120.625 104.524 119.879 103.574 119.388C103.192 119.191 102.898 119.193 102.696 119.397C102.305 119.791 102.668 120.99 103.242 122.283C102.77 121.872 102.25 121.499 101.804 121.374C101.486 121.285 101.304 121.427 101.223 121.519C100.76 122.052 101.486 123.946 101.961 125.027C102.011 125.142 102.124 125.211 102.242 125.211Z" fill="#251426"/>
<path d="M75.5637 124.33C75.5944 124.33 75.6256 124.325 75.6562 124.315C75.8178 124.264 75.9077 124.092 75.8567 123.93C75.4712 122.705 75.2316 121.444 75.306 121.079C75.7449 121.234 76.747 122.225 77.4863 123.127C77.5757 123.235 77.7246 123.27 77.8525 123.211C77.9798 123.153 78.0511 123.016 78.0266 122.878C77.8226 121.732 77.7396 120.6 77.8226 120.209C78.265 120.52 79.0151 121.621 79.448 122.375C79.5184 122.499 79.6637 122.557 79.7998 122.519C79.9361 122.479 80.0278 122.352 80.0219 122.21C79.9889 121.459 80.0033 120.58 80.0711 120.057C80.2902 120.522 80.5906 121.35 80.8151 122.084C80.8656 122.246 81.0359 122.337 81.1993 122.288C81.3613 122.239 81.4526 122.067 81.4033 121.904C80.5736 119.191 80.2018 119.149 80.0234 119.129C79.8645 119.111 79.7227 119.188 79.638 119.336C79.4555 119.652 79.4014 120.438 79.3911 121.124C78.9641 120.49 78.3957 119.76 77.9403 119.574C77.7692 119.503 77.5932 119.526 77.4582 119.635C77.116 119.912 77.1322 120.902 77.26 121.936C76.656 121.288 75.8232 120.503 75.2877 120.448C75.1112 120.425 74.9581 120.493 74.8494 120.627C74.4237 121.148 74.9306 123.035 75.2702 124.115C75.3114 124.246 75.4328 124.33 75.5637 124.33Z" fill="#251426"/>
<path d="M59.3543 124.895C59.376 124.895 59.3987 124.893 59.4211 124.888C59.5868 124.851 59.6914 124.687 59.6546 124.521C59.3737 123.261 59.251 121.978 59.3724 121.647C59.7615 121.796 60.4634 122.744 60.9262 123.595C61.0025 123.737 61.1777 123.796 61.3238 123.728C61.471 123.661 61.5413 123.492 61.4841 123.34C61.1659 122.491 60.9342 121.216 61.3269 121.032C61.3576 121.017 61.3978 121.008 61.4717 121.036C61.943 121.217 62.5764 122.368 62.8648 123.052C62.9199 123.183 63.0552 123.259 63.1993 123.235C63.3397 123.212 63.4453 123.095 63.4551 122.952C63.5201 121.979 63.6636 120.855 63.8064 120.352C64.0857 120.82 64.4627 121.8 64.6843 122.482C64.7366 122.644 64.91 122.733 65.0716 122.68C65.2332 122.627 65.3213 122.454 65.2692 122.292C65.151 121.929 64.5366 120.095 64.0396 119.659C63.9159 119.551 63.7574 119.521 63.6121 119.581C63.4788 119.636 63.1534 119.771 62.9341 121.819C62.6104 121.26 62.1631 120.643 61.6923 120.462C61.4761 120.38 61.2599 120.384 61.0667 120.475C60.5845 120.701 60.474 121.268 60.5124 121.859C60.1648 121.437 59.769 121.077 59.401 121.021C59.2299 120.995 59.0678 121.05 58.9482 121.177C58.4607 121.699 58.8606 123.783 59.0544 124.654C59.0858 124.798 59.2131 124.895 59.3543 124.895Z" fill="#251426"/>
<path d="M90.0461 107.511C90.0461 107.511 87.7339 103.877 85.4281 103.192C83.1224 102.506 69.0121 113.213 69.0121 113.213C69.0121 113.213 81.2565 116.062 91.8159 112.203L91.6687 111.832L90.0461 107.511Z" fill="#FFE9CB"/>
<path d="M76.414 93.898C76.414 93.898 84.3522 116.016 62.5586 113.458L76.414 93.898Z" fill="#EA7033"/>
<path d="M65.866 113.971C70.4131 113.971 73.7426 112.675 75.7876 110.101C80.3971 104.301 76.8565 94.2204 76.7032 93.7942C76.6455 93.6344 76.4702 93.5535 76.3099 93.6086C76.1502 93.6664 76.0675 93.8421 76.1244 94.0019C76.161 94.1026 79.7024 104.189 75.3055 109.72C72.9296 112.708 68.6549 113.866 62.5947 113.152C62.4205 113.135 62.2729 113.254 62.253 113.422C62.2337 113.591 62.3538 113.744 62.5226 113.763C63.7015 113.902 64.8165 113.971 65.866 113.971Z" fill="#251426"/>
<path d="M91.6687 112.139C91.7257 112.139 91.7839 112.122 91.8357 112.089C91.978 111.997 92.0189 111.807 91.9269 111.665C91.9107 111.639 90.2979 109.08 89.8523 103.168C89.8392 103 89.6908 102.87 89.5227 102.885C89.3534 102.898 89.2262 103.046 89.2388 103.215C89.6987 109.307 91.3415 111.892 91.4111 111.999C91.4698 112.089 91.5682 112.139 91.6687 112.139Z" fill="#251426"/>
<path d="M83.1633 112.37C84.3966 112.37 85.4348 111.604 85.4889 111.564C85.6247 111.462 85.6523 111.27 85.5508 111.134C85.4487 110.998 85.2554 110.969 85.1209 111.072C85.107 111.082 83.7111 112.107 82.4261 111.625C82.2681 111.566 82.0898 111.647 82.0303 111.806C81.9707 111.965 82.0519 112.142 82.2109 112.202C82.5322 112.322 82.8541 112.37 83.1633 112.37Z" fill="#251426"/>
<path d="M84.6566 109.876C85.8894 109.876 86.9276 109.11 86.9814 109.07C87.1172 108.968 87.1448 108.776 87.0433 108.64C86.9407 108.504 86.749 108.476 86.6127 108.578C86.5995 108.588 85.2052 109.612 83.9191 109.131C83.7612 109.073 83.5828 109.152 83.5233 109.312C83.4638 109.471 83.545 109.648 83.7039 109.708C84.0255 109.828 84.3474 109.876 84.6566 109.876Z" fill="#251426"/>
<path d="M87.9058 111.998C89.1385 111.998 90.1768 111.232 90.2306 111.192C90.3664 111.09 90.394 110.898 90.2924 110.762C90.1904 110.626 89.9982 110.598 89.8619 110.7C89.8487 110.71 88.4526 111.735 87.1678 111.253C87.0106 111.195 86.832 111.274 86.772 111.434C86.7124 111.593 86.7936 111.77 86.9526 111.83C87.2739 111.95 87.5958 111.998 87.9058 111.998Z" fill="#251426"/>
<path d="M80.4615 110.839C81.6948 110.839 82.733 110.073 82.7871 110.033C82.9229 109.931 82.9505 109.739 82.849 109.603C82.7469 109.468 82.5542 109.439 82.4192 109.541C82.4047 109.551 81.0107 110.576 79.7243 110.094C79.5671 110.035 79.388 110.116 79.3285 110.275C79.269 110.434 79.3501 110.611 79.5091 110.671C79.8305 110.791 80.1523 110.839 80.4615 110.839Z" fill="#251426"/>
<path d="M77.4659 112.512C78.6992 112.512 79.7374 111.746 79.7915 111.706C79.9273 111.604 79.9549 111.411 79.8534 111.276C79.7513 111.14 79.5586 111.112 79.4236 111.214C79.4091 111.224 78.015 112.248 76.7287 111.767C76.5712 111.709 76.3929 111.788 76.3329 111.948C76.2734 112.107 76.3545 112.284 76.5135 112.344C76.8349 112.464 77.1567 112.512 77.4659 112.512Z" fill="#251426"/>
</g>
<defs>
<clipPath id="clip0_404_9">
<rect width="128.842" height="128.842" fill="white" transform="translate(0.44751 0.578949)"/>
</clipPath>
</defs>
</svg>
