<?xml version="1.0" encoding="UTF-8"?>
<!-- Generator: Adobe Illustrator 25.1.0, SVG Export Plug-In . SVG Version: 6.00 Build 0)  -->
<svg xmlns="http://www.w3.org/2000/svg" xmlns:xlink="http://www.w3.org/1999/xlink" version="1.1" id="Capa_1" x="0px" y="0px" viewBox="0 0 500 500" style="enable-background:new 0 0 500 500;" xml:space="preserve" width="512" height="512">
<g>
	<path style="fill:#83B0A6;" d="M296.652,433.142c0,0-171.855-9.933-180.416,23.566s72.72,50.285,180.197,40.547   S382.502,441.393,296.652,433.142z"/>
	<path style="fill:#251626;" d="M339.913,456.656c0.045,0,0.087-0.002,0.132-0.009c13.442-1.609,22.994-25.017,23.291-32.756   c0.079-2.07,0.208-5.531-80.124-13.937c-43.017-4.503-92.818-8.697-119.573-10.95c-8.489-0.716-14.675-1.237-17.616-1.513   c-1.513-0.142-1.781-0.504-1.783-0.508c-0.901-3.668,33.132-23.465,91.645-50.237c0.546-0.251,0.786-0.897,0.538-1.443   c-0.251-0.548-0.901-0.78-1.443-0.538c-0.234,0.108-23.714,10.865-46.714,22.524c-47.207,23.935-46.48,28.227-46.168,30.061   c0.223,1.32,1.475,2.097,3.721,2.308c2.945,0.276,9.139,0.797,17.637,1.513c127.129,10.707,193.633,18.385,197.696,22.822   c-0.446,8.321-9.94,29.126-21.366,30.495c-0.597,0.07-1.022,0.612-0.95,1.209C338.902,456.25,339.371,456.656,339.913,456.656z"/>
	<path style="fill:#251626;" d="M332.44,443.131c3.974,0,16.287-1.538,30.641-18.58c0.387-0.459,0.327-1.145-0.132-1.534   c-0.461-0.38-1.145-0.327-1.534,0.132c-16.37,19.439-29.866,17.775-29.993,17.756c-0.608-0.079-1.145,0.331-1.23,0.924   c-0.085,0.595,0.329,1.145,0.924,1.23C331.214,443.071,331.67,443.131,332.44,443.131z"/>
	<path style="fill:#251626;" d="M244.428,470.908c0.17,0,0.342-0.036,0.501-0.115c1.252-0.612,3.859-1.887,5.068-48.363   c0.591-22.66,0.54-45.301,0.54-45.526c-0.002-0.601-0.489-1.086-1.088-1.086h-0.002c-0.601,0.002-1.088,0.491-1.086,1.09   c0.108,42.486-1.417,89.157-4.456,91.973c-0.54,0.266-0.729,0.895-0.465,1.434C243.625,470.695,244.022,470.908,244.428,470.908z"/>
	<path style="fill:#251626;" d="M396.574,190.655c0.015,0,0.03,0,0.045,0c0.599-0.025,1.067-0.531,1.043-1.133   c-0.021-0.508-2.452-51.346-34.557-92.432c-0.372-0.474-1.056-0.559-1.526-0.187c-0.474,0.37-0.559,1.052-0.187,1.526   c31.661,40.518,34.075,90.681,34.094,91.182C395.511,190.196,395.994,190.655,396.574,190.655z"/>
	<path style="fill:#251626;" d="M386.272,248.786c0.412,0,0.899-0.238,1.12-0.548c0.147-0.204,0.442-0.597,0.863-1.158   c13.219-17.62,35.386-50.271,35.303-70.987c-0.1-25.174-41.954-99.688-43.735-102.848c-0.295-0.527-0.965-0.71-1.481-0.414   c-0.525,0.295-0.71,0.958-0.414,1.481c0.434,0.769,43.357,77.179,43.455,101.79c0.059,14.804-12.193,39.366-34.513,69.2   c-0.285-2.837-0.493-8.493-0.712-14.398c-0.686-18.587-1.723-46.678-6.657-55.841c-7.894-14.662-46.865-93.175-47.256-93.968   c-0.27-0.54-0.918-0.754-1.46-0.491c-0.538,0.268-0.756,0.92-0.491,1.46c0.393,0.79,39.379,79.336,47.29,94.032   c4.694,8.716,5.72,36.502,6.4,54.889c0.616,16.706,0.797,17.395,2.034,17.766C386.096,248.773,386.183,248.786,386.272,248.786z"/>
	<path style="fill:#E7808A;" d="M152.913,351.009c24.83,36.583,170.085,52.68,197.777-48.763   c21.024-77.015-54.15-145.856-76.07-198.629c-18.011-43.361,5.52-82.984,37.969-67.628c0,0-2.934,71.891,49.658,61.771   s14.388-109.167-63.833-96.671c-91.58,14.63-72.804,99.116-32.197,150.097c118.384,148.627-123.599-42.672-190.861,157.121   C75.357,308.306,104.927,280.309,152.913,351.009z"/>
	<path style="fill:#251626;" d="M246.808,323.585c10.727,0,20.882-3.124,29.579-11.296c38.168-35.871,19.022-91.943,18.825-92.506   c-0.2-0.565-0.82-0.867-1.388-0.665c-0.567,0.2-0.865,0.82-0.665,1.388c0.193,0.548,18.861,55.309-18.264,90.198   c-24.494,23.023-62.043,3.704-89.459-10.404c-15.223-7.832-27.246-14.016-34.294-12.199c-13.066,3.366-17.628,0.997-19.186-0.716   c-1.821-2.002-1.315-4.879-0.572-6.938c3.206-8.867,16.307-19.785,31.878-21.963c0.563-0.079,0.971-0.578,0.935-1.145   c-0.036-0.567-0.501-1.011-1.071-1.02c-0.68-0.021-17.025-0.208-24.617,2.573c-3.723,1.366-6.997,1.084-8.974-0.773   c-1.866-1.753-2.391-4.779-1.407-8.094c2.399-8.07,13.449-18.208,37.262-22.458c0.591-0.106,0.986-0.671,0.88-1.262   c-0.106-0.593-0.682-0.973-1.262-0.88c-24.789,4.424-36.381,15.289-38.965,23.982c-1.224,4.118-0.476,7.968,2.002,10.297   c2.599,2.441,6.685,2.89,11.211,1.232c3.527-1.292,9.258-1.904,14.218-2.193c-12.019,4.456-21.402,13.402-24.137,20.962   c-1.339,3.708-0.982,6.955,1.007,9.144c3.306,3.636,10.688,4.101,21.341,1.36c6.245-1.617,18.534,4.709,32.753,12.027   C202.93,311.747,225.939,323.583,246.808,323.585z"/>
	<path style="fill:#241726;" d="M421.943,170.68l-43.4,4.898c0,0,5.489,32.104,5.787,38.145c0.298,6.041-7.485,45.081-2.553,41.025   c4.933-4.056,34.089-41.666,40.166-53.997C428.019,188.42,421.943,170.68,421.943,170.68z"/>
	<path style="fill:#251626;" d="M357.622,25.23c0.066,0,0.132-0.006,0.198-0.017c0.591-0.108,0.982-0.674,0.875-1.266   c-0.888-4.883-4.762-6.268-4.928-6.324c-0.569-0.2-1.186,0.106-1.381,0.676c-0.195,0.565,0.104,1.181,0.669,1.379   c0.145,0.053,2.85,1.086,3.498,4.66C356.649,24.863,357.108,25.23,357.622,25.23z"/>
	<path style="fill:#251626;" d="M347.854,22.121c0.119,0,0.24-0.019,0.359-0.062c0.567-0.198,0.867-0.818,0.667-1.385   c-1.64-4.685-5.682-5.446-5.852-5.476c-0.578-0.119-1.158,0.289-1.26,0.882c-0.104,0.591,0.287,1.152,0.875,1.26l0,0   c0.121,0.021,2.977,0.606,4.184,4.052C346.985,21.841,347.405,22.121,347.854,22.121z"/>
	<path style="fill:#251626;" d="M339.866,12.457c0.263,0,0.527-0.095,0.737-0.287c0.442-0.407,0.47-1.095,0.064-1.537   c-3.366-3.658-7.376-2.754-7.543-2.714c-0.584,0.138-0.946,0.725-0.807,1.309c0.138,0.583,0.712,0.948,1.303,0.81   c0.136-0.033,2.979-0.617,5.446,2.068C339.28,12.339,339.573,12.457,339.866,12.457z"/>
	<path style="fill:#251626;" d="M336.619,20.985c0.263,0,0.527-0.096,0.735-0.287c0.444-0.406,0.472-1.094,0.066-1.536   c-3.362-3.659-7.373-2.76-7.543-2.716c-0.584,0.138-0.946,0.725-0.807,1.309c0.138,0.582,0.712,0.943,1.303,0.81   c0.132-0.03,2.979-0.614,5.446,2.068C336.033,20.866,336.326,20.985,336.619,20.985z"/>
	<path style="fill:#251626;" d="M327.601,14.868c0.263,0,0.527-0.095,0.737-0.287c0.442-0.407,0.47-1.095,0.064-1.537   c-3.366-3.658-7.378-2.754-7.543-2.714c-0.584,0.138-0.946,0.725-0.807,1.309c0.138,0.582,0.71,0.945,1.303,0.81   c0.136-0.032,2.979-0.616,5.446,2.068C327.015,14.75,327.308,14.868,327.601,14.868z"/>
	<path style="fill:#251626;" d="M353.563,33.857c0.076,0,0.155-0.009,0.232-0.026c0.589-0.127,0.96-0.708,0.831-1.294   c-1.06-4.851-4.983-6.094-5.149-6.145c-0.582-0.174-1.184,0.151-1.358,0.725c-0.174,0.574,0.147,1.177,0.718,1.356   c0.119,0.038,2.884,0.963,3.663,4.528C352.611,33.511,353.062,33.857,353.563,33.857z"/>
	<path style="fill:#251626;" d="M363.485,35.683c0.076,0,0.155-0.009,0.232-0.026c0.589-0.127,0.96-0.708,0.831-1.294   c-1.06-4.851-4.983-6.094-5.149-6.145c-0.58-0.174-1.184,0.151-1.358,0.725c-0.174,0.574,0.149,1.179,0.72,1.356   c0.142,0.047,2.884,0.977,3.661,4.528C362.533,35.336,362.983,35.683,363.485,35.683z"/>
	<path style="fill:#251626;" d="M238.085,70.115c0.134,0,0.27-0.025,0.402-0.076c0.557-0.221,0.829-0.85,0.612-1.407   c-0.051-0.134-1.035-2.862,1.258-5.686c0.38-0.467,0.308-1.152-0.157-1.53c-0.465-0.378-1.15-0.308-1.53,0.157   c-3.132,3.852-1.66,7.694-1.596,7.856C237.243,69.856,237.651,70.115,238.085,70.115z"/>
	<path style="fill:#251626;" d="M243.161,79.696c0.189,0,0.38-0.049,0.555-0.151c0.514-0.306,0.686-0.969,0.385-1.485   c-0.064-0.113-1.475-2.66,0.355-5.816c0.302-0.521,0.123-1.186-0.395-1.487c-0.514-0.3-1.184-0.127-1.487,0.395   c-2.49,4.297-0.436,7.862-0.348,8.011C242.428,79.505,242.792,79.696,243.161,79.696z"/>
	<path style="fill:#251626;" d="M243.788,91.625c0.336,0,0.667-0.155,0.88-0.448c0.353-0.482,0.246-1.16-0.234-1.515   c-0.102-0.076-2.408-1.857-1.978-5.482c0.072-0.597-0.355-1.137-0.952-1.207c-0.586-0.091-1.139,0.353-1.207,0.952   c-0.586,4.93,2.711,7.39,2.852,7.492C243.342,91.557,243.565,91.625,243.788,91.625z"/>
	<path style="fill:#251626;" d="M252.373,88.54c0.336,0,0.667-0.155,0.88-0.448c0.353-0.482,0.246-1.16-0.234-1.515   c-0.102-0.076-2.408-1.857-1.976-5.48c0.072-0.597-0.355-1.139-0.95-1.209c-0.582-0.083-1.137,0.351-1.209,0.95   c-0.589,4.932,2.709,7.393,2.85,7.495C251.927,88.472,252.15,88.54,252.373,88.54z"/>
	<path style="fill:#251626;" d="M253.603,99.366c0.336,0,0.667-0.155,0.88-0.448c0.353-0.484,0.246-1.16-0.234-1.515   c-0.106-0.079-2.41-1.859-1.978-5.48c0.072-0.597-0.355-1.139-0.95-1.209c-0.58-0.087-1.137,0.353-1.209,0.95   c-0.589,4.932,2.711,7.393,2.852,7.495C253.157,99.298,253.38,99.366,253.603,99.366z"/>
	<path style="fill:#251626;" d="M251.194,105.707c0.455,0,0.88-0.287,1.033-0.742c0.189-0.569-0.115-1.184-0.682-1.377   c-0.14-0.049-2.856-1.058-3.534-4.63c-0.113-0.589-0.671-0.973-1.273-0.865c-0.589,0.113-0.977,0.682-0.865,1.273   c0.926,4.877,4.811,6.23,4.974,6.285C250.962,105.69,251.079,105.707,251.194,105.707z"/>
	<path style="fill:#251626;" d="M247.522,67.629c0.147,0,0.295-0.03,0.438-0.091c0.548-0.242,0.799-0.88,0.561-1.428   c-0.055-0.132-1.139-2.824,1.054-5.731c0.361-0.478,0.266-1.16-0.215-1.524c-0.476-0.357-1.16-0.27-1.524,0.215   c-2.99,3.965-1.381,7.75-1.311,7.909C246.706,67.386,247.103,67.629,247.522,67.629z"/>
	<path style="fill:#251626;" d="M242.45,58.91c0.147,0,0.295-0.03,0.438-0.091c0.548-0.242,0.799-0.88,0.561-1.428   c-0.057-0.138-1.137-2.828,1.054-5.731c0.361-0.478,0.266-1.16-0.215-1.524c-0.476-0.357-1.158-0.27-1.524,0.215   c-2.99,3.963-1.381,7.75-1.311,7.909C241.634,58.668,242.031,58.91,242.45,58.91z"/>
	<path style="fill:#251626;" d="M340.068,286.588c0.255,0,0.51-0.089,0.716-0.268c4.311-3.765,3.359-8.372,3.317-8.568   c-0.128-0.584-0.708-0.954-1.296-0.829c-0.584,0.127-0.956,0.705-0.831,1.29c0.034,0.164,0.68,3.583-2.622,6.466   c-0.453,0.395-0.499,1.084-0.104,1.536C339.465,286.463,339.766,286.588,340.068,286.588z"/>
	<path style="fill:#251626;" d="M337.236,274.965c0.31,0,0.62-0.134,0.835-0.391c3.665-4.386,1.997-8.789,1.925-8.974   c-0.221-0.559-0.854-0.835-1.411-0.616c-0.559,0.221-0.833,0.848-0.616,1.407c0.057,0.155,1.237,3.432-1.568,6.789   c-0.385,0.461-0.323,1.147,0.138,1.532C336.74,274.882,336.989,274.965,337.236,274.965z"/>
	<path style="fill:#251626;" d="M342.114,261.162c0.47,0,0.905-0.306,1.043-0.78c1.609-5.465-1.685-8.855-1.825-8.995   c-0.425-0.429-1.113-0.425-1.538-0.004c-0.425,0.423-0.427,1.109-0.008,1.534c0.117,0.119,2.516,2.669,1.286,6.849   c-0.17,0.578,0.159,1.181,0.735,1.351C341.91,261.147,342.012,261.162,342.114,261.162z"/>
	<path style="fill:#251626;" d="M331.52,263.072c0.47,0,0.903-0.306,1.043-0.78c1.611-5.465-1.683-8.855-1.823-8.995   c-0.425-0.429-1.113-0.425-1.538-0.004c-0.425,0.423-0.427,1.109-0.009,1.534c0.115,0.119,2.516,2.669,1.283,6.849   c-0.17,0.576,0.159,1.181,0.735,1.351C331.316,263.057,331.418,263.072,331.52,263.072z"/>
	<path style="fill:#251626;" d="M332.185,250.382c0.47,0,0.905-0.306,1.043-0.78c1.609-5.465-1.685-8.855-1.825-8.995   c-0.425-0.429-1.113-0.425-1.538-0.004c-0.425,0.423-0.427,1.109-0.006,1.536c0.128,0.132,2.51,2.677,1.283,6.846   c-0.17,0.578,0.159,1.181,0.735,1.351C331.981,250.367,332.083,250.382,332.185,250.382z"/>
	<path style="fill:#251626;" d="M338.557,242.717c0.009,0,0.017,0,0.026,0c0.599-0.015,1.075-0.512,1.062-1.113   c-0.13-5.686-4.299-7.937-4.475-8.028c-0.527-0.278-1.19-0.076-1.468,0.457c-0.278,0.531-0.077,1.186,0.453,1.466   c0.14,0.077,3.215,1.796,3.315,6.156C337.484,242.246,337.967,242.717,338.557,242.717z"/>
	<path style="fill:#251626;" d="M328.876,287.746c0.268,0,0.535-0.098,0.744-0.295c4.173-3.916,3.056-8.485,3.007-8.678   c-0.151-0.582-0.742-0.933-1.326-0.782c-0.58,0.149-0.929,0.739-0.782,1.32c0.04,0.168,0.805,3.557-2.386,6.555   c-0.44,0.41-0.461,1.099-0.049,1.536C328.296,287.632,328.587,287.746,328.876,287.746z"/>
	<path style="fill:#251626;" d="M333.094,298.747c0.268,0,0.535-0.098,0.746-0.295c4.171-3.918,3.054-8.487,3.005-8.68   c-0.151-0.582-0.739-0.935-1.326-0.782c-0.578,0.149-0.929,0.739-0.784,1.32l0,0c0.036,0.142,0.82,3.546-2.386,6.557   c-0.438,0.41-0.459,1.099-0.047,1.538C332.516,298.632,332.805,298.747,333.094,298.747z"/>
	<path style="fill:#251626;" d="M341.715,302.619c0.268,0,0.535-0.098,0.744-0.295c4.173-3.916,3.056-8.487,3.007-8.68   c-0.151-0.582-0.739-0.935-1.326-0.782c-0.578,0.149-0.929,0.739-0.784,1.317l0,0c0.036,0.145,0.82,3.551-2.384,6.56   c-0.44,0.41-0.461,1.099-0.049,1.536C341.135,302.504,341.426,302.619,341.715,302.619z"/>
	<path style="fill:#251626;" d="M213.999,368.017c0.584,0,0.956-0.064,1.009-0.072c0.591-0.106,0.986-0.669,0.88-1.262   c-0.106-0.589-0.667-0.973-1.256-0.882c-0.145,0.026-3.6,0.546-6.358-2.873c-0.38-0.472-1.067-0.54-1.53-0.166   c-0.47,0.378-0.542,1.062-0.166,1.53C209.209,367.554,212.399,368.017,213.999,368.017z"/>
	<path style="fill:#251626;" d="M224.923,364.66c1.379,0,2.308-0.312,2.391-0.342c0.567-0.198,0.869-0.816,0.669-1.383   c-0.195-0.567-0.816-0.865-1.379-0.671c-0.164,0.053-3.478,1.099-6.723-1.834c-0.44-0.4-1.13-0.368-1.536,0.079   c-0.402,0.444-0.368,1.133,0.079,1.536C220.775,364.173,223.2,364.66,224.923,364.66z"/>
	<path style="fill:#251626;" d="M235.718,368.251c3.485,0,5.633-1.929,5.748-2.034c0.442-0.408,0.47-1.096,0.064-1.538   c-0.406-0.44-1.088-0.47-1.534-0.068c-0.117,0.106-2.762,2.412-6.893,1.014c-0.572-0.191-1.188,0.115-1.379,0.682   c-0.193,0.569,0.113,1.186,0.682,1.379C233.608,368.092,234.719,368.251,235.718,368.251z"/>
	<path style="fill:#251626;" d="M234.228,357.59c3.485,0,5.631-1.929,5.746-2.034c0.442-0.408,0.47-1.096,0.064-1.538   c-0.406-0.438-1.092-0.47-1.534-0.068c-0.121,0.108-2.767,2.41-6.893,1.014c-0.572-0.187-1.188,0.115-1.379,0.682   c-0.193,0.569,0.113,1.188,0.682,1.379C232.116,357.431,233.227,357.59,234.228,357.59z"/>
	<path style="fill:#251626;" d="M246.878,358.755c3.487,0,5.635-1.932,5.75-2.036c0.442-0.408,0.47-1.096,0.064-1.538   c-0.406-0.438-1.092-0.47-1.534-0.068c-0.119,0.108-2.752,2.416-6.893,1.016c-0.58-0.191-1.188,0.117-1.379,0.682   c-0.193,0.569,0.113,1.188,0.682,1.379C244.77,358.595,245.879,358.755,246.878,358.755z"/>
	<path style="fill:#251626;" d="M251.495,364.919c5.55,0,7.909-3.988,8.009-4.161c0.3-0.521,0.119-1.186-0.402-1.485   c-0.512-0.297-1.179-0.123-1.481,0.395l0,0c-0.077,0.128-1.872,3.043-6.281,3.073c-0.552,0.049-1.094,0.47-1.105,1.071   c-0.011,0.599,0.47,1.094,1.071,1.105C251.37,364.917,251.432,364.919,251.495,364.919z"/>
	<path style="fill:#251626;" d="M213.128,356.551c0.763,0,1.254-0.1,1.315-0.115c0.586-0.125,0.96-0.705,0.833-1.292   c-0.125-0.586-0.71-0.965-1.286-0.835c-0.159,0.03-3.583,0.674-6.458-2.641c-0.393-0.455-1.086-0.504-1.534-0.11   c-0.455,0.393-0.504,1.082-0.11,1.534C208.466,356.065,211.451,356.551,213.128,356.551z"/>
	<path style="fill:#251626;" d="M201.97,360.334c0.763,0,1.256-0.1,1.315-0.115c0.589-0.125,0.96-0.705,0.833-1.292   c-0.123-0.586-0.699-0.969-1.288-0.835c-0.161,0.032-3.58,0.674-6.455-2.643c-0.397-0.451-1.082-0.501-1.536-0.108   c-0.453,0.395-0.501,1.082-0.108,1.536C197.31,359.847,200.293,360.334,201.97,360.334z"/>
	<path style="fill:#251626;" d="M197.76,368.795c0.763,0,1.256-0.1,1.315-0.115c0.589-0.125,0.96-0.705,0.833-1.292   c-0.125-0.586-0.695-0.965-1.288-0.835c-0.161,0.028-3.58,0.674-6.453-2.641c-0.393-0.457-1.086-0.501-1.534-0.111   c-0.455,0.393-0.504,1.082-0.11,1.534C193.1,368.308,196.084,368.795,197.76,368.795z"/>
	<path style="fill:#251626;" d="M237.817,225.531c0.306,0,0.61-0.128,0.824-0.378c0.393-0.457,0.34-1.143-0.115-1.534   c-4.343-3.729-8.767-2.133-8.952-2.063c-0.561,0.21-0.848,0.837-0.635,1.4c0.21,0.559,0.841,0.848,1.394,0.637   c0.151-0.051,3.444-1.186,6.774,1.674C237.314,225.444,237.566,225.531,237.817,225.531z"/>
	<path style="fill:#251626;" d="M226.717,229.991c0.363,0,0.72-0.183,0.926-0.516c0.314-0.512,0.157-1.181-0.355-1.498   c-4.868-2.998-8.986-0.722-9.158-0.625c-0.523,0.298-0.705,0.963-0.408,1.483c0.297,0.521,0.958,0.699,1.477,0.412l0,0   c0.134-0.072,3.213-1.723,6.946,0.582C226.324,229.938,226.521,229.991,226.717,229.991z"/>
	<path style="fill:#251626;" d="M218.842,221.311c0.363,0,0.72-0.183,0.926-0.516c0.314-0.512,0.157-1.181-0.355-1.498   c-4.868-3-8.986-0.725-9.158-0.625c-0.523,0.297-0.705,0.963-0.408,1.483c0.295,0.521,0.96,0.701,1.477,0.412l0,0   c0.134-0.072,3.211-1.723,6.946,0.582C218.449,221.258,218.646,221.311,218.842,221.311z"/>
	<path style="fill:#251626;" d="M240.556,236.447c0.319,0,0.635-0.14,0.85-0.408c0.374-0.47,0.3-1.154-0.17-1.53   c-4.467-3.572-8.838-1.817-9.018-1.74c-0.555,0.232-0.816,0.869-0.586,1.424c0.232,0.555,0.865,0.814,1.419,0.589   c0.145-0.059,3.4-1.311,6.825,1.428C240.078,236.368,240.318,236.447,240.556,236.447z"/>
	<path style="fill:#251626;" d="M250.843,230.703c0.319,0,0.635-0.14,0.85-0.408c0.376-0.47,0.3-1.154-0.17-1.53   c-4.475-3.574-8.835-1.817-9.018-1.74c-0.555,0.232-0.816,0.869-0.586,1.424c0.232,0.555,0.867,0.814,1.419,0.589   c0.157-0.066,3.408-1.305,6.825,1.428C250.365,230.624,250.605,230.703,250.843,230.703z"/>
	<path style="fill:#251626;" d="M253.448,221.619c0.319,0,0.635-0.14,0.85-0.408c0.376-0.47,0.297-1.156-0.17-1.53   c-4.471-3.572-8.835-1.815-9.018-1.74c-0.555,0.232-0.816,0.869-0.586,1.424s0.873,0.814,1.417,0.589   c0.149-0.06,3.398-1.311,6.827,1.428C252.97,221.54,253.21,221.619,253.448,221.619z"/>
	<path style="fill:#251626;" d="M230.112,282.126c-4.26,1.12-10.123,1.515-17.299,1.099c-10.622-0.612-19.577-6.583-23.956-15.971   c-1.745-3.738-2.522-7.635-2.325-11.022c-0.831-0.414-1.674-0.884-2.529-1.409c-7.622-4.685-10.363-13.591-7.333-23.825   c2.777-9.384,10.671-19.228,19.908-19.228c0.106,0,0.212,0.002,0.317,0.004c0.601,0.015,1.077,0.514,1.062,1.116   c-0.015,0.591-0.499,1.06-1.088,1.06c-0.087-0.009-0.187-0.004-0.28-0.004c-7.894,0-15.244,8.927-17.832,17.669   c-2.733,9.235-0.346,17.216,6.385,21.355c0.569,0.351,1.133,0.671,1.689,0.969c0.338-1.615,0.941-3.049,1.806-4.212   c1.324-1.779,3.855-3.746,8.391-3.092c4.94,0.729,8.155,2.677,8.816,5.353c0.446,1.806-0.372,3.676-2.189,5.004   c-2.979,2.178-8.487,2.828-15.004,0.198c-0.011,2.816,0.718,6.022,2.176,9.144c4.035,8.651,12.301,14.154,22.108,14.719   c7.019,0.402,12.174,0.021,15.803-0.801c-3.075-4.707-4.012-10.068-2.031-12.452c0.506-0.61,1.983-1.876,4.715-0.495   c4.845,2.446,7.322,5.948,6.464,9.139c-0.572,2.127-2.467,3.797-5.523,4.966c3.914,4.365,13.308,10.939,30.813,3.003   c7.469-3.387,12.594-8.844,15.236-16.215c7.397-20.663-6.834-49.993-6.978-50.286c-0.266-0.54-0.045-1.19,0.495-1.456   c0.538-0.266,1.19-0.045,1.456,0.495c0.608,1.232,14.785,30.439,7.076,51.975c-2.843,7.949-8.357,13.827-16.387,17.467   c-6.294,2.856-11.63,3.942-16.105,3.942C238.387,290.335,232.754,285.354,230.112,282.126z M228.383,269.19   c-1.103,1.326-0.599,5.958,2.569,10.446c2.956-1.003,4.46-2.369,4.834-3.757c0.565-2.104-1.532-4.707-5.344-6.632   c-0.512-0.259-0.943-0.387-1.296-0.387C228.82,268.86,228.565,268.969,228.383,269.19z M190.385,251.026   c-0.78,1.045-1.294,2.376-1.547,3.889c6.001,2.633,10.965,2.199,13.536,0.321c1.094-0.799,1.592-1.793,1.36-2.726   c-0.334-1.347-2.352-3.032-7.023-3.719c-0.491-0.074-0.963-0.111-1.413-0.111C193.194,248.68,191.545,249.466,190.385,251.026z"/>
	<path style="fill:#FFFFFF;" d="M363.485,63.133c0,0-12.907-33.189-27.311-21.578s-5.36,40.765,11.681,42.498   C364.895,85.786,365.986,68.657,363.485,63.133z"/>
	<path style="fill:#251626;" d="M344.284,74.868c0.14,0,0.274-0.017,0.382-0.051c1.383-0.455,4.658-6.052,9.73-16.64   c0.259-0.542,0.03-1.192-0.512-1.451c-0.533-0.255-1.192-0.034-1.451,0.512c-2.796,5.839-6.111,12.159-7.771,14.594   c-0.567-3.988-0.391-15.195,0.416-16.613c0.289-0.51,0.142-1.186-0.357-1.492c-0.504-0.308-1.137-0.193-1.46,0.293   c-1.392,2.087-1.377,15.833-0.514,19.26c0.14,0.557,0.357,1.164,0.909,1.458C343.816,74.824,344.057,74.868,344.284,74.868z"/>
	<path style="fill:#251626;" d="M309.471,478.375c0.47,0,0.903-0.306,1.043-0.78c0.17-0.576-0.159-1.181-0.735-1.351   c-0.149-0.045-14.94-4.524-18.582-14.709c-0.149-0.419-0.538-0.703-0.98-0.72c-0.444-0.057-0.852,0.234-1.037,0.637   c-0.072,0.161-7.352,15.967-16.672,11.849c-9.917-4.379-15.191-15.707-15.242-15.822c-0.191-0.416-0.637-0.654-1.082-0.631   c-0.457,0.038-0.841,0.361-0.96,0.805c-0.145,0.548-3.68,13.393-14.887,10.788c-11.577-2.701-14.562-14.265-14.592-14.381   c-0.106-0.427-0.457-0.748-0.892-0.814c-0.448-0.074-0.867,0.136-1.094,0.512c-0.091,0.147-9.056,14.677-20.027,10.34   c-11.415-4.518-15.567-13.95-15.607-14.046c-0.17-0.395-0.557-0.652-0.988-0.657c-0.382,0.017-0.822,0.242-1.003,0.633   c-0.164,0.359-4.163,8.767-15.803,9.479c-0.599,0.036-1.056,0.552-1.02,1.152c0.038,0.599,0.563,1.073,1.152,1.02   c9.683-0.591,14.636-6.048,16.606-8.957c1.857,3.181,6.619,9.741,15.865,13.398c10.183,4.029,18.383-5.229,21.426-9.377   c1.517,3.821,5.725,11.54,15.486,13.818c9.962,2.318,14.802-5.744,16.61-9.953c2.136,3.731,7.186,11.154,15.174,14.681   c9.05,4.001,15.922-6.245,18.472-10.854c5.053,9.666,18.455,13.716,19.063,13.895C309.267,478.36,309.369,478.375,309.471,478.375z   "/>
	<path style="fill:#251626;" d="M319.775,451.546c0.491,0,0.935-0.331,1.056-0.829c0.145-0.582-0.212-1.173-0.797-1.315   c-0.14-0.034-14.058-3.54-17.484-11.447c-0.166-0.382-0.535-0.635-0.952-0.652c-0.467-0.049-0.807,0.204-1.005,0.569   c-0.068,0.125-6.819,12.478-15.671,9.226c-9.348-3.432-14.301-12.252-14.35-12.339c-0.208-0.382-0.648-0.61-1.058-0.557   c-0.434,0.042-0.799,0.34-0.931,0.754c-0.136,0.425-3.402,10.395-13.956,8.342c-10.877-2.108-13.691-11.062-13.718-11.154   c-0.119-0.395-0.453-0.688-0.861-0.759c-0.402-0.062-0.82,0.102-1.062,0.436c-0.083,0.115-8.466,11.496-18.852,8.077   c-10.686-3.517-14.647-10.869-14.685-10.943c-0.187-0.355-0.555-0.58-0.958-0.582c-0.44-0.045-0.773,0.212-0.963,0.569   c-0.153,0.274-3.874,6.808-14.817,7.371c-0.601,0.03-1.062,0.542-1.031,1.141c0.03,0.599,0.487,1.092,1.141,1.031   c9.082-0.465,13.748-4.758,15.616-7.067c1.783,2.524,6.311,7.684,15.017,10.546c9.558,3.155,17.244-4.131,20.106-7.399   c1.485,3.06,5.508,9.097,14.656,10.871c9.286,1.804,13.852-4.486,15.582-7.847c2.046,2.954,6.844,8.786,14.377,11.553   c8.461,3.107,14.911-4.913,17.316-8.561c4.843,7.624,17.454,10.792,18.026,10.933C319.603,451.535,319.69,451.546,319.775,451.546z   "/>
</g>















</svg>
