<?xml version="1.0" encoding="UTF-8"?>
<!-- Generator: Adobe Illustrator 25.1.0, SVG Export Plug-In . SVG Version: 6.00 Build 0)  -->
<svg xmlns="http://www.w3.org/2000/svg" xmlns:xlink="http://www.w3.org/1999/xlink" version="1.1" id="Capa_1" x="0px" y="0px" viewBox="0 0 500 500" style="enable-background:new 0 0 500 500;" xml:space="preserve" width="512" height="512">
<g>
	<path style="fill:#FAD9C9;" d="M72.274,327.729c0,0-45.848,41.945-58.509,56.122c-12.661,14.177-21.736-28.398-3.365-61.336   S93.201,297.975,72.274,327.729z"/>
	<path style="fill:#D7998E;" d="M39.507,300.581c0,0,71.868,47.136,210.716,25.813s164.394-75.751,164.786-121.582   c0.516-60.198-74.794-136.027-112.59-138.038c-11.576-0.616,1.808,36.753,1.808,36.753s-29.983-42.774-50.581-36.032   c-14.115,4.62,3.347,35.727,3.347,35.727s-41.487-40.872-48.914-35.184c-10.361,7.936,5.821,38.845,5.821,38.845   s-39.272-46.13-56.643-33.908c-13.882,9.766,0.456,39.266,0.456,39.266s-28.386-20-40.185-18.021   c-19.977,3.352,11.687,44.264,11.687,44.264s-44.34-27.127-46.581-12.385s14.903,44.684,14.903,44.684s-34.011-22.122-38.6-11.779   s22.61,44.347,22.61,44.347s-38.718-18.454-36.508-2.298s16.303,31.718,16.303,31.718s-23.93-9.908-30.11-0.831   s13.946,39.676,13.946,39.676s-20.437-15.666-22.007-5.638C21.599,276.006,39.507,300.581,39.507,300.581z"/>
	<path style="fill:#251626;" d="M42.941,303.024c-0.222,0-0.446-0.069-0.639-0.212c-10.761-8.003-24.935-25.447-21.181-37.473   c0.747-2.394,2.182-3.92,4.266-4.536c4.634-1.367,11.558,2.402,16.218,5.518c-5.411-8.48-15.153-25.324-13.022-33.632   c0.477-1.858,1.64-3.305,3.456-4.302c6.581-3.611,20.65-0.32,26.896,1.427c-4.633-6.538-15.939-23.651-13.612-31.895   c0.41-1.454,1.368-2.553,2.847-3.264c6.493-3.124,22.68,2.295,30.236,5.148c-7.43-9.031-25.609-32.637-20.334-41.38   c0.9-1.492,2.325-2.468,4.234-2.903c8.155-1.853,24.152,6.946,31.387,11.3c-4.854-8.725-15.643-30.342-10.584-42.017   c0.948-2.187,2.636-3.651,5.016-4.349c8.784-2.575,25.639,6.181,35.216,11.837c-7.298-8.381-18.274-23.558-12.557-33.694   c1.217-2.159,3.167-3.57,5.796-4.197c11.185-2.668,32.466,9.82,39.802,14.43c-1.656-5.678-4.811-18.948-3.147-33.186   c0.343-2.931,1.943-4.154,3.226-4.664c5.231-2.078,16.43,2.965,34.223,15.431c7.642,5.354,14.837,10.953,19.447,14.638   c-4.434-7.674-10.855-21.593-6.408-31.904c0.757-1.757,2.124-2.868,3.953-3.216c9.877-1.888,34.294,19.949,45.321,30.416   c-4.645-8.833-10.909-23.837-3.302-29.204c14.996-10.579,40.197,15.871,51.052,28.68c-3.332-8.311-7.282-21.241-2.547-27.105   c2.556-3.167,7.173-3.892,13.725-2.153c16.53,4.388,36.823,20.8,60.313,48.78c17.433,20.766,30.22,40.514,30.347,40.711   c0.321,0.498,0.177,1.162-0.321,1.482c-0.501,0.32-1.163,0.178-1.482-0.32c-0.505-0.783-50.927-78.366-89.409-88.58   c-5.653-1.5-9.528-1.022-11.504,1.426c-5.187,6.421,2.692,25.513,6.165,32.327c0.252,0.494,0.085,1.101-0.385,1.395   c-0.474,0.294-1.091,0.181-1.425-0.26c-0.357-0.471-35.885-46.925-53.294-34.631c-7.598,5.362,2.999,25.632,7.724,32.99   c0.296,0.461,0.196,1.072-0.232,1.415c-0.427,0.346-1.047,0.311-1.432-0.08c-10.345-10.405-39.304-36.99-48.914-35.184   c-1.145,0.218-1.902,0.839-2.384,1.957c-5.84,13.545,9.608,35.22,9.765,35.438c0.316,0.439,0.256,1.044-0.14,1.413   c-0.398,0.368-1.004,0.384-1.42,0.037c-12.698-10.648-47.646-37.493-56.643-33.908c-0.697,0.277-1.65,0.88-1.888,2.92   c-2.103,17.998,3.889,34.922,3.951,35.091c0.156,0.436,0.016,0.924-0.35,1.209c-0.365,0.284-0.874,0.303-1.257,0.046   c-0.28-0.188-28.161-18.722-40.633-15.751c-2.052,0.488-3.5,1.523-4.424,3.163c-7.273,12.895,17.645,36.924,17.897,37.165   c0.403,0.386,0.444,1.014,0.095,1.448c-0.349,0.434-0.973,0.528-1.434,0.219c-0.288-0.194-29-19.342-40.483-15.97   c-1.764,0.518-2.958,1.546-3.65,3.143c-5.861,13.525,12.435,43.493,12.621,43.795c0.264,0.427,0.195,0.982-0.166,1.332   c-0.362,0.352-0.916,0.402-1.337,0.128c-0.236-0.155-23.779-15.485-33.416-13.297c-1.337,0.305-2.276,0.932-2.872,1.919   c-4.579,7.588,14.951,32.983,22.861,42.128c0.327,0.377,0.35,0.929,0.058,1.333c-0.294,0.403-0.828,0.547-1.285,0.358   c-6.896-2.905-26.165-9.778-32.443-6.762c-0.914,0.44-1.474,1.066-1.713,1.914c-2.128,7.534,10.207,26.089,15.139,32.602   c0.284,0.374,0.291,0.888,0.019,1.27c-0.272,0.383-0.766,0.547-1.207,0.397c-0.205-0.067-20.663-6.675-28.269-2.502   c-1.294,0.709-2.082,1.675-2.41,2.952c-2.613,10.188,15.89,36.686,16.078,36.953c0.309,0.44,0.244,1.041-0.151,1.406   c-0.394,0.361-1,0.38-1.412,0.037c-3.564-2.958-13.953-10.303-19.182-8.756c-1.373,0.406-2.298,1.427-2.825,3.118   c-3.296,10.555,9.738,27.174,20.413,35.112c0.476,0.354,0.574,1.026,0.221,1.501C43.593,302.874,43.269,303.024,42.941,303.024z"/>
	<path style="fill:#FAD9C9;" d="M329.344,335.152c0,0,17.288,59.687,24.387,77.319c7.1,17.632-35.089,6.903-56.477-24.161   C275.867,357.246,311.944,303.208,329.344,335.152z"/>
	<path style="fill:#FAD9C9;" d="M131.668,350.461c0,0-15.005,60.301-17.714,79.115s-33.813-11.641-36.721-49.244   S132.651,314.098,131.668,350.461z"/>
	<path style="fill:#FAD9C9;" d="M410.54,298.527c0,0,17.288,59.687,24.387,77.319c7.1,17.632-35.089,6.903-56.477-24.161   C357.062,320.62,393.139,266.582,410.54,298.527z"/>
	<path style="fill:#FAD9C9;" d="M419.562,296.964c0,0-155.185,126.097-296.806,82.899c-69.725-21.268-83.249-79.282-83.249-79.282   s140.683,53.503,269.282,4.046c84.873-32.64,49.482-77.035,49.482-77.035L419.562,296.964z"/>
	<path style="fill:#251626;" d="M89.817,288.914c-0.291,0-0.581-0.118-0.793-0.351c-0.866-0.952-21.192-23.434-19.264-33.877   c0.37-2.005,1.483-3.489,3.309-4.409c8.689-4.383,20.26,0.369,26.367,3.578c-5.546-8.383-17.303-27.768-13.451-36.123   c1.11-2.407,3.326-3.767,6.585-4.042c12.998-1.119,27.787,5.587,36.22,10.181c-7.942-8.648-21.421-24.906-19.421-33.684   c0.576-2.528,2.303-4.297,5.133-5.261c13.28-4.528,29.098,3.381,36.627,7.948c-4.963-7.912-14.331-24.611-11.528-33.946   c0.828-2.756,2.627-4.7,5.349-5.778c12.837-5.089,31.772,9.583,39.707,16.507c-4.011-9.82-12.342-32.601-7.336-41.495   c1.23-2.185,3.151-3.452,5.711-3.764c13.796-1.689,34.186,16.51,41.71,23.777c-1.724-6.775-4.446-20.316-0.2-25.309   c1.382-1.626,3.326-2.274,5.76-1.933c11.281,1.583,32.671,17.615,39.502,22.927c-0.855-6.731-2.337-24.136,4.008-31.077   c2.009-2.199,4.625-3.189,7.739-2.946c13.05,1.015,30.513,18.278,37.97,26.299c-2.94-8.973-7.803-26.622-2.74-32.281   c1.568-1.75,3.857-2.258,6.811-1.513c16.809,4.248,34.745,27.157,35.501,28.131c0.364,0.468,0.279,1.142-0.19,1.505   c-0.469,0.365-1.144,0.278-1.505-0.19c-0.18-0.233-18.24-23.3-34.331-27.366c-2.147-0.544-3.68-0.261-4.686,0.863   c-4.777,5.339,1.93,27.197,4.918,35.169c0.182,0.487-0.012,1.036-0.46,1.3c-0.453,0.267-1.025,0.167-1.361-0.228   c-0.242-0.283-24.306-28.323-40.091-29.551c-2.467-0.184-4.426,0.546-5.989,2.253c-7.076,7.738-3.131,31.714-3.09,31.956   c0.073,0.439-0.131,0.878-0.515,1.103c-0.384,0.229-0.867,0.191-1.215-0.089c-0.278-0.224-27.901-22.363-40.571-24.142   c-1.69-0.233-2.94,0.154-3.828,1.198c-4.048,4.759-0.139,21.267,1.709,27.225c0.148,0.475-0.051,0.989-0.48,1.241   c-0.43,0.252-0.974,0.177-1.319-0.181c-0.267-0.28-26.991-27.914-42.794-26.013c-1.871,0.228-3.212,1.107-4.1,2.686   c-5.799,10.303,9.218,43.796,9.37,44.132c0.213,0.47,0.06,1.026-0.362,1.321c-0.424,0.295-0.996,0.249-1.366-0.112   c-0.259-0.254-26.121-25.341-41.092-19.41c-2.11,0.836-3.446,2.274-4.084,4.4c-3.388,11.281,13.913,36.203,14.088,36.454   c0.301,0.431,0.246,1.015-0.13,1.382c-0.375,0.369-0.961,0.408-1.385,0.097c-0.221-0.163-22.336-16.21-39.036-10.522   c-2.107,0.718-3.327,1.931-3.733,3.708c-2.064,9.057,16.857,30.068,24.321,37.399c0.396,0.389,0.431,1.013,0.081,1.443   c-0.349,0.431-0.966,0.525-1.429,0.215c-0.23-0.155-23.326-15.445-41.685-13.892c-2.467,0.208-4.043,1.125-4.817,2.803   c-3.618,7.847,10.282,30.03,15.944,37.915c0.302,0.42,0.26,0.997-0.1,1.37c-0.359,0.372-0.936,0.437-1.366,0.149   c-0.174-0.115-17.397-11.417-28.377-5.873c-1.212,0.612-1.92,1.555-2.165,2.883c-1.442,7.804,13.039,25.778,18.74,32.044   c0.399,0.438,0.367,1.117-0.071,1.515C90.333,288.822,90.074,288.914,89.817,288.914z"/>
	<path style="fill:#251626;" d="M426.213,383.854c-0.494,0-0.939-0.343-1.048-0.845c-1.173-5.418-10.079-8.185-10.169-8.212   c-0.567-0.173-0.886-0.772-0.714-1.339c0.174-0.566,0.774-0.887,1.339-0.714c0.416,0.127,10.204,3.174,11.642,9.811   c0.126,0.579-0.242,1.15-0.821,1.276C426.365,383.847,426.289,383.854,426.213,383.854z"/>
	<path style="fill:#251626;" d="M431.667,380.145c-0.494,0-0.939-0.343-1.048-0.845c-1.171-5.405-10.081-8.184-10.17-8.211   c-0.567-0.174-0.886-0.773-0.713-1.339c0.172-0.566,0.768-0.887,1.338-0.714c0.416,0.127,10.204,3.173,11.643,9.81   c0.126,0.579-0.242,1.15-0.821,1.276C431.819,380.137,431.742,380.145,431.667,380.145z"/>
	<path style="fill:#251626;" d="M434.563,376.651c-0.526,0-0.985-0.386-1.061-0.921c-0.784-5.474-9.471-8.883-9.559-8.916   c-0.552-0.214-0.828-0.834-0.615-1.387c0.212-0.551,0.832-0.83,1.385-0.616c0.405,0.156,9.951,3.893,10.914,10.615   c0.084,0.587-0.324,1.13-0.91,1.214C434.664,376.648,434.613,376.651,434.563,376.651z"/>
	<path style="fill:#251626;" d="M346.177,420.119c-0.494,0-0.939-0.343-1.048-0.845c-1.171-5.405-10.08-8.185-10.17-8.213   c-0.566-0.173-0.885-0.772-0.712-1.339c0.172-0.566,0.769-0.882,1.338-0.713c0.416,0.127,10.203,3.174,11.642,9.811   c0.126,0.579-0.242,1.15-0.821,1.276C346.329,420.111,346.253,420.119,346.177,420.119z"/>
	<path style="fill:#251626;" d="M351.63,416.409c-0.494,0-0.939-0.343-1.048-0.845c-1.171-5.405-10.08-8.184-10.169-8.211   c-0.567-0.174-0.886-0.773-0.713-1.339c0.172-0.567,0.77-0.883,1.338-0.714c0.416,0.127,10.204,3.173,11.642,9.81   c0.126,0.579-0.242,1.15-0.821,1.276C351.782,416.402,351.706,416.409,351.63,416.409z"/>
	<path style="fill:#251626;" d="M354.526,412.915c-0.526,0-0.985-0.386-1.061-0.921c-0.783-5.475-9.47-8.883-9.558-8.916   c-0.552-0.214-0.828-0.834-0.615-1.387c0.211-0.552,0.831-0.827,1.385-0.616c0.405,0.156,9.951,3.893,10.913,10.616   c0.084,0.587-0.324,1.13-0.91,1.214C354.628,412.912,354.576,412.915,354.526,412.915z"/>
	<path style="fill:#251626;" d="M100.954,427.975c-0.123,0-0.246-0.021-0.368-0.065c-0.556-0.203-0.843-0.819-0.64-1.376   c1.9-5.209-4.151-12.303-4.212-12.374c-0.388-0.448-0.337-1.125,0.111-1.513c0.445-0.386,1.126-0.338,1.513,0.111   c0.284,0.329,6.932,8.132,4.604,14.512C101.802,427.704,101.392,427.975,100.954,427.975z"/>
	<path style="fill:#251626;" d="M107.544,427.752c-0.123,0-0.246-0.021-0.368-0.065c-0.556-0.203-0.843-0.819-0.64-1.376   c1.896-5.196-4.151-12.304-4.212-12.375c-0.386-0.449-0.336-1.126,0.113-1.513c0.445-0.388,1.125-0.34,1.512,0.111   c0.284,0.329,6.932,8.133,4.603,14.513C108.393,427.481,107.982,427.752,107.544,427.752z"/>
	<path style="fill:#251626;" d="M111.857,426.344c-0.147,0-0.295-0.03-0.438-0.094c-0.541-0.242-0.783-0.877-0.54-1.417   c2.267-5.06-3.262-12.567-3.319-12.643c-0.354-0.475-0.257-1.147,0.219-1.501c0.474-0.355,1.146-0.257,1.501,0.219   c0.26,0.348,6.334,8.605,3.556,14.803C112.659,426.108,112.268,426.344,111.857,426.344z"/>
	<path style="fill:#251626;" d="M2.553,375.723c-0.452,0-0.872-0.287-1.019-0.74c-0.184-0.563,0.123-1.169,0.686-1.352   c5.257-1.719,7.11-10.866,7.128-10.958c0.113-0.58,0.669-0.967,1.259-0.846c0.58,0.114,0.96,0.677,0.846,1.258   c-0.083,0.426-2.112,10.475-8.567,12.585C2.777,375.706,2.663,375.723,2.553,375.723z"/>
	<path style="fill:#251626;" d="M6.801,380.768c-0.452,0-0.872-0.287-1.019-0.74c-0.184-0.563,0.123-1.168,0.686-1.352   c5.27-1.723,7.11-10.865,7.128-10.957c0.113-0.582,0.673-0.962,1.258-0.848c0.581,0.113,0.961,0.677,0.848,1.258   c-0.083,0.426-2.113,10.475-8.567,12.585C7.025,380.751,6.911,380.768,6.801,380.768z"/>
	<path style="fill:#251626;" d="M10.572,383.291c-0.481,0-0.918-0.326-1.04-0.813c-0.142-0.575,0.206-1.158,0.782-1.301   c5.38-1.342,7.868-10.329,7.892-10.42c0.155-0.573,0.749-0.919,1.316-0.755c0.572,0.154,0.91,0.743,0.756,1.315   c-0.114,0.42-2.856,10.298-9.444,11.943C10.746,383.28,10.658,383.291,10.572,383.291z"/>
	<path style="fill:#251626;" d="M321.818,359.286c-0.427,0-0.832-0.257-0.998-0.679c-0.217-0.551,0.053-1.174,0.604-1.392   c0.402-0.158,40.359-16.064,53.306-33.395c0.355-0.474,1.027-0.572,1.501-0.217c0.475,0.354,0.572,1.027,0.217,1.501   c-13.311,17.819-52.571,33.45-54.236,34.107C322.082,359.262,321.949,359.286,321.818,359.286z"/>
	<path style="fill:#251626;" d="M96.546,366.885c-0.079,0-0.158-0.008-0.238-0.026c-25.616-5.787-42.375-46.725-43.076-48.464   c-0.221-0.55,0.045-1.174,0.594-1.396c0.55-0.217,1.174,0.044,1.396,0.594c0.168,0.416,17.039,41.634,41.559,47.173   c0.577,0.131,0.94,0.705,0.81,1.283C97.479,366.547,97.037,366.885,96.546,366.885z"/>
	<path style="fill:#251626;" d="M145.599,286.61c-0.34,0-0.676-0.161-0.884-0.463c-0.653-0.946-15.946-23.26-13-32.899   c0.588-1.926,1.826-3.27,3.679-3.995c8.986-3.522,20.727,8.05,26.454,14.602c-2.961-10.443-8.634-33.568-2.947-40.2   c1.39-1.62,3.302-2.245,5.674-1.869c12.126,1.934,23.543,12.125,28.426,17.022c-1.459-8.979-4.597-32.262,0.912-38.379   c1.095-1.215,2.521-1.789,4.11-1.655c8.807,0.729,19.039,16.467,24.021,25.107c-1.538-10.674-3.695-31.888,2.247-38.337   c1.434-1.556,3.24-2.227,5.353-2.015c11.593,1.204,26.214,18.727,32.044,26.32c-1.286-9.87-3.562-33.834,3.769-39.255   c2.126-1.569,4.789-1.581,7.922-0.026c18.149,9.002,28.528,34.493,28.961,35.573c0.22,0.55-0.047,1.174-0.597,1.394   c-0.548,0.218-1.173-0.046-1.395-0.596c-0.103-0.257-10.513-25.814-27.922-34.45c-2.385-1.183-4.246-1.237-5.693-0.171   c-6.681,4.942-3.939,31.563-2.319,41.404c0.082,0.493-0.189,0.977-0.652,1.167c-0.462,0.185-0.994,0.035-1.283-0.375   c-0.193-0.274-19.508-27.444-33.058-28.85c-1.42-0.146-2.591,0.289-3.553,1.334c-5.939,6.444-2.527,33.002-0.711,42.69   c0.098,0.525-0.204,1.042-0.709,1.214c-0.51,0.173-1.06-0.056-1.302-0.532c-0.145-0.285-14.578-28.571-25.3-29.458   c-0.946-0.079-1.681,0.224-2.338,0.952c-4.994,5.545-1.542,30.797,0.21,40.06c0.09,0.475-0.149,0.951-0.585,1.163   c-0.435,0.21-0.958,0.106-1.276-0.257c-0.145-0.166-14.652-16.538-29.619-18.925c-1.612-0.262-2.826,0.117-3.708,1.147   c-5.386,6.28,1.709,33.375,4.898,43.284c0.16,0.499-0.063,1.041-0.528,1.281c-0.469,0.242-1.038,0.109-1.351-0.308   c-0.168-0.223-16.817-22.19-27.373-18.059c-1.228,0.482-2.017,1.34-2.41,2.624c-2.195,7.181,8.434,24.852,12.715,31.053   c0.336,0.488,0.214,1.156-0.273,1.493C146.021,286.548,145.808,286.61,145.599,286.61z"/>
	<path style="fill:#251626;" d="M168.495,315.821c-0.475,0-0.908-0.317-1.036-0.797c-0.239-0.901-5.788-22.145,0.178-30.129   c0.903-1.209,2.166-1.867,3.754-1.957c7.033-0.389,19.316,11.237,23.918,15.846c0.359-9.03,2.133-36.246,10.492-38.796   c4.356-1.334,9.702,4.17,16.347,16.816c2.396,4.559,4.517,9.238,6.027,12.744c-0.264-11.074,0.465-33.302,10.325-36.436   c5.544-1.766,13.536,3.684,23.747,16.197c4.46,5.464,8.403,11.148,10.853,14.835c-1.098-9.405-2.567-29.821,4.289-36.39   c1.986-1.904,4.494-2.559,7.448-1.952c17.54,3.616,29.712,34.081,30.222,35.376c0.217,0.551-0.054,1.174-0.606,1.391   c-0.551,0.214-1.174-0.054-1.391-0.606c-0.12-0.306-12.253-30.677-28.659-34.06c-2.25-0.463-4.063-0.007-5.529,1.399   c-8.016,7.68-3.059,38.973-3.008,39.289c0.082,0.506-0.205,0.998-0.685,1.178c-0.478,0.18-1.018-0.006-1.288-0.443   c-6.476-10.518-25.365-37.153-34.744-34.169c-9.397,2.987-9.355,30.183-8.545,40.41c0.042,0.531-0.312,1.013-0.832,1.13   c-0.523,0.122-1.048-0.163-1.238-0.659c-5.438-14.091-16.24-35.766-22.107-33.999c-6.771,2.066-8.831,29.087-9.053,39.323   c-0.009,0.436-0.282,0.822-0.688,0.978c-0.406,0.158-0.866,0.049-1.166-0.266c-4.563-4.847-17.85-17.42-24.007-16.994   c-0.951,0.053-1.636,0.403-2.157,1.099c-5.351,7.163,0.122,28.083,0.178,28.294c0.152,0.573-0.19,1.16-0.762,1.313   C168.679,315.81,168.586,315.821,168.495,315.821z"/>
	<path style="fill:#251626;" d="M417.586,343.816c-0.102,0-0.205-0.015-0.308-0.045c-3.469-1.04-5.31-8.015-5.508-8.807   c-0.145-0.574,0.204-1.157,0.779-1.301c0.568-0.138,1.157,0.203,1.301,0.779c0.685,2.722,2.393,6.779,4.044,7.274   c0.568,0.171,0.889,0.768,0.72,1.336C418.474,343.516,418.048,343.816,417.586,343.816z"/>
	<path style="fill:#251626;" d="M415.199,351.856c-0.102,0-0.205-0.015-0.308-0.045c-3.47-1.04-5.31-8.015-5.508-8.807   c-0.145-0.575,0.204-1.157,0.779-1.301c0.566-0.142,1.157,0.204,1.301,0.779c0.685,2.722,2.392,6.779,4.044,7.274   c0.568,0.17,0.889,0.768,0.72,1.336C416.087,351.556,415.661,351.856,415.199,351.856z"/>
	<path style="fill:#251626;" d="M408.57,337.617c-0.102,0-0.205-0.015-0.308-0.045c-3.469-1.041-5.31-8.015-5.508-8.807   c-0.145-0.574,0.204-1.157,0.779-1.301c0.571-0.14,1.157,0.204,1.301,0.779c0.685,2.722,2.393,6.778,4.044,7.274   c0.568,0.171,0.889,0.769,0.72,1.336C409.459,337.317,409.032,337.617,408.57,337.617z"/>
	<path style="fill:#251626;" d="M415.199,329.555c-0.102,0-0.205-0.015-0.308-0.045c-3.47-1.041-5.31-8.015-5.508-8.807   c-0.145-0.575,0.204-1.157,0.779-1.301c0.566-0.144,1.157,0.204,1.301,0.779c0.685,2.722,2.392,6.778,4.044,7.274   c0.568,0.171,0.889,0.769,0.72,1.336C416.087,329.256,415.661,329.555,415.199,329.555z"/>
	<path style="fill:#251626;" d="M336.391,386.479c-0.102,0-0.205-0.015-0.308-0.045c-3.469-1.04-5.31-8.015-5.508-8.807   c-0.145-0.574,0.204-1.157,0.779-1.301c0.567-0.145,1.158,0.204,1.301,0.779c0.685,2.722,2.393,6.779,4.044,7.274   c0.568,0.171,0.889,0.768,0.72,1.336C337.279,386.179,336.853,386.479,336.391,386.479z"/>
	<path style="fill:#251626;" d="M334.002,394.519c-0.102,0-0.205-0.015-0.308-0.045c-3.469-1.04-5.309-8.015-5.507-8.807   c-0.145-0.575,0.204-1.157,0.779-1.301c0.571-0.141,1.157,0.204,1.301,0.779c0.685,2.722,2.392,6.779,4.043,7.274   c0.568,0.171,0.889,0.768,0.72,1.336C334.89,394.22,334.464,394.519,334.002,394.519z"/>
	<path style="fill:#251626;" d="M327.375,380.28c-0.102,0-0.205-0.015-0.308-0.045c-3.469-1.04-5.31-8.015-5.508-8.807   c-0.145-0.574,0.204-1.157,0.779-1.301c0.569-0.139,1.157,0.205,1.301,0.779c0.685,2.722,2.393,6.779,4.044,7.274   c0.568,0.171,0.889,0.768,0.72,1.336C328.263,379.98,327.837,380.28,327.375,380.28z"/>
	<path style="fill:#251626;" d="M232.524,375.887c-0.959,0-1.672-0.049-1.897-0.067c-0.591-0.047-1.031-0.564-0.985-1.154   c0.047-0.591,0.547-1.029,1.154-0.985c2.796,0.224,7.187-0.103,8.183-1.512c0.343-0.483,1.011-0.598,1.496-0.256   c0.483,0.343,0.598,1.012,0.256,1.496C239.217,375.548,235.032,375.887,232.524,375.887z"/>
	<path style="fill:#251626;" d="M241.819,367.9c-0.96,0-1.673-0.049-1.898-0.067c-0.591-0.047-1.031-0.564-0.985-1.154   c0.047-0.59,0.55-1.024,1.154-0.985c2.798,0.219,7.187-0.103,8.183-1.511c0.344-0.485,1.013-0.596,1.496-0.256   c0.483,0.343,0.598,1.012,0.256,1.496C248.511,367.561,244.327,367.9,241.819,367.9z"/>
	<path style="fill:#251626;" d="M253.426,370.223c-0.96,0-1.673-0.049-1.898-0.067c-0.591-0.047-1.031-0.564-0.985-1.154   c0.048-0.59,0.55-1.016,1.154-0.985c2.793,0.218,7.188-0.104,8.184-1.512c0.344-0.483,1.012-0.598,1.496-0.256   c0.483,0.343,0.598,1.012,0.256,1.496C260.119,369.883,255.934,370.223,253.426,370.223z"/>
	<path style="fill:#251626;" d="M213.832,379.454c-0.959,0-1.672-0.049-1.897-0.067c-0.591-0.047-1.031-0.564-0.985-1.154   c0.048-0.59,0.556-1.036,1.154-0.985c2.795,0.224,7.189-0.103,8.184-1.512c0.344-0.485,1.013-0.596,1.496-0.256   c0.483,0.343,0.597,1.012,0.256,1.496C220.525,379.115,216.34,379.454,213.832,379.454z"/>
	<path style="fill:#251626;" d="M201.658,373.256c-0.959,0-1.672-0.049-1.897-0.067c-0.591-0.047-1.031-0.564-0.985-1.154   c0.047-0.591,0.564-1.029,1.154-0.985c2.796,0.226,7.188-0.104,8.184-1.512c0.344-0.483,1.013-0.598,1.496-0.256   c0.483,0.343,0.597,1.012,0.256,1.496C208.351,372.916,204.166,373.256,201.658,373.256z"/>
	<path style="fill:#251626;" d="M197.086,381.296c-0.959,0-1.672-0.049-1.897-0.067c-0.591-0.047-1.031-0.564-0.985-1.154   c0.047-0.59,0.562-1.022,1.154-0.985c2.793,0.226,7.188-0.104,8.183-1.512c0.344-0.483,1.012-0.599,1.496-0.256   c0.483,0.343,0.598,1.012,0.256,1.496C203.779,380.957,199.594,381.296,197.086,381.296z"/>
	<path style="fill:#251626;" d="M182.797,377.667c-0.959,0-1.672-0.049-1.897-0.067c-0.591-0.047-1.031-0.564-0.985-1.154   c0.047-0.59,0.548-1.017,1.154-0.985c2.795,0.225,7.187-0.104,8.183-1.512c0.344-0.483,1.01-0.599,1.496-0.256   c0.483,0.343,0.598,1.012,0.256,1.496C189.49,377.328,185.305,377.667,182.797,377.667z"/>
	<path style="fill:#251626;" d="M219.925,369.214c-0.959,0-1.672-0.049-1.897-0.067c-0.591-0.047-1.031-0.564-0.985-1.154   c0.047-0.59,0.547-1.021,1.154-0.985c2.797,0.225,7.187-0.104,8.183-1.512c0.343-0.482,1.011-0.598,1.496-0.256   c0.483,0.343,0.598,1.012,0.256,1.496C226.618,368.875,222.433,369.214,219.925,369.214z"/>
	<path style="fill:#251626;" d="M334.002,372.219c-0.102,0-0.205-0.015-0.308-0.045c-3.469-1.041-5.309-8.015-5.507-8.807   c-0.145-0.575,0.204-1.157,0.779-1.301c0.571-0.142,1.157,0.204,1.301,0.779c0.685,2.722,2.392,6.778,4.043,7.274   c0.568,0.171,0.889,0.769,0.72,1.336C334.89,371.919,334.464,372.219,334.002,372.219z"/>
	<path style="fill:#251626;" d="M113.903,396.229c-0.261,0-0.522-0.094-0.728-0.285c-2.66-2.457-1.254-9.532-1.085-10.331   c0.122-0.579,0.688-0.947,1.272-0.828c0.579,0.123,0.95,0.691,0.828,1.272c-0.579,2.746-0.824,7.141,0.442,8.311   c0.435,0.401,0.462,1.08,0.06,1.516C114.48,396.113,114.191,396.229,113.903,396.229z"/>
	<path style="fill:#251626;" d="M108.229,402.407c-0.261,0-0.522-0.094-0.728-0.285c-2.66-2.458-1.254-9.532-1.085-10.331   c0.124-0.579,0.688-0.953,1.272-0.828c0.579,0.123,0.95,0.691,0.828,1.272c-0.579,2.746-0.824,7.141,0.442,8.311   c0.435,0.402,0.462,1.081,0.06,1.516C108.806,402.29,108.518,402.407,108.229,402.407z"/>
	<path style="fill:#251626;" d="M108.522,386.703c-0.261,0-0.522-0.094-0.728-0.285c-2.66-2.457-1.254-9.532-1.085-10.331   c0.122-0.579,0.688-0.947,1.272-0.828c0.579,0.123,0.95,0.691,0.828,1.272c-0.579,2.746-0.824,7.141,0.442,8.311   c0.435,0.401,0.462,1.08,0.06,1.516C109.098,386.587,108.81,386.703,108.522,386.703z"/>
	<path style="fill:#251626;" d="M118.014,382.367c-0.261,0-0.522-0.094-0.728-0.285c-2.66-2.457-1.253-9.532-1.084-10.331   c0.122-0.58,0.688-0.95,1.272-0.828c0.579,0.123,0.95,0.692,0.828,1.272c-0.579,2.747-0.826,7.141,0.441,8.311   c0.435,0.401,0.462,1.08,0.06,1.516C118.59,382.251,118.302,382.367,118.014,382.367z"/>
	<path style="fill:#251626;" d="M35.775,353.838c-0.459,0-0.882-0.295-1.025-0.755c-1.071-3.46,3.694-8.876,4.241-9.483   c0.396-0.438,1.077-0.473,1.514-0.079c0.44,0.397,0.476,1.075,0.08,1.516c-1.878,2.086-4.294,5.764-3.785,7.411   c0.175,0.567-0.141,1.167-0.707,1.342C35.987,353.822,35.88,353.838,35.775,353.838z"/>
	<path style="fill:#251626;" d="M27.768,356.339c-0.459,0-0.883-0.295-1.025-0.756c-1.07-3.459,3.695-8.876,4.242-9.483   c0.397-0.438,1.073-0.472,1.514-0.079c0.44,0.397,0.476,1.075,0.08,1.515c-1.878,2.087-4.295,5.766-3.786,7.414   c0.175,0.566-0.141,1.166-0.708,1.341C27.98,356.323,27.873,356.339,27.768,356.339z"/>
	<path style="fill:#251626;" d="M35.896,342.898c-0.458,0-0.882-0.295-1.025-0.755c-1.071-3.46,3.694-8.876,4.241-9.483   c0.397-0.438,1.075-0.472,1.514-0.079c0.44,0.397,0.476,1.075,0.08,1.516c-1.878,2.086-4.294,5.764-3.785,7.411   c0.175,0.567-0.141,1.167-0.707,1.342C36.107,342.882,36.001,342.898,35.896,342.898z"/>
	<path style="fill:#251626;" d="M46.283,343.906c-0.458,0-0.882-0.295-1.025-0.755c-1.071-3.46,3.695-8.876,4.242-9.483   c0.396-0.438,1.077-0.475,1.514-0.078c0.44,0.396,0.476,1.075,0.08,1.515c-1.879,2.086-4.295,5.764-3.786,7.411   c0.175,0.567-0.141,1.167-0.707,1.342C46.495,343.89,46.388,343.906,46.283,343.906z"/>
	<path style="fill:#FAD9C9;" d="M335.272,280.703c0,0-44.601-46.791-12.775-70.032c40.214-29.366,62.825,4.537,62.825,4.537   s-30.887-65.751,16.863-58.102c47.75,7.649,47.551,105.297,84.987,100.241C524.608,252.29,400.51,349.124,335.272,280.703z"/>
	<path style="fill:#251326;" d="M469.831,255.348c0,0-4.097,21.708,6.393,23.999c10.49,2.291,31.366-20.376,20.936-21.746   C486.729,256.23,470.574,248.358,469.831,255.348z"/>
	<path style="fill:#251626;" d="M397.097,249.424c-8.69,0-21.275-15.201-21.832-15.88c-0.376-0.458-0.31-1.134,0.148-1.51   c0.46-0.377,1.135-0.309,1.51,0.148c3.77,4.59,14.908,16.221,21.059,15.014c0.866-0.172,1.137-0.601,1.274-0.955   c1.376-3.535-5.255-14.579-9.756-20.709c-0.351-0.478-0.248-1.149,0.229-1.499c0.475-0.353,1.149-0.247,1.499,0.229   c1.263,1.72,12.278,16.97,10.028,22.756c-0.474,1.216-1.461,2.006-2.857,2.282C397.976,249.385,397.541,249.424,397.097,249.424z"/>
	<path style="fill:#251626;" d="M435.184,222.053c-8.69,0-21.275-15.201-21.832-15.88c-0.376-0.458-0.31-1.134,0.148-1.51   c0.46-0.379,1.135-0.307,1.51,0.148c3.769,4.59,14.9,16.225,21.059,15.014c0.634-0.126,0.836-0.44,0.95-0.731   c1.523-3.88-7.261-18.237-13.156-26.374c-0.348-0.48-0.241-1.15,0.239-1.498c0.48-0.35,1.151-0.24,1.498,0.239   c1.631,2.251,15.866,22.178,13.416,28.418c-0.432,1.099-1.306,1.808-2.53,2.05C436.063,222.014,435.628,222.053,435.184,222.053z"/>
	<path style="fill:#251626;" d="M439.824,287.493c-5.032,0.001-8.46-1.352-10.231-4.049c-4.804-7.317,4.833-21.511,5.245-22.112   c0.335-0.488,1.004-0.612,1.492-0.277s0.612,1.003,0.277,1.492c-2.582,3.763-8.555,14.644-5.219,19.72   c2.082,3.168,7.533,3.913,16.207,2.217c0.589-0.119,1.145,0.265,1.259,0.846c0.114,0.581-0.265,1.145-0.846,1.259   C444.927,287.192,442.197,287.493,439.824,287.493z"/>
	<circle style="fill:#EF93A3;" cx="388.298" cy="264.698" r="12.205"/>
	<path style="fill:#251626;" d="M301.345,207.611c-0.563,0-1.035-0.438-1.07-1.008c-0.094-1.543-2.217-37.883,4.824-45.512   c0.912-0.987,2.144-1.455,3.551-1.346c7.362,0.564,20.178,17.35,25.903,25.371c-1.393-9.268-3.665-29.392,1.657-35.84   c1.204-1.458,2.721-2.202,4.509-2.21c0.012,0,0.023,0,0.034,0c12.826,0,20.904,35.064,21.242,36.558   c0.131,0.578-0.232,1.152-0.81,1.283c-0.58,0.13-1.151-0.233-1.283-0.81c-2.197-9.709-9.918-34.886-19.148-34.886   c-0.008,0-0.016,0-0.024,0c-1.138,0.005-2.075,0.474-2.865,1.431c-5.157,6.249-2.052,30.122-0.421,38.794   c0.094,0.5-0.176,0.997-0.646,1.19c-0.469,0.197-1.012,0.03-1.297-0.393c-5.189-7.707-20.157-27.825-27.015-28.35   c-0.751-0.061-1.339,0.152-1.811,0.663c-5.331,5.777-4.882,33.666-4.259,43.925c0.036,0.591-0.414,1.1-1.006,1.136   C301.389,207.61,301.367,207.611,301.345,207.611z"/>
</g>















</svg>
