<?xml version="1.0" encoding="UTF-8"?>
<!-- Generator: Adobe Illustrator 25.1.0, SVG Export Plug-In . SVG Version: 6.00 Build 0)  -->
<svg xmlns="http://www.w3.org/2000/svg" xmlns:xlink="http://www.w3.org/1999/xlink" version="1.1" id="Capa_1" x="0px" y="0px" viewBox="0 0 500 500" style="enable-background:new 0 0 500 500;" xml:space="preserve" width="512" height="512">
<g>
	<path style="fill:#251326;" d="M308.882,439.389c0,0,64.511,55.071,149.88,18.417c0,0,19.926-33.408,15.023-34.045   c-4.903-0.637-23.987,17.596-23.987,17.596s-5.791-63.233-33.747-81.734C388.095,341.121,284.075,404.102,308.882,439.389z"/>
	<path style="fill:#F3DAC0;" d="M31.149,453.606c0,0-53.906-273.347,169.551-322.678c182.36-40.258,292.184,282.691,150.957,325.995   C228.667,494.636,40.967,502.134,31.149,453.606z"/>
	<path style="fill:#251326;" d="M32.536,308.733c0,0,79.133,48.034,137.342,33.956c58.209-14.078,80.304-94.45,80.304-94.45   l-7.937-15.614c0,0-115.676,6.965-133.593-59.199C108.651,173.426,21.277,204.057,32.536,308.733z"/>
	<polygon style="fill:#419390;" points="240.395,200.447 280.559,311.12 315.114,293.058 271.99,186.969  "/>
	<path style="fill:#251326;" d="M35.702,469.445c0,0,64.783,54.75,149.969,17.673c0,0,19.76-33.507,14.854-34.119   c-4.907-0.613-23.9,17.714-23.9,17.714s-6.104-63.204-34.152-81.566C114.426,370.785,10.72,434.282,35.702,469.445z"/>
	<path style="fill:#251326;" d="M371.193,203.498c0,0,16.801,30.689-12.6,46.545s-49.952-0.031-49.952-0.031l-12.937-21.014   c0,0,15.915-65.243,19.411-74.491C315.114,154.507,353.509,165.936,371.193,203.498z"/>
	<path style="fill:#FCE1CD;" d="M134.726,71.278c0,0,78.516-39.679,101.119-26.593c0,0,7.185-44.522,16.679-37.726   c9.493,6.796-4.782,42.485-4.782,42.485s79.298,54.024,64.632,91.847c-14.667,37.823-113.407,75.537-158.613,67.387   S134.726,84.254,134.726,84.254S90.55,81.472,96.498,63.54S134.726,71.278,134.726,71.278z"/>
	<path style="fill:#251326;" d="M200.431,143.034l41.349-17.197C241.78,125.837,241.78,196.747,200.431,143.034z"/>
	<path style="fill:#251426;" d="M232.702,135.523c-0.418,0-0.823-0.221-1.04-0.614c-1.579-2.867-38.514-70.465-24.468-91.791   c0.361-0.544,1.097-0.696,1.641-0.338c0.548,0.36,0.698,1.095,0.338,1.641c-13.265,20.144,24.186,88.653,24.566,89.343   c0.316,0.573,0.107,1.294-0.467,1.61C233.091,135.476,232.895,135.523,232.702,135.523z"/>
	<path style="fill:#251426;" d="M232.936,184.131c-16.711,0-37.846-24.925-38.626-29.195c-0.118-0.644,0.309-1.262,0.953-1.379   c0.647-0.123,1.262,0.309,1.379,0.953c0.615,3.361,22.443,28.807,37.746,27.174c10.87-1.173,16.113-16.576,15.159-44.546   c-0.023-0.654,0.49-1.203,1.144-1.225c0.64-0.056,1.203,0.49,1.225,1.144c1.018,29.831-4.794,45.638-17.274,46.984   C234.078,184.101,233.51,184.131,232.936,184.131z"/>
	<path style="fill:#251326;" d="M186.914,123.421c0,0-15.466-35.69-33.311-23.397s-15.862,66.572,10.707,54.7   S188.896,136.507,186.914,123.421z"/>
	<path style="fill:#FFFFFF;" d="M168.439,136.284c-3.834,0-11.192-9.862-14.22-14.165c-0.376-0.535-0.248-1.275,0.288-1.651   c0.535-0.381,1.275-0.249,1.651,0.287c5.069,7.204,10.776,13.281,12.253,13.16c1.237-2.981-3.701-13.487-7.112-19.421   c-0.326-0.567-0.131-1.292,0.438-1.618c0.564-0.324,1.29-0.132,1.618,0.438c1.572,2.734,9.311,16.624,7.197,21.496   c-0.37,0.857-1.045,1.378-1.9,1.464C168.583,136.28,168.511,136.284,168.439,136.284z"/>
	<path style="fill:#251326;" d="M141.959,69.885l-9.239,24.539c0,0-36.428,19.082-46.041-10.66S132.695,18.332,141.959,69.885z"/>
	<path style="fill:#251326;" d="M226.928,42.198l23.916,9.442c0,0,29.658-26.17,15.382-43.618   C251.95-9.427,194.371,1.424,226.928,42.198z"/>
	<path style="fill:#251326;" d="M226.928,112.317c0,0-19.484-44.309,11.935-44.811c31.419-0.503,32.914,44.415,16.259,46.397   C238.466,115.886,229.01,117.823,226.928,112.317z"/>
	<path style="fill:#FFFFFF;" d="M244.864,110.221c-0.21,0-0.405-0.027-0.581-0.068c-4.48-1.048-7.691-16.963-8.569-21.815   c-0.116-0.644,0.311-1.261,0.956-1.378c0.638-0.112,1.261,0.313,1.378,0.956c1.673,9.25,4.795,19.465,6.776,19.928   c0.088,0.02,0.329-0.127,0.623-0.524c4.414-5.952,2.182-21.243,2.159-21.397c-0.097-0.647,0.35-1.251,0.997-1.349   c0.661-0.085,1.253,0.351,1.349,0.997c0.1,0.668,2.394,16.427-2.601,23.162C246.483,109.901,245.587,110.221,244.864,110.221z"/>
	<path style="fill:#251426;" d="M213.482,143.64c-0.519,0-0.994-0.343-1.14-0.867c-10.325-37.044-28.768-55.211-42.421-63.929   c-14.783-9.438-27.302-10.152-27.427-10.158c-0.654-0.032-1.158-0.588-1.126-1.241c0.03-0.654,0.571-1.197,1.239-1.128   c0.516,0.024,51.799,3.263,72.019,75.819c0.176,0.631-0.192,1.285-0.823,1.46C213.695,143.627,213.587,143.64,213.482,143.64z"/>
	<path style="fill:#251426;" d="M248.137,250.23c-0.477,0-0.926-0.289-1.107-0.762c-0.234-0.611,0.072-1.297,0.683-1.53   c12.741-4.877,23.632-10.616,23.782-12.536c-1.195-1.485-5.726-0.51-13.428,2.987c-1.374,0.624-1.66,0.754-2.039,0.754   c-0.522,0-1-0.348-1.152-0.847c-0.281-0.92-0.157-1.004,3.006-3.128c6.766-4.545,10.681-7.573,11.666-9.021   c-3.349,0.021-16.154,5.183-18.068,6.237c-0.539,0.294-1.295,0.163-1.636-0.352c-0.617-0.931,0.041-1.449,1.236-2.389   c12.201-9.593,12.248-12.341,11.971-12.956c-2.064-0.501-14.41,8.871-24.582,17.892c-0.486,0.432-1.24,0.389-1.673-0.101   c-0.434-0.49-0.39-1.239,0.101-1.673c5.118-4.54,22.172-19.234,26.814-18.285c0.689,0.148,1.222,0.572,1.503,1.193   c1.094,2.431-1.148,5.966-7.408,11.453c5.144-1.995,11.386-4.037,13.33-3.08c0.552,0.271,0.905,0.74,0.994,1.319   c0.25,1.631-1.604,3.723-7.229,7.786c3.719-1.068,6.906-1.191,8.485,0.838c0.453,0.582,0.589,1.307,0.384,2.041   c-1.285,4.606-19.623,11.943-25.212,14.081C248.422,250.205,248.279,250.23,248.137,250.23z"/>
	<path style="fill:#251426;" d="M288.369,264.619c-0.506,0-0.913-0.19-1.214-0.57c-0.533-0.668-1.579-1.984,7.631-13.652   c-6.809,3.384-14.92,6.808-17.067,5.187c-0.3-0.227-0.968-0.891-0.69-2.152c0.705-3.189,8.52-9.318,13.684-13.069   c-4.677,0.534-10.689,0.785-12.393-1.111c-0.557-0.618-0.732-1.42-0.493-2.257c1.328-4.662,16.525-6.282,21.152-6.668   c0.66-0.064,1.226,0.429,1.279,1.082c0.054,0.652-0.429,1.225-1.082,1.279c-8.735,0.73-18.481,2.895-19.068,4.956   c0.722,1.099,7.806,0.945,15.125-0.325c0.552-0.094,1.093,0.206,1.301,0.724c0.21,0.517,0.03,1.11-0.432,1.425   c-6.443,4.385-15.68,11.572-16.692,14.259c2.34,0.119,11.543-3.873,19.292-8.022c0.498-0.269,1.119-0.144,1.476,0.294   c0.359,0.439,0.358,1.07-0.002,1.506c-4.23,5.122-8.781,11.189-10.39,14.079c6.375-3.472,18.009-12.417,18.132-12.51   c0.52-0.401,1.263-0.303,1.662,0.215c0.399,0.519,0.303,1.263-0.215,1.662c-0.53,0.409-13.054,10.038-19.378,13.204   C289.368,264.464,288.828,264.619,288.369,264.619z"/>
	<path style="fill:#FFFFFF;" d="M116.179,317.836c-7.375,0-10.45-4.838-10.601-5.085c-0.344-0.558-0.169-1.287,0.389-1.63   c0.556-0.344,1.284-0.17,1.628,0.384c0.166,0.259,3.805,5.785,13.168,3.322c0.636-0.163,1.281,0.211,1.448,0.844   s-0.212,1.281-0.844,1.448C119.442,317.625,117.716,317.836,116.179,317.836z"/>
	<path style="fill:#FFFFFF;" d="M133.41,330.013c-7.375,0-10.449-4.838-10.6-5.085c-0.344-0.558-0.169-1.287,0.389-1.63   c0.556-0.343,1.284-0.169,1.628,0.384c0.164,0.258,3.8,5.781,13.168,3.321c0.637-0.167,1.281,0.211,1.448,0.844   c0.167,0.633-0.211,1.281-0.844,1.448C136.673,329.802,134.947,330.013,133.41,330.013z"/>
	<path style="fill:#FFFFFF;" d="M80.221,320.092c-7.375,0-10.449-4.838-10.6-5.085c-0.344-0.558-0.169-1.287,0.389-1.63   c0.557-0.344,1.285-0.168,1.628,0.384c0.166,0.259,3.798,5.785,13.168,3.321c0.636-0.166,1.281,0.212,1.448,0.844   c0.167,0.633-0.211,1.281-0.844,1.448C83.484,319.881,81.758,320.092,80.221,320.092z"/>
	<path style="fill:#FFFFFF;" d="M83.448,304.453c-7.375,0-10.45-4.838-10.601-5.085c-0.344-0.558-0.169-1.287,0.389-1.63   c0.554-0.343,1.281-0.169,1.628,0.384c0.163,0.259,3.805,5.785,13.168,3.322c0.634-0.162,1.281,0.211,1.448,0.844   c0.167,0.633-0.212,1.281-0.844,1.448C86.712,304.242,84.986,304.453,83.448,304.453z"/>
	<path style="fill:#FFFFFF;" d="M80.221,289.207c-7.375,0-10.449-4.838-10.6-5.085c-0.344-0.558-0.169-1.287,0.389-1.63   c0.557-0.343,1.285-0.169,1.628,0.384c0.166,0.258,3.798,5.781,13.168,3.321c0.636-0.162,1.281,0.211,1.448,0.844   c0.167,0.633-0.211,1.281-0.844,1.448C83.484,288.996,81.758,289.207,80.221,289.207z"/>
	<path style="fill:#FFFFFF;" d="M58.013,292.792c-0.147,0-0.295-0.027-0.44-0.085c-10.71-4.274-10.124-12.552-10.094-12.903   c0.056-0.652,0.609-1.147,1.283-1.079c0.651,0.056,1.132,0.627,1.08,1.277c-0.022,0.299-0.391,6.911,8.611,10.503   c0.608,0.243,0.904,0.932,0.661,1.541C58.929,292.51,58.483,292.792,58.013,292.792z"/>
	<path style="fill:#FFFFFF;" d="M56.941,271.033c-0.193,0-0.389-0.047-0.571-0.147c-10.101-5.565-8.497-13.707-8.424-14.051   c0.137-0.64,0.762-1.05,1.406-0.913c0.639,0.137,1.046,0.763,0.913,1.402c-0.059,0.3-1.236,6.813,7.248,11.486   c0.573,0.316,0.783,1.037,0.467,1.61C57.764,270.812,57.359,271.033,56.941,271.033z"/>
	<path style="fill:#FFFFFF;" d="M350.597,245.139c-0.465,0-0.908-0.277-1.096-0.734c-0.249-0.603,0.037-1.294,0.639-1.545   c0.275-0.118,6.319-2.826,5.377-12.47c-0.064-0.652,0.413-1.232,1.064-1.295c0.656-0.05,1.232,0.413,1.295,1.064   c1.122,11.477-6.502,14.757-6.828,14.892C350.901,245.11,350.747,245.139,350.597,245.139z"/>
	<path style="fill:#FFFFFF;" d="M347.495,227.66c-0.465,0-0.908-0.276-1.096-0.734c-0.249-0.603,0.037-1.294,0.639-1.545   c0.276-0.117,6.318-2.826,5.376-12.471c-0.064-0.652,0.413-1.232,1.064-1.295c0.669-0.06,1.232,0.412,1.295,1.064   c1.122,11.478-6.501,14.758-6.826,14.893C347.8,227.631,347.646,227.66,347.495,227.66z"/>
	<path style="fill:#FFFFFF;" d="M364.34,222.462c-0.291,0-0.581-0.105-0.81-0.319c-0.476-0.446-0.502-1.192-0.06-1.67l0,0   c0.19-0.207,4.586-5.18-0.276-13.58c-0.329-0.566-0.134-1.292,0.432-1.62c0.564-0.331,1.292-0.135,1.62,0.432   c5.778,9.98,0.2,16.126-0.039,16.383C364.972,222.336,364.656,222.462,364.34,222.462z"/>
	<path style="fill:#FFFFFF;" d="M354.757,203.666c-0.178,0-0.36-0.041-0.53-0.126c-0.585-0.293-0.821-1.003-0.53-1.587   c0.139-0.286,2.913-6.284-4.108-12.944c-0.475-0.45-0.494-1.202-0.044-1.676s1.202-0.493,1.676-0.044   c8.365,7.937,4.754,15.41,4.597,15.724C355.609,203.427,355.191,203.666,354.757,203.666z"/>
	<path style="fill:#FFFFFF;" d="M344.659,211.743c-0.178,0-0.36-0.041-0.53-0.126c-0.583-0.293-0.821-1.002-0.53-1.586   c0.132-0.272,2.922-6.277-4.108-12.946c-0.475-0.45-0.494-1.202-0.044-1.676c0.45-0.476,1.2-0.495,1.676-0.044   c8.365,7.937,4.754,15.41,4.597,15.724C345.511,211.503,345.093,211.743,344.659,211.743z"/>
	<path style="fill:#251426;" d="M401.257,330.402c-0.178,0-0.36-0.04-0.531-0.126c-0.583-0.293-0.82-1.003-0.529-1.587   c0.133-0.273,2.921-6.275-4.107-12.943c-0.475-0.45-0.494-1.202-0.044-1.676c0.45-0.475,1.2-0.494,1.676-0.044   c8.365,7.938,4.753,15.409,4.596,15.724C402.109,330.163,401.691,330.402,401.257,330.402z"/>
	<path style="fill:#251426;" d="M386.285,343.543c-0.178,0-0.36-0.041-0.53-0.126c-0.583-0.293-0.82-1.001-0.531-1.585   c0.124-0.255,2.933-6.267-4.106-12.947c-0.475-0.45-0.494-1.202-0.044-1.676c0.453-0.473,1.2-0.495,1.676-0.044   c8.364,7.937,4.753,15.41,4.596,15.724C387.137,343.303,386.719,343.543,386.285,343.543z"/>
	<path style="fill:#251426;" d="M403.818,355.822c-0.178,0-0.36-0.041-0.53-0.126c-0.583-0.293-0.821-1.003-0.53-1.586   c0.132-0.272,2.922-6.277-4.108-12.946c-0.475-0.45-0.494-1.202-0.044-1.676c0.451-0.475,1.202-0.495,1.676-0.044   c8.365,7.937,4.754,15.41,4.597,15.724C404.67,355.582,404.252,355.822,403.818,355.822z"/>
	<path style="fill:#251426;" d="M400.076,384.52c-0.375,0-0.744-0.178-0.975-0.509c-0.373-0.537-0.241-1.272,0.293-1.646   c0.24-0.171,5.57-4.107,2.587-13.333c-0.201-0.623,0.14-1.291,0.763-1.492c0.63-0.201,1.292,0.139,1.492,0.763   c3.549,10.972-3.197,15.806-3.486,16.006C400.545,384.452,400.309,384.52,400.076,384.52z"/>
	<path style="fill:#251426;" d="M394.91,407.339c-0.375,0-0.744-0.178-0.975-0.509c-0.373-0.536-0.241-1.271,0.292-1.646   c0.23-0.163,5.574-4.099,2.588-13.333c-0.201-0.623,0.14-1.291,0.763-1.492c0.63-0.2,1.291,0.14,1.492,0.763   c3.548,10.972-3.197,15.806-3.486,16.006C395.379,407.271,395.143,407.339,394.91,407.339z"/>
	<path style="fill:#251426;" d="M385.058,396.866c-0.375,0-0.744-0.178-0.975-0.509c-0.373-0.536-0.241-1.271,0.292-1.646   c0.23-0.163,5.574-4.099,2.588-13.333c-0.201-0.623,0.14-1.291,0.763-1.492c0.626-0.204,1.292,0.141,1.492,0.763   c3.548,10.972-3.197,15.806-3.486,16.006C385.526,396.798,385.29,396.866,385.058,396.866z"/>
	<path style="fill:#251426;" d="M388.845,324.154c-0.178,0-0.36-0.041-0.53-0.126c-0.583-0.293-0.821-1.003-0.53-1.586   c0.132-0.272,2.922-6.277-4.108-12.946c-0.475-0.45-0.494-1.202-0.044-1.676c0.449-0.473,1.202-0.495,1.676-0.044   c8.365,7.937,4.754,15.41,4.597,15.724C389.697,323.914,389.279,324.154,388.845,324.154z"/>
	<path style="fill:#251426;" d="M398.698,307.226c-0.178,0-0.36-0.041-0.53-0.126c-0.585-0.293-0.821-1.002-0.53-1.587   c0.139-0.286,2.913-6.284-4.107-12.944c-0.475-0.45-0.494-1.202-0.044-1.676c0.454-0.476,1.203-0.494,1.676-0.044   c8.364,7.937,4.753,15.41,4.596,15.724C399.55,306.987,399.132,307.226,398.698,307.226z"/>
	<path style="fill:#251426;" d="M384.113,301.05c-0.178,0-0.36-0.04-0.53-0.126c-0.583-0.293-0.821-1.003-0.53-1.586   c0.132-0.272,2.922-6.277-4.108-12.946c-0.475-0.45-0.494-1.202-0.044-1.676c0.45-0.473,1.202-0.495,1.676-0.044   c8.365,7.937,4.754,15.41,4.597,15.724C384.965,300.811,384.547,301.05,384.113,301.05z"/>
	<path style="fill:#251426;" d="M391.405,284.329c-0.178,0-0.36-0.041-0.53-0.126c-0.585-0.293-0.821-1.002-0.53-1.587   c0.139-0.286,2.913-6.284-4.107-12.944c-0.475-0.45-0.494-1.202-0.044-1.676c0.451-0.475,1.202-0.494,1.676-0.044   c8.364,7.937,4.753,15.41,4.596,15.724C392.257,284.089,391.839,284.329,391.405,284.329z"/>
	<path style="fill:#251426;" d="M39.541,366.523c-0.351,0-0.697-0.154-0.931-0.45c-7.151-9.049-2.512-15.931-2.311-16.219   c0.374-0.538,1.111-0.67,1.65-0.295c0.536,0.373,0.669,1.108,0.3,1.644c-0.161,0.237-3.795,5.788,2.22,13.401   c0.406,0.514,0.319,1.259-0.194,1.665C40.058,366.439,39.798,366.523,39.541,366.523z"/>
	<path style="fill:#251426;" d="M56.233,355.648c-0.351,0-0.697-0.154-0.931-0.45c-7.151-9.048-2.512-15.93-2.311-16.218   c0.374-0.538,1.111-0.669,1.65-0.295c0.536,0.373,0.669,1.108,0.3,1.644c-0.161,0.237-3.795,5.788,2.22,13.399   c0.406,0.514,0.32,1.259-0.194,1.665C56.749,355.565,56.49,355.648,56.233,355.648z"/>
	<path style="fill:#251426;" d="M44.582,340.703c-0.351,0-0.697-0.154-0.931-0.45c-7.151-9.048-2.512-15.93-2.311-16.218   c0.374-0.538,1.111-0.67,1.65-0.295c0.536,0.373,0.669,1.108,0.3,1.644c-0.161,0.237-3.795,5.788,2.22,13.399   c0.406,0.514,0.319,1.259-0.194,1.665C45.098,340.62,44.839,340.703,44.582,340.703z"/>
	<path style="fill:#251426;" d="M50.938,374.475c-0.351,0-0.697-0.154-0.931-0.45c-7.151-9.049-2.512-15.93-2.311-16.218   c0.373-0.538,1.112-0.671,1.65-0.295c0.536,0.373,0.669,1.109,0.299,1.646c-0.174,0.256-3.782,5.798,2.221,13.397   c0.406,0.514,0.319,1.259-0.194,1.665C51.454,374.392,51.195,374.475,50.938,374.475z"/>
	<path style="fill:#251426;" d="M38.774,389.827c-0.351,0-0.697-0.154-0.931-0.45c-7.149-9.048-2.512-15.93-2.311-16.218   c0.374-0.539,1.11-0.674,1.65-0.295c0.536,0.373,0.669,1.108,0.3,1.644c-0.16,0.236-3.795,5.787,2.22,13.399   c0.406,0.514,0.319,1.259-0.194,1.665C39.29,389.743,39.031,389.827,38.774,389.827z"/>
	<path style="fill:#251426;" d="M52.331,398.017c-0.351,0-0.697-0.154-0.931-0.45c-7.151-9.048-2.512-15.93-2.311-16.218   c0.373-0.539,1.112-0.67,1.65-0.295c0.536,0.373,0.669,1.108,0.3,1.644c-0.161,0.237-3.795,5.788,2.22,13.399   c0.406,0.514,0.319,1.259-0.194,1.665C52.847,397.933,52.588,398.017,52.331,398.017z"/>
	<path style="fill:#251426;" d="M42.732,413.53c-0.351,0-0.697-0.154-0.931-0.45c-7.151-9.049-2.512-15.93-2.311-16.218   c0.374-0.538,1.11-0.669,1.65-0.295c0.536,0.373,0.669,1.109,0.299,1.646c-0.174,0.256-3.782,5.798,2.221,13.397   c0.406,0.514,0.32,1.259-0.194,1.665C43.248,413.447,42.989,413.53,42.732,413.53z"/>
	<path style="fill:#251426;" d="M380.258,361.431c-0.178,0-0.36-0.04-0.531-0.126c-0.582-0.293-0.818-1.001-0.53-1.585l0,0   c0.124-0.254,2.936-6.266-4.106-12.947c-0.475-0.45-0.494-1.202-0.044-1.676c0.449-0.473,1.202-0.495,1.676-0.044   c8.365,7.938,4.753,15.41,4.596,15.725C381.11,361.193,380.692,361.431,380.258,361.431z"/>
	<path style="fill:#251426;" d="M390.753,373.531c-0.325,0-0.649-0.133-0.883-0.395c-0.435-0.487-0.395-1.234,0.089-1.67   c0.227-0.21,5.018-4.771,0.928-13.55c-0.277-0.593-0.02-1.298,0.574-1.574c0.594-0.279,1.3-0.018,1.574,0.574   c4.87,10.452-1.231,16.079-1.492,16.313C391.317,373.431,391.034,373.531,390.753,373.531z"/>
	<path style="fill:#FFFFFF;" d="M330.392,244.785c-0.101,0-0.166-0.002-0.19-0.003c-0.654-0.034-1.156-0.59-1.124-1.244   c0.034-0.652,0.633-1.152,1.237-1.124c0.284,0.019,6.918,0.161,10.196-8.973c0.22-0.618,0.901-0.939,1.516-0.715   c0.616,0.221,0.937,0.901,0.715,1.516C339.124,244.326,331.706,244.785,330.392,244.785z"/>
	<path style="fill:#FFFFFF;" d="M55.342,304.453c-7.375,0-10.45-4.838-10.601-5.085c-0.344-0.558-0.169-1.287,0.389-1.63   c0.556-0.343,1.284-0.169,1.628,0.384c0.164,0.259,3.807,5.785,13.168,3.322c0.639-0.162,1.283,0.211,1.448,0.844   c0.167,0.633-0.212,1.281-0.844,1.448C58.605,304.242,56.879,304.453,55.342,304.453z"/>
	<path style="fill:#FFFFFF;" d="M105.538,327.757c-7.375,0-10.449-4.838-10.6-5.085c-0.344-0.558-0.169-1.287,0.389-1.63   c0.554-0.342,1.283-0.169,1.628,0.384c0.164,0.259,3.802,5.787,13.168,3.321c0.636-0.163,1.281,0.211,1.448,0.844   c0.167,0.633-0.211,1.281-0.844,1.448C108.801,327.546,107.075,327.757,105.538,327.757z"/>
	<path style="fill:#FFFFFF;" d="M108.939,302.198c-7.375,0-10.449-4.838-10.6-5.085c-0.344-0.558-0.169-1.287,0.389-1.63   c0.554-0.344,1.283-0.17,1.628,0.384c0.164,0.259,3.799,5.782,13.168,3.321c0.632-0.167,1.281,0.211,1.448,0.844   c0.167,0.633-0.211,1.281-0.844,1.448C112.202,301.987,110.476,302.198,108.939,302.198z"/>
	<path style="fill:#251426;" d="M168.063,210.561c-15.87,0-27.593-3.746-35.071-11.24c-14.819-14.853-6.998-38.61-6.657-39.615   c0.212-0.618,0.884-0.95,1.503-0.742c0.62,0.21,0.953,0.882,0.743,1.503c-0.079,0.233-7.683,23.388,6.099,37.189   c14.996,15.014,50.203,13.779,101.824-3.577c0.622-0.207,1.293,0.126,1.501,0.747s-0.126,1.292-0.747,1.501   C209.039,205.815,185.925,210.561,168.063,210.561z"/>
	<circle style="fill:#F3A4A5;" cx="166.605" cy="174.522" r="14.435"/>
	<circle style="fill:#F3A4A5;" cx="280.08" cy="131.09" r="14.435"/>
	<path style="fill:#FFFFFF;" d="M118.491,94.208c-2.61,0-4.693-0.682-6.28-1.535c-5.338-2.873-8.77-9.798-8.745-17.643   c0.021-6.414,2.475-11.692,6.404-13.773c12.652-6.705,25.249,8.62,25.779,9.277c0.411,0.508,0.331,1.255-0.177,1.666   c-0.512,0.412-1.257,0.333-1.667-0.176c-0.118-0.147-11.898-14.464-22.826-8.672c-3.153,1.67-5.124,6.148-5.142,11.686   c-0.017,5.301,1.936,12.554,7.498,15.547c4.467,2.407,10.37,1.328,17.067-3.123c0.543-0.366,1.279-0.216,1.644,0.331   c0.362,0.545,0.214,1.281-0.331,1.644C126.336,93.011,121.951,94.207,118.491,94.208z"/>
	<path style="fill:#FFFFFF;" d="M243.771,44.956c-0.594,0-1.107-0.446-1.176-1.05c-0.075-0.649,0.391-1.237,1.042-1.313   c3.646-0.421,7.011-9.626,6.316-17.279c-0.298-3.266-1.57-8.708-6.748-8.349c-2.342,0.155-4.203,1.088-5.69,2.852   c-4.875,5.785-3.649,18.131-3.636,18.256c0.068,0.651-0.404,1.234-1.056,1.301c-0.668,0.064-1.234-0.405-1.301-1.056   c-0.058-0.548-1.337-13.482,4.18-20.028c1.897-2.252,4.369-3.494,7.345-3.692c5.183-0.32,8.637,3.583,9.266,10.501   c0.769,8.462-2.808,19.202-8.405,19.847C243.862,44.954,243.816,44.956,243.771,44.956z"/>
	<path style="fill:#251426;" d="M261.184,185.898c-0.512,0-0.983-0.332-1.136-0.847c-0.188-0.627,0.17-1.287,0.798-1.474   c0.495-0.148,49.616-15.164,53.089-49.358c0.067-0.651,0.653-1.109,1.299-1.06c0.652,0.066,1.126,0.648,1.06,1.299   c-1.508,14.852-11.489,28.459-28.864,39.348c-13.02,8.159-25.781,12.006-25.909,12.043   C261.409,185.882,261.295,185.898,261.184,185.898z"/>
	<path style="fill:#251426;" d="M247.509,216.832c-0.442,0-0.866-0.248-1.07-0.673c-0.284-0.59-0.035-1.299,0.556-1.581   l30.247-14.496c0.59-0.287,1.298-0.035,1.581,0.556c0.284,0.59,0.035,1.299-0.556,1.581l-30.247,14.496   C247.855,216.795,247.68,216.832,247.509,216.832z"/>
	<path style="fill:#251426;" d="M262.631,260.535c-0.484,0-0.939-0.299-1.114-0.78c-0.225-0.615,0.093-1.295,0.708-1.519   l15.556-5.661c0.612-0.223,1.295,0.093,1.519,0.708c0.225,0.615-0.093,1.295-0.708,1.519l-15.556,5.661   C262.903,260.512,262.765,260.535,262.631,260.535z"/>
	<path style="fill:#251426;" d="M272.993,291.453c-0.405,0-0.8-0.207-1.021-0.581c-0.333-0.564-0.147-1.291,0.416-1.624   l34.082-20.178c0.568-0.333,1.293-0.146,1.624,0.416c0.333,0.564,0.147,1.291-0.416,1.624l-34.082,20.178   C273.406,291.399,273.197,291.453,272.993,291.453z"/>
	<path style="fill:#251426;" d="M270.961,226.771c-0.477,0-0.927-0.291-1.108-0.763c-0.233-0.611,0.074-1.297,0.685-1.53   l14.481-5.525c0.607-0.232,1.297,0.073,1.53,0.685c0.233,0.611-0.074,1.297-0.685,1.53l-14.481,5.525   C271.245,226.747,271.102,226.771,270.961,226.771z"/>
	<path style="fill:#FFFFFF;" d="M157.019,438.071c-0.025,0-0.05-0.001-0.075-0.002c-0.653-0.041-1.15-0.603-1.109-1.257   c0.384-6.142-5.844-9.329-5.906-9.36c-0.586-0.293-0.823-1.005-0.53-1.591c0.293-0.585,1.006-0.822,1.591-0.53   c0.314,0.157,7.693,3.938,7.212,11.629C158.162,437.589,157.64,438.071,157.019,438.071z"/>
	<path style="fill:#FFFFFF;" d="M157.019,454.621c-0.025,0-0.05-0.001-0.075-0.002c-0.653-0.04-1.15-0.603-1.109-1.257   c0.384-6.141-5.844-9.328-5.906-9.359c-0.586-0.293-0.823-1.005-0.53-1.591c0.293-0.587,1.006-0.82,1.591-0.53   c0.314,0.157,7.693,3.938,7.212,11.628C158.162,454.138,157.64,454.621,157.019,454.621z"/>
	<path style="fill:#FFFFFF;" d="M137.618,435.227c-0.025,0-0.05-0.001-0.075-0.002c-0.653-0.04-1.15-0.603-1.109-1.257   c0.384-6.142-5.844-9.329-5.906-9.36c-0.586-0.293-0.823-1.005-0.53-1.591c0.293-0.587,1.006-0.823,1.591-0.53   c0.314,0.157,7.693,3.938,7.212,11.629C138.76,434.744,138.238,435.227,137.618,435.227z"/>
	<path style="fill:#FFFFFF;" d="M140.907,422.562c-0.025,0-0.05-0.001-0.075-0.002c-0.653-0.041-1.15-0.603-1.109-1.257   c0.384-6.142-5.844-9.329-5.906-9.36c-0.586-0.293-0.823-1.005-0.53-1.591c0.294-0.587,1.004-0.822,1.591-0.53   c0.314,0.157,7.693,3.938,7.212,11.629C142.049,422.079,141.527,422.562,140.907,422.562z"/>
	<path style="fill:#FFFFFF;" d="M121.418,415.916c-0.516,0-0.991-0.339-1.139-0.859c-1.696-5.915-8.631-6.833-8.701-6.843   c-0.649-0.08-1.111-0.671-1.031-1.321c0.079-0.649,0.658-1.123,1.321-1.031c0.348,0.043,8.567,1.134,10.689,8.542   c0.181,0.63-0.183,1.286-0.813,1.466C121.636,415.901,121.526,415.916,121.418,415.916z"/>
	<path style="fill:#FFFFFF;" d="M144.856,411.374c-0.025,0-0.05-0.001-0.075-0.002c-0.653-0.041-1.15-0.603-1.109-1.257   c0.384-6.142-5.844-9.329-5.906-9.36c-0.586-0.293-0.823-1.005-0.53-1.591c0.293-0.587,1.006-0.822,1.591-0.53   c0.314,0.157,7.693,3.938,7.212,11.629C145.999,410.892,145.477,411.374,144.856,411.374z"/>
	<path style="fill:#FFFFFF;" d="M129.047,403.305c-0.467,0-0.91-0.278-1.097-0.737c-2.315-5.665-9.107-5.851-9.395-5.855   c-0.653-0.012-1.176-0.55-1.166-1.204c0.01-0.653,0.457-1.139,1.2-1.167c0.351,0.005,8.639,0.197,11.555,7.33   c0.248,0.605-0.043,1.298-0.649,1.545C129.349,403.277,129.196,403.305,129.047,403.305z"/>
	<path style="fill:#FFFFFF;" d="M438.51,424.687c-0.025,0-0.05-0.001-0.075-0.002c-0.653-0.04-1.15-0.603-1.109-1.257   c0.384-6.142-5.844-9.329-5.906-9.36c-0.586-0.293-0.823-1.005-0.53-1.591c0.294-0.586,1.004-0.821,1.591-0.53   c0.314,0.157,7.694,3.938,7.212,11.629C439.653,424.204,439.131,424.687,438.51,424.687z"/>
	<path style="fill:#FFFFFF;" d="M438.51,441.237c-0.025,0-0.05-0.001-0.075-0.002c-0.653-0.041-1.15-0.603-1.109-1.257   c0.384-6.142-5.844-9.329-5.906-9.36c-0.586-0.293-0.823-1.005-0.53-1.591c0.294-0.586,1.004-0.821,1.591-0.53   c0.314,0.157,7.694,3.938,7.212,11.629C439.653,440.755,439.131,441.237,438.51,441.237z"/>
	<path style="fill:#FFFFFF;" d="M419.109,421.843c-0.025,0-0.05-0.001-0.075-0.002c-0.653-0.041-1.15-0.603-1.109-1.257   c0.384-6.142-5.844-9.329-5.906-9.36c-0.586-0.293-0.823-1.005-0.53-1.591c0.294-0.586,1.004-0.821,1.591-0.53   c0.314,0.157,7.693,3.938,7.212,11.629C420.251,421.36,419.729,421.843,419.109,421.843z"/>
	<path style="fill:#FFFFFF;" d="M422.399,409.177c-0.025,0-0.05-0.001-0.075-0.002c-0.653-0.04-1.15-0.603-1.109-1.257   c0.384-6.142-5.844-9.329-5.906-9.36c-0.586-0.293-0.823-1.005-0.53-1.591c0.294-0.586,1.005-0.82,1.591-0.53   c0.314,0.157,7.694,3.938,7.212,11.629C423.541,408.695,423.019,409.177,422.399,409.177z"/>
	<path style="fill:#FFFFFF;" d="M426.349,397.99c-0.024,0-0.05-0.001-0.075-0.002c-0.653-0.04-1.15-0.603-1.109-1.257   c0.383-6.142-5.845-9.329-5.907-9.36c-0.586-0.293-0.823-1.005-0.53-1.591c0.294-0.586,1.004-0.82,1.591-0.53   c0.314,0.157,7.692,3.938,7.213,11.629C427.491,397.506,426.969,397.99,426.349,397.99z"/>
</g>















</svg>
