<?xml version="1.0" encoding="UTF-8"?>
<!-- Generator: Adobe Illustrator 25.1.0, SVG Export Plug-In . SVG Version: 6.00 Build 0)  -->
<svg xmlns="http://www.w3.org/2000/svg" xmlns:xlink="http://www.w3.org/1999/xlink" version="1.1" id="Capa_1" x="0px" y="0px" viewBox="0 0 500 500" style="enable-background:new 0 0 500 500;" xml:space="preserve" width="512" height="512">
<g>
	<path style="fill:#251426;" d="M126.785,440.951c-6.627,0-13.568-1.015-19.044-2.786c-3.285-1.061-5.448-2.964-6.426-5.653   c-1.237-3.399-0.404-7.973,2.276-12.697c-4.279-2.49-7.662-7.429-9.61-14.081c-3.394-11.598-1.178-19.092,0.747-22.871   c-2.923-3.972-3.322-8.699-1.105-13.405c3.643-7.73,13.281-13.128,23.438-13.128c4.298,0,8.551,0.921,12.643,2.74   c7.286,3.238,11.333,7.208,12.057,11.817c4.631-0.594,9.052,0.888,13.043,4.347c4.431,3.84,6.495,8.143,6.137,12.796   c-0.777,10.068-12.711,18.197-14.543,19.388c-0.64,0.912-3.267,4.554-6.615,7.915c4.476,2.009,7.856,5.403,9.622,9.714   c1.357,3.308,1.194,6.252-0.48,8.75C144.595,440.254,132,440.951,126.785,440.951z M105.83,420.861   c-2.364,4.107-3.188,8.093-2.2,10.807c0.706,1.941,2.344,3.339,4.869,4.155c5.241,1.694,11.906,2.666,18.286,2.666   c10.037,0,17.549-2.266,20.095-6.065c1.206-1.797,1.287-3.905,0.248-6.443c-2.069-5.045-6.072-7.554-9.304-8.795   c-3.307,2.909-6.251,4.381-8.762,4.381h-0.001c-1.429,0-2.712-0.464-3.814-1.383c-1.965-1.636-1.814-3.113-1.548-3.847   c0.666-1.838,3.346-2.937,7.169-2.937c2.088,0,4.276,0.337,6.372,0.979c4.001-3.811,7.239-8.511,7.273-8.56   c0.096-0.14,0.219-0.257,0.362-0.349c0.129-0.079,12.887-8.199,13.612-17.634c0.294-3.828-1.487-7.441-5.294-10.739   c-3.521-3.05-7.339-4.306-11.359-3.734c-0.666,6.88-8.376,12.794-13.69,14.733c-2.081,0.76-3.54-0.046-3.717-1.708   c-0.378-3.573,6.351-12.589,14.917-15.007c-0.545-3.779-4.117-7.159-10.639-10.058c-3.775-1.677-7.691-2.528-11.643-2.528   c-9.237,0-17.959,4.819-21.209,11.716c-1.649,3.498-1.534,7.005,0.291,10.037c3.56-4.903,9.28-6.491,13.621-3.671   c2.911,1.891,4.169,4.92,3.285,7.905c-0.888,2.998-3.711,5.011-7.025,5.011c-2.234,0-5.637-0.88-9.536-4.891   c-2.311,5.278-2.379,12.498-0.142,20.141c1.779,6.077,4.792,10.532,8.549,12.683c2.644-3.871,6.595-7.703,9.708-7.703   c1.534,0,2.692,0.931,3.18,2.555c0.627,2.086,0.289,4.155-0.951,5.822C114.673,421.302,110.021,422.377,105.83,420.861z    M107.199,418.72c3.017,0.905,6.222,0.135,7.657-1.792c0.775-1.042,0.971-2.302,0.568-3.645c-0.241-0.799-0.589-0.799-0.82-0.799   C113.062,412.485,109.934,414.835,107.199,418.72z M130.868,415.862c-3.094,0-4.686,0.856-4.852,1.314   c-0.049,0.137,0.125,0.546,0.808,1.116c0.657,0.546,1.388,0.811,2.237,0.811h0.001c1.6,0,3.63-0.95,5.939-2.769   C133.618,416.023,132.217,415.862,130.868,415.862z M97.715,382.608c2.781,3.048,5.72,4.72,8.311,4.72   c2.248,0,4.078-1.275,4.662-3.248c0.571-1.927-0.275-3.849-2.265-5.141C104.982,376.704,100.506,378.302,97.715,382.608z    M139.243,373.991c-4.89,1.66-9.156,5.769-11.229,9.204c-0.842,1.393-1.09,2.283-1.135,2.709c0.107-0.022,0.244-0.058,0.42-0.123   C131.812,384.135,138.122,379.201,139.243,373.991z"/>
	<path style="fill:#F9CCBD;" d="M240.607,223.313c0,0-200.398,246.338-38.918,266.375c161.48,20.037,218.881-20.98,170.047-102.969   s-96.883-142.151-81.048-153.934S240.607,223.313,240.607,223.313z"/>
	<path style="fill:#F9CCBD;" d="M265.374,99.024c0,0,66.3-13.702,108.484,44.175s-52.969,130.472-145.723,103.379   S160.884,104.71,265.374,99.024z"/>
	<path style="fill:#F9CCBD;" d="M263.692,392.159c0,0,39.133-56.048,111.787-31.925c91.073,30.24,29.666,111.886,17.096,105.828   c-10.602-5.11,44.141-18.467,37.251-11.324c-6.89,7.144-14.255,44.808-82.544,25.989   C283.821,463.239,236.534,472.951,263.692,392.159z"/>
	<path style="fill:#F9CCBD;" d="M241.099,133.09c0,0-8.68-130.346-78.438-113.514S34.268,156.614,90.673,147.409   c56.405-9.206,90.002-103.245,103.419-93.115c13.417,10.131,20.859,93.115,20.859,93.115L241.099,133.09z"/>
	<path style="fill:#F9CCBD;" d="M268.571,129.256c-4.655-4.685-37.009-112.277,14.321-126.737s151.609,36.895,140.155,63.834   c-11.455,26.939-137.958-19.423-142.825-16.077s1.668,70.453,1.668,70.453L268.571,129.256z"/>
	<path style="fill:#251426;" d="M307.548,184.376c-0.393,0-0.773-0.188-1.009-0.527c-45.733-65.388-76.893-74.248-77.202-74.33   c-0.657-0.173-1.05-0.847-0.877-1.504c0.171-0.657,0.836-1.049,1.5-0.881c1.288,0.337,31.983,8.935,78.047,74.517l21.941-8.348   c-9.915-8.528-60.154-53.133-50.923-73.598c0.278-0.616,1.007-0.895,1.629-0.616c0.621,0.281,0.896,1.01,0.616,1.631   c-3.765,8.348,3.915,23.388,22.212,43.498c14.045,15.438,29.487,28.424,29.642,28.554c0.334,0.279,0.496,0.717,0.423,1.148   c-0.073,0.431-0.368,0.791-0.777,0.948l-24.784,9.428C307.843,184.35,307.695,184.376,307.548,184.376z"/>
	<path style="fill:#EC6B73;" d="M334.76,171.085l-34.13,11.078c0,0,10.451,18.739,25.346,15.574   C340.872,194.572,334.76,171.085,334.76,171.085z"/>
	<path style="fill:#251426;" d="M253.818,169.049c-5.214,0-9.636-13.025-10.911-17.177c-0.2-0.65,0.166-1.338,0.816-1.537   c0.651-0.212,1.339,0.164,1.54,0.816c2.421,7.881,6.558,16.025,8.72,15.413c2.241-0.544,2.413-9.878,1.168-18.255   c-0.1-0.671,0.364-1.299,1.037-1.398c0.672-0.101,1.3,0.366,1.4,1.037c0.682,4.59,2.48,19.672-3.023,21.012   C254.314,169.02,254.065,169.049,253.818,169.049z"/>
	<path style="fill:#251426;" d="M325.007,142.937c-5.216,0-9.637-13.025-10.912-17.177c-0.2-0.65,0.166-1.338,0.816-1.537   c0.653-0.212,1.339,0.164,1.54,0.816c2.423,7.881,6.508,16.029,8.722,15.413c2.239-0.544,2.411-9.876,1.166-18.252   c-0.1-0.671,0.364-1.299,1.037-1.398c0.672-0.103,1.3,0.366,1.4,1.037c0.682,4.59,2.48,19.669-3.022,21.007   C325.503,142.909,325.254,142.937,325.007,142.937z"/>
	<circle style="fill:#F4B0AE;" cx="252.987" cy="195.232" r="15.185"/>
	<circle style="fill:#F4B0AE;" cx="351.707" cy="159.831" r="15.185"/>
	<g>
		<path style="fill:#FFE9CB;" d="M283.583,199.318c0,0-12.733,29.391-10.304,31.448s21.998,5.166,21.97,2.72    c-0.028-2.446,4.699-27.207,4.699-27.207"/>
		<path style="fill:#251426;" d="M291.781,235.606c-6.183,0-17.273-2.184-19.299-3.9c-2.074-1.759,1.28-12.82,9.969-32.879    c0.269-0.623,0.992-0.914,1.62-0.64c0.624,0.272,0.911,0.996,0.641,1.621c-5.627,12.986-11.025,27.639-10.505,30.117    c2.43,1.653,17.078,3.897,19.834,3.072c0.352-4.128,4.233-24.526,4.695-26.949c0.129-0.666,0.775-1.102,1.441-0.979    c0.668,0.128,1.107,0.772,0.979,1.441c-1.891,9.904-4.696,25.258-4.677,26.961c0.004,0.334-0.101,1.167-1.146,1.658    C294.628,235.462,293.366,235.606,291.781,235.606z"/>
	</g>
	<g>
		<path style="fill:#251426;" d="M410.449,401.666c-0.868,0-1.765-0.046-2.688-0.144c-5.984-0.628-9.483-2.295-10.4-4.951    c-0.213-0.618-0.281-1.261-0.209-1.922c-1.531-0.267-3.154-0.623-4.873-1.08c-7.217-1.917-10.174-4.961-11.224-7.761    c-1.636-0.087-3.394-0.428-5.261-1.123c-4.449-1.658-7.12-4.318-7.939-7.908c-1.571-6.892,4.33-14.894,6.736-17.396    c1.144-2.177-6.536-17.545-14.326-30.514c-0.35-0.585-0.161-1.34,0.422-1.691c0.585-0.346,1.341-0.161,1.69,0.421    c6.633,11.045,17.271,30.081,13.989,33.492c-2.521,2.622-7.333,9.772-6.109,15.139c0.623,2.73,2.775,4.799,6.396,6.147    c1.372,0.51,2.676,0.799,3.904,0.917c-0.025-0.693,0.04-1.338,0.144-1.901c1.172-6.334,8.711-11.855,13.442-11.343    c1.596,0.168,2.728,0.994,3.189,2.319c0.781,2.247-0.641,5.658-3.538,8.49c-1.262,1.237-4.851,4.273-10.069,4.872    c1.593,2.836,5.585,4.504,9.186,5.459c1.805,0.479,3.491,0.84,5.058,1.097c0.492-0.864,1.198-1.744,2.112-2.629    c3.85-3.726,10.851-6.871,14.457-5.49c2.419,0.921,3.568,3.014,2.86,5.206c-1.081,3.356-6.657,6.998-17.799,5.644    c-0.019,0.269,0.01,0.522,0.089,0.753c0.553,1.602,3.588,2.807,8.329,3.305c11.778,1.232,18.353-6.438,20.597-14.033    c1.718-5.815,0.805-11.319-2.124-12.806c-0.055-0.029-0.111-0.058-0.166-0.084c-2.753,4.193-6.492,7.323-10.187,7.323    c-0.004,0-0.007,0-0.012,0c-3.018-0.005-4.084-1.133-4.446-2.076c-0.54-1.41,0.201-3.166,2.032-4.816    c2.325-2.095,6.973-4.364,11.493-3.394c1.544-2.743,2.652-5.868,2.9-8.788c0.277-3.253-0.434-7.306-5.395-8.146    c-2.672-0.46-5.395-0.07-7.949,0.789c-1.596,5.971-6.15,12.279-11.323,13.328c-1.929,0.395-3.26,0.075-3.96-0.943    c-0.521-0.76-0.816-2.175,0.736-4.6c2.182-3.414,6.943-7.441,12.448-9.623c0.263-1.381,0.321-2.694,0.128-3.828    c-0.484-2.834-2.392-3.974-5.825-3.5c-5.841,0.813-8.504,3.236-10.644,5.18c-2.706,2.461-5.042,4.583-11.205,0.861    c-10.165-6.142-17.817-30.548-18.137-31.585c-0.201-0.65,0.162-1.338,0.812-1.54c0.653-0.207,1.341,0.164,1.541,0.813    c0.076,0.243,7.692,24.543,17.059,30.204c4.59,2.771,5.745,1.72,8.272-0.575c2.265-2.059,5.366-4.881,11.962-5.798    c4.733-0.657,7.88,1.35,8.593,5.526c0.177,1.037,0.19,2.175,0.059,3.366c2.577-0.7,5.246-0.941,7.843-0.505    c5.235,0.888,7.946,4.816,7.439,10.782c-0.26,3.053-1.356,6.402-2.973,9.421c0.006,0.005,0.013,0.007,0.02,0.01    c4.036,2.05,5.453,8.653,3.37,15.702C428.735,393.325,422.065,401.666,410.449,401.666z M400.694,392.642    c9.311,0.929,13.729-2.069,14.361-4.027c0.404-1.253-0.7-1.884-1.394-2.151c-2.352-0.895-8.45,1.653-11.866,4.961    C401.369,391.839,401.001,392.245,400.694,392.642z M393.474,372.475c-3.628,0-9.485,4.677-10.352,9.363    c-0.095,0.515-0.126,1.006-0.102,1.472c4.701-0.39,7.936-3.123,9.052-4.215c2.331-2.281,3.322-4.799,2.934-5.921    c-0.055-0.159-0.202-0.58-1.122-0.678C393.751,372.482,393.614,372.475,393.474,372.475z M422.983,371.424    c-3.075,0-6.071,1.59-7.623,2.988c-1.239,1.116-1.445,1.932-1.38,2.103c0.04,0.103,0.521,0.493,2.15,0.496h0.006    c2.443,0,5.307-2.295,7.626-5.55C423.503,371.436,423.243,371.424,422.983,371.424z M401.54,364.05    c0.079,0,0.472,0.096,1.41-0.096c3.681-0.746,7.122-5.148,8.831-9.671c-3.456,1.713-6.394,4.126-8.178,6.154    c-1.919,2.182-2.127,3.378-2.077,3.616C401.528,364.05,401.532,364.05,401.54,364.05z"/>
		<path style="fill:#EA7033;" d="M373.52,294.808c0,0-56.112-66.094-74.945-53.969c-18.833,12.125,19.872,103.589,59.491,116.84    C397.684,370.931,391.25,314.048,373.52,294.808z"/>
	</g>
	<path style="fill:#F9CCBD;" d="M238.49,314.969c0,0,93.25,17.86,106.502-23.389s-34.485,12.226-83.876-31.155"/>
	<path style="fill:#F9CCBD;" d="M386.611,277.138c0,0-30.296-14.636-37.302-10.527s20.327,43.156,39.29,45.831   C407.561,315.116,402.219,283.786,386.611,277.138z"/>
	<path style="fill:#251426;" d="M281.686,319.267c-33.187,0-57.725-9.301-58.041-9.421c-0.635-0.245-0.95-0.96-0.705-1.595   c0.245-0.635,0.96-0.948,1.593-0.705c0.402,0.156,40.724,15.416,87.761,6.428c0.662-0.128,1.312,0.31,1.441,0.979   c0.128,0.669-0.31,1.314-0.979,1.441C301.919,318.466,291.428,319.267,281.686,319.267z"/>
	<path style="fill:#251426;" d="M297.951,278.772c-0.087,0-0.176-0.01-0.263-0.029c-1.21-0.265-29.741-6.669-40.016-24.279   c-0.343-0.587-0.146-1.342,0.443-1.684c0.587-0.344,1.344-0.144,1.684,0.443c9.736,16.686,38.128,23.052,38.413,23.114   c0.665,0.144,1.086,0.801,0.941,1.465C299.028,278.38,298.518,278.772,297.951,278.772z"/>
	<path style="fill:#FFE9CB;" d="M279.876,341.659c0,0,29.694-7.65,53.533,8.892c47.328,32.841,78.457,108.912-24.964,132.326   C229.172,500.825,212.99,385.365,279.876,341.659z"/>
	<g>
		<path style="fill:#F9CCBD;" d="M205.88,343.374c0,0,183.689,36.118,57.812,137.354c0,0,45.893-8.576,37.506,0    c-8.388,8.576-40.53,30.194-99.508,8.961"/>
		<path style="fill:#251426;" d="M248.982,500c-13.258,0-29.113-2.456-47.71-9.151c-0.64-0.231-0.972-0.936-0.741-1.576    c0.229-0.642,0.93-0.969,1.576-0.743c64.505,23.225,94.954-5.331,98.211-8.663c0.64-0.654,0.672-0.95,0.672-0.953    c-1.518-2.002-20.405-0.091-37.072,3.024c-0.557,0.106-1.109-0.183-1.345-0.695c-0.236-0.512-0.094-1.121,0.346-1.475    c33.562-26.992,47.874-51.665,42.534-73.331c-10.809-43.871-98.922-61.68-99.811-61.856c-0.666-0.13-1.102-0.777-0.971-1.446    c0.13-0.666,0.77-1.109,1.447-0.97c0.225,0.043,22.809,4.547,46.455,14.531c31.966,13.496,50.562,30.033,55.273,49.151    c5.384,21.854-7.974,46.341-39.706,72.829c12.457-2.153,32.832-4.97,35.047-0.828c0.411,0.77,0.553,2.042-1.108,3.741    C299.657,484.064,282.741,500,248.982,500z"/>
	</g>
	<path style="fill:#251426;" d="M274.395,487.113c-0.505,0-0.979-0.313-1.16-0.818c-0.23-0.64,0.105-1.345,0.745-1.573   c0.773-0.277,19.04-6.758,25.835-5.194c0.663,0.154,1.077,0.816,0.924,1.477c-0.154,0.664-0.811,1.078-1.477,0.924   c-5.072-1.172-19.368,3.296-24.452,5.112C274.672,487.088,274.532,487.113,274.395,487.113z"/>
	<path style="fill:#251426;" d="M328.516,481.959c-0.558,0-1.065-0.383-1.198-0.95c-0.155-0.662,0.255-1.326,0.918-1.48   c37.325-8.776,59.811-23.124,66.831-42.649c8.281-23.023-8.444-45.437-8.614-45.661c-0.413-0.544-0.307-1.316,0.236-1.727   c0.541-0.409,1.314-0.303,1.725,0.236c0.728,0.957,17.699,23.718,8.972,47.987c-7.322,20.36-30.398,35.234-68.587,44.21   C328.705,481.95,328.61,481.959,328.516,481.959z"/>
	<path style="fill:#251426;" d="M101.223,133.38c-1.885,0-3.334-0.587-4.327-1.756c-2.039-2.403-1.747-6.926,0.867-13.438   c9.66-24.079,50.903-72.504,86.598-76.237c11.458-1.2,20.671,1.756,27.413,8.781c18.002,18.757,12.25,59.681,11.996,61.413   c-0.099,0.674-0.727,1.116-1.397,1.042c-0.674-0.099-1.139-0.724-1.04-1.398c0.06-0.414,5.829-41.47-11.339-59.354   c-6.186-6.445-14.723-9.135-25.376-8.035c-34.794,3.64-75.098,51.1-84.568,74.705c-2.152,5.362-2.617,9.346-1.275,10.929   c0.776,0.912,2.303,1.121,4.538,0.628c0.658-0.149,1.322,0.274,1.469,0.936c0.147,0.666-0.273,1.323-0.937,1.47   C102.895,133.274,102.02,133.38,101.223,133.38z"/>
	<path style="fill:#251426;" d="M272.051,88.765c-0.573,0-1.085-0.402-1.205-0.984c-0.333-1.621-8.025-39.868,3.771-55.327   c2.986-3.914,6.978-6.058,11.869-6.373c26.722-1.756,88.244,32.222,94.436,39.937c0.426,0.529,0.34,1.304-0.19,1.73   c-0.532,0.431-1.304,0.342-1.732-0.19c-4.852-6.048-65.812-40.739-92.355-39.018c-4.206,0.272-7.5,2.04-10.069,5.408   c-11.123,14.576-3.396,52.95-3.316,53.337c0.137,0.666-0.292,1.318-0.959,1.455C272.217,88.758,272.133,88.765,272.051,88.765z"/>
	<path style="fill:#251426;" d="M386.658,483.588c-6.19,0-12.924-0.955-20.136-3.243c-0.648-0.204-1.007-0.897-0.801-1.547   c0.206-0.647,0.893-1.001,1.547-0.801c27.89,8.851,50.276-3.479,58.516-13.924c2.694-3.416,3.888-6.671,3.121-8.437   c-2.389-0.332-14.54,3.185-25.307,6.907c-0.639,0.219-1.342-0.12-1.566-0.763c-0.223-0.642,0.119-1.345,0.763-1.566   c26.299-9.091,27.548-7.001,28.087-6.111c1.625,2.697,0.472,6.888-3.164,11.497C421.976,472.875,407.383,483.586,386.658,483.588z"/>
	<path style="fill:#251426;" d="M400.639,469.269c-0.478,0-0.931-0.279-1.132-0.746c-0.268-0.625,0.02-1.35,0.646-1.617   c0.925-0.399,22.753-9.736,30.304-10.022c0.702,0,1.252,0.508,1.277,1.186c0.026,0.678-0.504,1.251-1.184,1.277   c-7.098,0.267-29.203,9.726-29.426,9.82C400.966,469.238,400.801,469.269,400.639,469.269z"/>
	<path style="fill:#251426;" d="M366.894,420.116c-0.207,0-0.416-0.053-0.609-0.161c-0.592-0.337-0.797-1.09-0.459-1.682   c2.622-4.597,0.111-8.025,0.085-8.059c-0.409-0.544-0.301-1.316,0.243-1.725c0.545-0.407,1.317-0.301,1.725,0.243   c0.144,0.192,3.504,4.773,0.085,10.763C367.738,419.892,367.322,420.116,366.894,420.116z"/>
	<path style="fill:#251426;" d="M355.536,422.966c-0.207,0-0.416-0.053-0.609-0.161c-0.592-0.337-0.797-1.09-0.46-1.682   c2.622-4.597,0.111-8.026,0.085-8.059c-0.409-0.544-0.301-1.316,0.243-1.725c0.545-0.407,1.318-0.301,1.725,0.243   c0.144,0.192,3.504,4.773,0.085,10.763C356.381,422.743,355.964,422.966,355.536,422.966z"/>
	<path style="fill:#251426;" d="M359.961,436.833c-0.207,0-0.416-0.053-0.609-0.161c-0.592-0.337-0.797-1.09-0.461-1.682   c2.623-4.6,0.113-8.025,0.087-8.059c-0.409-0.544-0.301-1.316,0.243-1.725c0.546-0.407,1.317-0.301,1.725,0.243   c0.144,0.192,3.504,4.771,0.087,10.763C360.806,436.609,360.39,436.833,359.961,436.833z"/>
	<path style="fill:#251426;" d="M369.276,441.298c-0.291,0-0.583-0.103-0.818-0.31c-0.509-0.452-0.555-1.229-0.103-1.739   c3.474-3.914,1.814-7.715,1.742-7.876c-0.279-0.616-0.01-1.347,0.605-1.629c0.616-0.293,1.34-0.024,1.629,0.592   c0.102,0.217,2.445,5.386-2.133,10.549C369.955,441.158,369.616,441.298,369.276,441.298z"/>
	<path style="fill:#251426;" d="M347.804,449.114c-0.291,0-0.583-0.103-0.818-0.31c-0.509-0.452-0.555-1.229-0.103-1.739   c3.474-3.912,1.814-7.715,1.742-7.876c-0.279-0.616-0.01-1.347,0.605-1.629c0.617-0.294,1.341-0.024,1.629,0.592   c0.102,0.217,2.445,5.391-2.133,10.549C348.483,448.975,348.143,449.114,347.804,449.114z"/>
	<path style="fill:#251426;" d="M355.642,458.078c-0.291,0-0.583-0.103-0.818-0.31c-0.509-0.452-0.555-1.229-0.103-1.739   c3.474-3.912,1.814-7.715,1.742-7.876c-0.279-0.616-0.01-1.347,0.605-1.629c0.617-0.296,1.342-0.024,1.629,0.592   c0.102,0.216,2.445,5.391-2.133,10.549C356.32,457.938,355.981,458.078,355.642,458.078z"/>
	<path style="fill:#251426;" d="M360.64,404.346c-0.207,0-0.416-0.053-0.609-0.161c-0.592-0.337-0.798-1.09-0.46-1.682   c2.623-4.6,0.112-8.025,0.085-8.059c-0.409-0.544-0.301-1.316,0.243-1.725c0.543-0.407,1.317-0.301,1.725,0.243   c0.144,0.192,3.505,4.771,0.085,10.763C361.484,404.122,361.068,404.346,360.64,404.346z"/>
	<path style="fill:#251426;" d="M348.377,404.346c-0.207,0-0.416-0.053-0.609-0.161c-0.592-0.337-0.798-1.09-0.461-1.682   c2.623-4.6,0.113-8.025,0.087-8.059c-0.409-0.544-0.301-1.316,0.243-1.725c0.545-0.407,1.316-0.301,1.725,0.243   c0.144,0.192,3.504,4.771,0.087,10.763C349.221,404.122,348.805,404.346,348.377,404.346z"/>
	<path style="fill:#251426;" d="M351.533,388.584c-0.207,0-0.416-0.053-0.609-0.161c-0.592-0.337-0.798-1.09-0.461-1.682   c2.623-4.6,0.113-8.026,0.087-8.059c-0.409-0.544-0.301-1.316,0.243-1.725c0.544-0.404,1.315-0.301,1.725,0.243   c0.144,0.192,3.504,4.771,0.087,10.763C352.377,388.36,351.961,388.584,351.533,388.584z"/>
	<path style="fill:#251426;" d="M155.019,442.33c-0.194,0-0.391-0.046-0.575-0.142c-0.212-0.113-5.198-2.832-4.648-9.707   c0.055-0.678,0.638-1.167,1.327-1.128c0.677,0.053,1.184,0.647,1.129,1.326c-0.422,5.276,3.305,7.311,3.344,7.33   c0.601,0.318,0.831,1.063,0.512,1.665C155.889,442.092,155.462,442.33,155.019,442.33z"/>
	<path style="fill:#251426;" d="M166.535,444.87c-0.194,0-0.39-0.046-0.573-0.142c-0.212-0.113-5.199-2.834-4.648-9.71   c0.055-0.678,0.638-1.179,1.327-1.128c0.678,0.053,1.184,0.647,1.129,1.326c-0.419,5.216,3.197,7.253,3.351,7.337   c0.594,0.325,0.818,1.071,0.498,1.667C167.398,444.635,166.974,444.87,166.535,444.87z"/>
	<path style="fill:#251426;" d="M168.017,460.883c-0.194,0-0.391-0.046-0.575-0.142c-0.213-0.113-5.198-2.834-4.648-9.71   c0.054-0.678,0.644-1.164,1.327-1.128c0.677,0.053,1.184,0.647,1.129,1.326c-0.422,5.278,3.307,7.313,3.344,7.333   c0.601,0.32,0.831,1.066,0.512,1.665C168.886,460.645,168.459,460.883,168.017,460.883z"/>
	<path style="fill:#251426;" d="M180.889,442.539c-0.194,0-0.391-0.046-0.575-0.142c-0.213-0.113-5.198-2.834-4.648-9.71   c0.054-0.678,0.628-1.176,1.327-1.128c0.677,0.053,1.184,0.647,1.129,1.326c-0.422,5.278,3.307,7.313,3.344,7.333   c0.601,0.32,0.831,1.066,0.512,1.665C181.757,442.301,181.33,442.539,180.889,442.539z"/>
	<path style="fill:#251426;" d="M187.186,469.553c-0.192,0-0.389-0.046-0.573-0.142c-0.212-0.113-5.198-2.832-4.648-9.71   c0.054-0.678,0.645-1.167,1.327-1.128c0.677,0.053,1.184,0.647,1.129,1.326c-0.417,5.218,3.196,7.253,3.35,7.337   c0.594,0.325,0.819,1.071,0.499,1.665C188.048,469.317,187.625,469.553,187.186,469.553z"/>
	<path style="fill:#251426;" d="M274.398,308.668c-1.928,0-4.401-0.573-6.895-2.721c-0.515-0.445-0.573-1.222-0.129-1.737   c0.444-0.522,1.221-0.573,1.738-0.13c3.96,3.414,7.74,1.701,7.9,1.626c0.609-0.286,1.346-0.029,1.638,0.582s0.041,1.34-0.568,1.636   C277.971,307.98,276.512,308.668,274.398,308.668z"/>
	<path style="fill:#251426;" d="M256.205,308.668c-1.928,0-4.4-0.573-6.894-2.721c-0.515-0.445-0.573-1.222-0.129-1.737   c0.443-0.522,1.22-0.573,1.738-0.13c4.008,3.459,7.852,1.65,7.892,1.631c0.612-0.293,1.348-0.041,1.647,0.568   c0.297,0.611,0.043,1.35-0.569,1.646C259.777,307.98,258.318,308.668,256.205,308.668z"/>
	<path style="fill:#251426;" d="M260.208,297.806c-1.928,0-4.401-0.573-6.895-2.721c-0.516-0.445-0.574-1.222-0.13-1.737   c0.444-0.52,1.222-0.573,1.737-0.13c4.014,3.457,7.857,1.65,7.894,1.631c0.613-0.303,1.351-0.041,1.647,0.568   c0.297,0.611,0.042,1.35-0.569,1.646C263.779,297.118,262.321,297.806,260.208,297.806z"/>
	<path style="fill:#251426;" d="M279.816,295.391c-1.928,0-4.402-0.573-6.895-2.721c-0.516-0.445-0.574-1.222-0.13-1.737   c0.444-0.52,1.222-0.573,1.737-0.13c4.012,3.455,7.853,1.65,7.893,1.631c0.613-0.303,1.351-0.041,1.647,0.568   c0.297,0.611,0.042,1.35-0.569,1.646C283.386,294.703,281.928,295.391,279.816,295.391z"/>
	<path style="fill:#251426;" d="M290.268,309.876c-1.928,0-4.401-0.573-6.895-2.721c-0.515-0.445-0.573-1.222-0.129-1.737   c0.444-0.52,1.221-0.573,1.738-0.13c3.96,3.416,7.74,1.701,7.9,1.626c0.609-0.286,1.347-0.031,1.638,0.582   c0.292,0.611,0.041,1.34-0.568,1.636C293.84,309.188,292.381,309.876,290.268,309.876z"/>
	<path style="fill:#251426;" d="M295.14,302.343c-1.928,0-4.401-0.573-6.895-2.721c-0.516-0.445-0.574-1.222-0.13-1.737   c0.444-0.52,1.222-0.573,1.737-0.13c4.015,3.455,7.856,1.65,7.894,1.631c0.613-0.306,1.351-0.041,1.647,0.568   c0.297,0.611,0.042,1.35-0.569,1.646C298.712,301.655,297.254,302.343,295.14,302.343z"/>
	<path style="fill:#251426;" d="M309.25,307.46c-1.928,0-4.401-0.573-6.895-2.721c-0.515-0.445-0.573-1.222-0.129-1.737   c0.445-0.52,1.22-0.573,1.738-0.13c3.96,3.414,7.74,1.703,7.9,1.626c0.611-0.286,1.347-0.031,1.638,0.582   c0.292,0.611,0.041,1.34-0.568,1.636C312.822,306.772,311.363,307.46,309.25,307.46z"/>
	<path style="fill:#251426;" d="M167.038,424.742c-0.194,0-0.391-0.046-0.575-0.142c-0.212-0.113-5.198-2.832-4.648-9.707   c0.055-0.678,0.633-1.167,1.327-1.128c0.677,0.053,1.184,0.647,1.129,1.326c-0.422,5.276,3.305,7.311,3.344,7.33   c0.601,0.318,0.831,1.063,0.512,1.665C167.908,424.504,167.481,424.742,167.038,424.742z"/>
	<path style="fill:#251426;" d="M168.675,408.768c-0.283,0-0.565-0.099-0.798-0.296c-0.182-0.156-4.445-3.909-2.39-10.496   c0.203-0.65,0.885-1.013,1.543-0.808c0.65,0.202,1.012,0.895,0.81,1.544c-1.559,4.994,1.516,7.778,1.648,7.896   c0.508,0.447,0.562,1.222,0.118,1.735C169.362,408.621,169.019,408.768,168.675,408.768z"/>
	<path style="fill:#251426;" d="M188.44,201.226c-0.283,0-0.565-0.099-0.797-0.296c-0.182-0.156-4.445-3.909-2.39-10.496   c0.202-0.65,0.889-1.015,1.543-0.808c0.65,0.202,1.012,0.895,0.81,1.544c-1.559,4.994,1.516,7.778,1.648,7.896   c0.508,0.447,0.562,1.222,0.118,1.735C189.127,201.079,188.784,201.226,188.44,201.226z"/>
	<path style="fill:#251426;" d="M186.569,177.099c-0.339,0-0.678-0.14-0.921-0.414c-0.16-0.18-3.872-4.477-0.943-10.722   c0.287-0.616,1.016-0.885,1.638-0.594c0.616,0.291,0.881,1.022,0.592,1.638c-2.248,4.795,0.528,8.011,0.556,8.042   c0.451,0.51,0.405,1.289-0.105,1.739C187.151,176.998,186.86,177.099,186.569,177.099z"/>
	<path style="fill:#251426;" d="M198.383,186.828c-0.339,0-0.678-0.14-0.921-0.414c-0.16-0.18-3.872-4.475-0.943-10.72   c0.287-0.616,1.02-0.883,1.638-0.594c0.616,0.291,0.88,1.022,0.592,1.638c-2.248,4.795,0.527,8.009,0.556,8.04   c0.451,0.51,0.405,1.287-0.103,1.739C198.967,186.724,198.674,186.828,198.383,186.828z"/>
	<path style="fill:#251426;" d="M199.239,167.399c-0.342,0-0.681-0.142-0.925-0.419c-0.159-0.18-3.855-4.492-0.9-10.722   c0.291-0.613,1.026-0.873,1.641-0.587c0.615,0.291,0.877,1.027,0.585,1.641c-2.267,4.785,0.496,8.009,0.524,8.042   c0.449,0.51,0.399,1.289-0.111,1.737C199.818,167.298,199.528,167.399,199.239,167.399z"/>
	<path style="fill:#251426;" d="M188.853,154.158c-0.462,0-0.903-0.26-1.114-0.705c-0.103-0.217-2.467-5.379,2.093-10.556   c0.451-0.51,1.229-0.558,1.738-0.111c0.51,0.45,0.559,1.227,0.109,1.737c-3.499,3.974-1.733,7.838-1.715,7.876   c0.292,0.613,0.029,1.35-0.586,1.641C189.209,154.119,189.03,154.158,188.853,154.158z"/>
	<path style="fill:#251426;" d="M197.505,205.915c-0.338,0-0.675-0.14-0.917-0.411c-0.16-0.18-3.872-4.477-0.943-10.72   c0.287-0.616,1.019-0.885,1.638-0.594c0.616,0.291,0.881,1.022,0.592,1.638c-2.222,4.737,0.446,7.915,0.562,8.047   c0.441,0.512,0.39,1.289-0.119,1.735C198.084,205.814,197.794,205.915,197.505,205.915z"/>
	<path style="fill:#251426;" d="M156.666,403.995c-0.409,0-0.807-0.202-1.04-0.575c-0.128-0.204-3.082-5.054,0.837-10.73   c0.386-0.563,1.152-0.705,1.714-0.313c0.559,0.385,0.7,1.152,0.314,1.713c-2.973,4.304-0.865,7.879-0.773,8.028   c0.352,0.577,0.173,1.335-0.403,1.691C157.112,403.935,156.887,403.995,156.666,403.995z"/>
	<path style="fill:#251426;" d="M152.718,422.706c-0.33,0-0.658-0.132-0.9-0.392c-0.162-0.178-3.966-4.395-1.168-10.701   c0.275-0.621,1.003-0.9,1.625-0.625c0.622,0.277,0.902,1.003,0.627,1.626c-2.122,4.783,0.613,7.903,0.73,8.033   c0.453,0.503,0.419,1.28-0.082,1.737C153.313,422.601,153.015,422.706,152.718,422.706z"/>
	<path style="fill:#251426;" d="M324.904,287.69c-0.464,0-0.909-0.262-1.117-0.712c-0.287-0.616-0.02-1.35,0.597-1.636   c0.729-0.339,17.903-8.324,22.038-9.017c0.664-0.123,1.305,0.339,1.418,1.01c0.112,0.671-0.34,1.306-1.012,1.419   c-3.159,0.529-16.523,6.546-21.405,8.819C325.254,287.654,325.077,287.69,324.904,287.69z"/>
	<path style="fill:#251426;" d="M330.24,297.799c-0.324,0-0.647-0.128-0.889-0.38c-0.47-0.491-0.455-1.27,0.036-1.739   c1.16-1.114,11.491-10.879,17.148-11.292c0.677-0.058,1.268,0.459,1.317,1.14c0.049,0.678-0.46,1.268-1.139,1.318   c-4.048,0.293-12.648,7.758-15.62,10.609C330.853,297.686,330.547,297.799,330.24,297.799z"/>
	<path style="fill:#251426;" d="M366.894,286.848c-0.244,0-0.49-0.072-0.705-0.224c-3.121-2.184-11.938-7.852-15.199-7.852   c-0.681,0-1.232-0.551-1.232-1.232s0.551-1.232,1.232-1.232c4.621,0,15.398,7.448,16.612,8.3c0.557,0.39,0.693,1.157,0.303,1.715   C367.665,286.665,367.282,286.848,366.894,286.848z"/>
	<path style="fill:#251426;" d="M371.296,280.114c-0.203,0-0.41-0.051-0.6-0.156c-0.101-0.058-10.206-5.677-19.989-7.989   c-0.663-0.156-1.073-0.818-0.917-1.482c0.156-0.659,0.82-1.083,1.482-0.914c10.127,2.391,20.203,7.999,20.627,8.235   c0.594,0.334,0.806,1.083,0.473,1.677C372.146,279.888,371.728,280.114,371.296,280.114z"/>
	<g>
		<path style="fill:#F9CCBD;" d="M305.629,201.271c0,0-5.68,6.004-9.501,7.057c-13.763,3.794-16.87-26.191-16.87-26.191"/>
		<path style="fill:#251426;" d="M293.776,209.894c-1.816,0-3.533-0.546-5.128-1.636c-8.427-5.757-10.53-25.171-10.615-25.994    c-0.07-0.676,0.422-1.282,1.098-1.352c0.674-0.07,1.282,0.421,1.353,1.097c0.019,0.19,2.067,19.101,9.554,24.214    c1.757,1.2,3.641,1.501,5.763,0.917c2.858-0.784,7.417-5.112,8.932-6.714c0.472-0.493,1.25-0.517,1.742-0.048    c0.493,0.467,0.515,1.246,0.048,1.742c-0.242,0.255-5.964,6.267-10.068,7.398C295.542,209.766,294.647,209.894,293.776,209.894z"/>
	</g>
	<path style="fill:#251426;" d="M286.461,230.436c-0.084,0-0.17-0.01-0.256-0.026c-0.665-0.14-1.091-0.794-0.95-1.46l4.463-21.129   c0.141-0.664,0.789-1.08,1.46-0.95c0.665,0.14,1.091,0.794,0.95,1.46l-4.463,21.129   C287.542,230.039,287.031,230.436,286.461,230.436z"/>
	<path style="fill:#251426;" d="M307.779,270.667c-0.41,0-0.812-0.204-1.045-0.577c-0.361-0.577-0.186-1.338,0.391-1.698   c0.579-0.363,14.248-8.901,20.795-11.22c0.644-0.229,1.347,0.111,1.572,0.751c0.227,0.642-0.108,1.345-0.749,1.573   c-6.295,2.228-20.172,10.898-20.312,10.985C308.229,270.607,308.003,270.667,307.779,270.667z"/>
	<path style="fill:#251426;" d="M340.714,315.421c-0.41,0-0.812-0.204-1.045-0.577c-0.361-0.577-0.186-1.338,0.391-1.698   c0.579-0.363,14.248-8.901,20.795-11.22c0.647-0.224,1.346,0.111,1.572,0.751c0.227,0.642-0.108,1.345-0.749,1.573   c-6.295,2.228-20.172,10.898-20.312,10.985C341.164,315.361,340.938,315.421,340.714,315.421z"/>
	<path style="fill:#251426;" d="M351.724,331.149c-0.41,0-0.812-0.204-1.045-0.577c-0.361-0.577-0.186-1.338,0.391-1.698   c0.579-0.363,14.248-8.901,20.795-11.22c0.646-0.224,1.346,0.111,1.572,0.751c0.227,0.642-0.108,1.345-0.749,1.573   c-6.295,2.228-20.172,10.898-20.312,10.985C352.174,331.089,351.948,331.149,351.724,331.149z"/>
</g>















</svg>
