<?xml version="1.0" encoding="UTF-8"?>
<!-- Generator: Adobe Illustrator 25.1.0, SVG Export Plug-In . SVG Version: 6.00 Build 0)  -->
<svg xmlns="http://www.w3.org/2000/svg" xmlns:xlink="http://www.w3.org/1999/xlink" version="1.1" id="Capa_1" x="0px" y="0px" viewBox="0 0 500 500" style="enable-background:new 0 0 500 500;" xml:space="preserve" width="512" height="512">
<g>
	<path style="fill:#251326;" d="M397.597,55.153c0,0,31.922-53.995,42.468-42.318s13.632,65.545,8.651,65.482   C443.734,78.255,397.597,55.153,397.597,55.153z"/>
	<g>
		<path style="fill:#251326;" d="M412.617,49.375c0.82-2.826,17.686-29.811,21.481-26.016c3.795,3.795,6.325,26.297,6.325,26.297"/>
		<path style="fill:#FFE9CB;" d="M439.237,49.789l2.372-0.266c-0.263-2.346-2.694-23.033-6.669-27.009    c-0.648-0.645-1.547-0.862-2.544-0.608c-5.984,1.538-20.125,24.387-20.925,27.134l2.293,0.666    c0.617-2.13,13.242-22.469,18.711-25.282c0.55-0.284,0.769-0.242,0.767-0.233C435.803,26.751,438.277,41.249,439.237,49.789z"/>
	</g>
	<path style="fill:#EA7033;" d="M445.134,350.959c0,0-10.097,120.698,1.506,127.277c11.603,6.579-47.652,22.638-59.285-73.567"/>
	<path style="fill:#EA7033;" d="M347.707,180.18c0,0,23.656,70.524-64.479,115.954c-84.741,43.68-112.796,113.642-87.695,131.678   s171.92,9.864,209.101-6.114s-28.893-142.478-16.845-192.024C399.837,180.127,407.398,118.295,347.707,180.18z"/>
	<path style="fill:#FFE9CB;" d="M407.54,174.026c0,0,41.1,73.043,46.718,102.008c10.473,53.99-10.863,122.601-31.534,117.937   c-20.671-4.664-41.041-31.826-53.09-75.487C357.698,275.233,394.439,169.099,407.54,174.026z"/>
	<path style="fill:#251326;" d="M326.121,62.858c0,0-65.526-31.145-69.152-23.049c-3.626,8.095,9.377,66.699,14.412,67.309   S326.121,62.858,326.121,62.858z"/>
	<path style="fill:#EA7033;" d="M230.075,137.561c0,0,64.502-88.834,148.611-92.811C425.444,42.539,485.463,64.381,500,71.589   c0,0-33.578,113.485-90.205,117.326C353.168,192.756,230.075,137.561,230.075,137.561z"/>
	<path style="fill:#FFE9CB;" d="M230.075,137.561c0,0,160.056-34.537,188.422,22.287c0,0,28.081-9.095,26.563-13.37   c-11.98-33.736-8.854-73.682,54.939-74.888c0,0,0.466,103.254-71.712,122.513S229.738,154.967,230.075,137.561z"/>
	<path style="fill:#251326;" d="M412.65,153.749c0,0,7.701,27.717,25.561,18.222s7.118-34.419,7.118-34.419   S411.418,145.121,412.65,153.749z"/>
	<path style="fill:#251426;" d="M364.433,123.106c0.536,0,1.037-0.198,1.452-0.583c3.101-2.882,0.168-20.435-0.804-25.746   c-0.121-0.65-0.753-1.065-1.389-0.96c-0.648,0.119-1.079,0.741-0.96,1.389c2.125,11.602,2.824,22.395,1.529,23.569   c-2.754-0.823-9.526-11.814-13.105-18.564c-0.31-0.583-1.028-0.804-1.612-0.494c-0.583,0.308-0.804,1.03-0.494,1.612   c1.626,3.069,9.989,18.448,14.792,19.697C364.042,123.081,364.24,123.106,364.433,123.106z"/>
	<path style="fill:#251426;" d="M426.948,100.604c0.536,0,1.037-0.198,1.452-0.583c3.101-2.882,0.168-20.435-0.804-25.746   c-0.121-0.65-0.753-1.063-1.389-0.96c-0.648,0.119-1.079,0.741-0.96,1.389c2.125,11.602,2.824,22.395,1.529,23.569   c-2.754-0.823-9.526-11.814-13.105-18.564c-0.31-0.583-1.025-0.806-1.612-0.494c-0.583,0.308-0.804,1.03-0.494,1.612   c1.626,3.069,9.989,18.448,14.792,19.697C426.557,100.578,426.755,100.604,426.948,100.604z"/>
	<path style="fill:#EA7033;" d="M220.87,392.192c0,0-101.427-6.928-86.144-47.943s127.057-155.08-30.546-273.902   c0,0,6.065,77.278-32.3,101.486c-92.642,58.455-133.624,326.26,116.606,242.561L220.87,392.192z"/>
	<path style="fill:#EA7033;" d="M393.014,378.438c0,0,25.863,91.692,33.389,104.032s-57.876,14.897-78.696-71.011"/>
	<path style="fill:#251426;" d="M398.887,190.533c0.534,0,1.072-0.137,1.603-0.41c7.135-3.663,9.4-20.841,9.493-21.57   c0.084-0.655-0.38-1.251-1.032-1.335c-0.645-0.096-1.251,0.38-1.335,1.032c-0.59,4.623-3.218,17.185-8.216,19.753   c-0.366,0.184-0.641,0.189-0.965,0.012c-3.327-1.836-5.802-16.43-6.578-25.198c-0.058-0.657-0.685-1.137-1.293-1.084   c-0.657,0.058-1.142,0.638-1.084,1.293c0.354,3.999,2.395,24.096,7.801,27.076C397.801,190.389,398.341,190.533,398.887,190.533z"/>
	<path style="fill:#FFE9CB;" d="M71.88,171.833c0,0-1.55,27.07,11.812,25.638s35.631-17.291,35.631-17.291   s3.563,31.002,10.689,31.893c7.126,0.891,24.942-14.602,24.942-14.602s4.485,20.241,8.017,25.38   c2.738,3.984,24.811-6.26,25.832-7.448c0,0,2.674-142.705-92.64-154.079C96.163,61.324,115.042,110.152,71.88,171.833z"/>
	<path style="fill:#EA7033;" d="M252.936,390.236c0,0-7.118,82.432,0.008,94.012s-53.455,1.316-63.254-67.281   S253.827,342.134,252.936,390.236z"/>
	<path style="fill:#EA7033;" d="M326.872,397.522c0,0-20.488,68.59-13.362,80.171c7.126,11.58-40.085,15.157-49.884-53.44   C253.827,355.655,327.762,349.419,326.872,397.522z"/>
	<circle style="fill:#F2AC9F;" cx="336.891" cy="154.692" r="17.141"/>
	<circle style="fill:#F2AC9F;" cx="465.448" cy="109.417" r="17.141"/>
	<g>
		<path style="fill:#251326;" d="M275.562,86.951c0,0-11.806-41.356-5.06-37.295c6.746,4.061,26.985,11.668,26.985,11.668"/>
		<path style="fill:#FFE9CB;" d="M274.416,87.278l2.293-0.657c-4.409-15.449-8.204-33.258-6.888-35.98    c0.021,0.009,0.042,0.023,0.065,0.037c6.764,4.071,26.349,11.448,27.181,11.76l0.839-2.232c-0.2-0.077-20.212-7.615-26.79-11.574    c-1.326-0.792-2.237-0.363-2.663-0.04C264.69,51.476,271.368,76.606,274.416,87.278z"/>
	</g>
	<path style="fill:#251426;" d="M369.522,80.621c0.126,0,0.252-0.019,0.378-0.061c0.624-0.21,0.962-0.885,0.755-1.51   c-2.097-6.296-9.6-8.26-9.917-8.34c-0.659-0.175-1.286,0.224-1.449,0.862c-0.161,0.636,0.224,1.286,0.862,1.449   c0.065,0.016,6.559,1.736,8.239,6.783C368.558,80.304,369.024,80.621,369.522,80.621z"/>
	<path style="fill:#251426;" d="M367.716,65.209c0.04,0,0.079-0.002,0.119-0.005c0.655-0.065,1.135-0.65,1.072-1.305   c-0.65-6.606-7.529-10.185-7.82-10.334c-0.594-0.298-1.307-0.063-1.603,0.52c-0.301,0.585-0.068,1.305,0.517,1.605   c0.061,0.03,6.009,3.148,6.529,8.442C366.591,64.748,367.111,65.209,367.716,65.209z"/>
	<path style="fill:#251426;" d="M388.056,61.728c0.389,0,0.774-0.191,1.002-0.545c3.607-5.569,0.457-12.657,0.322-12.956   c-0.273-0.597-0.976-0.86-1.577-0.592c-0.599,0.27-0.865,0.979-0.594,1.577c0.026,0.061,2.738,6.21-0.154,10.674   c-0.357,0.552-0.2,1.291,0.354,1.65C387.609,61.665,387.832,61.728,388.056,61.728z"/>
	<path style="fill:#251426;" d="M393.625,81.781c0.389,0,0.774-0.191,1.002-0.545c3.605-5.569,0.454-12.655,0.319-12.953   c-0.273-0.599-0.974-0.864-1.577-0.592c-0.599,0.27-0.865,0.979-0.594,1.577c0.026,0.063,2.738,6.207-0.151,10.672   c-0.357,0.552-0.2,1.291,0.354,1.65C393.178,81.718,393.401,81.781,393.625,81.781z"/>
	<path style="fill:#251426;" d="M385.973,88c0.04,0,0.079-0.002,0.119-0.005c0.657-0.065,1.135-0.65,1.072-1.305   c-0.652-6.604-7.529-10.185-7.82-10.334c-0.594-0.298-1.307-0.065-1.603,0.52c-0.301,0.585-0.07,1.303,0.517,1.605   c0.058,0.03,6.009,3.148,6.529,8.442C384.85,87.541,385.367,88,385.973,88z"/>
	<path style="fill:#251426;" d="M449.488,299.061c0.468,0,0.913-0.277,1.102-0.736c2.538-6.135-1.845-12.529-2.034-12.799   c-0.378-0.541-1.116-0.673-1.659-0.296c-0.541,0.375-0.673,1.118-0.298,1.659c0.037,0.056,3.819,5.606,1.787,10.523   c-0.252,0.611,0.037,1.307,0.645,1.559C449.18,299.034,449.336,299.061,449.488,299.061z"/>
	<path style="fill:#251426;" d="M441.029,276.522c0.468,0,0.911-0.277,1.102-0.736c2.54-6.133-1.843-12.529-2.032-12.799   c-0.373-0.541-1.118-0.673-1.659-0.296c-0.541,0.375-0.673,1.118-0.298,1.659c0.037,0.056,3.819,5.609,1.785,10.523   c-0.252,0.608,0.037,1.307,0.645,1.559C440.722,276.494,440.878,276.522,441.029,276.522z"/>
	<path style="fill:#251426;" d="M429.882,254.022c0.468,0,0.913-0.277,1.102-0.736c2.538-6.133-1.845-12.529-2.034-12.799   c-0.375-0.538-1.118-0.673-1.659-0.296c-0.541,0.375-0.673,1.118-0.298,1.659c0.037,0.056,3.819,5.609,1.787,10.523   c-0.252,0.61,0.037,1.307,0.645,1.559C429.574,253.994,429.731,254.022,429.882,254.022z"/>
	<path style="fill:#251426;" d="M442.332,312.11c0.468,0,0.913-0.277,1.102-0.736c2.538-6.133-1.843-12.529-2.032-12.799   c-0.373-0.538-1.116-0.673-1.659-0.296c-0.541,0.375-0.673,1.118-0.301,1.659c0.04,0.056,3.819,5.609,1.787,10.523   c-0.252,0.611,0.037,1.307,0.645,1.559C442.024,312.082,442.18,312.11,442.332,312.11z"/>
	<path style="fill:#251426;" d="M431.182,293.232c0.468,0,0.913-0.277,1.102-0.736c2.538-6.135-1.843-12.529-2.032-12.799   c-0.373-0.538-1.118-0.673-1.659-0.296c-0.541,0.375-0.673,1.118-0.298,1.659c0.037,0.056,3.817,5.606,1.785,10.523   c-0.252,0.611,0.037,1.307,0.645,1.559C430.875,293.204,431.031,293.232,431.182,293.232z"/>
	<path style="fill:#251426;" d="M291.628,301.072c0.284,0,0.569-0.103,0.797-0.305c0.051-0.047,5.105-4.483,10.222-3.078   c0.627,0.172,1.289-0.198,1.466-0.837c0.175-0.634-0.2-1.291-0.837-1.466c-6.399-1.745-12.203,3.388-12.448,3.607   c-0.489,0.44-0.527,1.193-0.089,1.682C290.976,300.937,291.302,301.072,291.628,301.072z"/>
	<path style="fill:#251426;" d="M291.628,315.771c0.284,0,0.569-0.103,0.797-0.305c0.051-0.047,5.105-4.486,10.222-3.078   c0.627,0.168,1.289-0.2,1.466-0.837c0.175-0.634-0.2-1.291-0.837-1.466c-6.399-1.741-12.203,3.388-12.448,3.607   c-0.489,0.44-0.527,1.193-0.089,1.682C290.976,315.636,291.302,315.771,291.628,315.771z"/>
	<path style="fill:#251426;" d="M289.14,327.992c0.284,0,0.569-0.103,0.797-0.305c0.051-0.047,5.084-4.495,10.218-3.078   c0.638,0.172,1.293-0.198,1.468-0.834c0.175-0.636-0.2-1.293-0.834-1.468c-6.41-1.745-12.203,3.386-12.448,3.607   c-0.489,0.44-0.527,1.193-0.089,1.682C288.487,327.857,288.813,327.992,289.14,327.992z"/>
	<path style="fill:#251426;" d="M310.328,309.319c0.384,0,0.764-0.189,0.995-0.534c0.037-0.056,3.754-5.543,9.015-5.543   c0.04,0,0.082-0.002,0.124,0c0.652,0,1.184-0.522,1.193-1.177c0.009-0.657-0.517-1.2-1.177-1.209c-0.047,0-0.096,0-0.144,0   c-6.552,0-10.821,6.34-11.001,6.613c-0.363,0.548-0.212,1.286,0.336,1.65C309.871,309.253,310.099,309.319,310.328,309.319z"/>
	<path style="fill:#251426;" d="M312.653,297.409c0.384,0,0.764-0.189,0.995-0.534c0.037-0.056,3.752-5.543,9.013-5.543   c0.04,0,0.077,0.005,0.124,0c0.652,0,1.184-0.522,1.193-1.177c0.009-0.657-0.517-1.2-1.177-1.209c-0.047,0-0.096,0-0.144,0   c-6.552,0-10.819,6.34-10.998,6.613c-0.363,0.548-0.212,1.286,0.336,1.65C312.196,297.344,312.425,297.409,312.653,297.409z"/>
	<path style="fill:#251426;" d="M241.612,334.328c0.284,0,0.569-0.103,0.797-0.305c0.051-0.044,5.089-4.497,10.22-3.078   c0.629,0.17,1.289-0.198,1.466-0.834c0.175-0.636-0.2-1.293-0.834-1.468c-6.41-1.743-12.203,3.386-12.448,3.607   c-0.489,0.44-0.527,1.193-0.089,1.682C240.96,334.193,241.286,334.328,241.612,334.328z"/>
	<path style="fill:#251426;" d="M259.323,337.991c0.284,0,0.569-0.103,0.797-0.305c0.051-0.044,5.105-4.49,10.222-3.078   c0.629,0.17,1.289-0.198,1.466-0.837c0.175-0.634-0.2-1.291-0.837-1.466c-6.399-1.745-12.203,3.386-12.448,3.607   c-0.489,0.44-0.527,1.193-0.089,1.682C258.671,337.856,258.997,337.991,259.323,337.991z"/>
	<path style="fill:#251426;" d="M245.867,353.006c0.45,0,0.878-0.256,1.081-0.69c0.03-0.063,2.917-6.128,8.186-6.853   c0.652-0.089,1.109-0.692,1.018-1.344c-0.089-0.652-0.713-1.091-1.344-1.018c-6.573,0.902-9.887,7.913-10.024,8.211   c-0.275,0.596-0.016,1.305,0.58,1.582C245.527,352.969,245.697,353.006,245.867,353.006z"/>
	<path style="fill:#251426;" d="M230.572,352.531c0.422,0,0.832-0.224,1.049-0.62c0.033-0.058,3.32-5.916,8.626-6.284   c0.659-0.047,1.153-0.615,1.109-1.272c-0.047-0.657-0.608-1.172-1.272-1.109c-6.622,0.459-10.399,7.233-10.555,7.519   c-0.317,0.578-0.105,1.303,0.473,1.617C230.183,352.482,230.378,352.531,230.572,352.531z"/>
	<path style="fill:#251426;" d="M424.926,270.692c0.468,0,0.913-0.277,1.102-0.736c2.538-6.133-1.843-12.529-2.032-12.799   c-0.373-0.538-1.118-0.673-1.659-0.296c-0.541,0.375-0.673,1.118-0.301,1.659c0.04,0.056,3.819,5.609,1.787,10.523   c-0.252,0.611,0.037,1.307,0.645,1.559C424.618,270.664,424.774,270.692,424.926,270.692z"/>
	<path style="fill:#251426;" d="M257.294,323.269c0.329,0,0.657-0.137,0.892-0.403c0.047-0.051,4.567-5.042,9.801-4.229   c0.638,0.105,1.261-0.345,1.361-0.997c0.1-0.65-0.347-1.261-0.997-1.361c-6.548-1.014-11.732,4.76-11.951,5.007   c-0.436,0.494-0.389,1.247,0.105,1.682C256.73,323.169,257.012,323.269,257.294,323.269z"/>
	<path style="fill:#251426;" d="M270.657,327.992c0.329,0,0.657-0.137,0.895-0.403c0.044-0.051,4.527-5.035,9.798-4.229   c0.634,0.11,1.261-0.345,1.361-0.997c0.1-0.65-0.345-1.261-0.997-1.361c-6.543-1.016-11.735,4.76-11.951,5.007   c-0.436,0.494-0.387,1.247,0.105,1.682C270.093,327.892,270.375,327.992,270.657,327.992z"/>
	<path style="fill:#251426;" d="M276.093,312.11c0.329,0,0.657-0.137,0.892-0.403c0.044-0.051,4.555-5.045,9.803-4.229   c0.634,0.103,1.261-0.345,1.361-0.997s-0.347-1.261-0.997-1.361c-6.571-1.03-11.735,4.76-11.954,5.007   c-0.436,0.494-0.389,1.247,0.105,1.682C275.529,312.01,275.811,312.11,276.093,312.11z"/>
	<path style="fill:#251426;" d="M24.068,260.365c0.515,0,0.988-0.336,1.144-0.853c0.019-0.065,1.997-6.485,7.107-7.964   c0.631-0.184,0.995-0.846,0.813-1.48c-0.184-0.631-0.841-1.004-1.48-0.813c-6.373,1.848-8.635,9.265-8.729,9.579   c-0.186,0.629,0.172,1.293,0.804,1.48C23.842,260.349,23.957,260.365,24.068,260.365z"/>
	<path style="fill:#251426;" d="M29.307,242.656c0.515,0,0.988-0.336,1.144-0.853c0.019-0.065,1.997-6.485,7.105-7.962   c0.634-0.184,0.997-0.846,0.816-1.477c-0.184-0.634-0.85-1.004-1.477-0.816c-6.375,1.845-8.638,9.262-8.731,9.577   c-0.186,0.629,0.172,1.293,0.804,1.48C29.081,242.64,29.195,242.656,29.307,242.656z"/>
	<path style="fill:#251426;" d="M40.235,244.867c0.515,0,0.988-0.336,1.144-0.853c0.019-0.065,1.997-6.487,7.105-7.964   c0.634-0.184,0.997-0.846,0.816-1.477c-0.182-0.634-0.85-1.004-1.477-0.816c-6.375,1.845-8.638,9.265-8.731,9.579   c-0.186,0.631,0.172,1.293,0.804,1.48C40.009,244.851,40.123,244.867,40.235,244.867z"/>
	<path style="fill:#251426;" d="M40.235,227.706c0.515,0,0.988-0.336,1.144-0.853c0.019-0.065,1.997-6.485,7.107-7.964   c0.631-0.184,0.995-0.846,0.813-1.48c-0.182-0.634-0.837-1-1.48-0.813c-6.373,1.848-8.635,9.265-8.729,9.579   c-0.186,0.629,0.172,1.293,0.804,1.48C40.009,227.69,40.123,227.706,40.235,227.706z"/>
	<path style="fill:#251426;" d="M33.68,277.226c0.1,0,0.2-0.014,0.301-0.04c0.636-0.163,1.021-0.813,0.857-1.452   c-0.016-0.065-1.631-6.585,1.983-10.488c0.447-0.485,0.417-1.24-0.065-1.687c-0.487-0.447-1.237-0.419-1.687,0.065   c-4.509,4.87-2.624,12.389-2.542,12.709C32.667,276.869,33.151,277.226,33.68,277.226z"/>
	<path style="fill:#251426;" d="M18.947,283.026c0.1,0,0.2-0.014,0.301-0.04c0.636-0.163,1.021-0.813,0.857-1.452   c-0.016-0.065-1.631-6.587,1.983-10.488c0.45-0.482,0.419-1.237-0.063-1.685c-0.478-0.45-1.24-0.422-1.685,0.063   c-4.513,4.865-2.628,12.389-2.547,12.709C17.933,282.669,18.418,283.026,18.947,283.026z"/>
	<path style="fill:#251426;" d="M27.102,297.326c0.1,0,0.2-0.014,0.301-0.04c0.636-0.163,1.021-0.813,0.857-1.452   c-0.016-0.065-1.631-6.585,1.983-10.486c0.447-0.482,0.417-1.237-0.065-1.687c-0.485-0.445-1.235-0.419-1.687,0.065   c-4.509,4.865-2.624,12.387-2.542,12.706C26.089,296.969,26.573,297.326,27.102,297.326z"/>
	<path style="fill:#251426;" d="M12.593,307.827c0.1,0,0.2-0.014,0.301-0.04c0.636-0.163,1.021-0.813,0.857-1.452   c-0.016-0.065-1.631-6.585,1.983-10.486c0.447-0.482,0.417-1.237-0.065-1.687c-0.482-0.445-1.237-0.422-1.687,0.065   c-4.509,4.865-2.624,12.387-2.542,12.706C11.579,307.471,12.064,307.827,12.593,307.827z"/>
	<path style="fill:#251426;" d="M20.289,315.279c0.1,0,0.2-0.014,0.301-0.04c0.636-0.163,1.021-0.813,0.857-1.452   c-0.016-0.065-1.633-6.587,1.981-10.488c0.45-0.482,0.419-1.237-0.063-1.685c-0.48-0.45-1.24-0.422-1.685,0.063   c-4.513,4.865-2.626,12.389-2.545,12.709C19.275,314.923,19.76,315.279,20.289,315.279z"/>
	<path style="fill:#251426;" d="M13.932,333.279c0.1,0,0.2-0.014,0.301-0.04c0.636-0.163,1.021-0.813,0.857-1.452   c-0.016-0.065-1.631-6.585,1.983-10.488c0.447-0.485,0.417-1.24-0.065-1.687c-0.487-0.447-1.237-0.417-1.687,0.065   c-4.509,4.87-2.624,12.389-2.542,12.709C12.919,332.923,13.403,333.279,13.932,333.279z"/>
	<path style="fill:#251426;" d="M37.97,291.528c0.1,0,0.2-0.014,0.301-0.04c0.636-0.163,1.021-0.813,0.857-1.452   c-0.016-0.065-1.631-6.585,1.983-10.488c0.447-0.485,0.417-1.24-0.065-1.687c-0.487-0.445-1.237-0.417-1.687,0.065   c-4.509,4.87-2.624,12.389-2.542,12.709C36.956,291.172,37.441,291.528,37.97,291.528z"/>
	<path style="fill:#251426;" d="M40.65,264.881c0.1,0,0.2-0.014,0.301-0.04c0.636-0.163,1.021-0.813,0.857-1.452   c-0.016-0.065-1.631-6.585,1.983-10.486c0.45-0.482,0.419-1.237-0.063-1.685c-0.48-0.45-1.24-0.422-1.685,0.063   c-4.513,4.865-2.628,12.387-2.547,12.706C39.636,264.524,40.121,264.881,40.65,264.881z"/>
	<path style="fill:#251426;" d="M380.684,70.774c0.55,0,1.044-0.382,1.165-0.941c1.398-6.487-4.057-11.998-4.29-12.229   c-0.466-0.461-1.219-0.466-1.685,0.005c-0.466,0.466-0.464,1.221,0.002,1.687c0.047,0.047,4.76,4.835,3.64,10.034   c-0.14,0.645,0.27,1.279,0.913,1.417C380.513,70.764,380.6,70.774,380.684,70.774z"/>
	<path style="fill:#251426;" d="M345.471,72.631c0.214,0,0.429-0.056,0.622-0.175c0.562-0.345,0.739-1.079,0.396-1.64   c-3.463-5.662-11.215-5.886-11.543-5.893c-0.611-0.058-1.2,0.51-1.214,1.167c-0.016,0.657,0.506,1.202,1.165,1.219   c0.068,0.002,6.781,0.212,9.556,4.751C344.678,72.428,345.07,72.631,345.471,72.631z"/>
	<path style="fill:#251426;" d="M353.409,64.403c0.214,0,0.429-0.056,0.622-0.175c0.562-0.345,0.739-1.079,0.396-1.64   c-3.463-5.66-11.213-5.886-11.541-5.893c-0.009,0-0.019,0-0.026,0c-0.648,0-1.177,0.517-1.191,1.167   c-0.016,0.657,0.506,1.202,1.165,1.219c0.065,0.002,6.781,0.214,9.556,4.751C352.617,64.2,353.009,64.403,353.409,64.403z"/>
	<path style="fill:#251426;" d="M426.403,483.662c0.273,0,0.545-0.091,0.769-0.28c0.503-0.424,0.569-1.177,0.144-1.682   c-15.029-17.87-10.064-73.944-10.013-74.508c0.061-0.657-0.424-1.237-1.079-1.298c-0.636-0.033-1.235,0.422-1.298,1.079   c-0.214,2.344-5.105,57.634,10.562,76.265C425.725,483.517,426.063,483.662,426.403,483.662z"/>
	<path style="fill:#251426;" d="M430.166,476.012c0.116,0,0.235-0.016,0.354-0.054c0.555-0.172,0.906-0.722,0.827-1.298   c-0.014-0.109-1.384-10.472-0.212-15.16c1.237,1.852,3.339,7.254,4.826,12.033c0.179,0.571,0.732,0.93,1.34,0.823   c0.592-0.103,1.014-0.624,0.993-1.221c-0.005-0.107-0.333-8.955-0.051-13.89c0.892,2.104,2.048,5.404,2.955,8.358   c0.193,0.629,0.867,0.988,1.489,0.79c0.631-0.191,0.983-0.86,0.79-1.489c-3.71-12.1-5.014-12.03-5.895-11.956   c-0.445,0.026-1.226,0.273-1.463,1.622c-0.326,1.838-0.394,5.578-0.373,9.053c-2.787-7.035-4.285-7.051-4.858-7.056   c-0.005,0-0.012,0-0.016,0c-0.492,0-1.368,0.214-1.836,1.617c-0.878,2.635-0.841,7.179-0.613,10.877   c-2.952-5.103-6.221-9.428-8.573-8.838c-1.999,0.524-2.123,3.53-2.006,6.091c0.028,0.657,0.513,1.209,1.244,1.137   c0.659-0.028,1.167-0.587,1.137-1.244c-0.11-2.433,0.156-3.33,0.291-3.621c1.445,0.58,5.352,6.373,8.587,12.771   C429.309,475.767,429.726,476.012,430.166,476.012z"/>
	<path style="fill:#251426;" d="M395.037,483.662c0.161,0,0.324-0.033,0.48-0.1c0.604-0.266,0.876-0.969,0.613-1.573   c-2.025-4.614-3.465-9.425-3.288-10.861c3.078,1.053,7.841,6.112,9.467,8.025c0.391,0.464,1.07,0.559,1.578,0.217   c0.503-0.34,0.671-1.007,0.387-1.545c-3.5-6.629-6.047-13.221-5.79-14.899c0.13,0.037,0.336,0.112,0.624,0.261   c6.543,3.376,11.077,10.423,11.122,10.493c0.317,0.494,0.941,0.68,1.48,0.454c0.538-0.233,0.827-0.82,0.683-1.389   c-1.2-4.732-1.82-10.528-0.832-11.611c2.843,0.373,5.445,6.897,6.294,9.994c0.175,0.634,0.827,1.002,1.468,0.834   c0.634-0.175,1.009-0.832,0.834-1.468c-0.31-1.121-3.153-10.994-8.002-11.76c-0.913-0.14-1.757,0.135-2.356,0.792   c-1.426,1.564-1.254,5.39-0.75,8.726c-2.109-2.388-5.157-5.282-8.845-7.186c-1.482-0.767-2.624-0.757-3.407,0.033   c-1.515,1.529-0.107,6.184,2.118,11.201c-1.829-1.594-3.849-3.043-5.578-3.528c-1.235-0.345-1.943,0.205-2.256,0.564   c-1.797,2.067,1.023,9.416,2.864,13.613C394.14,483.396,394.578,483.662,395.037,483.662z"/>
	<path style="fill:#251426;" d="M291.505,480.241c0.119,0,0.24-0.019,0.359-0.056c0.627-0.198,0.976-0.867,0.778-1.496   c-1.496-4.751-2.426-9.647-2.137-11.063c1.703,0.604,5.592,4.448,8.461,7.95c0.347,0.417,0.925,0.555,1.421,0.326   c0.494-0.226,0.771-0.76,0.676-1.293c-0.792-4.448-1.114-8.841-0.792-10.36c1.717,1.209,4.628,5.48,6.308,8.409   c0.273,0.48,0.837,0.704,1.365,0.555c0.529-0.154,0.885-0.648,0.862-1.198c-0.128-2.915-0.072-6.324,0.191-8.356   c0.85,1.806,2.016,5.019,2.887,7.869c0.196,0.627,0.857,0.981,1.491,0.792c0.629-0.193,0.983-0.86,0.792-1.491   c-3.22-10.528-4.663-10.693-5.355-10.77c-0.617-0.07-1.167,0.231-1.496,0.802c-0.708,1.226-0.918,4.28-0.958,6.939   c-1.657-2.458-3.863-5.292-5.63-6.014c-0.664-0.277-1.347-0.186-1.871,0.238c-1.328,1.072-1.265,4.914-0.769,8.929   c-2.344-2.514-5.576-5.562-7.654-5.776c-0.685-0.089-1.279,0.175-1.701,0.694c-1.652,2.023,0.315,9.348,1.633,13.536   C290.526,479.915,290.997,480.241,291.505,480.241z"/>
	<path style="fill:#251426;" d="M228.601,482.436c0.084,0,0.172-0.009,0.259-0.028c0.643-0.144,1.049-0.781,0.906-1.424   c-1.09-4.891-1.566-9.87-1.095-11.152c1.51,0.578,4.234,4.255,6.03,7.559c0.296,0.55,0.976,0.778,1.543,0.517   c0.571-0.261,0.844-0.918,0.622-1.505c-1.235-3.297-2.134-8.246-0.61-8.959c0.119-0.056,0.275-0.093,0.562,0.016   c1.829,0.704,4.287,5.171,5.406,7.822c0.214,0.51,0.739,0.806,1.298,0.713c0.545-0.091,0.955-0.545,0.993-1.098   c0.252-3.779,0.809-8.139,1.363-10.092c1.084,1.815,2.547,5.62,3.407,8.267c0.203,0.627,0.876,0.972,1.503,0.767   c0.627-0.203,0.969-0.876,0.767-1.503c-0.459-1.41-2.843-8.528-4.772-10.218c-0.48-0.422-1.095-0.536-1.659-0.305   c-0.517,0.214-1.78,0.739-2.631,8.687c-1.256-2.169-2.992-4.567-4.819-5.268c-0.839-0.319-1.678-0.301-2.428,0.049   c-1.871,0.878-2.3,3.078-2.151,5.373c-1.349-1.636-2.885-3.034-4.313-3.251c-0.664-0.103-1.293,0.112-1.757,0.606   c-1.892,2.025-0.34,10.11,0.412,13.491C227.559,482.058,228.053,482.436,228.601,482.436z"/>
	<path style="fill:#FFE9CB;" d="M347.707,414.975c0,0-8.973-14.103-17.921-16.764c-8.948-2.662-63.706,38.892-63.706,38.892   s47.517,11.055,88.495-3.92l-0.571-1.443L347.707,414.975z"/>
	<g>
		<path style="fill:#EA7033;" d="M294.805,362.145c0,0,30.806,85.835-53.769,75.908"/>
		<path style="fill:#251426;" d="M253.871,440.041c17.646,0,30.567-5.028,38.503-15.015c17.888-22.509,4.148-61.63,3.553-63.284    c-0.224-0.62-0.904-0.934-1.526-0.72c-0.62,0.224-0.941,0.906-0.72,1.526c0.142,0.391,13.885,39.535-3.178,60.998    c-9.22,11.597-25.809,16.09-49.327,13.319c-0.676-0.065-1.249,0.394-1.326,1.046c-0.075,0.655,0.391,1.249,1.046,1.326    C245.471,439.773,249.798,440.041,253.871,440.041z"/>
	</g>
	<path style="fill:#251426;" d="M354.004,432.932c0.221,0,0.447-0.063,0.648-0.193c0.552-0.357,0.711-1.095,0.354-1.647   c-0.063-0.098-6.322-10.029-8.051-32.971c-0.051-0.655-0.627-1.16-1.279-1.1c-0.657,0.051-1.151,0.624-1.102,1.279   c1.785,23.642,8.16,33.675,8.43,34.09C353.232,432.741,353.614,432.932,354.004,432.932z"/>
	<path style="fill:#251426;" d="M320.997,433.829c4.786,0,8.815-2.971,9.025-3.127c0.527-0.396,0.634-1.142,0.24-1.668   c-0.396-0.527-1.146-0.641-1.668-0.242c-0.054,0.04-5.471,4.017-10.458,2.148c-0.613-0.231-1.305,0.082-1.536,0.701   c-0.231,0.617,0.084,1.305,0.701,1.536C318.548,433.643,319.797,433.829,320.997,433.829z"/>
	<path style="fill:#251426;" d="M326.792,424.15c4.784,0,8.813-2.971,9.022-3.127c0.527-0.396,0.634-1.142,0.24-1.668   c-0.398-0.527-1.142-0.638-1.671-0.242c-0.051,0.04-5.462,4.015-10.453,2.148c-0.613-0.226-1.305,0.082-1.536,0.701   c-0.231,0.617,0.084,1.305,0.701,1.536C324.343,423.964,325.592,424.15,326.792,424.15z"/>
	<path style="fill:#251426;" d="M339.401,432.385c4.784,0,8.813-2.971,9.022-3.127c0.527-0.396,0.634-1.142,0.24-1.668   c-0.396-0.529-1.142-0.638-1.671-0.242c-0.051,0.04-5.469,4.017-10.455,2.148c-0.61-0.228-1.303,0.082-1.536,0.701   c-0.231,0.617,0.084,1.305,0.701,1.536C336.949,432.198,338.198,432.385,339.401,432.385z"/>
	<path style="fill:#251426;" d="M310.512,427.888c4.786,0,8.815-2.971,9.025-3.127c0.527-0.396,0.634-1.142,0.24-1.668   c-0.396-0.527-1.144-0.638-1.668-0.242c-0.056,0.04-5.466,4.017-10.458,2.148c-0.61-0.231-1.305,0.082-1.536,0.701   c-0.231,0.617,0.084,1.305,0.701,1.536C308.063,427.701,309.312,427.888,310.512,427.888z"/>
	<path style="fill:#251426;" d="M298.887,434.379c4.786,0,8.815-2.971,9.025-3.127c0.527-0.396,0.634-1.142,0.24-1.668   c-0.396-0.527-1.144-0.638-1.668-0.242c-0.056,0.04-5.466,4.015-10.458,2.148c-0.611-0.226-1.303,0.082-1.536,0.701   c-0.231,0.617,0.084,1.305,0.701,1.536C296.438,434.193,297.687,434.379,298.887,434.379z"/>
</g>















</svg>
