<?xml version="1.0" encoding="UTF-8"?>
<!-- Generator: Adobe Illustrator 25.1.0, SVG Export Plug-In . SVG Version: 6.00 Build 0)  -->
<svg xmlns="http://www.w3.org/2000/svg" xmlns:xlink="http://www.w3.org/1999/xlink" version="1.1" id="Capa_1" x="0px" y="0px" viewBox="0 0 500 500" style="enable-background:new 0 0 500 500;" xml:space="preserve" width="512" height="512">
<g>
	<path style="fill:#251326;" d="M313.735,64.052V16.04c0,0,50.833,24.141,13.549,49.244L313.735,64.052z"/>
	<path style="fill:#FFE9CB;" d="M317.677,63.065l1.208-35.736c0,0,32.903,14,4.612,38.945L317.677,63.065z"/>
	<path style="fill:#251426;" d="M323.496,65.132c-0.221,0-0.442-0.066-0.634-0.207c-0.482-0.35-0.59-1.025-0.238-1.509   c4.559-6.275,6.372-11.935,5.389-16.819c-0.645-3.209-2.384-5.381-3.647-6.588l-2.431,23.168c-0.062,0.592-0.588,1.03-1.187,0.961   c-0.593-0.062-1.023-0.593-0.961-1.187l2.637-25.134c0.038-0.368,0.263-0.691,0.594-0.855c0.336-0.165,0.727-0.148,1.04,0.044   c0.197,0.119,4.834,2.996,6.074,9.164c1.107,5.501-0.831,11.73-5.761,18.515C324.16,64.978,323.831,65.132,323.496,65.132z"/>
	<path style="fill:#251426;" d="M239.165,229.526h-41.077c-0.464,0-0.878-0.298-1.024-0.737   c-22.799-68.192-21.745-123.822,3.136-165.343c31.532-52.626,91.232-63.329,91.832-63.432c0.571-0.09,1.118,0.275,1.239,0.843   l15.587,74.117c0.122,0.584-0.251,1.157-0.835,1.28c-0.585,0.121-1.157-0.25-1.28-0.835L291.374,2.344   c-7.974,1.655-60.586,14.228-89.336,62.235c-24.437,40.803-25.502,95.572-3.171,162.786h40.299c0.597,0,1.08,0.483,1.08,1.08   C240.245,229.043,239.762,229.526,239.165,229.526z"/>
	<path style="fill:#251426;" d="M289.991,83.936c-0.377,0-0.742-0.197-0.941-0.548L251.19,16.573   c-0.294-0.519-0.112-1.178,0.407-1.473c0.52-0.293,1.176-0.111,1.473,0.407l37.859,66.816c0.294,0.519,0.112,1.178-0.407,1.473   C290.354,83.891,290.171,83.936,289.991,83.936z"/>
	<path style="fill:#251426;" d="M271.53,106.755c-0.255,0-0.511-0.09-0.716-0.271l-61.566-54.49   c-0.446-0.396-0.488-1.078-0.093-1.526c0.399-0.445,1.079-0.485,1.526-0.093l61.566,54.49c0.446,0.396,0.488,1.078,0.093,1.526   C272.125,106.632,271.828,106.755,271.53,106.755z"/>
	<path style="fill:#251426;" d="M260.715,116.464c-0.113,0-0.227-0.018-0.34-0.055l-71.911-23.811   c-0.567-0.188-0.874-0.799-0.686-1.365c0.188-0.567,0.799-0.869,1.365-0.686l71.911,23.811c0.567,0.188,0.874,0.799,0.686,1.365   C261.591,116.177,261.169,116.464,260.715,116.464z"/>
	<path style="fill:#251426;" d="M257.991,141.714c-0.013,0-0.026,0-0.039-0.001l-76.159-2.667c-0.596-0.02-1.062-0.521-1.041-1.117   c0.02-0.596,0.556-1.067,1.117-1.041l76.159,2.667c0.596,0.02,1.062,0.521,1.041,1.117   C259.049,141.255,258.57,141.714,257.991,141.714z"/>
	<path style="fill:#251426;" d="M184.189,172.602c-0.576,0-1.054-0.455-1.078-1.036c-0.024-0.596,0.439-1.099,1.035-1.124   l69.799-2.888c0.567-0.015,1.099,0.438,1.124,1.035c0.024,0.596-0.439,1.099-1.035,1.124l-69.799,2.888   C184.22,172.602,184.205,172.602,184.189,172.602z"/>
	<path style="fill:#251426;" d="M191.401,207.351c-0.492,0-0.936-0.337-1.051-0.836c-0.135-0.581,0.227-1.163,0.807-1.297   l62.588-14.526c0.581-0.14,1.164,0.227,1.297,0.807c0.135,0.581-0.227,1.163-0.807,1.297l-62.588,14.526   C191.564,207.343,191.482,207.351,191.401,207.351z"/>
	<path style="fill:#251326;" d="M128.218,272.223c0,0-63.26,40.432-39.618,95.962l-21.427,3.527c0,0-25.881-38.85,16.123-76.388   c0,0-31.55,41.052-30.183,63.258l-16.579-6.013c0,0-10.052-107.878,83.866-89.286"/>
	<path style="fill:#FFE9CB;" d="M235.724,217.798c0,0-24.947-120.886,47.729-152.424s177.582,114.806,152.9,125.776   s-91.015-36.824-91.015-36.824s85.745,172.496,7.075,212.957s-221.676,57.305-239.066-14.684   C74.345,191.15,235.724,217.798,235.724,217.798z"/>
	<path style="fill:#FFE9CB;" d="M369.02,338.467c0,0,15.408,130.268,16.003,150.837l-32.609,6.856l-25.874-138.12L369.02,338.467z"/>
	<path style="fill:#FFE9CB;" d="M211.327,338.467c0,0,15.408,130.268,16.003,150.837l-32.609,6.856l-25.874-138.12L211.327,338.467z   "/>
	<path style="fill:#FFE9CB;" d="M159.379,344.31c0,0-17.765,129.967-22.35,150.027l-33.287-1.544l9.603-140.195L159.379,344.31z"/>
	<path style="fill:#FFE9CB;" d="M378.792,300.073c0,0,84.986,13.712,84.986,38.395s-48.809,90.502-48.809,90.502l-29.946-23.311   c0,0,42.498-54.85,37.316-57.592c-5.183-2.742-65.598-20.569-65.598-20.569L378.792,300.073z"/>
	<path style="fill:#251326;" d="M378.792,175.321c0,0,11.341-68.901,22.572-57.624s50.683,61.761,34.989,73.453   C420.94,202.633,378.792,175.321,378.792,175.321z"/>
	<path style="fill:#FFE9CB;" d="M271.529,87.536L238.67,31.384c0,0-19.549,25.372-15.806,48.249s44.921,14.558,44.921,14.558   L271.529,87.536z"/>
	<path style="fill:#251426;" d="M332.191,116.367c-3.075,0-9.449-3.019-19.03-9.021c-0.505-0.317-0.658-0.983-0.342-1.49   c0.319-0.505,0.986-0.656,1.49-0.342c7.208,4.516,15.881,8.992,17.868,8.808c-0.244-2.178-7.003-10.677-13.413-17.624   c-0.404-0.438-0.377-1.122,0.062-1.527c0.436-0.402,1.122-0.378,1.527,0.062c7.214,7.819,15.445,17.701,13.679,20.372   C333.696,116.113,333.081,116.367,332.191,116.367z"/>
	<path style="fill:#251426;" d="M350.735,96.649c-3.067,0-9.433-3.052-19.007-9.121c-0.504-0.32-0.654-0.988-0.334-1.491   c0.319-0.505,0.984-0.655,1.491-0.334c7.182,4.551,15.829,9.098,17.822,8.901c-0.232-2.179-6.946-10.714-13.319-17.694   c-0.403-0.44-0.371-1.124,0.07-1.526c0.44-0.4,1.123-0.375,1.526,0.07c7.174,7.857,15.353,17.782,13.572,20.444   C352.22,96.399,351.612,96.649,350.735,96.649z"/>
	<path style="fill:#FFFFFF;" d="M420.435,180.539c-0.457,0-0.881-0.291-1.029-0.749c-3.776-11.726-7.43-14.669-9.83-15.074   c-2.576-0.435-4.479,2.053-4.497,2.078c-0.358,0.475-1.034,0.573-1.511,0.217c-0.477-0.357-0.578-1.029-0.224-1.508   c0.109-0.146,2.679-3.565,6.568-2.922c4.359,0.716,8.246,6.284,11.551,16.545c0.183,0.568-0.13,1.176-0.697,1.36   C420.657,180.522,420.545,180.539,420.435,180.539z"/>
	<path style="fill:#FFFFFF;" d="M427.09,176.379c-0.299,0-0.595-0.123-0.809-0.364c-12.248-13.83-7.036-24.47-6.808-24.916   c0.272-0.531,0.926-0.74,1.454-0.471c0.53,0.271,0.741,0.919,0.473,1.45l0,0c-0.198,0.396-4.718,9.838,6.5,22.504   c0.396,0.446,0.353,1.13-0.093,1.526C427.601,176.289,427.346,176.379,427.09,176.379z"/>
	<path style="fill:#251426;" d="M251.779,89.062c-7.313,0-12.749-2.278-16.188-6.79c-8.848-11.61-1.183-33.677-0.851-34.611   c0.135-0.382,0.472-0.655,0.874-0.71c0.405-0.053,0.799,0.12,1.031,0.453l24.957,35.77c0.341,0.49,0.222,1.163-0.268,1.505   c-0.492,0.341-1.165,0.218-1.505-0.268l-23.697-33.965c-1.656,5.696-5.478,21.788,1.181,30.519c3.39,4.447,9.133,6.412,17.085,5.84   c0.581-0.05,1.114,0.403,1.155,0.999c0.043,0.596-0.404,1.113-0.999,1.155C253.601,89.027,252.676,89.062,251.779,89.062z"/>
	<path style="fill:#251326;" d="M288.258,95.666c-0.045,2.551-8.018,36.12,4.433,37.287c12.451,1.167,74.808,3.737,93.538,15.861   l-2.335,9.472c0,0-15.27-14.513-51.617-15.53c-36.347-1.016-52.66-1.336-53.827-15.732c-1.167-14.396,7.956-44.43-10.113-52.863   l8.127-4.725C276.464,69.437,288.619,75.197,288.258,95.666z"/>
	<path style="fill:#251326;" d="M286.891,64.022c0,0,102.452,80.123,103.23,83.624c0.778,3.502,3.502-8.56,3.502-8.56   s-91.432-70.451-98.051-75.562C295.571,63.525,288.656,62.213,286.891,64.022z"/>
	<path style="fill:#251326;" d="M316.049,78.325c0,0-14.733,31.974-5.651,37.059c9.752,5.46,54.17,3.703,54.17,3.703v5.6   c0,0-52.655,5.476-61.568-3.437c-8.913-8.913,4.799-46.053,4.799-46.053L316.049,78.325z"/>
	<path style="fill:#251326;" d="M305.056,60.931c0,0,0,12.689,31.609,7.07l-7.353-2.817c0,0-14.851,1.239-16.19-4.253H305.056z"/>
	<path style="fill:#251326;" d="M373.873,91.571c0.316,0.24-4.793,20.691,19.749,41.381l5.021-5.854c0,0-17.95-12.74-18.839-30.785   L373.873,91.571z"/>
	<path style="fill:#251326;" d="M314.25,80.394c0,0,27.519-12.489,36.41-1.905c8.891,10.584,10.584,39.209,10.584,39.209   l5.927,3.552c0,0-1.823-37.763-13.124-45.067c-16.723-10.808-43.649,0-43.649,0L314.25,80.394z"/>
	<path style="fill:#251326;" d="M241.238,111.83c0,0,10.784,9.804,22.406,36.454c8.874,20.349,61.006,18.852,81.694,6.042   l4.269,9.118c0,0-39.209,22.533-82.394,0c-15.881-8.286-15.795-30.87-29.891-39.524L241.238,111.83z"/>
	<path style="fill:#251326;" d="M231.015,163.584c0,0,25.913,4.135,43.411,20.779c48.897,46.512,82.078-4.905,82.078-4.905   s4.552,11.395,5.717,14.51c0,0-19.631,18.859-63.342,21.853c-43.711,2.994-65.345-12.297-65.345-12.297l-0.743-6.861   c3.212,0,55.98,17.32,54.101,10.635c-3.123-11.111-55.876-32.001-55.876-32.001S231.003,166.668,231.015,163.584z"/>
	<path style="fill:#251326;" d="M133.794,238.97c0,0,80.22,28.998,108.906,160.954c0,0,13.819-3.211,25.638-4.162   c0,0-47.397-111.443-117.111-167.316C151.227,228.445,138.676,233.279,133.794,238.97z"/>
	<path style="fill:#251326;" d="M110.227,271.546c0,0,96.519,90.162,104.682,130.568l12.421-0.695c0,0-31.733-87.508-110.84-140.609   L110.227,271.546z"/>
	<path style="fill:#251326;" d="M107.46,314.184c0,0,43.584,37.137,45.096,79.116c0,0,17.161,6.964,24.546,8.814   c0,0-17.723-65.272-69.642-102.041V314.184z"/>
	<path style="fill:#251326;" d="M177.107,219.613c-0.092,0.014,108.39,88.085,119.511,169.278c0,0,11.909-0.443,21.052-6.74   c0,0-13.053-86.641,67.353-96.833l-2.413-19.055c0,0-65.802,12.725-77.553,84.153c0,0-28.682-67.132-109.973-131.509   L177.107,219.613z"/>
	<path style="fill:#251326;" d="M235.724,217.798c0,0,32.117,26.439,60.891,39.508c10.908,4.955,74.274-38.4,74.274-38.4   l2.902,9.539c0,0-58.941,50.251-79.404,48.592s-76.147-60.659-76.147-60.659S232.26,213.716,235.724,217.798z"/>
	<polygon style="fill:#251326;" points="352.413,496.16 394.627,494.338 381.539,458.863 347.439,469.606  "/>
	<polygon style="fill:#251326;" points="394.627,392.979 425.617,413.931 414.069,438.481 380.864,412.719  "/>
	<path style="fill:#251326;" d="M394.627,338.907l19.068-31.096c0,0,10.201,3.007,11.922,3.578l-15.495,32.378L394.627,338.907z"/>
	<path style="fill:#251326;" d="M422.338,348.066l37.147-19.046c0,0,6.558,8.53,2.618,19.046c0,0-46.057,14.54-44.788,12.439   C418.586,358.404,422.338,348.066,422.338,348.066z"/>
	<path style="fill:#251326;" d="M410.259,371.252c0,0,37.348,7.965,36.606,9.257c-0.742,1.292-6.788,11.34-7.495,12.469   c-0.708,1.13-36.13-11.754-36.13-11.754L410.259,371.252z"/>
	<path style="fill:#251326;" d="M332.318,388.89l41.473-9.308l2.307,20.341c0,0-40.099,8.613-40.825,4.741   C334.548,400.793,332.318,388.89,332.318,388.89z"/>
	<path style="fill:#251326;" d="M340.46,432.353l38.332-8.155l1.544,14.284c0,0-37.039,9.012-37.331,7.456   C342.713,444.382,340.46,432.353,340.46,432.353z"/>
	<path style="fill:#251326;" d="M354.208,364.521c0.126-0.495,5.222-34.47,28.658-38.733c0,0,2.156-16.842,2.156-18.213   c0-1.371-18.783,3.444-33.324,15.296s-9.962,48.38-9.962,48.38S353.245,368.306,354.208,364.521z"/>
	<path style="fill:#251326;" d="M246.224,100.774c0,0,27.057,14.01,32.925,29.825l1.916-9.349c0,0-10.517-17.792-32.128-25.284   C248.936,95.966,247.094,99.087,246.224,100.774z"/>
	<polygon style="fill:#251326;" points="190.694,474.668 225.947,471.097 231.719,500 190.694,500  "/>
	<polygon style="fill:#251326;" points="105.065,473.503 140.721,473.503 138.449,500 102.758,500  "/>
	<polygon style="fill:#251326;" points="179.653,415.73 219.771,412.147 221.099,424.197 182.133,428.969  "/>
	<polygon style="fill:#251326;" points="224.494,456.225 187.734,458.863 185.713,448.08 223.164,443.394  "/>
	<polygon style="fill:#251326;" points="110.227,399.923 150.2,409.873 148.138,424.197 108.781,419.252  "/>
	<polygon style="fill:#251326;" points="107.266,441.366 144.922,446.118 143.572,455.115 106.324,455.115  "/>
	<path style="fill:#251326;" d="M263.199,78.43l-25.877-42.224c0,0-36.667,49.718,11.615,59.76l-2.713,4.808   c0,0-22.85,0.405-29.555-24.592s20.654-48.853,20.654-48.853l31.016,46.832L263.199,78.43z"/>
	<path style="fill:#FFFFFF;" d="M66.923,290.261c-0.109,0-0.218-0.016-0.326-0.051c-0.568-0.179-0.883-0.783-0.705-1.352   c0.761-2.424,3.653-6.941,9.434-6.643c0.595,0.031,1.054,0.538,1.024,1.134c-0.031,0.597-0.531,1.078-1.134,1.024   c-5.45-0.3-7.193,4.914-7.264,5.135C67.806,289.968,67.379,290.261,66.923,290.261z"/>
	<path style="fill:#FFFFFF;" d="M78.046,293.211c-0.109,0-0.218-0.016-0.326-0.051c-0.568-0.179-0.883-0.783-0.705-1.352   c0.761-2.423,3.725-6.902,9.433-6.643c0.595,0.031,1.054,0.538,1.024,1.134c-0.031,0.596-0.525,1.05-1.134,1.024   c-5.434-0.29-7.191,4.914-7.263,5.135C78.929,292.918,78.503,293.211,78.046,293.211z"/>
	<path style="fill:#FFFFFF;" d="M86.394,279.176c-0.109,0-0.218-0.016-0.326-0.051c-0.568-0.179-0.883-0.783-0.705-1.352   c0.76-2.423,3.646-6.924,9.434-6.643c0.595,0.031,1.054,0.538,1.024,1.134c-0.03,0.597-0.537,1.069-1.134,1.024   c-5.426-0.29-7.192,4.913-7.264,5.135C87.277,278.882,86.85,279.176,86.394,279.176z"/>
	<path style="fill:#FFFFFF;" d="M58.575,307.929c-0.107,0-0.216-0.016-0.324-0.05c-0.569-0.178-0.885-0.785-0.707-1.355   c0.761-2.422,3.696-6.912,9.432-6.644c0.596,0.031,1.055,0.538,1.026,1.133c-0.031,0.596-0.542,1.053-1.133,1.026   c-5.568-0.279-7.246,5.079-7.263,5.133C59.461,307.634,59.035,307.929,58.575,307.929z"/>
	<path style="fill:#FFFFFF;" d="M51.731,299.113c-0.107,0-0.215-0.016-0.323-0.05c-0.57-0.178-0.886-0.785-0.708-1.354   c0.76-2.425,3.663-6.916,9.433-6.644c0.595,0.031,1.054,0.538,1.024,1.134s-0.535,1.058-1.134,1.024   c-5.492-0.281-7.245,5.077-7.262,5.131C52.617,298.818,52.191,299.113,51.731,299.113z"/>
</g>















</svg>
