<?xml version="1.0" encoding="UTF-8"?>
<!-- Generator: Adobe Illustrator 25.1.0, SVG Export Plug-In . SVG Version: 6.00 Build 0)  -->
<svg xmlns="http://www.w3.org/2000/svg" xmlns:xlink="http://www.w3.org/1999/xlink" version="1.1" id="Capa_1" x="0px" y="0px" viewBox="0 0 500 500" style="enable-background:new 0 0 500 500;" xml:space="preserve" width="512" height="512">
<g>
	<path style="fill:#D2A9B0;" d="M335.397,76.27c0,0,16.643-15.607,53.462,1.114s100.512,156.424,25.28,174.721   S299.947,94.137,335.397,76.27z"/>
	<path style="fill:#FFE9CB;" d="M415.178,224.734c0,0-14.777,24.335-14.479,31.017c0.298,6.682,19.236,37.143,51.487,18.096   C452.187,273.848,420.367,257.938,415.178,224.734z"/>
	<path style="fill:#D3C0BC;" d="M329.847,298.299c0,0,7.999,115.98-24.093,138.347h-45.472l-5.47-138.347H329.847z"/>
	<path style="fill:#D3C0BC;" d="M221.463,298.299c0,0,8.448,115.576-23.643,137.943l-45.921,0.404l-5.47-138.347H221.463z"/>
	<path style="fill:#D3C0BC;" d="M340.618,285.021c0,0,68.764,100.342,53.16,136.212l-39.879,18.068l-77.18-114.948L340.618,285.021z   "/>
	<path style="fill:#D3C0BC;" d="M240.6,159.219c0,0-155.373,16.525-172.671,37.866s0,239.157,0,239.157h53.224l11.975-49.885   c0,0,167.1,2.097,174.031,3.651S397.304,257.787,240.6,159.219z"/>
	<path style="fill:#D3C0BC;" d="M235.51,93.229c0,0,43.531-49.816,99.888-28.021c141.04,54.544,47.412,264.804,96.169,253.699   c27.429-6.247,31.455-60.342,24.122-101.621c-3.119-17.555-30.598-35.773-9.555-35.773c10.222,0,18.28,19.034,18.28,19.034   s15.248-36.515,22.827-22.967c7.578,13.549-10.482,22.58-8.654,35.83c3.512,25.464,50.788,125.667-7.501,156.465   C324.717,447.213,287.571,212.793,276.409,226.63c-11.162,13.837,47.487,54.668-1.711,85.483   C172.769,375.956,48.317,27.196,235.51,93.229z"/>
	<path style="fill:#251426;" d="M331.236,187.824c1.323,0,2.648-0.91,3.943-2.706c3.715-5.157,6.827-17.479,3.453-25.832   c-0.209-0.518-0.795-0.769-1.313-0.557c-0.516,0.208-0.766,0.795-0.557,1.311c3.071,7.602,0.144,19.232-3.219,23.9   c-0.868,1.206-1.709,1.888-2.36,1.866c-2.364-0.146-7.859-12.92-11.591-24.672c-0.167-0.53-0.728-0.829-1.266-0.656   c-0.532,0.168-0.825,0.735-0.656,1.266c1.919,6.042,8.556,25.775,13.387,26.073C331.117,187.822,331.177,187.824,331.236,187.824z"/>
	<path style="fill:#251426;" d="M234.574,302.807c6.654,0.001,12.828-1.361,18.481-4.087c22.83-11.008,31.474-41.111,35.626-55.577   c0.825-2.872,1.675-5.831,2.189-6.812c0.24-0.006,0.478-0.097,0.667-0.276c0.404-0.382,0.421-1.02,0.039-1.424   c-0.346-0.367-0.805-0.511-1.268-0.401c-1.203,0.293-1.732,1.975-3.565,8.357c-4.073,14.185-12.548,43.702-34.565,54.317   c-11.761,5.671-25.976,5.128-42.247-1.61c-68.683-28.452-68.406-120.644-68.394-121.572c0.006-0.556-0.439-1.013-0.996-1.02   c-0.004,0-0.008,0-0.012,0c-0.551,0-1.002,0.443-1.008,0.996c-0.012,0.941-0.315,94.479,69.638,123.458   C218.253,300.923,226.747,302.807,234.574,302.807z"/>
	<path style="fill:#D3C0BC;" d="M82.674,195.488c2.046-7.891-38.253,4.223-44.629,56.617s8.926,95.502-11.476,89.249v6.744   c0,0,7.117,12.345,24.801-11.01S34.687,233.655,77.061,227.316C119.435,220.976,82.674,195.488,82.674,195.488z"/>
	<path style="fill:#251426;" d="M11.837,357.552c5.148,0,14.723-3.864,18.027-5.266c0.512-0.218,0.752-0.81,0.533-1.322   c-0.217-0.513-0.815-0.75-1.321-0.534c-7.752,3.291-17.086,6.098-18.668,4.883c0.782-0.818,4.764-2.156,8.912-2.966   c0.484-0.094,0.829-0.525,0.815-1.017c-0.014-0.493-0.382-0.904-0.87-0.971c-7.075-0.978-15.141-2.872-16.968-4.405   c2.152-0.546,9.961,0.114,16.678,1.137c0.516,0.08,1.026-0.264,1.138-0.785c0.11-0.522-0.205-1.04-0.719-1.182   c-5.477-1.512-14.613-5.001-15.812-7.928c-0.169-0.413-0.15-0.766,0.069-1.142c0.27-0.471,0.669-0.744,1.258-0.859   c3.589-0.693,11.39,4.592,14.099,6.691c0.431,0.338,1.055,0.267,1.402-0.162c0.345-0.426,0.285-1.049-0.134-1.404   c-4.54-3.837-8.374-7.947-8.719-9.3c2.099-0.221,9.778,4.45,15.975,9.072c0.447,0.33,1.079,0.241,1.41-0.206   c0.333-0.446,0.242-1.078-0.205-1.41c-3.303-2.465-14.337-10.435-17.909-9.363c-0.675,0.203-1.14,0.684-1.272,1.32   c-0.226,1.091,0.764,2.746,2.266,4.534c-2.593-1.266-5.288-2.145-7.302-1.751c-1.154,0.226-2.057,0.859-2.618,1.83   c-0.528,0.917-0.593,1.924-0.187,2.915c0.947,2.306,4.587,4.401,8.284,6.001c-4.821-0.4-8.865-0.302-9.733,0.951   c-0.343,0.492-0.356,1.101-0.041,1.671c1.282,2.304,8.416,4.002,13.778,4.975c-2.772,0.835-5.313,1.974-5.652,3.393   c-0.1,0.414-0.126,1.219,0.813,1.948C9.754,357.359,10.684,357.552,11.837,357.552z"/>
	<path style="fill:#251426;" d="M133.132,387.365c0.191,0,0.386-0.055,0.557-0.17c0.089-0.058,8.817-5.93,17.566-15.347   c8.119-8.737,17.932-22.409,18.584-37.933c0.622-14.811-7.044-28.681-22.781-41.223c-0.433-0.345-1.069-0.275-1.415,0.16   c-0.348,0.435-0.276,1.069,0.159,1.416c15.204,12.117,22.614,25.426,22.023,39.555c-1.195,28.601-34.915,51.468-35.256,51.696   c-0.463,0.309-0.587,0.935-0.278,1.398C132.486,387.208,132.805,387.365,133.132,387.365z"/>
	<path style="fill:#251426;" d="M378.13,189.45c0.65,0,1.276-0.225,1.841-0.667c4.955-3.888,5.099-26.947,5.099-29.564   c0-0.557-0.451-1.008-1.008-1.008c-0.557,0-1.008,0.451-1.008,1.008c0,9.504-1.175,25.505-4.327,27.977   c-0.352,0.276-0.612,0.266-0.821,0.209c-4.223-1.035-9.634-17.977-12.052-28.413c-0.126-0.541-0.665-0.879-1.211-0.755   c-0.541,0.126-0.88,0.667-0.754,1.21c0.669,2.886,6.733,28.247,13.536,29.916C377.661,189.422,377.898,189.45,378.13,189.45z"/>
	<path style="fill:#251426;" d="M408.541,386.575c0.449,0,0.856-0.3,0.974-0.753c0.142-0.539-0.181-1.09-0.72-1.23   c-1.606-0.419-3.416-0.855-5.394-1.333c-32.358-7.8-108.132-26.065-86.883-158.102c0.089-0.55-0.284-1.067-0.835-1.156   c-0.533-0.089-1.067,0.285-1.154,0.835c-21.548,133.88,55.499,152.452,88.399,160.382c1.967,0.474,3.762,0.908,5.359,1.324   C408.372,386.564,408.459,386.575,408.541,386.575z"/>
	<path style="fill:#251426;" d="M383.063,243.552c7.892,0,17.141-2.66,26.07-11.514c0.396-0.392,0.4-1.03,0.008-1.425   c-0.394-0.395-1.032-0.399-1.425-0.006c-21.096,20.913-43.963,5.414-44.193,5.253c-0.457-0.318-1.085-0.205-1.402,0.252   c-0.319,0.458-0.205,1.086,0.252,1.404C362.517,237.615,371.277,243.552,383.063,243.552z"/>
	<path style="fill:#251426;" d="M385.091,269.889c1.874,0,3.774-0.18,5.699-0.542c8.768-1.652,15.334-6.818,15.928-7.9   c0.268-0.488,0.089-1.1-0.4-1.369c-0.469-0.254-1.059-0.103-1.341,0.353c-0.532,0.658-7.207,6.192-16.71,7.257   c-7.871,0.877-15.296-1.55-22.084-7.226c-0.421-0.356-1.061-0.301-1.419,0.127c-0.356,0.427-0.299,1.063,0.128,1.42   C371.161,267.251,377.935,269.889,385.091,269.889z"/>
	<path style="fill:#251426;" d="M324.717,393.386c0.118,0,0.238-0.021,0.356-0.065c10.483-3.953,17.269-9.646,20.17-16.923   c3.638-9.127-0.228-17.292-0.394-17.636c-0.244-0.5-0.85-0.712-1.345-0.467c-0.502,0.241-0.713,0.844-0.47,1.345   c0.037,0.077,3.644,7.75,0.325,16.038c-2.689,6.716-9.081,12.017-18.999,15.757c-0.52,0.196-0.784,0.778-0.587,1.298   C323.926,393.137,324.31,393.386,324.717,393.386z"/>
	<path style="fill:#251426;" d="M219.544,389.99c16.997,0,32.604-0.662,41.174-2.652c0.541-0.125,0.88-0.667,0.754-1.21   c-0.126-0.541-0.667-0.888-1.211-0.753c-24.816,5.76-112.879,0.034-113.764-0.025c-0.602-0.041-1.035,0.385-1.073,0.94   c-0.037,0.555,0.384,1.035,0.939,1.072C148.757,387.521,186.731,389.99,219.544,389.99z"/>
	<path style="fill:#251426;" d="M121.155,437.25c0.154,0,0.307-0.034,0.453-0.107c0.498-0.25,0.697-0.856,0.447-1.353   c-0.784-1.557-7.874-15.109-14.776-12.009c-4.406,1.982-7.028,6.581-8.315,9.53c-1.947-4.936-6.792-14.84-13.749-12.698   c-8.329,2.563-17.686,14.503-18.08,15.01c-0.343,0.44-0.262,1.073,0.177,1.414c0.437,0.341,1.071,0.262,1.413-0.176   c0.093-0.119,9.361-11.945,17.084-14.321c5.855-1.815,10.778,9.493,12.172,14c0.13,0.425,0.553,0.711,0.972,0.71   c0.445-0.005,0.835-0.301,0.959-0.729c0.024-0.084,2.455-8.318,8.193-10.901c4.4-1.987,10.264,7.323,12.15,11.075   C120.43,437.047,120.786,437.25,121.155,437.25z"/>
	<path style="fill:#251426;" d="M151.898,437.653c0.356,0,0.705-0.191,0.886-0.528c2.435-4.496,10.024-15.92,15.893-14.808   c7.136,1.359,9.863,11.696,9.89,11.8c0.104,0.406,0.447,0.705,0.862,0.752c0.413,0.04,0.817-0.168,1.008-0.536   c1.382-2.66,5.642-9.709,8.735-10.378c0.514-0.112,0.913-0.021,1.307,0.287c4.055,3.186,6.341,12.153,6.363,12.244   c0.138,0.539,0.687,0.866,1.223,0.732c0.541-0.135,0.868-0.682,0.734-1.223c-0.1-0.396-2.482-9.731-7.075-13.338   c-0.86-0.676-1.886-0.91-2.977-0.673c-3.449,0.746-7.128,6.262-8.963,9.382c-1.323-3.479-4.551-9.854-10.729-11.03   c-8.526-1.634-17.657,15.115-18.042,15.829c-0.266,0.489-0.083,1.1,0.406,1.365C151.572,437.614,151.735,437.653,151.898,437.653z"/>
	<path style="fill:#251426;" d="M260.283,437.653c0.398,0,0.776-0.237,0.933-0.629c2.929-7.219,7.315-14.918,9.199-14.918   c0.004,0,0.01,0,0.016,0c9.335,0.208,11.57,14.146,11.591,14.287c0.067,0.439,0.413,0.784,0.854,0.846   c0.437,0.059,0.87-0.17,1.057-0.574c0.045-0.099,4.699-9.984,11.82-12.254c1.158-0.371,2.207-0.251,3.203,0.355   c3.429,2.085,5.353,9.404,5.803,12.049c0.095,0.55,0.622,0.918,1.163,0.823c0.549-0.094,0.917-0.614,0.825-1.163   c-0.073-0.424-1.837-10.445-6.744-13.43c-1.506-0.916-3.14-1.103-4.864-0.555c-5.66,1.805-9.754,7.551-11.725,10.884   c-1.23-4.528-4.654-13.1-12.94-13.284c-0.016,0-0.031,0-0.047,0c-4.191,0-9.536,12.372-11.077,16.176   c-0.211,0.516,0.039,1.103,0.555,1.313C260.029,437.63,260.157,437.653,260.283,437.653z"/>
	<path style="fill:#251426;" d="M353.9,440.309c0.079,0,0.159-0.009,0.238-0.029c0.541-0.132,0.872-0.677,0.74-1.219   c-1.095-4.496-3.189-16.767,0.24-19.51c2.734-2.192,12.093,5.391,17.867,11.464c0.299,0.317,0.766,0.406,1.161,0.217   c0.394-0.186,0.624-0.604,0.569-1.036c-0.465-3.687-1.057-13.869,1.728-16.655c2.136-2.125,11.036,3.662,16.68,8.459   c0.427,0.363,1.061,0.309,1.421-0.115c0.36-0.424,0.309-1.06-0.114-1.42c-2.506-2.13-15.221-12.541-19.413-8.349   c-3.002,3.002-2.892,11.066-2.577,15.479c-4.553-4.47-14.271-13.064-18.584-9.619c-5.042,4.035-1.372,19.781-0.937,21.563   C353.034,440.001,353.446,440.309,353.9,440.309z"/>
	<path style="fill:#251426;" d="M227.718,274.82c0.136,0,0.272-0.027,0.404-0.084c0.51-0.222,0.742-0.817,0.52-1.327   c-10.814-24.808-19.739-61.36-0.845-94.615c11.29-19.868,27.358-29.238,27.519-29.33c0.482-0.277,0.65-0.893,0.372-1.375   c-0.276-0.485-0.892-0.649-1.376-0.373c-0.661,0.379-65.691,38.937-27.517,126.498C226.96,274.594,227.33,274.82,227.718,274.82z"/>
	<path style="fill:#251426;" d="M184.448,247.747c0.087,0,0.175-0.012,0.262-0.035c0.537-0.145,0.856-0.698,0.711-1.235   c-0.146-0.544-13.792-54.808,60.478-89.981c0.504-0.238,0.719-0.839,0.48-1.342c-0.24-0.505-0.843-0.72-1.343-0.479   c-75.855,35.922-61.712,91.768-61.561,92.328C183.597,247.451,184.003,247.747,184.448,247.747z"/>
	<circle style="fill:#E1879B;" cx="400.695" cy="201.162" r="11.836"/>
	<circle style="fill:#E1879B;" cx="299.984" cy="198.652" r="11.836"/>
	<path style="fill:#FFE9CB;" d="M308.773,227.678c0,0-14.777,24.335-14.479,31.017c0.298,6.682,19.236,37.143,51.487,18.096   C345.781,276.792,313.961,260.882,308.773,227.678z"/>
	<path style="fill:#251426;" d="M335.397,80.45c0.238,0,0.478-0.084,0.669-0.255c0.415-0.369,0.455-1.007,0.085-1.422   c-4.03-4.534-11.538-5.55-11.855-5.591c-0.559-0.06-1.057,0.317-1.13,0.87c-0.071,0.552,0.319,1.057,0.87,1.129   c0.071,0.01,7.085,0.967,10.607,4.93C334.842,80.335,335.12,80.45,335.397,80.45z"/>
	<path style="fill:#251426;" d="M341.012,92.906c0.238,0,0.478-0.084,0.669-0.255c0.415-0.369,0.455-1.007,0.085-1.422   c-4.03-4.534-11.536-5.55-11.853-5.591c-0.565-0.065-1.057,0.318-1.13,0.87c-0.071,0.552,0.319,1.057,0.87,1.129   c0.071,0.01,7.083,0.967,10.605,4.93C340.457,92.792,340.734,92.906,341.012,92.906z"/>
	<path style="fill:#251426;" d="M317.747,79.642c0.285,0,0.569-0.12,0.768-0.355c0.36-0.424,0.309-1.06-0.114-1.42   c-4.626-3.932-12.198-3.883-12.518-3.884c-0.555,0.006-1.002,0.463-0.996,1.019c0.006,0.553,0.457,0.997,1.008,0.997   c0.008,0,0.006,0,0.03,0c0.4,0,7.231,0.054,11.17,3.404C317.284,79.563,317.516,79.642,317.747,79.642z"/>
	<path style="fill:#251426;" d="M343.537,109.191c0.132,0,0.266-0.026,0.394-0.08c0.512-0.218,0.752-0.809,0.533-1.321   c-2.364-5.585-9.154-8.949-9.441-9.089c-0.502-0.242-1.104-0.039-1.349,0.463c-0.244,0.5-0.037,1.103,0.463,1.349   c0.065,0.031,6.404,3.18,8.473,8.063C342.772,108.961,343.146,109.191,343.537,109.191z"/>
	<path style="fill:#251426;" d="M364.661,123c0.132,0,0.266-0.026,0.394-0.08c0.512-0.218,0.752-0.809,0.533-1.322   c-2.368-5.583-9.156-8.947-9.443-9.088c-0.502-0.243-1.104-0.038-1.349,0.463c-0.244,0.5-0.037,1.103,0.463,1.349   c0.063,0.032,6.404,3.181,8.475,8.064C363.895,122.77,364.269,123,364.661,123z"/>
	<path style="fill:#251426;" d="M377.6,124.356c0.006,0,0.014,0,0.022,0c0.557-0.012,0.998-0.472,0.986-1.03   c-0.128-6.064-5.187-11.704-5.402-11.942c-0.376-0.412-1.014-0.44-1.423-0.069c-0.411,0.373-0.443,1.011-0.069,1.423   c0.047,0.052,4.766,5.327,4.878,10.631C376.604,123.919,377.053,124.356,377.6,124.356z"/>
	<path style="fill:#251426;" d="M323.871,93.588c0.197,0,0.396-0.057,0.571-0.176c0.459-0.315,0.575-0.943,0.26-1.402   c-3.429-5.001-10.751-6.95-11.06-7.031c-0.545-0.149-1.089,0.184-1.228,0.721c-0.142,0.538,0.181,1.089,0.721,1.229   c0.069,0.018,6.906,1.847,9.906,6.22C323.235,93.435,323.55,93.588,323.871,93.588z"/>
	<path style="fill:#251426;" d="M77.237,217.79c0.453,0,0.864-0.306,0.978-0.765c0.018-0.069,1.768-6.927,6.109-9.974   c0.457-0.32,0.567-0.948,0.246-1.404c-0.321-0.457-0.951-0.566-1.404-0.246c-4.965,3.484-6.831,10.827-6.908,11.138   c-0.134,0.539,0.195,1.086,0.736,1.22C77.075,217.78,77.158,217.79,77.237,217.79z"/>
	<path style="fill:#251426;" d="M73.154,240.109c0.059,0,0.118-0.005,0.177-0.016c0.549-0.097,0.913-0.62,0.817-1.168   c-0.012-0.07-1.201-7.048,1.524-11.597c0.287-0.477,0.132-1.097-0.346-1.382c-0.471-0.287-1.093-0.133-1.382,0.346   c-3.116,5.202-1.837,12.67-1.78,12.985C72.25,239.766,72.675,240.109,73.154,240.109z"/>
	<path style="fill:#251426;" d="M83.06,244.915c0.059,0,0.118-0.005,0.177-0.016c0.547-0.096,0.913-0.62,0.817-1.167   c-0.012-0.07-1.199-7.048,1.526-11.598c0.287-0.477,0.132-1.096-0.346-1.382c-0.472-0.288-1.095-0.134-1.382,0.346   c-3.116,5.202-1.839,12.67-1.782,12.985C82.156,244.571,82.581,244.915,83.06,244.915z"/>
	<path style="fill:#251426;" d="M72.183,260.588c0.059,0,0.118-0.005,0.177-0.016c0.549-0.097,0.913-0.62,0.817-1.168   c-0.012-0.07-1.201-7.047,1.526-11.597c0.287-0.477,0.132-1.097-0.346-1.382c-0.472-0.286-1.095-0.133-1.382,0.346   c-3.118,5.202-1.839,12.67-1.782,12.985C71.28,260.244,71.705,260.588,72.183,260.588z"/>
	<path style="fill:#251426;" d="M76.552,413.68c0.059,0,0.118-0.005,0.177-0.016c0.549-0.097,0.913-0.62,0.817-1.168   c-0.012-0.07-1.201-7.047,1.526-11.597c0.287-0.477,0.132-1.097-0.346-1.382c-0.472-0.287-1.095-0.133-1.382,0.346   c-3.118,5.202-1.839,12.67-1.782,12.985C75.648,413.336,76.073,413.68,76.552,413.68z"/>
	<path style="fill:#251426;" d="M83.06,394.813c0.059,0,0.118-0.005,0.177-0.016c0.547-0.096,0.913-0.62,0.817-1.167   c-0.012-0.07-1.199-7.048,1.526-11.598c0.287-0.477,0.132-1.096-0.346-1.382c-0.472-0.286-1.095-0.135-1.382,0.346   c-3.116,5.202-1.839,12.67-1.782,12.985C82.156,394.47,82.581,394.813,83.06,394.813z"/>
	<path style="fill:#251426;" d="M74.122,388.667c0.059,0,0.118-0.005,0.177-0.016c0.547-0.096,0.913-0.62,0.817-1.167   c-0.012-0.07-1.199-7.048,1.526-11.597c0.287-0.477,0.132-1.097-0.346-1.382c-0.472-0.288-1.095-0.134-1.382,0.346   c-3.116,5.201-1.839,12.669-1.782,12.984C73.219,388.324,73.644,388.667,74.122,388.667z"/>
	<path style="fill:#251426;" d="M87.342,407.534c0.059,0,0.118-0.005,0.177-0.016c0.547-0.096,0.913-0.62,0.817-1.167   c-0.012-0.07-1.199-7.047,1.526-11.597c0.287-0.477,0.132-1.097-0.346-1.382c-0.472-0.286-1.095-0.134-1.382,0.346   c-3.116,5.202-1.839,12.669-1.782,12.984C86.438,407.19,86.863,407.534,87.342,407.534z"/>
	<path style="fill:#251426;" d="M308.345,394.89c0.315,0,0.626-0.148,0.823-0.425c3.508-4.946,2.807-12.49,2.776-12.809   c-0.057-0.553-0.555-0.951-1.102-0.904c-0.553,0.055-0.959,0.548-0.906,1.101c0.008,0.071,0.656,7.119-2.414,11.446   c-0.321,0.454-0.215,1.083,0.24,1.405C307.939,394.83,308.142,394.89,308.345,394.89z"/>
	<path style="fill:#251426;" d="M300.399,413.197c0.315,0,0.626-0.148,0.823-0.424c3.508-4.946,2.807-12.49,2.776-12.809   c-0.057-0.553-0.565-0.943-1.102-0.904c-0.553,0.055-0.959,0.548-0.906,1.101c0.008,0.071,0.656,7.12-2.414,11.445   c-0.321,0.454-0.215,1.083,0.24,1.405C299.994,413.137,300.196,413.197,300.399,413.197z"/>
	<path style="fill:#251426;" d="M308.835,420.015c0.315,0,0.626-0.148,0.823-0.424c3.51-4.947,2.809-12.491,2.778-12.81   c-0.057-0.553-0.565-0.943-1.102-0.904c-0.553,0.055-0.959,0.548-0.906,1.101c0.008,0.071,0.656,7.119-2.415,11.445   c-0.321,0.455-0.215,1.084,0.24,1.406C308.429,419.954,308.632,420.015,308.835,420.015z"/>
	<path style="fill:#251426;" d="M297.112,400.185c0.315,0,0.626-0.148,0.823-0.425c3.508-4.946,2.807-12.49,2.776-12.809   c-0.057-0.553-0.565-0.953-1.102-0.904c-0.553,0.055-0.959,0.548-0.906,1.101c0.008,0.071,0.656,7.12-2.414,11.446   c-0.321,0.454-0.215,1.083,0.24,1.405C296.706,400.125,296.909,400.185,297.112,400.185z"/>
	<path style="fill:#251426;" d="M91.287,217.79c0.453,0,0.864-0.306,0.978-0.765c0.018-0.069,1.77-6.927,6.111-9.974   c0.457-0.32,0.567-0.948,0.246-1.404c-0.323-0.457-0.953-0.566-1.404-0.246c-4.965,3.484-6.833,10.827-6.91,11.138   c-0.134,0.539,0.195,1.086,0.734,1.22C91.125,217.78,91.206,217.79,91.287,217.79z"/>
	<path style="fill:#251426;" d="M90.108,201.227c0.36,0,0.709-0.195,0.89-0.535c0.033-0.063,3.392-6.294,8.341-8.202   c0.52-0.2,0.778-0.784,0.579-1.302c-0.201-0.521-0.785-0.78-1.303-0.578c-5.66,2.181-9.247,8.855-9.396,9.138   c-0.262,0.491-0.075,1.1,0.417,1.361C89.785,201.189,89.948,201.227,90.108,201.227z"/>
	<path style="fill:#251426;" d="M103.63,196.989c0.248,0,0.498-0.092,0.693-0.276c0.051-0.049,5.223-4.881,10.522-5.108   c0.555-0.024,0.988-0.494,0.965-1.05c-0.024-0.555-0.396-1.024-1.051-0.964c-6.059,0.259-11.589,5.437-11.822,5.658   c-0.404,0.383-0.421,1.02-0.039,1.424C103.096,196.883,103.362,196.989,103.63,196.989z"/>
	<path style="fill:#251426;" d="M185.593,377.614c1.634,0,2.764-0.146,2.882-0.161c0.551-0.074,0.939-0.581,0.864-1.133   c-0.073-0.549-0.565-0.94-1.132-0.865c-0.073,0.011-7.089,0.904-11.522-2.013c-0.457-0.307-1.087-0.18-1.396,0.287   c-0.305,0.465-0.177,1.09,0.289,1.396C178.745,377.21,182.869,377.614,185.593,377.614z"/>
	<path style="fill:#251426;" d="M202.884,381.456c4.225,0,7.987-1.423,8.203-1.506c0.52-0.2,0.778-0.783,0.579-1.302   c-0.199-0.521-0.778-0.778-1.303-0.58c-0.065,0.026-6.691,2.52-11.674,0.711c-0.526-0.19-1.102,0.079-1.291,0.602   c-0.191,0.524,0.079,1.101,0.602,1.291C199.578,381.247,201.265,381.456,202.884,381.456z"/>
	<path style="fill:#251426;" d="M205.719,370.815c4.223,0,7.985-1.422,8.201-1.505c0.52-0.2,0.778-0.783,0.579-1.302   c-0.199-0.521-0.782-0.778-1.301-0.58c-0.067,0.026-6.693,2.52-11.676,0.71c-0.528-0.188-1.102,0.08-1.291,0.602   c-0.191,0.524,0.079,1.101,0.602,1.291C202.413,370.605,204.1,370.815,205.719,370.815z"/>
	<path style="fill:#251426;" d="M223.176,378.512c4.223,0,7.985-1.422,8.201-1.505c0.52-0.2,0.778-0.783,0.579-1.302   c-0.199-0.52-0.784-0.779-1.301-0.58c-0.067,0.026-6.689,2.521-11.678,0.709c-0.524-0.186-1.102,0.08-1.291,0.604   c-0.191,0.523,0.079,1.101,0.602,1.291C219.869,378.303,221.556,378.512,223.176,378.512z"/>
	<path style="fill:#251426;" d="M185.365,366.463c0.533,0,0.978-0.417,1.006-0.955c0.03-0.556-0.398-1.031-0.953-1.06   c-0.071-0.003-7.138-0.418-10.955-4.101c-0.402-0.386-1.037-0.373-1.423,0.026c-0.388,0.401-0.376,1.038,0.026,1.425   c4.364,4.211,11.928,4.647,12.249,4.664C185.331,366.463,185.349,366.463,185.365,366.463z"/>
	<path style="fill:#251426;" d="M167.953,380.678c0.561,0,0.911-0.02,0.974-0.024c0.557-0.034,0.978-0.512,0.945-1.067   c-0.033-0.554-0.506-0.969-1.067-0.945c-0.069,0.004-7.14,0.388-11.347-2.84c-0.439-0.338-1.073-0.258-1.413,0.187   c-0.339,0.442-0.256,1.074,0.185,1.413C160.084,380.358,165.702,380.678,167.953,380.678z"/>
	<path style="fill:#251426;" d="M360.651,109.191c0.132,0,0.266-0.026,0.394-0.08c0.512-0.218,0.752-0.809,0.533-1.322   c-2.368-5.584-9.154-8.948-9.441-9.088c-0.502-0.242-1.104-0.039-1.349,0.463c-0.244,0.5-0.037,1.103,0.463,1.349   c0.063,0.031,6.402,3.18,8.473,8.064C359.885,108.961,360.259,109.191,360.651,109.191z"/>
	<path style="fill:#251426;" d="M356.172,91.601c0.156,0,0.313-0.035,0.459-0.111c0.496-0.253,0.693-0.86,0.439-1.356   c-2.764-5.398-9.776-8.266-10.073-8.385c-0.514-0.209-1.1,0.04-1.311,0.559c-0.207,0.516,0.043,1.102,0.559,1.311   c0.065,0.027,6.613,2.713,9.03,7.434C355.454,91.401,355.806,91.601,356.172,91.601z"/>
	<path style="fill:#251426;" d="M374.124,104.95c0.128,0,0.258-0.025,0.384-0.076c0.514-0.212,0.76-0.801,0.547-1.316   c-2.307-5.609-9.06-9.044-9.347-9.188c-0.494-0.248-1.102-0.046-1.35,0.45c-0.25,0.497-0.049,1.102,0.447,1.352   c0.065,0.032,6.368,3.247,8.388,8.153C373.352,104.715,373.728,104.95,374.124,104.95z"/>
	<path style="fill:#251426;" d="M477.748,240.109c0.298,0,0.594-0.132,0.792-0.384c0.345-0.436,0.27-1.07-0.167-1.415   c-10.633-8.391-20.599-2.26-20.697-2.199c-0.469,0.296-0.608,0.917-0.313,1.388c0.295,0.471,0.915,0.614,1.39,0.317   c0.356-0.224,8.884-5.41,18.372,2.077C477.309,240.039,477.529,240.109,477.748,240.109z"/>
	<path style="fill:#251426;" d="M481.272,260.588c0.457,0,0.87-0.312,0.979-0.776c0.129-0.541-0.206-1.085-0.748-1.213   c-0.595-0.142-14.72-3.449-22.866-1.561c-0.541,0.126-0.88,0.667-0.754,1.21c0.126,0.541,0.659,0.884,1.211,0.755   c7.685-1.782,21.801,1.524,21.945,1.557C481.116,260.579,481.195,260.588,481.272,260.588z"/>
	<path style="fill:#251426;" d="M481.271,296.458c0.236,0,0.472-0.082,0.663-0.249c0.419-0.366,0.462-1.003,0.095-1.422   c-0.466-0.533-11.546-13.003-26.273-10.762c-0.551,0.084-0.929,0.597-0.845,1.148c0.083,0.551,0.61,0.934,1.148,0.845   c13.646-2.061,24.345,9.975,24.452,10.097C480.712,296.342,480.99,296.458,481.271,296.458z"/>
	<path style="fill:#251426;" d="M468.59,331.019c0.144,0,0.289-0.03,0.429-0.095c0.504-0.237,0.721-0.838,0.482-1.342   c-0.463-0.986-11.475-24.182-20.897-25.302c-0.516-0.072-1.053,0.328-1.118,0.882c-0.067,0.553,0.329,1.054,0.882,1.12   c6.906,0.821,16.28,17.717,19.31,24.158C467.85,330.806,468.212,331.019,468.59,331.019z"/>
	<path style="fill:#251426;" d="M426.44,354.201c0.447,0,0.854-0.297,0.974-0.749c0.234-0.883,5.715-21.769,2.156-34.411   c-0.152-0.535-0.699-0.847-1.244-0.697c-0.535,0.152-0.846,0.708-0.697,1.244c3.41,12.108-2.106,33.135-2.164,33.346   c-0.142,0.537,0.177,1.09,0.715,1.233C426.267,354.19,426.355,354.201,426.44,354.201z"/>
	<path style="fill:#251426;" d="M385.686,327.939c0.043,0,0.087-0.003,0.13-0.008c0.76-0.096,18.785-2.542,31.268-17.513   c0.356-0.428,0.299-1.063-0.128-1.419c-0.425-0.356-1.063-0.302-1.419,0.128c-11.961,14.344-29.797,16.781-29.976,16.804   c-0.551,0.071-0.943,0.576-0.872,1.128C384.752,327.568,385.188,327.939,385.686,327.939z"/>
	<path style="fill:#251426;" d="M382.508,302.391c14.883,0,26.671-14.375,26.818-14.558c0.348-0.433,0.28-1.067-0.154-1.416   c-0.429-0.349-1.063-0.281-1.417,0.152c-0.171,0.217-17.56,21.397-35.988,10.856c-0.476-0.275-1.098-0.111-1.374,0.375   c-0.278,0.483-0.11,1.098,0.374,1.375C374.785,301.472,378.746,302.391,382.508,302.391z"/>
</g>















</svg>
