<?xml version="1.0" encoding="UTF-8"?>
<!-- Generator: Adobe Illustrator 25.1.0, SVG Export Plug-In . SVG Version: 6.00 Build 0)  -->
<svg xmlns="http://www.w3.org/2000/svg" xmlns:xlink="http://www.w3.org/1999/xlink" version="1.1" id="Capa_1" x="0px" y="0px" viewBox="0 0 500 500" style="enable-background:new 0 0 500 500;" xml:space="preserve" width="512" height="512">
<g>
	<g>
		<path style="fill:#251626;" d="M171,309.014h-27.422c-0.472,0-0.882-0.327-0.987-0.788c-4.137-18.265-8.454-185.885-8.636-193.012    c-0.014-0.558,0.428-1.023,0.986-1.037c0.009,0,0.018,0,0.026,0c0.547,0,0.997,0.436,1.012,0.986    c0.043,1.72,4.377,170.059,8.425,191.829h25.466c-1.656-15.02-19.256-174.357-22.445-190.861    c-0.107-0.548,0.252-1.079,0.801-1.185c0.543-0.116,1.079,0.252,1.185,0.801c3.346,17.315,22.401,190.4,22.594,192.146    c0.032,0.286-0.06,0.572-0.252,0.785C171.561,308.891,171.287,309.014,171,309.014z"/>
		<path style="fill:#251626;" d="M141.938,294.497c-0.528,0-0.972-0.41-1.009-0.945c-0.037-0.557,0.384-1.039,0.943-1.077    l27.254-1.825c0.556-0.022,1.039,0.386,1.077,0.943c0.038,0.557-0.384,1.039-0.943,1.077l-27.254,1.825    C141.983,294.496,141.961,294.497,141.938,294.497z"/>
		<path style="fill:#251626;" d="M140.556,272.602c-0.548,0-0.998-0.437-1.012-0.987c-0.013-0.559,0.429-1.023,0.987-1.036    l26.331-0.637c0.569,0.008,1.022,0.429,1.036,0.987c0.013,0.559-0.429,1.023-0.987,1.036l-26.331,0.637    C140.571,272.602,140.563,272.602,140.556,272.602z"/>
		<path style="fill:#251626;" d="M139.669,254.716c-0.519,0-0.96-0.396-1.007-0.922c-0.049-0.557,0.362-1.048,0.918-1.098    l25.033-2.227c0.575-0.053,1.048,0.363,1.098,0.918c0.049,0.557-0.362,1.048-0.918,1.098l-25.033,2.227    C139.73,254.715,139.699,254.716,139.669,254.716z"/>
		<path style="fill:#251626;" d="M138.835,235.353c-0.505,0-0.942-0.376-1.004-0.89c-0.067-0.554,0.328-1.058,0.883-1.126    l23.611-2.863c0.556-0.063,1.059,0.329,1.126,0.883c0.067,0.554-0.328,1.058-0.883,1.126l-23.611,2.863    C138.916,235.351,138.876,235.353,138.835,235.353z"/>
		<path style="fill:#251626;" d="M138.057,215.23c-0.552,0-1.003-0.443-1.012-0.996c-0.008-0.559,0.438-1.019,0.996-1.028    l22.388-0.34c0.629-0.021,1.018,0.438,1.028,0.996c0.008,0.559-0.438,1.019-0.996,1.028l-22.388,0.34    C138.067,215.23,138.062,215.23,138.057,215.23z"/>
		<path style="fill:#251626;" d="M138.056,198.104c-0.515,0-0.954-0.39-1.006-0.913c-0.054-0.556,0.352-1.051,0.908-1.106    l20.233-1.979c0.559-0.054,1.051,0.353,1.106,0.908c0.054,0.556-0.352,1.051-0.908,1.106l-20.233,1.979    C138.122,198.102,138.088,198.104,138.056,198.104z"/>
		<path style="fill:#251626;" d="M136.66,177.386c-0.518,0-0.958-0.394-1.007-0.92c-0.05-0.556,0.359-1.048,0.916-1.1l19.249-1.764    c0.558-0.041,1.048,0.36,1.1,0.916c0.05,0.556-0.359,1.048-0.916,1.1l-19.249,1.764    C136.722,177.385,136.69,177.386,136.66,177.386z"/>
		<g>
			<g>
				<path style="fill:#42928F;" d="M124.9,105.354c0,0-29.788-0.995-44.974,8.264s-24.531,57.724-18.69,55.978      s19.275-30.475,19.275-30.475s1.752,25.54,6.425,24.507c4.673-1.034,10.532-24.507,10.532-24.507s2.318,11.192,6.407,14.12      c4.089,2.928,27.584-38.819,33.425-43.14C143.139,105.78,135.403,105.165,124.9,105.354z"/>
				<path style="fill:#42928F;" d="M138.918,99.863c0,0-15.108-26.454-30.134-31.03C86.351,62,60.056,76.268,59.478,80.882      c-0.578,4.614,29.794-2.979,29.794-2.979S69.997,88.076,74.67,92.043c4.673,3.966,29.788-5.99,29.788-5.99      s-17.522,9.488-11.682,13.81C98.617,104.186,141.254,110.727,138.918,99.863z"/>
				<path style="fill:#42928F;" d="M140.749,105.354c0,0,29.788-0.995,44.974,8.264c15.186,9.259,24.531,57.724,18.69,55.978      s-19.275-30.475-19.275-30.475s-4.751,18.05-9.424,17.017s-12.187-24.97-12.187-24.97s-0.371,9.766-4.459,12.694      c-4.089,2.928-20.072-27.529-25.913-31.85C127.315,107.69,130.246,105.165,140.749,105.354z"/>
				<path style="fill:#42928F;" d="M126.731,99.863c0,0,15.781-23.565,29.756-30.735c22.294-11.437,49.106,7.14,49.684,11.753      c0.578,4.614-29.794-2.979-29.794-2.979s19.275,10.174,14.602,14.14s-29.788-5.99-29.788-5.99s17.522,9.488,11.682,13.81      C167.032,104.186,124.395,110.727,126.731,99.863z"/>
				<path style="fill:#42928F;" d="M132.782,101.723c0,0,12.707,22.638,15.774,33.92c3.066,11.281-1.752,59.45-7.447,57.488      c-5.695-1.962-10.513-14.533-17.084-24.018S126.398,98.228,132.782,101.723z"/>
			</g>
			<path style="fill:#251626;" d="M180.051,125.77c-0.472,0-0.895-0.332-0.991-0.813c-0.346-1.729-2.975-3.82-3.869-4.416     c-0.465-0.31-0.591-0.938-0.281-1.403c0.308-0.464,0.936-0.591,1.403-0.281c0.424,0.283,4.16,2.845,4.731,5.702     c0.11,0.548-0.246,1.081-0.793,1.191C180.184,125.764,180.116,125.77,180.051,125.77z"/>
			<path style="fill:#251626;" d="M168.558,125.77c-0.472,0-0.895-0.332-0.991-0.813c-0.346-1.729-2.975-3.82-3.869-4.416     c-0.465-0.31-0.591-0.938-0.281-1.403c0.308-0.464,0.937-0.591,1.403-0.281c0.424,0.283,4.16,2.845,4.731,5.702     c0.11,0.548-0.246,1.081-0.793,1.191C168.69,125.764,168.623,125.77,168.558,125.77z"/>
			<path style="fill:#251626;" d="M168.558,117.257c-0.472,0-0.895-0.332-0.991-0.813c-0.346-1.729-2.975-3.82-3.869-4.416     c-0.465-0.31-0.591-0.938-0.281-1.403c0.308-0.464,0.937-0.591,1.403-0.281c0.424,0.283,4.16,2.845,4.731,5.702     c0.11,0.548-0.246,1.081-0.793,1.191C168.69,117.251,168.623,117.257,168.558,117.257z"/>
			<path style="fill:#251626;" d="M159.255,117.257c-0.472,0-0.895-0.332-0.991-0.813c-0.346-1.729-2.975-3.82-3.869-4.416     c-0.465-0.31-0.591-0.938-0.281-1.403c0.308-0.464,0.936-0.591,1.403-0.281c0.424,0.283,4.16,2.845,4.731,5.702     c0.11,0.548-0.246,1.081-0.793,1.191C159.387,117.251,159.32,117.257,159.255,117.257z"/>
			<path style="fill:#251626;" d="M182.201,134.588c-0.472,0-0.895-0.332-0.991-0.813c-0.346-1.729-2.975-3.82-3.869-4.416     c-0.465-0.31-0.591-0.938-0.281-1.403c0.309-0.464,0.937-0.59,1.403-0.281c0.424,0.283,4.16,2.845,4.731,5.702     c0.11,0.548-0.246,1.081-0.793,1.191C182.334,134.582,182.266,134.588,182.201,134.588z"/>
			<path style="fill:#251626;" d="M190.558,132.059c-0.472,0-0.895-0.332-0.991-0.813c-0.346-1.729-2.975-3.82-3.869-4.416     c-0.465-0.31-0.591-0.938-0.281-1.403c0.309-0.466,0.935-0.59,1.403-0.281c0.424,0.283,4.16,2.845,4.731,5.702     c0.11,0.548-0.246,1.081-0.793,1.191C190.691,132.053,190.623,132.059,190.558,132.059z"/>
			<path style="fill:#251626;" d="M194.467,142.398c-0.535,0-0.982-0.42-1.01-0.959c-0.09-1.764-2.33-4.159-3.186-4.932     c-0.414-0.374-0.446-1.015-0.071-1.429c0.374-0.413,1.013-0.448,1.428-0.073c0.378,0.341,3.7,3.419,3.85,6.329     c0.029,0.558-0.401,1.035-0.958,1.063C194.503,142.398,194.485,142.398,194.467,142.398z"/>
			<path style="fill:#251626;" d="M153.246,81.858c-0.291,0-0.58-0.124-0.781-0.367c-0.356-0.431-0.296-1.068,0.134-1.425     c0.392-0.325,3.906-3.163,6.822-2.892c0.557,0.052,0.965,0.545,0.912,1.102c-0.052,0.557-0.553,0.989-1.102,0.912     c-1.804-0.16-4.514,1.752-5.341,2.438C153.702,81.782,153.473,81.858,153.246,81.858z"/>
			<path style="fill:#251626;" d="M149.943,92.866c-0.291,0-0.58-0.124-0.781-0.367c-0.356-0.431-0.296-1.068,0.134-1.425     c0.393-0.325,3.891-3.163,6.823-2.892c0.556,0.052,0.964,0.545,0.911,1.102c-0.052,0.556-0.535,0.98-1.103,0.912     c-1.78-0.146-4.513,1.752-5.34,2.438C150.399,92.79,150.17,92.866,149.943,92.866z"/>
			<path style="fill:#251626;" d="M123.187,88.521c-0.371,0-0.727-0.204-0.905-0.557c-0.791-1.575-3.881-2.894-4.901-3.232     c-0.531-0.176-0.818-0.748-0.642-1.279c0.175-0.53,0.747-0.816,1.279-0.642c0.484,0.16,4.764,1.64,6.073,4.244     c0.251,0.499,0.049,1.108-0.45,1.359C123.495,88.486,123.34,88.521,123.187,88.521z"/>
			<path style="fill:#251626;" d="M116.658,79.654c-0.371,0-0.727-0.204-0.905-0.557c-0.792-1.578-3.807-2.868-4.901-3.232     c-0.531-0.177-0.818-0.749-0.642-1.279c0.176-0.532,0.749-0.815,1.279-0.642c0.483,0.16,4.764,1.639,6.073,4.244     c0.251,0.5,0.049,1.108-0.45,1.359C116.966,79.619,116.811,79.654,116.658,79.654z"/>
			<path style="fill:#251626;" d="M107.483,81.048c-0.371,0-0.727-0.204-0.905-0.557c-0.793-1.577-3.808-2.868-4.902-3.232     c-0.531-0.177-0.818-0.749-0.642-1.279c0.176-0.531,0.749-0.814,1.279-0.642c0.483,0.16,4.764,1.639,6.074,4.244     c0.251,0.499,0.049,1.108-0.45,1.359C107.791,81.014,107.635,81.048,107.483,81.048z"/>
			<path style="fill:#251626;" d="M103.239,73.281c-0.27,0-0.539-0.108-0.739-0.321c-1.204-1.287-4.54-1.682-5.614-1.718     c-0.558-0.019-0.996-0.486-0.976-1.045c0.018-0.558,0.522-1.009,1.045-0.976c0.509,0.017,5.033,0.229,7.023,2.358     c0.381,0.408,0.36,1.048-0.048,1.43C103.735,73.191,103.487,73.281,103.239,73.281z"/>
			<path style="fill:#251626;" d="M141.79,90.42c-0.291,0-0.58-0.124-0.781-0.367c-0.356-0.431-0.296-1.068,0.134-1.425     c0.392-0.325,3.901-3.173,6.823-2.892c0.556,0.052,0.964,0.545,0.911,1.102c-0.052,0.556-0.54,0.981-1.103,0.912     c-1.779-0.16-4.513,1.752-5.34,2.438C142.245,90.344,142.017,90.42,141.79,90.42z"/>
			<path style="fill:#251626;" d="M129.212,95.124c-0.259,0-0.518-0.099-0.715-0.296c-1.247-1.246-4.594-1.527-5.668-1.527     c-0.559,0-1.012-0.453-1.012-1.012c0-0.559,0.453-1.012,1.012-1.012c0.51,0,5.038,0.059,7.099,2.119     c0.395,0.395,0.395,1.035,0,1.431C129.729,95.025,129.47,95.124,129.212,95.124z"/>
			<path style="fill:#251626;" d="M162.311,82.333c-0.291,0-0.58-0.124-0.781-0.367c-0.356-0.431-0.295-1.068,0.134-1.425     c0.392-0.325,3.931-3.164,6.822-2.892c0.556,0.052,0.965,0.545,0.912,1.102c-0.052,0.555-0.535,0.977-1.102,0.912     c-1.778-0.151-4.514,1.753-5.341,2.438C162.766,82.257,162.537,82.333,162.311,82.333z"/>
			<path style="fill:#251626;" d="M162.29,73.601c-0.291,0-0.58-0.124-0.781-0.367c-0.356-0.431-0.295-1.068,0.134-1.425     c0.392-0.326,3.931-3.179,6.822-2.892c0.556,0.052,0.965,0.545,0.912,1.102c-0.052,0.556-0.531,0.985-1.102,0.912     c-1.78-0.15-4.514,1.752-5.341,2.438C162.745,73.525,162.516,73.601,162.29,73.601z"/>
			<path style="fill:#251626;" d="M172.992,71.916c-0.342,0-0.676-0.173-0.866-0.487c-0.29-0.477-0.138-1.1,0.34-1.389     c0.436-0.264,4.346-2.558,7.17-1.87c0.542,0.133,0.874,0.681,0.742,1.224c-0.134,0.542-0.687,0.875-1.224,0.742     c-1.717-0.421-4.72,1.076-5.639,1.633C173.352,71.868,173.171,71.916,172.992,71.916z"/>
			<path style="fill:#251626;" d="M84.092,119.841c-0.297,0-0.591-0.129-0.791-0.379c-0.349-0.437-0.278-1.073,0.158-1.423     c0.398-0.317,3.968-3.093,6.868-2.78c0.555,0.062,0.955,0.562,0.894,1.117c-0.061,0.555-0.555,0.956-1.117,0.894     c-1.749-0.189-4.541,1.678-5.38,2.35C84.537,119.769,84.313,119.841,84.092,119.841z"/>
			<path style="fill:#251626;" d="M84.092,130.822c-0.297,0-0.591-0.13-0.791-0.379c-0.349-0.437-0.278-1.073,0.158-1.423     c0.398-0.317,3.968-3.093,6.868-2.779c0.555,0.062,0.955,0.562,0.894,1.118c-0.061,0.555-0.555,0.956-1.117,0.894     c-1.749-0.191-4.541,1.677-5.38,2.349C84.537,130.749,84.313,130.822,84.092,130.822z"/>
			<path style="fill:#251626;" d="M76.222,127.062c-0.297,0-0.591-0.13-0.791-0.38c-0.349-0.436-0.278-1.072,0.158-1.421     c0.398-0.318,3.974-3.095,6.868-2.781c0.555,0.062,0.955,0.562,0.894,1.117s-0.557,0.958-1.117,0.894     c-1.769-0.214-4.48,1.63-5.381,2.35C76.667,126.989,76.443,127.062,76.222,127.062z"/>
			<path style="fill:#251626;" d="M73.441,137.01c-0.235,0-0.471-0.081-0.663-0.247c-0.422-0.367-0.467-1.006-0.102-1.428     c0.334-0.384,3.346-3.766,6.253-3.974c0.571-0.059,1.041,0.379,1.081,0.937c0.041,0.557-0.379,1.041-0.937,1.081     c-1.76,0.126-4.165,2.471-4.868,3.282C74.005,136.891,73.723,137.01,73.441,137.01z"/>
			<path style="fill:#251626;" d="M96.631,123.465c-0.297,0-0.591-0.129-0.791-0.379c-0.349-0.437-0.278-1.073,0.158-1.423     c0.398-0.317,3.971-3.091,6.868-2.779c0.555,0.062,0.955,0.562,0.894,1.117c-0.06,0.555-0.55,0.958-1.117,0.894     c-1.752-0.198-4.541,1.677-5.38,2.349C97.076,123.392,96.853,123.465,96.631,123.465z"/>
			<path style="fill:#251626;" d="M131.617,156.352c-0.514,0-0.953-0.389-1.006-0.911c-0.05-0.507-0.442-5.02,1.404-7.276     c0.353-0.431,0.99-0.497,1.424-0.141c0.432,0.354,0.496,0.991,0.141,1.423c-1.117,1.366-1.068,4.646-0.955,5.794     c0.054,0.555-0.352,1.051-0.907,1.107C131.684,156.35,131.65,156.352,131.617,156.352z"/>
			<path style="fill:#251626;" d="M136.084,143.544c-0.514,0-0.953-0.389-1.006-0.911c-0.05-0.507-0.442-5.019,1.403-7.275     c0.355-0.433,0.992-0.496,1.424-0.143c0.433,0.354,0.497,0.992,0.143,1.424c-1.117,1.367-1.069,4.646-0.956,5.794     c0.054,0.555-0.351,1.051-0.907,1.107C136.151,143.542,136.116,143.544,136.084,143.544z"/>
			<path style="fill:#251626;" d="M136.084,130.266c-0.514,0-0.953-0.389-1.006-0.911c-0.05-0.507-0.442-5.019,1.404-7.275     c0.354-0.431,0.991-0.496,1.423-0.141c0.433,0.354,0.497,0.991,0.142,1.423c-1.117,1.365-1.062,4.723-0.955,5.792     c0.055,0.556-0.35,1.052-0.906,1.108C136.151,130.264,136.117,130.266,136.084,130.266z"/>
			<path style="fill:#251626;" d="M129.012,145.028c-0.514,0-0.953-0.389-1.006-0.911c-0.05-0.507-0.442-5.019,1.405-7.276     c0.354-0.432,0.988-0.496,1.424-0.141c0.432,0.354,0.496,0.991,0.141,1.424c-1.117,1.365-1.069,4.645-0.956,5.793     c0.054,0.555-0.351,1.051-0.907,1.107C129.079,145.026,129.045,145.028,129.012,145.028z"/>
			<path style="fill:#251626;" d="M126.077,161.898c-0.514,0-0.953-0.389-1.006-0.911c-0.05-0.507-0.442-5.019,1.403-7.275     c0.354-0.433,0.991-0.497,1.424-0.143s0.497,0.992,0.143,1.424c-1.117,1.366-1.069,4.646-0.956,5.794     c0.054,0.555-0.351,1.051-0.907,1.107C126.144,161.896,126.109,161.898,126.077,161.898z"/>
			<path style="fill:#251626;" d="M129.012,132.796c-0.514,0-0.953-0.389-1.006-0.911c-0.05-0.507-0.442-5.019,1.405-7.275     c0.354-0.432,0.988-0.496,1.424-0.141c0.432,0.354,0.496,0.991,0.141,1.424c-1.117,1.365-1.063,4.722-0.956,5.791     c0.055,0.556-0.35,1.052-0.906,1.108C129.079,132.794,129.046,132.796,129.012,132.796z"/>
			<path style="fill:#251626;" d="M96.754,114.734c-0.297,0-0.591-0.129-0.791-0.379c-0.349-0.437-0.278-1.073,0.158-1.423     c0.398-0.317,3.957-3.093,6.868-2.779c0.555,0.062,0.955,0.562,0.894,1.117c-0.061,0.555-0.555,0.962-1.118,0.894     c-1.754-0.204-4.541,1.678-5.38,2.349C97.199,114.662,96.975,114.734,96.754,114.734z"/>
			<path style="fill:#251626;" d="M107.483,113.224c-0.348,0-0.687-0.18-0.874-0.502c-0.282-0.482-0.12-1.102,0.363-1.383     c0.441-0.257,4.382-2.491,7.2-1.751c0.54,0.141,0.864,0.695,0.721,1.235c-0.141,0.54-0.696,0.866-1.235,0.721     c-1.701-0.441-4.669,0.96-5.666,1.541C107.832,113.18,107.656,113.224,107.483,113.224z"/>
		</g>
	</g>
	<g>
		<path style="fill:#83B0A6;" d="M302.924,305.76c0,0,121.521,2.059,184.421,42.97S364.94,434.585,233.89,434.535    c-131.05-0.05-257.101-22.795-230.245-71.944S217.437,296.856,302.924,305.76z"/>
		<path style="fill:#D8A9AA;" d="M39.958,378.285c0,0,21.861-170.422,141.413-182.136    c119.552-11.714,209.26,114.382,222.136,179.416L39.958,378.285z"/>
		<path style="fill:#D8A9AA;" d="M301.339,215.466l76.775-12.989c0,0-28.665-26.164-15.306-30.876    c13.359-4.711,53.757,92.124,53.757,92.124s40.603-3.911,55.404,10.98c14.801,14.891,11.683,133.204-115.545,119.877    c-78.605-8.234-85.884-130.22-65.827-165.074c0,0-28.466-21.829-20.513-29.525C278.037,192.287,301.339,215.466,301.339,215.466z"/>
		<path style="fill:#251626;" d="M330.596,300.693c-0.172,0-0.346-0.043-0.506-0.136c-0.483-0.28-0.649-0.898-0.369-1.382    c0.28-0.483,28.688-48.213,90.631-36.693c0.549,0.103,0.912,0.63,0.81,1.18c-0.103,0.549-0.631,0.911-1.18,0.81    c-60.545-11.263-88.238,35.245-88.51,35.716C331.285,300.512,330.945,300.693,330.596,300.693z"/>
		<path style="fill:#251626;" d="M341.177,266.667c-0.086,0-0.172-0.002-0.26-0.008c-7.067-0.439-11.991-11.969-12.198-12.459    c-0.216-0.515,0.026-1.108,0.54-1.325c0.514-0.215,1.108,0.025,1.325,0.54c0.045,0.109,4.641,10.863,10.458,11.224    c0.575,0.026,1.033-0.153,1.433-0.593c2.565-2.826,1.538-13.351,0.927-17.168c-0.089-0.551,0.287-1.071,0.839-1.159    c0.55-0.091,1.07,0.286,1.159,0.839c0.241,1.503,2.248,14.799-1.426,18.848C343.222,266.234,342.26,266.667,341.177,266.667z"/>
		<path style="fill:#251626;" d="M379.163,254.802c-0.085,0-0.172-0.003-0.258-0.008c-7.068-0.44-11.991-11.969-12.198-12.459    c-0.216-0.516,0.026-1.108,0.54-1.325c0.515-0.215,1.108,0.025,1.325,0.54c0.045,0.109,4.64,10.862,10.458,11.224    c0.561,0.031,1.032-0.153,1.432-0.593c2.565-2.827,1.538-13.351,0.927-17.168c-0.089-0.551,0.287-1.071,0.839-1.159    c0.545-0.088,1.07,0.287,1.159,0.839c0.241,1.503,2.248,14.798-1.426,18.847C381.209,254.369,380.247,254.802,379.163,254.802z"/>
		<path style="fill:#251626;" d="M356.424,312.745L356.424,312.745c-0.56-0.001-1.013-0.454-1.012-1.013    c0.002-1.498,0.191-14.688,6.25-16.666c3.786-1.239,8.539,2.145,14.535,10.33c0.33,0.451,0.232,1.084-0.218,1.414    c-0.451,0.329-1.084,0.232-1.414-0.218c-6.65-9.076-10.352-10.237-12.274-9.602c-3.967,1.293-4.85,11.082-4.856,14.744    C357.435,312.292,356.983,312.745,356.424,312.745z"/>
		<path style="fill:#251626;" d="M406.359,290.525c-0.082,0-0.165-0.01-0.248-0.031c-0.541-0.136-0.87-0.686-0.734-1.228    c0.143-0.569,3.596-13.951,11.526-15.397c4.658-0.846,9.682,2.584,14.966,10.194c0.319,0.458,0.206,1.09-0.254,1.408    c-0.459,0.32-1.09,0.207-1.408-0.254c-4.793-6.902-9.142-10.055-12.942-9.357c-6.662,1.214-9.894,13.773-9.926,13.9    C407.224,290.219,406.812,290.525,406.359,290.525z"/>
		<path style="fill:#251626;" d="M315.101,377.237c-0.201,0-0.404-0.059-0.581-0.184c-0.383-0.27-37.791-27.142-14.621-61.585    c-4.805-3.131-26.594-18.358-29.683-38.753c-1.511-9.968,1.749-19.603,9.688-28.64c0.368-0.42,1.008-0.461,1.428-0.092    c0.42,0.369,0.461,1.008,0.092,1.428c-7.524,8.565-10.623,17.648-9.208,26.995c3.257,21.521,29.375,37.746,29.639,37.908    c0.238,0.145,0.405,0.383,0.461,0.656c0.057,0.274-0.001,0.558-0.161,0.786c-9.736,13.91-10.457,28.138-2.14,42.291    c6.263,10.659,15.576,17.284,15.67,17.349c0.456,0.322,0.567,0.952,0.246,1.41C315.732,377.087,315.419,377.237,315.101,377.237z"/>
		<path style="fill:#251626;" d="M278.941,373.892c-0.531,0-0.976-0.413-1.009-0.951c-0.019-0.302-1.597-30.573,19.984-54.187    c0.377-0.413,1.017-0.441,1.43-0.064c0.412,0.377,0.441,1.017,0.064,1.43c-21.01,22.988-19.477,52.405-19.459,52.699    c0.035,0.557-0.39,1.037-0.949,1.071C278.982,373.891,278.962,373.892,278.941,373.892z"/>
		<path style="fill:#251626;" d="M292.985,233.821c-0.317,0-0.628-0.148-0.826-0.426c-1.433-2.018-13.955-19.891-12.406-26.089    c0.239-0.957,0.794-1.678,1.606-2.084c6.299-3.165,18.482,18.928,20.86,23.386c0.263,0.493,0.076,1.106-0.417,1.369    c-0.497,0.26-1.106,0.074-1.369-0.417c-6.402-12.003-15.192-24.043-18.168-22.529c-0.19,0.095-0.424,0.268-0.547,0.764    c-1.122,4.49,8.349,19.154,12.093,24.427c0.323,0.455,0.216,1.087-0.239,1.411C293.392,233.76,293.188,233.821,292.985,233.821z"/>
		<path style="fill:#251626;" d="M385.697,208.546c-0.367,0-0.719-0.199-0.899-0.546c-3.195-6.166-12.538-22.366-17.343-23.261    c-0.243-0.046-0.334-0.011-0.334-0.011c-1.132,1.226,3.134,11.655,9.143,22.309c0.275,0.486,0.103,1.104-0.384,1.378    c-0.486,0.277-1.104,0.102-1.378-0.384c-2.744-4.865-11.505-21.008-9.018-24.485c0.29-0.406,0.975-1.049,2.343-0.797    c6.638,1.238,17.546,21.962,18.768,24.32c0.257,0.496,0.063,1.107-0.433,1.364C386.012,208.51,385.853,208.546,385.697,208.546z"/>
		<path style="fill:#251626;" d="M218.384,383.247c-7.847,0.001-14.497-11.085-16.791-15.407    c-5.498,8.958-11.408,13.454-17.635,13.288c-8.927-0.198-15.535-9.831-17.744-13.525c-6.845,9.174-13.854,13.552-20.852,13.066    c-9.024-0.649-15.217-9.213-17.461-12.861c-4.17,7.296-9.151,11.195-14.827,11.596c-9.435,0.684-17.785-8.577-20.47-11.918    c-4.701,6.97-10.22,10.694-16.422,11.074c-10.258,0.608-19.101-8.009-21.939-11.114c-9.085,14.297-24.445,10.27-24.601,10.228    c-0.538-0.148-0.854-0.703-0.706-1.242c0.146-0.538,0.701-0.858,1.242-0.709c0.602,0.163,14.86,3.85,23.035-10.488    c0.166-0.289,0.463-0.479,0.795-0.507c0.339-0.035,0.657,0.111,0.869,0.369c0.099,0.122,10.005,12.152,21.188,11.443    c5.86-0.362,11.114-4.178,15.614-11.342c0.179-0.285,0.489-0.462,0.826-0.472c0.332-0.041,0.656,0.148,0.853,0.421    c0.094,0.13,9.442,12.957,19.577,12.239c5.328-0.379,10.053-4.456,14.045-12.117c0.174-0.335,0.521-0.544,0.897-0.544    c0.001,0,0.002,0,0.003,0c0.377,0.001,0.724,0.213,0.897,0.549c0.065,0.126,6.626,12.656,16.736,13.377    c6.551,0.454,13.282-4.074,19.981-13.501c0.205-0.289,0.54-0.454,0.896-0.423c0.352,0.025,0.665,0.23,0.827,0.543    c0.071,0.136,7.174,13.625,16.788,13.834c5.765,0.163,11.417-4.542,16.779-13.872c0.188-0.327,0.554-0.538,0.92-0.507    c0.376,0.016,0.713,0.24,0.873,0.582c0.077,0.164,7.764,16.298,16.119,15.907c4.624-0.233,8.793-5.553,12.392-15.813    c0.139-0.399,0.513-0.669,0.936-0.677c0.436,0.038,0.806,0.248,0.96,0.641c0.055,0.141,5.657,14.132,14.277,14.71    c5.452,0.374,11.068-4.627,16.759-14.833c0.142-0.255,0.387-0.436,0.673-0.497c0.286-0.063,0.583,0.006,0.817,0.181    c0.212,0.158,21.303,15.804,32.747,10.844c0.514-0.216,1.109,0.014,1.331,0.527c0.221,0.513-0.014,1.109-0.527,1.331    c-11.204,4.851-29.472-7.313-33.836-10.409c-5.929,10.283-12.027,15.299-18.104,14.875c-7.633-0.515-12.876-9.374-14.988-13.687    c-3.733,9.585-8.215,14.571-13.339,14.827C218.661,383.243,218.521,383.247,218.384,383.247z"/>
		<path style="fill:#251626;" d="M253.742,410.988c-7.847,0.001-14.497-11.085-16.791-15.407    c-5.498,8.958-11.401,13.425-17.635,13.288c-8.926-0.198-15.533-9.83-17.743-13.525c-6.844,9.176-13.866,13.569-20.853,13.066    c-9.024-0.649-15.217-9.213-17.46-12.861c-4.17,7.296-9.151,11.195-14.827,11.596c-9.489,0.666-17.787-8.578-20.471-11.918    c-4.701,6.97-10.22,10.694-16.422,11.074c-10.244,0.601-19.099-8.009-21.938-11.114c-9.085,14.296-24.446,10.27-24.602,10.228    c-0.538-0.148-0.854-0.703-0.706-1.242c0.146-0.539,0.702-0.855,1.242-0.709c0.602,0.163,14.863,3.85,23.036-10.488    c0.166-0.29,0.463-0.479,0.795-0.507c0.338-0.033,0.657,0.111,0.869,0.369c0.099,0.122,10.034,12.174,21.188,11.443    c5.86-0.362,11.113-4.177,15.613-11.342c0.179-0.285,0.489-0.462,0.826-0.472c0.346-0.048,0.656,0.148,0.853,0.421    c0.093,0.13,9.459,12.955,19.578,12.239c5.328-0.379,10.053-4.456,14.045-12.117c0.174-0.335,0.521-0.544,0.897-0.544h0.003    c0.377,0.001,0.724,0.213,0.897,0.549c0.065,0.126,6.626,12.655,16.735,13.377c6.56,0.47,13.283-4.074,19.982-13.501    c0.205-0.289,0.538-0.461,0.896-0.423c0.352,0.025,0.665,0.23,0.827,0.543c0.071,0.136,7.173,13.625,16.787,13.834    c5.77,0.196,11.417-4.542,16.779-13.872c0.188-0.327,0.558-0.542,0.92-0.507c0.376,0.016,0.714,0.24,0.873,0.582    c0.077,0.164,7.816,16.301,16.119,15.907c4.624-0.233,8.793-5.553,12.392-15.813c0.139-0.399,0.513-0.669,0.936-0.677    c0.435,0.006,0.806,0.249,0.96,0.641c0.055,0.141,5.658,14.132,14.278,14.71c5.454,0.395,11.067-4.626,16.759-14.833    c0.142-0.255,0.387-0.436,0.673-0.497c0.288-0.06,0.582,0.005,0.817,0.181c0.212,0.159,21.3,15.81,32.747,10.844    c0.518-0.222,1.109,0.015,1.331,0.527c0.221,0.513-0.014,1.109-0.527,1.331c-11.202,4.852-29.471-7.313-33.836-10.409    c-5.93,10.284-12.017,15.306-18.104,14.875c-7.633-0.514-12.876-9.374-14.989-13.688c-3.733,9.586-8.215,14.572-13.339,14.828    C254.018,410.984,253.879,410.988,253.742,410.988z"/>
		<path style="fill:#251626;" d="M73.716,298.175c-0.053,0-0.107-0.004-0.161-0.013c-0.552-0.089-0.928-0.608-0.839-1.159    c0.811-5.052,4.419-7.508,4.572-7.61c0.464-0.309,1.094-0.186,1.403,0.281c0.309,0.464,0.185,1.091-0.279,1.401    c-0.064,0.045-3.035,2.123-3.698,6.249C74.634,297.821,74.204,298.175,73.716,298.175z"/>
		<path style="fill:#251626;" d="M76.903,310.74c-0.053,0-0.108-0.004-0.162-0.013c-0.551-0.089-0.927-0.608-0.838-1.16    c0.813-5.051,4.419-7.507,4.572-7.609c0.465-0.31,1.093-0.185,1.403,0.281c0.309,0.463,0.185,1.09-0.278,1.401l0,0    c-0.03,0.021-3.031,2.099-3.699,6.249C77.821,310.386,77.391,310.74,76.903,310.74z"/>
		<path style="fill:#251626;" d="M66.483,312.449c-0.053,0-0.108-0.004-0.162-0.013c-0.551-0.089-0.927-0.608-0.838-1.16    c0.813-5.051,4.419-7.508,4.572-7.61c0.461-0.31,1.093-0.186,1.403,0.281c0.309,0.463,0.185,1.09-0.278,1.401    c-0.046,0.032-3.033,2.111-3.699,6.25C67.401,312.096,66.971,312.449,66.483,312.449z"/>
		<path style="fill:#251626;" d="M86.056,298.175c-0.053,0-0.108-0.004-0.162-0.013c-0.551-0.089-0.927-0.608-0.838-1.16    c0.813-5.051,4.419-7.507,4.572-7.609c0.464-0.309,1.094-0.186,1.403,0.281c0.309,0.463,0.185,1.09-0.278,1.401l0,0    c-0.03,0.021-3.031,2.099-3.699,6.249C86.974,297.821,86.544,298.175,86.056,298.175z"/>
		<path style="fill:#251626;" d="M83.069,285.157c-0.053,0-0.108-0.004-0.162-0.013c-0.551-0.089-0.927-0.608-0.838-1.16    c0.813-5.051,4.419-7.508,4.572-7.61c0.463-0.31,1.092-0.184,1.403,0.281c0.309,0.463,0.185,1.09-0.278,1.401    c-0.046,0.032-3.033,2.111-3.699,6.25C83.987,284.804,83.557,285.157,83.069,285.157z"/>
		<path style="fill:#251626;" d="M85.136,312.449c-0.053,0-0.108-0.004-0.162-0.013c-0.551-0.089-0.927-0.608-0.838-1.16    c0.813-5.051,4.419-7.508,4.572-7.61c0.462-0.31,1.093-0.186,1.403,0.281c0.309,0.463,0.185,1.09-0.278,1.401    c-0.046,0.032-3.033,2.111-3.699,6.25C86.054,312.096,85.624,312.449,85.136,312.449z"/>
		<path style="fill:#251626;" d="M93.597,285.157c-0.053,0-0.107-0.004-0.161-0.013c-0.552-0.089-0.928-0.608-0.839-1.159    c0.811-5.052,4.418-7.509,4.571-7.611c0.461-0.31,1.093-0.184,1.403,0.281c0.309,0.463,0.185,1.09-0.278,1.401h0.001    c-0.031,0.02-3.032,2.1-3.699,6.249C94.515,284.804,94.085,285.157,93.597,285.157z"/>
		<path style="fill:#251626;" d="M87.203,273.596c-0.053,0-0.108-0.004-0.162-0.013c-0.551-0.089-0.927-0.608-0.838-1.16    c0.813-5.051,4.419-7.507,4.572-7.609c0.466-0.311,1.094-0.185,1.403,0.281c0.309,0.463,0.185,1.09-0.278,1.401l0,0    c-0.03,0.021-3.031,2.099-3.699,6.249C88.121,273.242,87.691,273.596,87.203,273.596z"/>
		<path style="fill:#251626;" d="M76.242,326.121c-0.053,0-0.107-0.004-0.161-0.013c-0.552-0.089-0.928-0.608-0.839-1.159    c0.811-5.052,4.418-7.509,4.571-7.611c0.463-0.309,1.094-0.186,1.403,0.281c0.309,0.463,0.185,1.091-0.278,1.401    c-0.063,0.043-3.035,2.122-3.698,6.249C77.16,325.767,76.73,326.121,76.242,326.121z"/>
		<path style="fill:#251626;" d="M58.834,342.829c-0.551,0-1.002-0.442-1.012-0.994c-0.089-5.116,3.029-8.168,3.162-8.296    c0.401-0.385,1.044-0.374,1.431,0.03c0.385,0.402,0.373,1.04-0.027,1.428c-0.033,0.032-2.615,2.605-2.542,6.803    c0.01,0.559-0.436,1.02-0.994,1.03C58.846,342.829,58.84,342.829,58.834,342.829z"/>
		<path style="fill:#251626;" d="M62.869,327.318c-0.053,0-0.108-0.004-0.162-0.013c-0.551-0.089-0.927-0.608-0.838-1.16    c0.813-5.051,4.419-7.508,4.572-7.61c0.463-0.309,1.094-0.186,1.403,0.281c0.309,0.463,0.185,1.09-0.278,1.401    c-0.046,0.032-3.033,2.11-3.699,6.25C63.787,326.964,63.358,327.318,62.869,327.318z"/>
		<path style="fill:#251626;" d="M69.229,336.889c-0.545,0-0.995-0.435-1.011-0.984c-0.141-5.114,2.944-8.199,3.076-8.327    c0.399-0.393,1.039-0.385,1.431,0.014c0.39,0.398,0.385,1.037-0.012,1.429c-0.042,0.042-2.588,2.641-2.471,6.829    c0.015,0.558-0.425,1.024-0.984,1.039C69.248,336.889,69.238,336.889,69.229,336.889z"/>
		<path style="fill:#251626;" d="M215.694,210.477c-0.216,0-0.435-0.069-0.62-0.212l0,0c-0.125-0.096-3.123-2.349-7.045-0.814    c-0.519,0.203-1.107-0.051-1.311-0.572c-0.205-0.52,0.051-1.107,0.572-1.311c5.013-1.971,8.867,0.974,9.028,1.102    c0.441,0.344,0.518,0.98,0.173,1.42C216.292,210.343,215.995,210.477,215.694,210.477z"/>
		<path style="fill:#251626;" d="M205.751,221.471c-0.216,0-0.435-0.069-0.62-0.212l0,0c-0.127-0.098-3.13-2.355-7.045-0.813    c-0.517,0.203-1.107-0.05-1.311-0.572c-0.205-0.52,0.051-1.107,0.572-1.311c5.011-1.975,8.867,0.974,9.028,1.101    c0.441,0.344,0.518,0.98,0.173,1.42C206.348,221.338,206.051,221.471,205.751,221.471z"/>
		<path style="fill:#251626;" d="M199.696,210.035c-0.216,0-0.435-0.069-0.62-0.212l0,0c-0.124-0.096-3.124-2.349-7.045-0.814    c-0.518,0.202-1.108-0.051-1.311-0.572c-0.205-0.52,0.051-1.107,0.572-1.311c5.016-1.969,8.866,0.975,9.028,1.102    c0.441,0.344,0.518,0.98,0.173,1.42C200.294,209.902,199.996,210.035,199.696,210.035z"/>
		<path style="fill:#251626;" d="M221.042,225.18c-0.216,0-0.435-0.069-0.62-0.212l0,0c-0.125-0.097-3.128-2.349-7.046-0.814    c-0.521,0.202-1.108-0.051-1.311-0.572c-0.205-0.52,0.051-1.108,0.572-1.311c5.022-1.967,8.87,0.976,9.029,1.102    c0.441,0.344,0.518,0.98,0.173,1.42C221.64,225.047,221.342,225.18,221.042,225.18z"/>
		<path style="fill:#251626;" d="M231.481,214.164c-0.216,0-0.436-0.069-0.62-0.213c-0.139-0.106-3.136-2.343-7.045-0.813    c-0.517,0.205-1.108-0.051-1.311-0.572c-0.205-0.52,0.051-1.107,0.572-1.311c5.014-1.97,8.867,0.975,9.029,1.102    c0.44,0.344,0.518,0.98,0.173,1.42C232.078,214.031,231.781,214.164,231.481,214.164z"/>
		<path style="fill:#251626;" d="M207.779,232.261c-0.216,0-0.436-0.069-0.621-0.213c-0.139-0.106-3.134-2.344-7.045-0.813    c-0.521,0.204-1.108-0.05-1.311-0.572c-0.205-0.52,0.051-1.107,0.572-1.311c5.017-1.97,8.866,0.975,9.029,1.102    c0.44,0.344,0.518,0.98,0.173,1.42C208.377,232.127,208.079,232.261,207.779,232.261z"/>
		<path style="fill:#251626;" d="M236.041,226.707c-0.216,0-0.435-0.069-0.62-0.212l0,0c-0.125-0.097-3.124-2.351-7.046-0.814    c-0.52,0.203-1.107-0.05-1.311-0.572c-0.205-0.52,0.051-1.108,0.572-1.311c5.021-1.971,8.87,0.975,9.029,1.102    c0.441,0.344,0.518,0.98,0.173,1.42C236.639,226.573,236.342,226.707,236.041,226.707z"/>
		<path style="fill:#251626;" d="M243.691,212.467c-0.216,0-0.436-0.069-0.62-0.213c-0.139-0.107-3.135-2.345-7.045-0.813    c-0.521,0.202-1.108-0.051-1.311-0.572c-0.205-0.52,0.051-1.107,0.572-1.311c5.015-1.968,8.867,0.975,9.029,1.102    c0.44,0.344,0.518,0.98,0.173,1.42C244.289,212.333,243.991,212.467,243.691,212.467z"/>
		<path style="fill:#251626;" d="M191.603,229.494c-0.216,0-0.435-0.069-0.62-0.212l0,0c-0.124-0.095-3.126-2.347-7.045-0.814    c-0.52,0.202-1.108-0.051-1.311-0.572c-0.205-0.52,0.051-1.107,0.572-1.311c5.014-1.969,8.867,0.975,9.028,1.102    c0.441,0.344,0.518,0.98,0.173,1.42C192.2,229.361,191.903,229.494,191.603,229.494z"/>
		<path style="fill:#251626;" d="M160.969,217.37c-0.328,0-0.649-0.159-0.844-0.453c-0.309-0.465-0.183-1.093,0.283-1.402    c4.663-3.098,8.869-1.077,9.047-0.991c0.501,0.248,0.706,0.855,0.458,1.356c-0.247,0.498-0.85,0.704-1.352,0.46    c-0.158-0.076-3.385-1.562-7.034,0.861C161.355,217.315,161.161,217.37,160.969,217.37z"/>
		<path style="fill:#251626;" d="M184.731,214.247c-0.216,0-0.435-0.069-0.62-0.212l0,0c-0.124-0.096-3.126-2.349-7.046-0.814    c-0.519,0.202-1.107-0.051-1.311-0.572c-0.205-0.52,0.051-1.107,0.572-1.311c5.016-1.97,8.866,0.975,9.029,1.102    c0.44,0.344,0.518,0.98,0.173,1.42C185.328,214.114,185.031,214.247,184.731,214.247z"/>
		<path style="fill:#251626;" d="M170.827,226.353c-0.323,0-0.641-0.154-0.837-0.442c-0.315-0.462-0.196-1.092,0.266-1.406    c4.634-3.159,8.86-1.2,9.037-1.115c0.504,0.242,0.717,0.846,0.476,1.35c-0.24,0.503-0.84,0.717-1.345,0.478    c-0.143-0.067-3.389-1.522-7.028,0.958C171.221,226.296,171.023,226.353,170.827,226.353z"/>
		<path style="fill:#251626;" d="M387.853,393.73c-25.322,0-44.374-10.401-44.75-10.614c-0.487-0.274-0.66-0.89-0.385-1.377    c0.273-0.488,0.887-0.662,1.377-0.386c0.185,0.104,18.723,10.366,43.164,10.547c40.729,0.244,66.468-27.243,80.853-50.404    c0.294-0.474,0.918-0.619,1.393-0.326c0.475,0.295,0.621,0.919,0.326,1.393C444.445,383.432,413.045,393.73,387.853,393.73z"/>
	</g>
</g>















</svg>
