<svg width="440" height="419" viewBox="0 0 440 419" fill="none" xmlns="http://www.w3.org/2000/svg">
<path d="M402.949 213.664C403.04 213.664 403.133 213.652 403.226 213.628C407.879 212.404 423.156 208.149 424.416 204.834C424.628 204.276 424.555 203.705 424.209 203.227C422.324 200.624 411.397 199.334 405.794 198.836C410.659 195.271 421.199 186.844 421.199 180.788C421.199 179.674 420.71 178.79 419.784 178.233C415.834 175.865 403.521 180.502 396.853 183.319C400.948 177.963 408.311 167.575 407.625 162.983C407.49 162.075 407.074 161.374 406.391 160.902C405.515 160.301 400.36 158.182 382.018 173.091C383.494 166.977 386.238 153.506 383.156 148.616C382.485 147.552 381.575 146.887 380.454 146.643C379.137 146.348 377.828 146.599 376.573 147.376C370.734 151.002 367.614 165.944 367.486 166.579C367.374 167.12 367.743 167.643 368.309 167.75C368.868 167.853 369.424 167.505 369.532 166.963C370.373 162.872 373.478 151.678 377.711 149.049C378.48 148.572 379.226 148.419 379.989 148.588C380.543 148.709 380.994 149.055 381.367 149.646C384.272 154.255 380.796 169.974 379.212 175.641C379.094 176.066 379.281 176.515 379.67 176.746C380.063 176.978 380.568 176.937 380.912 176.647C389.272 169.602 402.336 160.562 405.166 162.52C405.301 162.613 405.487 162.79 405.556 163.263C406.205 167.614 396.503 180.618 392.708 185.262C392.411 185.627 392.414 186.141 392.719 186.502C393.025 186.864 393.549 186.975 393.985 186.776C401.899 183.147 415.607 178.074 418.67 179.924C418.899 180.061 419.11 180.261 419.11 180.79C419.11 186.21 407.006 195.629 402.342 198.801C401.983 199.045 401.824 199.478 401.943 199.884C402.062 200.289 402.434 200.579 402.875 200.608C411.42 201.189 420.917 202.701 422.403 204.259C421.461 205.858 411.583 209.359 402.671 211.706C402.114 211.852 401.788 212.401 401.94 212.933C402.07 213.374 402.49 213.664 402.949 213.664Z" fill="#251426"/>
<path d="M21.7915 212.135C22.2605 212.135 22.6864 211.833 22.8052 211.379C22.9443 210.845 22.6055 210.303 22.0449 210.17C13.0768 208.026 3.1161 204.75 2.13314 203.174C3.58074 201.581 13.0363 199.854 21.5653 199.078C22.0053 199.039 22.3705 198.74 22.4787 198.332C22.5887 197.925 22.4171 197.496 22.0528 197.259C17.3123 194.194 4.97554 185.051 4.8409 179.635C4.82682 179.107 5.0345 178.902 5.2589 178.758C8.27906 176.849 22.1039 181.601 30.1092 185.048C30.5457 185.238 31.0719 185.114 31.365 184.746C31.6607 184.379 31.6527 183.866 31.3447 183.507C27.4375 178.949 17.4135 166.169 17.9538 161.806C18.011 161.331 18.1923 161.15 18.3225 161.056C21.1306 159.032 34.3922 167.775 42.9255 174.627C43.274 174.909 43.78 174.939 44.1672 174.698C44.5527 174.458 44.7278 174.004 44.5975 173.582C42.8727 167.953 39.006 152.318 41.7956 147.643C42.1547 147.044 42.5973 146.687 43.1473 146.554C43.9041 146.373 44.6565 146.504 45.4353 146.964C49.7376 149.497 53.1186 160.616 54.0584 164.687C54.1825 165.224 54.7334 165.567 55.3019 165.446C55.8651 165.328 56.2215 164.796 56.0974 164.257C55.9522 163.625 52.4595 148.757 46.5318 145.266C45.2611 144.517 43.9419 144.303 42.6334 144.621C41.5184 144.891 40.627 145.576 39.9828 146.655C37.0225 151.615 40.1007 165.018 41.7305 171.098C23.0323 156.617 17.9265 158.847 17.0597 159.466C16.3891 159.953 15.9914 160.663 15.8787 161.573C15.3076 166.181 22.9275 176.398 27.1551 181.661C20.416 178.995 7.98338 174.646 4.10346 177.097C3.19178 177.676 2.72538 178.57 2.75178 179.683C2.90226 185.737 13.6506 193.92 18.6015 197.375C13.0126 198.001 2.1217 199.539 0.302737 202.184C-0.0316631 202.67 -0.0906231 203.243 0.133777 203.796C1.47754 207.081 16.8564 210.986 21.538 212.104C21.6225 212.125 21.7079 212.135 21.7915 212.135Z" fill="#251426"/>
<path d="M153.608 189.345C153.608 189.345 52.7815 235.208 61.4469 409.939H348.199C348.199 409.939 396.652 285.47 262.877 194.521C262.877 194.521 204.722 159.552 153.608 189.345Z" fill="#DA9395"/>
<path d="M262.877 194.52C262.877 194.52 384.124 166.306 259.112 43.5039C259.112 43.5039 299.892 22.6251 288.343 10.9215C266.807 -10.9067 213.175 1.42673 240.319 35.1031C240.319 35.1031 179.938 17.5691 144.64 40.1944C144.64 40.1944 131.668 8.90681 112.852 8.90681C101.055 8.90681 50.3104 47.5668 125.479 53.1853C125.479 53.1853 42.2531 147.589 133.17 189.931C133.17 189.931 216.94 230.432 262.877 194.52Z" fill="#DA9395"/>
<path d="M256.788 180.095C256.788 180.095 248.188 89.148 206.344 93.9105C176.203 97.3411 149.648 173.457 168.371 186.268C182.938 196.235 252.385 204.092 256.788 180.095Z" fill="#FFE9CB"/>
<path d="M231.904 119.963C231.904 119.963 227.267 142.364 212.411 139.066C197.555 135.767 193.239 112.402 207.911 107.18C222.583 101.959 232.572 113.827 231.904 119.963Z" fill="#251326"/>
<path d="M165.862 94.6108C166.228 94.6108 166.595 94.557 166.957 94.4485C174.379 92.2312 174.594 72.2656 174.594 69.997C174.594 69.4462 174.127 68.9998 173.55 68.9998C172.974 68.9998 172.507 69.4462 172.507 69.997C172.505 78.0018 170.828 91.2029 166.334 92.5449C165.851 92.687 165.398 92.618 164.905 92.3179C160.837 89.829 158.053 75.269 157.326 69.8692C157.25 69.3226 156.74 68.9417 156.155 69.0073C155.584 69.0788 155.18 69.5782 155.254 70.1248C155.536 72.2067 158.164 90.5605 163.78 93.9978C164.443 94.4048 165.151 94.6108 165.862 94.6108Z" fill="#251426"/>
<path d="M249.101 97.9312C249.466 97.9312 249.833 97.8774 250.196 97.769C257.617 95.5508 257.832 75.586 257.832 73.3174C257.832 72.7667 257.365 72.3202 256.788 72.3202C256.211 72.3202 255.745 72.7667 255.745 73.3174C255.743 81.3222 254.067 94.5217 249.572 95.8653C249.091 96.0066 248.636 95.9393 248.143 95.6383C244.075 93.1494 241.292 78.5895 240.564 73.1896C240.488 72.6431 239.985 72.2664 239.393 72.3278C238.822 72.3992 238.418 72.8987 238.492 73.4452C238.774 75.5271 241.403 93.8809 247.018 97.3183C247.682 97.7261 248.39 97.9312 249.101 97.9312Z" fill="#251426"/>
<path d="M204.574 171.403C205.399 171.403 206.19 171.115 206.935 170.547C212.167 166.544 214.043 148.065 214.241 145.972C214.292 145.423 213.867 144.938 213.295 144.889C212.728 144.829 212.214 145.243 212.161 145.793C211.647 151.248 209.475 166.049 205.63 168.99C205.063 169.423 204.647 169.43 204.39 169.397C199.713 168.806 197.21 153.482 196.731 143.961C196.705 143.412 196.27 142.985 195.638 143.013C195.064 143.039 194.618 143.506 194.647 144.057C194.782 146.748 196.195 170.376 204.117 171.374C204.27 171.394 204.423 171.403 204.574 171.403Z" fill="#251426"/>
<path d="M197.774 97.9338C198.29 97.9338 198.737 97.5689 198.808 97.0669C201.777 75.6314 198.133 59.0762 187.979 47.8636C175.241 33.8006 157.07 33.4223 156.301 33.4139C155.646 33.3937 155.253 33.8486 155.245 34.3976C155.237 34.9492 155.7 35.4008 156.275 35.4092C156.454 35.4108 174.312 35.8027 186.418 49.1896C196.151 59.9532 199.624 75.9737 196.736 96.8054C196.661 97.3511 197.063 97.8523 197.636 97.9246C197.681 97.9305 197.726 97.9338 197.774 97.9338Z" fill="#251426"/>
<path d="M221.464 97.9338C221.537 97.9338 221.61 97.9271 221.682 97.9128C222.247 97.7976 222.608 97.2679 222.487 96.7289C215.307 64.4685 233.883 34.38 234.071 34.0798C234.367 33.6073 234.208 32.9943 233.712 32.7109C233.223 32.4301 232.579 32.5798 232.28 33.0532C232.089 33.3601 213.091 64.0994 220.444 97.1443C220.548 97.6118 220.982 97.9338 221.464 97.9338Z" fill="#251426"/>
<path d="M298.904 221.437C298.904 221.437 339.144 182.67 356.749 164.098C373.482 146.446 428.36 190.846 403.304 221.437C378.248 252.028 287.768 260.009 287.768 260.009C287.768 260.009 287.814 232.181 298.904 221.437Z" fill="#DA9395"/>
<path d="M16.3698 400.312C13.5291 395.028 13.7148 388.154 16.39 382.242C10.7034 374.377 7.45272 360.579 16.0354 348.394C20.5498 341.988 26.3322 338.728 32.3374 339.194C33.9134 339.319 35.4508 339.714 36.887 340.335C38.1366 338.785 39.6114 337.342 41.3178 336.075C44.484 333.72 47.8016 333.009 51.1623 333.957C62.524 337.161 70.4519 358.54 70.7819 359.449C70.9738 359.969 70.686 360.537 70.1413 360.72C69.5931 360.903 68.9991 360.627 68.8116 360.107C68.7324 359.893 60.9066 338.784 50.5701 335.87C47.8438 335.102 45.2382 335.686 42.5973 337.649C41.0925 338.767 39.8121 339.996 38.727 341.288C41.1004 342.733 43.0646 344.835 44.2631 347.35C46.3408 351.709 45.8066 356.454 42.7988 360.368C39.9054 364.132 37.5179 364.568 36.007 364.278C34.0226 363.89 32.5406 362.083 31.8331 359.19C30.6671 354.422 31.7962 347.694 35.6567 341.996C34.5453 341.558 33.3687 341.277 32.1658 341.183C26.972 340.775 21.8398 343.727 17.7681 349.509C10.0646 360.444 12.5497 372.745 17.4504 380.178C18.5944 378.198 20.0358 376.374 21.751 374.816C27.3055 369.771 31.5075 370.109 33.506 370.759C36.0668 371.588 37.8778 373.768 38.3486 376.59C38.8643 379.693 37.6904 384.246 32.839 387.714C28.9238 390.513 23.9017 389.746 19.4058 385.656C18.8778 385.178 18.3577 384.648 17.8499 384.072C15.833 389.191 15.825 394.933 18.2274 399.402C22.4154 407.192 32.7474 410.017 47.3308 407.346C59.0163 405.208 66.5474 400.931 69.7092 394.635C73.8707 386.354 68.9243 377.235 68.875 377.144C68.6057 376.657 68.7993 376.052 69.3071 375.796C69.821 375.54 70.4467 375.723 70.7177 376.208C70.9439 376.615 76.2089 386.282 71.5986 395.482C68.1384 402.388 60.104 407.04 47.7206 409.306C43.8099 410.021 40.3612 410.333 37.3234 410.333C24.0407 410.332 18.5618 404.389 16.3698 400.312ZM23.1906 376.26C21.3761 377.907 19.8977 379.875 18.788 382.011C19.4506 382.834 20.1423 383.571 20.8437 384.209C22.6195 385.824 27.2202 389.242 31.5876 386.115C35.6946 383.179 36.7074 379.431 36.2859 376.902C35.9392 374.824 34.6509 373.234 32.8381 372.648C32.3057 372.476 31.739 372.391 31.1432 372.391C28.7734 372.391 25.9679 373.738 23.1906 376.26ZM33.8668 358.735C34.364 360.765 35.3206 362.106 36.4276 362.323C37.671 362.559 39.3941 361.427 41.1154 359.186C43.6638 355.871 44.1188 351.857 42.3632 348.174C41.3134 345.973 39.5815 344.139 37.4959 342.898C33.528 348.617 32.9877 355.141 33.8668 358.735Z" fill="#251426"/>
<path d="M252.344 37.2867C252.344 37.2867 236.893 23.5071 252.344 16.6181C267.795 9.72914 261.165 41.0083 252.344 37.2867Z" fill="#FFE9CB"/>
<path d="M127.704 42.5361C127.704 42.5361 125.644 20.5247 115.343 26.609C105.042 32.6941 109.506 51.0664 127.704 42.5361Z" fill="#FFE9CB"/>
<path d="M334.795 289.123C334.795 289.123 428.141 305.554 402.764 402.46C402.764 402.46 437.564 380.087 438.956 384.077C440.347 388.066 425.541 410.677 413.456 414.668C401.371 418.659 278.116 414.668 278.116 414.668" fill="#DA9395"/>
<path d="M323.535 416.266C323.535 416.266 327.891 263.3 245.476 246.176C163.061 229.051 170.323 412.192 173.102 413.522C175.881 414.852 323.535 416.266 323.535 416.266Z" fill="#FFE9CB"/>
<path d="M274.807 414.511C310.13 414.511 334.648 405.58 347.936 387.803C378.587 346.8 337.739 272.097 337.322 271.347C337.051 270.86 336.423 270.676 335.912 270.934C335.402 271.192 335.209 271.795 335.48 272.283C335.89 273.021 376.141 346.648 346.236 386.647C328.584 410.259 290.172 417.761 232.067 408.954C231.508 408.868 230.963 409.238 230.872 409.784C230.782 410.327 231.172 410.838 231.74 410.925C247.525 413.317 261.89 414.511 274.807 414.511Z" fill="#251426"/>
<path d="M120.791 216.818C120.791 216.818 97.2339 207.602 64.0165 171.611C30.7992 135.621 -35.7341 236.195 102.982 248.967L120.791 216.818Z" fill="#DA9395"/>
<path d="M416.182 404.375C416.471 404.375 416.761 404.26 416.967 404.036C417.089 403.902 429.271 390.681 439.486 384.936C439.982 384.658 440.149 384.045 439.855 383.571C439.561 383.093 438.923 382.94 438.426 383.217C427.918 389.126 415.902 402.168 415.396 402.72C415.017 403.135 415.06 403.764 415.494 404.127C415.693 404.293 415.937 404.375 416.182 404.375Z" fill="#251426"/>
<path d="M138.368 137.74C149.298 137.74 158.159 129.274 158.159 118.83C158.159 108.387 149.298 99.9208 138.368 99.9208C127.439 99.9208 118.578 108.387 118.578 118.83C118.578 129.274 127.439 137.74 138.368 137.74Z" fill="#D9798C"/>
<path d="M267.978 141.552C278.907 141.552 287.768 133.086 287.768 122.643C287.768 112.199 278.907 103.733 267.978 103.733C257.048 103.733 248.187 112.199 248.187 122.643C248.187 133.086 257.048 141.552 267.978 141.552Z" fill="#D9798C"/>
<path d="M337.001 197.068C337.087 197.068 337.173 197.058 337.26 197.037C341.406 196.026 343.239 189.874 343.314 189.612C343.469 189.082 343.146 188.532 342.588 188.384C342.04 188.23 341.459 188.548 341.304 189.077C340.872 190.549 339.212 194.502 336.743 195.104C336.184 195.241 335.848 195.784 335.99 196.317C336.11 196.768 336.534 197.068 337.001 197.068Z" fill="#251426"/>
<path d="M337.794 210.37C337.88 210.37 337.966 210.36 338.053 210.339C342.2 209.329 344.033 203.175 344.109 202.913C344.264 202.383 343.94 201.834 343.383 201.686C342.838 201.531 342.253 201.848 342.098 202.378C341.666 203.851 340.007 207.803 337.535 208.405C336.976 208.542 336.64 209.085 336.782 209.618C336.904 210.07 337.328 210.37 337.794 210.37Z" fill="#251426"/>
<path d="M348.573 200.431C348.659 200.431 348.745 200.421 348.832 200.4C352.975 199.39 354.813 193.237 354.888 192.976C355.043 192.446 354.719 191.896 354.164 191.748C353.607 191.591 353.032 191.909 352.877 192.441C352.445 193.913 350.783 197.866 348.314 198.468C347.755 198.604 347.419 199.147 347.561 199.68C347.682 200.131 348.106 200.431 348.573 200.431Z" fill="#251426"/>
<path d="M347.753 187.819C347.839 187.819 347.925 187.808 348.012 187.787C352.158 186.776 353.991 180.624 354.066 180.362C354.221 179.832 353.898 179.282 353.34 179.134C352.798 178.982 352.211 179.298 352.056 179.827C351.624 181.299 349.964 185.252 347.495 185.854C346.936 185.991 346.6 186.534 346.742 187.067C346.862 187.518 347.286 187.819 347.753 187.819Z" fill="#251426"/>
<path d="M325.138 209.044C325.223 209.044 325.31 209.034 325.397 209.013C329.54 208.003 331.377 201.849 331.453 201.589C331.608 201.058 331.284 200.508 330.729 200.36C330.174 200.203 329.597 200.522 329.442 201.053C329.01 202.525 327.348 206.478 324.878 207.08C324.32 207.216 323.983 207.76 324.126 208.293C324.247 208.743 324.671 209.044 325.138 209.044Z" fill="#251426"/>
<path d="M325.501 221.24C325.525 221.24 325.55 221.239 325.574 221.238C329.843 220.958 332.81 215.226 332.935 214.982C333.187 214.486 332.972 213.89 332.453 213.649C331.941 213.414 331.314 213.613 331.059 214.108C330.356 215.482 327.973 219.082 325.431 219.248C324.856 219.286 324.422 219.763 324.46 220.312C324.5 220.836 324.958 221.24 325.501 221.24Z" fill="#251426"/>
<path d="M311.58 219.657C315.86 219.657 319.233 214.132 319.373 213.895C319.661 213.418 319.488 212.809 318.988 212.534C318.494 212.257 317.852 212.421 317.562 212.901C316.763 214.224 314.129 217.662 311.58 217.662C311.003 217.662 310.536 218.108 310.536 218.659C310.536 219.21 311.004 219.657 311.58 219.657Z" fill="#251426"/>
<path d="M79.0793 199.903C79.5466 199.903 79.9708 199.603 80.0905 199.152C80.233 198.618 79.8969 198.076 79.3381 197.94C76.8582 197.335 75.2047 193.385 74.777 191.913C74.6221 191.384 74.0572 191.073 73.4922 191.219C72.9352 191.367 72.6114 191.917 72.7662 192.447C72.8419 192.71 74.6749 198.861 78.8206 199.873C78.9077 199.893 78.9931 199.903 79.0793 199.903Z" fill="#251426"/>
<path d="M78.2839 213.205C78.7512 213.205 79.1754 212.905 79.2951 212.454C79.4376 211.92 79.1015 211.378 78.5427 211.242C76.0628 210.637 74.4093 206.687 73.9816 205.215C73.8267 204.686 73.2618 204.376 72.6968 204.521C72.1398 204.669 71.8159 205.219 71.9708 205.749C72.0465 206.012 73.8795 212.163 78.0252 213.175C78.1123 213.196 78.1986 213.205 78.2839 213.205Z" fill="#251426"/>
<path d="M67.5075 203.266C67.9748 203.266 68.399 202.965 68.5186 202.515C68.6612 201.981 68.325 201.438 67.7662 201.302C65.2952 200.7 63.6355 196.747 63.2026 195.275C63.0477 194.746 62.4642 194.433 61.9178 194.582C61.3607 194.73 61.0369 195.28 61.1918 195.81C61.2674 196.072 63.1005 202.225 67.2479 203.235C67.3359 203.256 67.4222 203.266 67.5075 203.266Z" fill="#251426"/>
<path d="M68.3268 190.655C68.7941 190.655 69.2182 190.354 69.3379 189.904C69.4805 189.37 69.1443 188.827 68.5855 188.691C66.1162 188.089 64.4548 184.136 64.0218 182.664C63.867 182.135 63.2914 181.825 62.7353 181.971C62.1809 182.119 61.8562 182.669 62.011 183.2C62.0867 183.46 63.9233 189.614 68.0672 190.623C68.1561 190.645 68.2414 190.655 68.3268 190.655Z" fill="#251426"/>
<path d="M90.9428 211.878C91.4101 211.878 91.8342 211.578 91.9539 211.127C92.0965 210.593 91.7603 210.051 91.2015 209.915C88.7322 209.313 87.0708 205.36 86.6378 203.888C86.4829 203.359 85.9101 203.046 85.3513 203.195C84.7969 203.343 84.4721 203.893 84.627 204.423C84.7027 204.685 86.5393 210.837 90.6832 211.847C90.7712 211.869 90.8565 211.878 90.9428 211.878Z" fill="#251426"/>
<path d="M90.5792 224.076C91.1213 224.076 91.5807 223.673 91.6194 223.147C91.6581 222.598 91.2234 222.121 90.6488 222.083C88.1064 221.918 85.7243 218.316 85.0212 216.943C84.766 216.449 84.1385 216.247 83.6264 216.483C83.108 216.725 82.8924 217.321 83.145 217.816C83.2691 218.061 86.2364 223.795 90.5062 224.075C90.5308 224.075 90.5546 224.076 90.5792 224.076Z" fill="#251426"/>
<path d="M104.5 222.493C105.077 222.493 105.544 222.046 105.544 221.496C105.544 220.944 105.076 220.499 104.5 220.499C104.5 220.499 104.5 220.499 104.498 220.499C101.941 220.499 99.3133 217.063 98.5177 215.739C98.23 215.258 97.5876 215.097 97.0921 215.37C96.5923 215.645 96.4189 216.255 96.7067 216.732C96.8475 216.968 100.222 222.493 104.5 222.493Z" fill="#251426"/>
<path d="M388.696 342.359C389.012 342.359 389.324 342.223 389.528 341.962C392.11 338.701 389.523 332.8 389.412 332.55C389.185 332.042 388.569 331.807 388.043 332.023C387.513 332.238 387.264 332.823 387.491 333.331C388.114 334.738 389.399 338.817 387.864 340.76C387.515 341.2 387.607 341.824 388.065 342.157C388.255 342.295 388.475 342.359 388.696 342.359Z" fill="#251426"/>
<path d="M381.945 351.388C382.261 351.388 382.573 351.252 382.776 350.991C385.357 347.73 382.772 341.829 382.66 341.579C382.434 341.07 381.818 340.834 381.292 341.052C380.762 341.267 380.513 341.852 380.739 342.36C381.363 343.767 382.648 347.846 381.112 349.789C380.764 350.229 380.855 350.853 381.314 351.186C381.504 351.323 381.724 351.388 381.945 351.388Z" fill="#251426"/>
<path d="M396.022 359.252C396.338 359.252 396.65 359.116 396.854 358.856C399.435 355.594 396.849 349.691 396.738 349.442C396.511 348.934 395.895 348.7 395.369 348.915C394.839 349.13 394.59 349.716 394.816 350.224C395.44 351.631 396.725 355.71 395.19 357.653C394.841 358.092 394.933 358.718 395.391 359.05C395.582 359.188 395.802 359.252 396.022 359.252Z" fill="#251426"/>
<path d="M385.193 365.666C385.509 365.666 385.821 365.529 386.024 365.269C388.605 362.007 386.02 356.104 385.908 355.856C385.682 355.348 385.068 355.113 384.54 355.328C384.01 355.544 383.761 356.129 383.987 356.637C384.611 358.044 385.896 362.123 384.36 364.066C384.012 364.506 384.103 365.131 384.562 365.463C384.752 365.6 384.973 365.666 385.193 365.666Z" fill="#251426"/>
<path d="M393.298 375.22C393.614 375.22 393.926 375.084 394.132 374.823C396.71 371.561 394.126 365.66 394.014 365.411C393.788 364.905 393.172 364.666 392.646 364.884C392.116 365.099 391.869 365.684 392.093 366.191C392.717 367.599 394 371.678 392.464 373.621C392.118 374.06 392.209 374.685 392.67 375.017C392.858 375.155 393.078 375.22 393.298 375.22Z" fill="#251426"/>
<path d="M372.485 339.334C372.801 339.334 373.113 339.198 373.316 338.937C375.897 335.676 373.312 329.773 373.2 329.524C372.974 329.015 372.358 328.779 371.832 328.997C371.302 329.212 371.053 329.797 371.279 330.305C371.903 331.713 373.188 335.792 371.652 337.735C371.304 338.175 371.395 338.799 371.854 339.131C372.045 339.268 372.265 339.334 372.485 339.334Z" fill="#251426"/>
<path d="M370.373 320.189C370.856 320.189 371.292 319.864 371.393 319.393C372.257 315.388 367.273 311.118 367.06 310.938C366.634 310.575 365.971 310.61 365.587 311.024C365.206 311.436 365.245 312.066 365.675 312.431C366.872 313.446 369.863 316.604 369.349 318.989C369.231 319.529 369.596 320.057 370.161 320.168C370.23 320.182 370.301 320.189 370.373 320.189Z" fill="#251426"/>
<path d="M380.798 332.847C381.176 332.847 381.543 332.649 381.726 332.305C383.683 328.67 380.078 323.278 379.925 323.049C379.611 322.589 378.967 322.454 378.481 322.754C377.998 323.054 377.859 323.671 378.171 324.134C379.038 325.419 381.034 329.227 379.87 331.394C379.605 331.884 379.806 332.485 380.32 332.738C380.474 332.812 380.637 332.847 380.798 332.847Z" fill="#251426"/>
<path d="M298.343 170.464C298.374 170.464 298.404 170.463 298.434 170.459C302.696 170.108 305.557 164.323 305.675 164.077C305.918 163.578 305.692 162.985 305.169 162.753C304.649 162.524 304.027 162.736 303.782 163.237C303.105 164.622 300.793 168.263 298.254 168.473C297.679 168.52 297.255 169.003 297.304 169.552C297.351 170.073 297.808 170.464 298.343 170.464Z" fill="#251426"/>
<path d="M286.804 171.713C286.834 171.713 286.865 171.712 286.895 171.709C291.157 171.357 294.018 165.573 294.136 165.326C294.379 164.828 294.152 164.235 293.63 164.003C293.114 163.771 292.487 163.984 292.243 164.486C291.566 165.871 289.253 169.513 286.715 169.722C286.14 169.769 285.716 170.253 285.764 170.802C285.813 171.321 286.269 171.713 286.804 171.713Z" fill="#251426"/>
<path d="M289.847 156.929C289.878 156.929 289.909 156.929 289.939 156.925C294.201 156.574 297.062 150.789 297.18 150.542C297.423 150.044 297.196 149.451 296.674 149.219C296.155 148.989 295.531 149.201 295.287 149.702C294.61 151.087 292.297 154.729 289.759 154.938C289.184 154.985 288.76 155.469 288.808 156.018C288.857 156.538 289.313 156.929 289.847 156.929Z" fill="#251426"/>
<path d="M303.322 142.617C303.501 142.617 303.683 142.573 303.85 142.481C307.542 140.414 307.524 134.016 307.522 133.745C307.516 133.197 307.051 132.756 306.478 132.756C306.477 132.756 306.472 132.756 306.471 132.756C305.893 132.761 305.43 133.211 305.435 133.762C305.447 135.291 304.994 139.528 302.794 140.758C302.297 141.037 302.13 141.648 302.421 142.124C302.614 142.44 302.965 142.617 303.322 142.617Z" fill="#251426"/>
<path d="M300.457 158.49C300.545 158.49 300.634 158.479 300.724 158.457C304.859 157.413 306.641 151.246 306.715 150.985C306.866 150.454 306.536 149.906 305.981 149.763C305.418 149.623 304.851 149.935 304.701 150.465C304.281 151.94 302.654 155.906 300.191 156.528C299.634 156.67 299.302 157.215 299.449 157.748C299.572 158.195 299.994 158.49 300.457 158.49Z" fill="#251426"/>
<path d="M123.637 174.683C124.137 174.683 124.634 174.621 125.122 174.48C125.673 174.321 125.986 173.766 125.819 173.238C125.652 172.71 125.074 172.411 124.518 172.571C122.069 173.265 118.519 170.707 117.355 169.659C116.935 169.283 116.273 169.299 115.881 169.701C115.485 170.101 115.504 170.732 115.922 171.109C116.103 171.274 119.926 174.683 123.637 174.683Z" fill="#251426"/>
<path d="M134.841 171.766C135.341 171.766 135.838 171.704 136.326 171.564C136.877 171.405 137.19 170.848 137.023 170.321C136.858 169.794 136.278 169.501 135.722 169.653C133.287 170.36 129.722 167.791 128.561 166.742C128.141 166.364 127.482 166.382 127.084 166.782C126.688 167.183 126.707 167.814 127.125 168.192C127.307 168.356 131.132 171.766 134.841 171.766Z" fill="#251426"/>
<path d="M126.291 159.107C126.791 159.107 127.288 159.045 127.776 158.905C128.327 158.746 128.64 158.19 128.473 157.663C128.307 157.136 127.733 156.838 127.172 156.995C124.731 157.698 121.172 155.132 120.011 154.083C119.591 153.704 118.93 153.723 118.534 154.124C118.138 154.524 118.157 155.155 118.575 155.533C118.759 155.698 122.583 159.107 126.291 159.107Z" fill="#251426"/>
<path d="M109.418 150.409C109.924 150.409 110.37 150.055 110.448 149.561C110.536 149.016 110.144 148.509 109.573 148.425C107.045 148.057 104.991 144.281 104.412 142.858C104.206 142.343 103.598 142.09 103.062 142.288C102.523 142.488 102.257 143.066 102.466 143.579C102.568 143.832 105.03 149.782 109.258 150.397C109.313 150.405 109.365 150.409 109.418 150.409Z" fill="#251426"/>
<path d="M117.764 164.171C117.958 164.171 118.154 164.16 118.35 164.138C118.921 164.071 119.328 163.574 119.259 163.027C119.189 162.48 118.657 162.092 118.096 162.156C115.616 162.459 112.517 159.341 111.561 158.117C111.216 157.677 110.56 157.585 110.101 157.916C109.639 158.245 109.544 158.87 109.889 159.311C110.051 159.519 113.738 164.171 117.764 164.171Z" fill="#251426"/>
<path d="M294.666 327.144C294.942 327.144 295.215 327.04 295.421 326.836C298.377 323.88 296.524 317.732 296.444 317.472C296.281 316.948 295.708 316.643 295.15 316.798C294.597 316.953 294.279 317.507 294.442 318.036C294.891 319.504 295.674 323.696 293.912 325.457C293.514 325.855 293.529 326.487 293.945 326.868C294.146 327.052 294.407 327.144 294.666 327.144Z" fill="#251426"/>
<path d="M286.867 335.364C287.142 335.364 287.415 335.261 287.621 335.057C290.578 332.101 288.725 325.953 288.644 325.693C288.482 325.169 287.906 324.864 287.35 325.019C286.797 325.174 286.48 325.728 286.642 326.257C287.091 327.725 287.874 331.917 286.113 333.678C285.715 334.076 285.729 334.708 286.145 335.089C286.347 335.273 286.607 335.364 286.867 335.364Z" fill="#251426"/>
<path d="M286.173 369.591C286.449 369.591 286.722 369.488 286.927 369.284C289.884 366.329 288.031 360.181 287.951 359.92C287.788 359.396 287.215 359.092 286.656 359.246C286.104 359.401 285.786 359.955 285.949 360.484C286.398 361.952 287.181 366.145 285.419 367.905C285.021 368.303 285.035 368.935 285.452 369.316C285.653 369.5 285.915 369.591 286.173 369.591Z" fill="#251426"/>
<path d="M299.896 377.13C300.172 377.13 300.444 377.026 300.65 376.822C303.607 373.866 301.754 367.718 301.674 367.458C301.511 366.934 300.934 366.63 300.379 366.784C299.827 366.939 299.509 367.493 299.672 368.022C300.121 369.49 300.904 373.682 299.142 375.443C298.744 375.841 298.758 376.473 299.175 376.854C299.376 377.038 299.637 377.13 299.896 377.13Z" fill="#251426"/>
<path d="M299.896 344.733C300.172 344.733 300.444 344.629 300.65 344.425C303.607 341.47 301.754 335.321 301.674 335.062C301.511 334.535 300.934 334.234 300.379 334.387C299.827 334.542 299.509 335.096 299.672 335.626C300.121 337.093 300.904 341.285 299.142 343.046C298.744 343.445 298.758 344.076 299.175 344.457C299.376 344.641 299.637 344.733 299.896 344.733Z" fill="#251426"/>
<path d="M288.363 349.905C288.638 349.905 288.911 349.801 289.117 349.597C292.074 346.642 290.221 340.493 290.141 340.234C289.978 339.709 289.4 339.406 288.846 339.559C288.293 339.714 287.976 340.268 288.139 340.798C288.587 342.265 289.371 346.457 287.609 348.218C287.211 348.617 287.225 349.248 287.641 349.629C287.844 349.813 288.104 349.905 288.363 349.905Z" fill="#251426"/>
<path d="M295.255 360.292C295.53 360.292 295.803 360.188 296.009 359.984C298.966 357.029 297.113 350.88 297.033 350.621C296.87 350.096 296.294 349.793 295.738 349.946C295.186 350.101 294.868 350.655 295.031 351.185C295.479 352.652 296.263 356.844 294.501 358.605C294.103 359.004 294.117 359.635 294.533 360.016C294.736 360.2 294.996 360.292 295.255 360.292Z" fill="#251426"/>
<path d="M278.93 322.345C279.206 322.345 279.478 322.241 279.684 322.037C282.641 319.081 280.788 312.933 280.708 312.673C280.545 312.149 279.969 311.844 279.413 311.999C278.861 312.154 278.543 312.708 278.706 313.238C279.154 314.705 279.938 318.897 278.176 320.658C277.778 321.057 277.792 321.688 278.208 322.069C278.411 322.253 278.671 322.345 278.93 322.345Z" fill="#251426"/>
<path d="M279.151 303.094C279.589 303.094 279.998 302.829 280.142 302.409C281.486 298.528 277.05 293.735 276.861 293.533C276.48 293.123 275.821 293.086 275.389 293.455C274.959 293.822 274.922 294.452 275.305 294.863C276.372 296.004 278.959 299.471 278.16 301.783C277.979 302.306 278.276 302.87 278.823 303.042C278.933 303.079 279.043 303.094 279.151 303.094Z" fill="#251426"/>
<path d="M293.008 301.933C293.447 301.933 293.855 301.668 293.999 301.248C295.343 297.367 290.908 292.574 290.719 292.372C290.338 291.961 289.681 291.924 289.246 292.294C288.816 292.661 288.779 293.291 289.163 293.702C290.229 294.843 292.817 298.31 292.018 300.622C291.836 301.145 292.134 301.709 292.68 301.881C292.79 301.918 292.9 301.933 293.008 301.933Z" fill="#251426"/>
<path d="M307.308 361.107C307.626 361.107 307.943 360.967 308.149 360.702C310.694 357.416 308.047 351.54 307.932 351.291C307.702 350.788 307.09 350.557 306.558 350.777C306.03 350.997 305.789 351.586 306.019 352.09C306.657 353.492 307.985 357.558 306.468 359.516C306.126 359.958 306.223 360.584 306.686 360.911C306.874 361.044 307.092 361.107 307.308 361.107Z" fill="#251426"/>
<path d="M287.974 316.82C288.308 316.82 288.638 316.665 288.841 316.377C291.225 312.984 288.3 307.23 288.174 306.986C287.918 306.493 287.293 306.291 286.777 306.533C286.259 306.775 286.047 307.374 286.302 307.867C287.008 309.24 288.527 313.244 287.107 315.266C286.785 315.722 286.914 316.342 287.392 316.649C287.57 316.766 287.772 316.82 287.974 316.82Z" fill="#251426"/>
<path d="M395.977 195.096C396.567 191.714 385.36 170.707 374.742 175.574C364.125 180.442 374.764 201.244 385.371 203.524C395.977 205.805 395.977 195.096 395.977 195.096Z" fill="#FFE9CB"/>
<path d="M41.7368 177.436C38.2186 178.108 21.6402 195.575 30.171 203.333C38.7017 211.09 55.2809 194.204 53.7479 183.92C52.215 173.636 41.7368 177.436 41.7368 177.436Z" fill="#FFE9CB"/>
<path d="M137.157 294.733C137.157 294.733 20.6491 273.171 61.4468 409.939C61.4468 409.939 194.229 422.191 206.314 418.201C218.399 414.211 233.206 391.6 231.814 387.61C230.422 383.62 195.622 405.993 195.622 405.993C223.347 311.686 137.157 294.733 137.157 294.733Z" fill="#DA9395"/>
<path d="M189.719 330.993C189.924 330.993 190.13 330.937 190.311 330.817C190.786 330.505 190.907 329.885 190.58 329.431C172.616 304.415 152.657 290.318 131.262 287.528C105.566 284.173 86.8976 298.865 86.7101 299.015C86.2675 299.369 86.2103 299.997 86.5816 300.42C86.9504 300.842 87.6095 300.895 88.0521 300.544C88.2316 300.402 106.214 286.265 131.014 289.51C151.788 292.231 171.251 306.042 188.861 330.56C189.06 330.842 189.387 330.993 189.719 330.993Z" fill="#251426"/>
<path d="M211.972 407.374C212.328 407.374 212.677 407.199 212.871 406.883C216.986 400.211 232.309 388.508 232.464 388.39C232.915 388.047 232.99 387.419 232.63 386.988C232.267 386.558 231.61 386.488 231.164 386.829C230.521 387.319 215.381 398.884 211.072 405.87C210.778 406.344 210.944 406.956 211.441 407.236C211.608 407.33 211.789 407.374 211.972 407.374Z" fill="#251426"/>
<path d="M172.611 331.142C172.978 331.142 173.337 330.955 173.526 330.625C175.586 327.042 172.138 321.558 171.989 321.326C171.689 320.857 171.043 320.707 170.555 320.994C170.064 321.279 169.907 321.892 170.207 322.363C171.037 323.671 172.923 327.529 171.695 329.664C171.418 330.147 171.604 330.752 172.109 331.019C172.269 331.101 172.44 331.142 172.611 331.142Z" fill="#251426"/>
<path d="M167.295 341.006C167.662 341.006 168.021 340.82 168.21 340.489C170.27 336.904 166.82 331.422 166.671 331.191C166.371 330.72 165.729 330.572 165.238 330.859C164.744 331.146 164.589 331.76 164.889 332.23C165.719 333.536 167.608 337.394 166.38 339.529C166.103 340.013 166.288 340.618 166.794 340.885C166.953 340.967 167.124 341.006 167.295 341.006Z" fill="#251426"/>
<path d="M182.413 346.847C182.78 346.847 183.139 346.66 183.329 346.33C185.388 342.745 181.94 337.262 181.791 337.03C181.491 336.559 180.847 336.411 180.358 336.698C179.867 336.983 179.709 337.597 180.009 338.068C180.839 339.375 182.725 343.234 181.498 345.369C181.221 345.852 181.407 346.458 181.912 346.724C182.07 346.807 182.242 346.847 182.413 346.847Z" fill="#251426"/>
<path d="M172.667 354.686C173.034 354.686 173.393 354.499 173.582 354.169C175.641 350.585 172.191 345.102 172.043 344.871C171.743 344.4 171.097 344.25 170.609 344.539C170.118 344.825 169.961 345.438 170.261 345.908C171.091 347.216 172.979 351.075 171.751 353.209C171.474 353.692 171.66 354.297 172.165 354.564C172.324 354.646 172.495 354.686 172.667 354.686Z" fill="#251426"/>
<path d="M182.13 363.023C182.497 363.023 182.856 362.836 183.045 362.506C185.104 358.922 181.655 353.439 181.506 353.208C181.206 352.736 180.562 352.587 180.073 352.876C179.581 353.163 179.424 353.775 179.724 354.246C180.554 355.553 182.442 359.412 181.215 361.546C180.938 362.029 181.123 362.635 181.628 362.901C181.787 362.983 181.958 363.023 182.13 363.023Z" fill="#251426"/>
<path d="M156.113 330.383C156.48 330.383 156.839 330.196 157.028 329.865C159.087 326.283 155.639 320.799 155.491 320.567C155.193 320.097 154.546 319.948 154.057 320.235C153.566 320.52 153.409 321.134 153.709 321.605C154.539 322.913 156.424 326.771 155.197 328.905C154.92 329.389 155.105 329.994 155.61 330.261C155.771 330.342 155.942 330.383 156.113 330.383Z" fill="#251426"/>
<path d="M144.53 326.197C145.066 326.197 145.521 325.805 145.567 325.284C145.93 321.21 140.453 317.532 140.22 317.378C139.745 317.063 139.095 317.179 138.768 317.628C138.438 318.081 138.556 318.702 139.03 319.017C140.343 319.89 143.703 322.689 143.487 325.115C143.438 325.664 143.864 326.147 144.439 326.194C144.468 326.197 144.499 326.197 144.53 326.197Z" fill="#251426"/>
<path d="M151.129 311.73C151.68 311.73 152.139 311.321 152.171 310.791C152.422 306.709 146.843 303.172 146.604 303.023C146.123 302.722 145.475 302.851 145.16 303.312C144.844 303.772 144.979 304.39 145.46 304.692C146.798 305.532 150.236 308.243 150.088 310.675C150.053 311.226 150.493 311.696 151.069 311.729C151.089 311.729 151.109 311.73 151.129 311.73Z" fill="#251426"/>
<path d="M163.36 322.817C163.794 322.817 164.2 322.558 164.346 322.143C165.735 318.276 161.355 313.438 161.167 313.233C160.786 312.818 160.127 312.779 159.695 313.141C159.26 313.503 159.218 314.132 159.598 314.548C160.65 315.699 163.198 319.192 162.373 321.496C162.186 322.018 162.477 322.584 163.022 322.764C163.133 322.8 163.248 322.817 163.36 322.817Z" fill="#251426"/>
<path d="M93.0795 281.42C93.1103 281.42 93.1428 281.419 93.1736 281.415C93.7465 281.367 94.1724 280.883 94.1214 280.334C93.7668 276.468 98.0506 271.749 98.0937 271.701C98.473 271.287 98.4299 270.658 97.9978 270.294C97.5613 269.93 96.9092 269.972 96.5238 270.385C96.324 270.604 91.6072 275.79 92.042 280.51C92.0886 281.029 92.5453 281.42 93.0795 281.42Z" fill="#251426"/>
<path d="M104.766 278.776C104.797 278.776 104.829 278.775 104.86 278.772C105.433 278.724 105.859 278.24 105.808 277.691C105.453 273.824 109.737 269.106 109.78 269.058C110.159 268.644 110.116 268.014 109.684 267.651C109.248 267.287 108.596 267.329 108.21 267.742C108.01 267.96 103.294 273.147 103.728 277.866C103.774 278.384 104.231 278.776 104.766 278.776Z" fill="#251426"/>
<path d="M103.238 264.428C103.269 264.428 103.302 264.427 103.332 264.424C103.905 264.376 104.331 263.892 104.28 263.343C103.925 259.477 108.209 254.758 108.252 254.71C108.632 254.297 108.589 253.667 108.156 253.304C107.72 252.941 107.068 252.979 106.682 253.395C106.483 253.613 101.766 258.799 102.201 263.518C102.247 264.036 102.704 264.428 103.238 264.428Z" fill="#251426"/>
<path d="M118.625 252.369C118.656 252.369 118.688 252.368 118.719 252.364C119.292 252.317 119.718 251.832 119.667 251.283C119.312 247.417 123.596 242.699 123.639 242.652C124.018 242.238 123.975 241.608 123.543 241.244C123.107 240.881 122.455 240.923 122.069 241.335C121.869 241.554 117.153 246.739 117.587 251.459C117.634 251.977 118.091 252.369 118.625 252.369Z" fill="#251426"/>
</svg>
