<svg width="512" height="512" viewBox="0 0 512 512" fill="none" xmlns="http://www.w3.org/2000/svg">
<g clip-path="url(#clip0_626_1079)">
<path d="M110.026 249.41C110.026 249.41 37.7794 254.843 24.9507 246.332C12.1221 237.822 15.9498 292.239 91.6807 300.435C91.6807 300.435 117.921 264.779 110.026 249.41Z" fill="#D47980"/>
<path d="M106.546 313.751C106.546 313.751 75.0705 281.468 33.4909 319.269C-8.08858 357.07 12.7242 436.218 37.1661 448.031C37.1661 448.031 -16.7547 455.79 5.29819 461.951C27.3511 468.112 85.8993 457.028 99.3126 454.293C112.726 451.558 158.572 342.489 106.546 313.751Z" fill="#D47980"/>
<path d="M261.831 408.104C261.831 408.104 377.482 371.335 326.269 286.676C271.986 196.942 267.08 66.4002 382.725 58.0126C498.371 49.625 541.137 129.073 491.782 188.077C491.782 188.077 481.563 133.995 428.246 142.434C374.929 150.873 561.874 303.828 427.817 425.336C334.617 509.813 261.831 408.104 261.831 408.104Z" fill="#D47980"/>
<path d="M260.017 451.583C260.017 451.583 349.67 383.318 221.084 290.385C153.513 241.549 288.8 149.129 166.871 94.1311C55.8797 44.0668 199.82 240.405 72.0098 434.424C50.2887 467.395 247.123 485.902 260.017 451.583Z" fill="#D47980"/>
<path d="M232.896 329.45C232.896 329.45 196.667 294.535 157.983 328.076C119.298 361.618 158.585 440.433 149.079 461.951C149.079 461.951 86.0866 473.797 113.421 479.224C140.755 484.651 156.075 478.886 198.249 468.508L232.896 329.45Z" fill="#D47980"/>
<path d="M128.237 89.816C128.237 89.816 60.4273 96.9124 54.5209 131.796C48.6144 166.68 57.8345 199.095 128.237 202.48C198.639 205.864 172.42 100.168 128.237 89.816Z" fill="#D47980"/>
<path d="M171.755 106.343C171.755 106.343 208.089 50.7996 235.259 65.1325C262.429 79.4654 254.343 150.884 182.192 112.221L171.755 106.343Z" fill="#D47980"/>
<path d="M128.237 89.816C128.237 89.816 165.746 20.6202 182.192 31.7327C198.639 42.8451 176.29 101.772 143.56 97.5759L128.237 89.816Z" fill="#D47980"/>
<path d="M143.464 258.675C186.711 150.05 77.2496 104.98 54.5209 131.796C31.7921 158.611 45.3161 209.556 120.673 202.48C120.673 202.48 -48.0317 453.791 114.339 461.085C114.339 461.085 106.268 362.976 128.237 305.093C150.205 247.21 143.464 258.675 143.464 258.675Z" fill="#F4EAD5"/>
<path d="M152.903 459.259C153.124 459.259 153.348 459.195 153.547 459.063C154.08 458.708 154.226 457.986 153.869 457.451C127.895 418.451 120.074 384.546 130.628 356.674C146.06 315.916 196.295 302.165 196.8 302.031C197.42 301.866 197.791 301.229 197.626 300.609C197.46 299.989 196.823 299.625 196.205 299.783C195.687 299.92 144.325 313.958 128.458 355.837C117.616 384.452 125.514 419.074 151.934 458.741C152.158 459.078 152.527 459.259 152.903 459.259Z" fill="#241726"/>
<path d="M163.606 260.488C163.606 260.488 91.6757 244.066 80.3133 233.678C68.951 223.289 64.3369 277.646 137.896 297.43C137.896 297.43 169.035 276.891 163.606 260.488Z" fill="#D47980"/>
<path d="M116.638 138.9C116.638 138.9 90.4735 164.508 87.5182 151.626C84.563 138.744 85.8051 125.351 85.8051 125.351C85.8051 125.351 109.822 115.632 116.638 138.9Z" fill="#241726"/>
<path d="M79.3067 185.857C79.3354 185.857 79.3631 185.856 79.3917 185.856C84.5066 185.698 93.5936 170.069 95.3621 166.939C95.6785 166.378 95.4808 165.671 94.9227 165.356C94.3667 165.039 93.655 165.235 93.3396 165.795C89.2058 173.108 82.1227 183.445 79.32 183.532C79.2678 183.544 79.2146 183.535 79.1173 183.418C77.5065 181.466 78.9504 170.927 80.4905 164.066C80.6308 163.44 80.2376 162.819 79.6109 162.678C78.9811 162.537 78.3626 162.932 78.2223 163.557C77.5619 166.502 74.412 181.369 77.3243 184.898C77.8434 185.526 78.5275 185.857 79.3067 185.857Z" fill="#241726"/>
<path d="M135.98 138.739C140.271 138.739 149.828 130.783 153.988 127.133C154.47 126.708 154.519 125.973 154.095 125.491C153.67 125.009 152.936 124.962 152.453 125.385C145.162 131.785 137.489 136.898 135.978 136.444C135.986 136.419 135.968 136.329 135.968 136.171C135.968 131.397 142.413 122.786 144.897 119.87C145.314 119.382 145.255 118.648 144.766 118.232C144.278 117.815 143.545 117.874 143.128 118.362C142.741 118.816 133.642 129.565 133.642 136.17C133.642 137.712 134.48 138.321 134.98 138.547C135.268 138.677 135.604 138.739 135.98 138.739Z" fill="#241726"/>
<path d="M110.722 118.154C114.296 118.154 121.913 110.522 126.33 105.746C126.766 105.275 126.736 104.54 126.265 104.104C125.796 103.669 125.062 103.696 124.623 104.168C118.798 110.465 112.715 115.667 110.997 115.855C110.99 115.799 110.985 115.726 110.985 115.632C110.985 109.816 116.456 102.007 116.513 101.928C116.883 101.404 116.759 100.678 116.234 100.308C115.712 99.9373 114.984 100.063 114.614 100.586C114.372 100.931 108.661 109.085 108.661 115.632C108.661 117.257 109.51 117.834 110.016 118.031C110.227 118.114 110.465 118.154 110.722 118.154Z" fill="#241726"/>
<path d="M94.3883 246.669C94.6473 246.669 94.8696 246.533 95.1317 246.256C95.5433 245.822 95.5454 245.124 95.1542 244.672C95.0426 244.543 94.9095 244.444 94.7641 244.378C94.5511 244.22 94.1445 243.902 93.5936 243.474C82.0818 234.525 78.5982 233.037 76.9178 233.55C76.3044 233.737 75.9583 234.387 76.1467 235.002C76.3341 235.615 76.9813 235.965 77.5988 235.773C78.2818 235.722 81.235 236.808 92.1662 245.309C93.3284 246.211 93.9162 246.669 94.3883 246.669Z" fill="#241726"/>
<path d="M88.9816 253.076C89.2714 253.076 89.5612 252.969 89.7875 252.752C90.2493 252.306 90.2646 251.571 89.8192 251.108C89.426 250.701 80.1496 241.082 75.5488 238.979C74.9641 238.711 74.2749 238.969 74.0086 239.553C73.7414 240.136 73.9984 240.826 74.5821 241.093C78.7836 243.015 88.0508 252.623 88.144 252.72C88.3723 252.958 88.6764 253.076 88.9816 253.076Z" fill="#241726"/>
<path d="M85.7744 259.757C85.9699 259.757 86.1676 259.708 86.3488 259.604C86.9059 259.287 87.1015 258.577 86.784 258.019C86.5761 257.654 81.6251 249.054 75.4166 247.09C74.8022 246.896 74.1509 247.237 73.9584 247.847C73.7639 248.459 74.1038 249.113 74.7151 249.306C80.0522 250.996 84.7176 259.087 84.7637 259.169C84.9777 259.546 85.3709 259.757 85.7744 259.757Z" fill="#241726"/>
<path d="M33.0394 256.974C33.4009 256.974 33.7572 256.806 33.9835 256.491C34.3593 255.969 34.2405 255.243 33.7193 254.868C33.6466 254.816 26.4243 249.622 22.8311 247.231C22.2996 246.874 21.5777 247.02 21.2193 247.556C20.864 248.091 21.0094 248.812 21.5439 249.168C25.1023 251.534 32.2898 256.704 32.3625 256.756C32.5673 256.902 32.8039 256.974 33.0394 256.974Z" fill="#241726"/>
<path d="M29.9786 259.757C30.3974 259.757 30.8019 259.53 31.0098 259.133C31.3067 258.565 31.0876 257.862 30.5193 257.565C26.2185 255.313 21.2327 252.416 20.4247 251.527C20.265 251.075 19.8328 250.752 19.328 250.752C19.3239 250.752 19.3178 250.752 19.3116 250.752C18.6706 250.761 18.1576 251.288 18.1647 251.931C18.174 252.604 18.1883 253.736 29.44 259.625C29.6131 259.715 29.7974 259.757 29.9786 259.757Z" fill="#241726"/>
<path d="M27.1228 263.111C27.4453 263.111 27.6522 263.097 27.6962 263.093C28.3352 263.049 28.8165 262.494 28.7735 261.855C28.7284 261.216 28.1611 260.747 27.5355 260.775C27.4924 260.779 22.737 261.064 21.9413 258.276C21.7642 257.658 21.1139 257.309 20.5046 257.478C19.8872 257.655 19.5298 258.297 19.7059 258.914C20.8047 262.762 25.47 263.111 27.1228 263.111Z" fill="#241726"/>
<path d="M200.659 113.421C208.077 113.421 215.133 110.272 220.295 104.472C224.684 99.5379 226.599 93.7441 225.172 89.7095C224.547 87.9431 222.999 85.7046 219.167 85.0698C204.452 82.6408 192.178 102.63 191.663 103.483C191.331 104.033 191.509 104.747 192.057 105.079C192.611 105.411 193.324 105.233 193.654 104.686C193.772 104.49 205.58 85.2019 218.789 87.3625C220.966 87.724 222.377 88.7736 222.982 90.4847C224.113 93.6826 222.335 98.6818 218.56 102.926C212.604 109.62 203.886 112.444 195.234 110.48C194.598 110.34 193.984 110.731 193.842 111.357C193.7 111.984 194.093 112.605 194.719 112.748C196.704 113.2 198.696 113.42 200.659 113.421Z" fill="#241726"/>
<path d="M152.079 87.3799C152.154 87.3799 152.232 87.3727 152.309 87.3574C158.793 86.062 165.361 77.0866 167.966 69.1558C169.706 63.8545 169.517 59.6766 167.434 57.391C165.817 55.6195 163.28 55.1126 159.89 55.8888C142.699 59.8179 142.836 84.9766 142.849 86.0456C142.858 86.6856 143.421 87.1792 144.027 87.1925C144.669 87.1833 145.183 86.6569 145.175 86.0149C145.172 85.7722 145.049 61.6652 160.408 58.1549C162.924 57.5815 164.707 57.8508 165.716 58.9577C167.167 60.549 167.181 64.09 165.757 68.4308C163.413 75.5701 157.43 83.9648 151.852 85.0779C151.223 85.2039 150.815 85.8162 150.941 86.446C151.051 86.9969 151.538 87.3799 152.079 87.3799Z" fill="#241726"/>
<path d="M322.812 409.152C327.242 409.152 331.786 408.394 335.957 406.328C343.708 402.49 348.706 394.82 350.813 383.531C351.48 379.956 351.756 376.927 351.743 374.364C360.401 370.565 367.449 361.148 371.188 351.624C376.026 339.299 376.584 324.222 368.399 315.036C371.263 310.581 372.704 304.964 372.839 299.49C373.15 286.918 366.672 272.412 351.718 270.276C350.958 270.168 350.215 270.078 349.491 270.008C352.266 262.416 353.793 253.059 353.216 244.122C352.234 228.94 345.477 218.855 334.458 215.768C337.496 208.982 339.125 201.227 338.976 194.193C338.806 186.142 336.506 179.747 332.439 175.565C336.107 167.177 338.203 156.543 337.981 147.236C337.893 143.536 337.455 140.15 336.688 137.119C345.795 131.047 355.17 119.695 359.649 108.577C363.658 109.542 368.31 109.946 373.653 109.58C388.263 108.564 401.194 101.689 409.971 93.3345C415.179 97.1212 422.154 100.397 430.629 102.387C437.597 104.02 444.017 103.924 449.546 102.715C451.562 108.75 456.88 115.364 467.34 120.201C471.652 122.196 475.626 123.167 479.171 123.405C477.744 136.203 481.197 153.616 488.101 158.008C489.994 159.212 493.025 160.008 496.731 156.975C497.229 156.569 497.303 155.835 496.896 155.34C496.488 154.841 495.756 154.768 495.261 155.175C493.116 156.93 491.183 157.211 489.35 156.046C483.718 152.464 480.032 135.951 481.498 123.457C487.354 123.325 491.843 121.158 494.497 118.523C496.863 116.172 497.735 113.388 496.766 111.258C496.167 109.941 494.342 107.778 488.895 108.173C485.987 108.379 482.095 110.309 480.063 118.34C479.843 119.203 479.656 120.109 479.497 121.049C476.106 120.851 472.326 119.944 468.316 118.09C458.607 113.597 453.668 107.583 451.797 102.147C458.66 100.193 463.945 96.5119 466.907 92.4784C469.037 89.5805 469.603 86.8106 468.463 84.8793C467.697 83.586 465.879 82.1647 461.528 82.7361C454.617 83.6443 449.714 88.2022 448.733 94.6319C448.468 96.3788 448.505 98.3408 448.929 100.414C443.85 101.534 437.852 101.691 431.16 100.119C423.122 98.2343 416.513 95.1971 411.593 91.7237C415.23 87.9605 418.027 83.9638 419.77 80.1095C421.977 75.2342 422.137 71.1659 420.222 68.654C419.085 67.161 416.667 65.5492 411.612 66.3531C403.931 67.5696 399.412 71.4147 399.211 76.9023C399.042 81.5308 402.167 87.0143 408.074 91.864C400.208 99.3269 388.364 106.223 373.493 107.256C368.523 107.603 364.196 107.241 360.472 106.378C360.878 105.196 361.225 104.023 361.507 102.862C363.731 93.6847 361.465 86.8658 354.954 83.1446C347.915 79.1213 344.105 80.9604 342.459 82.4145C339.67 84.8813 339.173 89.5907 341.193 94.4117C343.453 99.8061 348.711 105.242 357.388 107.949C353.147 118.259 344.415 128.947 336.015 134.79C333.582 127.409 328.99 122.508 322.673 120.84C313.446 118.4 309.437 120.44 307.701 122.58C305.891 124.811 305.84 128.186 307.564 131.607C310.118 136.676 316.752 141.941 325.251 141.589C328.119 141.463 331.328 140.311 334.624 138.402C335.342 141.596 335.598 144.747 335.659 147.286C335.879 156.572 333.857 166.304 330.625 173.932C328.605 172.358 326.246 171.234 323.582 170.609C315.592 168.737 309.359 170.214 306.473 174.666C304.206 178.16 304.488 183.051 307.16 186.56C310.014 190.311 314.776 191.583 319.903 189.966C324.385 188.551 328.319 183.974 331.364 177.865C334.65 181.648 336.506 187.251 336.654 194.238C336.8 201.11 335.191 208.697 332.204 215.241C331.494 215.109 330.769 215.004 330.028 214.927C313.546 213.199 304.678 218.079 301.856 223.219C300.357 225.949 300.498 228.885 302.236 231.076C304.87 234.399 310.404 235.273 317.042 233.417C323.951 231.483 329.607 225.447 333.447 217.886C347.273 221.413 350.34 235.65 350.897 244.267C351.465 253.054 349.892 262.438 347.127 269.838C336.262 269.367 329.753 273.327 327.404 277.245C326.011 279.568 325.955 282.016 327.257 283.793C328.941 286.089 332.474 286.793 336.949 285.729C341.426 284.664 345.596 279.451 348.609 272.261C349.509 272.333 350.437 272.436 351.391 272.572C364.939 274.507 370.802 287.849 370.517 299.428C370.396 304.313 369.159 309.324 366.711 313.331C365.729 312.448 364.647 311.636 363.46 310.905C350.453 302.902 343.615 307.293 341.829 308.828C339.132 311.147 338.238 314.643 339.551 317.737C341.433 322.169 347.009 324.4 354.485 323.708C359.884 323.206 364.028 320.641 367.001 316.97C374.174 325.47 373.507 339.348 369.025 350.769C365.602 359.491 359.302 368.133 351.63 371.868C350.832 362.927 346.02 360.826 343.496 360.344C338.19 359.32 331.876 362.982 330.98 367.577C330.622 369.421 330.784 373.91 340.032 375.75C343.28 376.398 346.426 376.154 349.41 375.23C349.36 377.572 349.068 380.204 348.529 383.098C346.564 393.63 341.987 400.743 334.928 404.239C320.592 411.336 300.51 401.387 300.309 401.288C299.735 400.996 299.036 401.23 298.748 401.802C298.458 402.376 298.689 403.075 299.262 403.363C299.891 403.686 310.925 409.152 322.812 409.152ZM349.368 372.814C346.539 373.795 343.557 374.088 340.483 373.475C335.414 372.466 332.783 370.481 333.261 368.028C333.843 365.036 338.786 361.826 343.057 362.633C346.875 363.361 349.029 366.945 349.368 372.814ZM365.37 315.267C362.737 318.615 359.063 320.954 354.268 321.398C347.865 321.995 343.155 320.288 341.689 316.835C340.78 314.692 341.428 312.243 343.342 310.597C346.404 307.965 352.972 307.187 362.238 312.889C363.39 313.599 364.432 314.396 365.37 315.267ZM346.197 272.147C343.558 278.243 340.08 282.599 336.409 283.473C332.934 284.298 330.215 283.909 329.13 282.425C328.389 281.413 328.485 279.964 329.395 278.447C331.487 274.958 337.327 271.985 346.197 272.147ZM331.138 217.421C327.608 224.157 322.546 229.467 316.413 231.183C309.701 233.061 305.625 231.615 304.054 229.636C302.901 228.182 302.842 226.253 303.89 224.343C306.243 220.064 314.433 215.631 329.782 217.244C330.244 217.293 330.697 217.352 331.138 217.421ZM329.624 176.151C326.723 182.175 323.044 186.542 319.2 187.756C314.987 189.086 311.276 188.14 309.007 185.16C306.919 182.417 306.678 178.625 308.421 175.938C310.741 172.36 316.073 171.242 323.048 172.881C325.558 173.469 327.762 174.577 329.624 176.151ZM334.017 136.097C330.871 138.003 327.827 139.156 325.147 139.274C317.628 139.628 311.866 134.991 309.638 130.568C308.339 127.988 308.289 125.552 309.505 124.051C311.319 121.813 315.9 121.461 322.076 123.094C328.83 124.879 332.286 130.336 334.017 136.097ZM490.136 110.458C492.51 110.458 494.131 111.082 494.65 112.224C495.196 113.428 494.494 115.255 492.859 116.878C490.503 119.218 486.657 120.885 481.851 121.078C481.986 120.336 482.141 119.613 482.317 118.915C483.251 115.227 485.179 110.772 489.059 110.497C489.433 110.47 489.792 110.458 490.136 110.458ZM347.269 83.0535C349.106 83.0535 351.343 83.7652 353.8 85.1691C360.772 89.1535 360.609 96.6952 359.247 102.32C358.971 103.458 358.625 104.613 358.218 105.779C350.202 103.321 345.384 98.4043 343.337 93.5208C341.733 89.6921 342 85.9309 344 84.1625C344.837 83.4211 345.949 83.0535 347.269 83.0535ZM463.366 84.9387C464.928 84.9387 466.024 85.3298 466.462 86.0682C467.087 87.127 466.54 89.0582 465.035 91.1073C462.693 94.295 457.868 97.8974 451.176 99.8461C450.835 98.1032 450.81 96.4577 451.033 94.9872C451.863 89.5426 455.901 85.8265 461.832 85.0462C462.382 84.9755 462.895 84.9387 463.366 84.9387ZM414.15 68.4707C415.79 68.4707 417.435 68.8404 418.374 70.0702C419.725 71.8438 419.462 75.1544 417.652 79.1562C416.174 82.4227 413.471 86.3805 409.676 90.286C404.253 85.9299 401.383 81.0721 401.533 76.9935C401.692 72.6578 405.401 69.6964 411.975 68.654C412.654 68.5485 413.401 68.4707 414.15 68.4707Z" fill="#241726"/>
<path d="M152.019 158.209C147.218 158.209 143.326 154.317 143.326 149.516C143.326 144.715 147.218 140.823 152.019 140.823C156.82 140.823 160.712 144.715 160.712 149.516C160.712 154.317 156.82 158.209 152.019 158.209Z" fill="#D16175"/>
<path d="M88.9816 120.961C84.1807 120.961 80.2888 117.069 80.2888 112.268C80.2888 107.467 84.1807 103.575 88.9816 103.575C93.7824 103.575 97.6743 107.467 97.6743 112.268C97.6743 117.069 93.7824 120.961 88.9816 120.961Z" fill="#D16175"/>
<path d="M206.518 151.888C206.977 151.888 207.411 151.614 207.596 151.163C209.494 146.487 207.703 140.716 207.626 140.473C207.434 139.861 206.782 139.528 206.169 139.717C205.557 139.909 205.218 140.562 205.409 141.174C205.427 141.226 207.02 146.399 205.441 150.289C205.199 150.884 205.486 151.562 206.081 151.804C206.224 151.861 206.372 151.888 206.518 151.888Z" fill="#241726"/>
<path d="M196.112 159.573C196.571 159.573 197.005 159.3 197.19 158.848C199.088 154.172 197.297 148.401 197.22 148.158C197.026 147.546 196.381 147.21 195.763 147.402C195.151 147.594 194.812 148.247 195.003 148.859C195.021 148.911 196.614 154.084 195.035 157.974C194.793 158.569 195.08 159.247 195.675 159.489C195.817 159.546 195.966 159.573 196.112 159.573Z" fill="#241726"/>
<path d="M199.232 143.196C199.69 143.196 200.124 142.923 200.309 142.471C202.207 137.796 200.416 132.024 200.34 131.782C200.145 131.169 199.494 130.83 198.882 131.025C198.27 131.217 197.931 131.871 198.123 132.482C198.14 132.534 199.733 137.708 198.154 141.598C197.913 142.193 198.199 142.871 198.794 143.112C198.938 143.168 199.085 143.196 199.232 143.196Z" fill="#241726"/>
<path d="M206.518 175.02C206.977 175.02 207.411 174.747 207.596 174.295C209.494 169.619 207.703 163.849 207.626 163.606C207.434 162.996 206.782 162.659 206.169 162.85C205.557 163.042 205.218 163.696 205.409 164.307C205.427 164.359 207.02 169.531 205.441 173.421C205.199 174.016 205.486 174.694 206.081 174.936C206.224 174.993 206.372 175.02 206.518 175.02Z" fill="#241726"/>
<path d="M192.267 178.882C192.726 178.882 193.16 178.609 193.345 178.157C195.243 173.482 193.452 167.711 193.375 167.468C193.183 166.856 192.532 166.52 191.918 166.711C191.306 166.904 190.967 167.557 191.158 168.168C191.176 168.221 192.769 173.394 191.19 177.284C190.948 177.879 191.235 178.557 191.83 178.799C191.973 178.855 192.121 178.882 192.267 178.882Z" fill="#241726"/>
<path d="M54.0037 410.28C54.1123 410.28 54.2229 410.264 54.3334 410.232C54.9489 410.051 55.3001 409.405 55.1199 408.789C55.1055 408.737 53.6136 403.533 55.2684 399.675C55.5213 399.086 55.2479 398.402 54.6591 398.149C54.0723 397.892 53.3852 398.167 53.1323 398.758C51.1427 403.395 52.8179 409.201 52.8906 409.445C53.0391 409.951 53.502 410.28 54.0037 410.28Z" fill="#241726"/>
<path d="M70.996 423.906C71.1045 423.906 71.2151 423.89 71.3257 423.858C71.9411 423.677 72.2923 423.032 72.1121 422.415C72.0978 422.363 70.6058 417.159 72.2616 413.301C72.5145 412.711 72.2422 412.027 71.6523 411.774C71.0625 411.517 70.3795 411.793 70.1256 412.383C68.1349 417.022 69.8102 422.827 69.8829 423.072C70.0313 423.579 70.4942 423.906 70.996 423.906Z" fill="#241726"/>
<path d="M72.3159 440.555C72.5524 440.555 72.789 440.483 72.9948 440.334C73.516 439.96 73.6337 439.234 73.259 438.712C73.2272 438.669 70.0928 434.256 70.3744 430.066C70.4174 429.426 69.933 428.872 69.291 428.829C68.6469 428.805 68.097 429.271 68.054 429.912C67.7171 434.946 71.2233 439.866 71.3728 440.073C71.6011 440.388 71.9564 440.555 72.3159 440.555Z" fill="#241726"/>
<path d="M65.4408 393.574C65.5494 393.574 65.66 393.558 65.7695 393.526C66.3849 393.345 66.7362 392.7 66.556 392.083C66.5416 392.031 65.0497 386.827 66.7055 382.97C66.9584 382.38 66.686 381.696 66.0962 381.443C65.5094 381.192 64.8234 381.461 64.5694 382.052C62.5787 386.69 64.254 392.495 64.3267 392.74C64.4752 393.247 64.9391 393.574 65.4408 393.574Z" fill="#241726"/>
<path d="M52.4533 388.624C52.5619 388.624 52.6725 388.608 52.7821 388.576C53.3975 388.395 53.7487 387.749 53.5685 387.133C53.5541 387.081 52.0622 381.878 53.717 378.02C53.9699 377.43 53.6965 376.746 53.1077 376.493C52.5189 376.236 51.8328 376.512 51.5809 377.102C49.5913 381.741 51.2665 387.545 51.3392 387.79C51.4877 388.296 51.9516 388.624 52.4533 388.624Z" fill="#241726"/>
<path d="M59.5078 376.627C59.6163 376.627 59.7269 376.611 59.8375 376.579C60.4529 376.398 60.8042 375.753 60.624 375.136C60.6096 375.084 59.1176 369.88 60.7735 366.022C61.0264 365.432 60.754 364.748 60.1642 364.495C59.5743 364.238 58.8913 364.514 58.6374 365.104C56.6467 369.743 58.322 375.548 58.3947 375.793C58.5432 376.3 59.006 376.627 59.5078 376.627Z" fill="#241726"/>
<path d="M59.0695 357.662C59.178 357.662 59.2886 357.645 59.3972 357.614C60.0136 357.433 60.3659 356.787 60.1846 356.171C60.1703 356.119 58.6794 350.915 60.3341 347.057C60.5871 346.467 60.3137 345.783 59.7249 345.53C59.135 345.271 58.452 345.55 58.1981 346.14C56.2095 350.776 57.8827 356.582 57.9554 356.827C58.1049 357.333 58.5677 357.662 59.0695 357.662Z" fill="#241726"/>
<path d="M65.0025 411.02C65.1111 411.02 65.2216 411.004 65.3312 410.972C65.9466 410.792 66.2989 410.146 66.1176 409.529C66.1033 409.477 64.6123 404.274 66.2671 400.416C66.5201 399.826 66.2467 399.142 65.6579 398.889C65.065 398.634 64.383 398.909 64.1311 399.498C62.1425 404.137 63.8157 409.941 63.8884 410.186C64.0369 410.691 64.5007 411.02 65.0025 411.02Z" fill="#241726"/>
<path d="M59.2753 431.033C59.432 431.033 59.5917 431.002 59.7453 430.933C60.3321 430.674 60.5963 429.988 60.3392 429.4C60.3167 429.35 58.1622 424.385 59.3029 420.345C59.477 419.727 59.1166 419.085 58.4991 418.911C57.8857 418.732 57.2406 419.096 57.0645 419.714C55.6944 424.57 58.11 430.109 58.2134 430.341C58.4049 430.775 58.8299 431.033 59.2753 431.033Z" fill="#241726"/>
<path d="M203.116 193.085C203.574 193.085 204.009 192.812 204.193 192.36C206.091 187.685 204.3 181.915 204.224 181.672C204.031 181.062 203.383 180.723 202.766 180.915C202.154 181.108 201.815 181.761 202.007 182.372C202.024 182.425 203.617 187.597 202.038 191.487C201.797 192.082 202.083 192.76 202.678 193.001C202.822 193.059 202.969 193.085 203.116 193.085Z" fill="#241726"/>
<path d="M195.72 200.57C196.179 200.57 196.613 200.296 196.797 199.845C198.696 195.169 196.905 189.398 196.828 189.155C196.636 188.543 195.985 188.21 195.371 188.399C194.759 188.591 194.42 189.244 194.611 189.856C194.629 189.908 196.222 195.081 194.643 198.971C194.401 199.566 194.688 200.244 195.283 200.486C195.426 200.542 195.574 200.57 195.72 200.57Z" fill="#241726"/>
<path d="M251.803 322.686C251.875 322.686 251.948 322.679 252.022 322.665C252.653 322.546 253.066 321.935 252.945 321.306C251.998 316.349 247.362 312.475 247.165 312.313C246.666 311.906 245.938 311.976 245.53 312.47C245.121 312.963 245.191 313.695 245.684 314.105C245.726 314.14 249.876 317.618 250.662 321.741C250.768 322.299 251.255 322.686 251.803 322.686Z" fill="#241726"/>
<path d="M247.239 334.791C247.311 334.791 247.384 334.783 247.458 334.77C248.089 334.65 248.502 334.04 248.381 333.41C247.434 328.453 242.798 324.579 242.601 324.417C242.105 324.01 241.374 324.082 240.966 324.574C240.557 325.068 240.627 325.801 241.121 326.209C241.162 326.244 245.312 329.722 246.098 333.845C246.204 334.403 246.692 334.791 247.239 334.791Z" fill="#241726"/>
<path d="M238.275 315.188C238.347 315.188 238.42 315.181 238.494 315.168C239.125 315.048 239.538 314.438 239.417 313.808C238.47 308.852 233.834 304.977 233.637 304.815C233.138 304.408 232.41 304.477 232.002 304.972C231.593 305.465 231.663 306.197 232.156 306.607C232.198 306.642 236.347 310.12 237.134 314.243C237.24 314.8 237.727 315.188 238.275 315.188Z" fill="#241726"/>
<path d="M229.587 313.31C229.855 313.31 230.123 313.218 230.342 313.032C230.83 312.614 230.888 311.881 230.471 311.392C227.194 307.555 221.246 306.487 220.995 306.444C220.364 306.338 219.763 306.759 219.652 307.389C219.542 308.021 219.966 308.623 220.596 308.735C220.65 308.744 225.977 309.71 228.702 312.903C228.933 313.172 229.259 313.31 229.587 313.31Z" fill="#241726"/>
<path d="M143.595 420.878C143.817 420.878 144.042 420.815 144.241 420.682C144.774 420.324 144.918 419.603 144.561 419.07C144.53 419.025 141.551 414.504 141.977 410.328C142.041 409.689 141.576 409.119 140.938 409.053C140.268 409.013 139.728 409.455 139.663 410.092C139.152 415.112 142.488 420.151 142.631 420.362C142.853 420.698 143.221 420.878 143.595 420.878Z" fill="#241726"/>
<path d="M143.595 405.131C143.817 405.131 144.042 405.068 144.241 404.934C144.774 404.577 144.918 403.855 144.561 403.322C144.53 403.278 141.551 398.759 141.977 394.582C142.041 393.943 141.576 393.373 140.938 393.307C140.268 393.264 139.728 393.707 139.663 394.345C139.152 399.366 142.488 404.404 142.631 404.616C142.853 404.951 143.221 405.131 143.595 405.131Z" fill="#241726"/>
<path d="M153.477 425.944C153.699 425.944 153.925 425.881 154.123 425.746C154.657 425.39 154.8 424.668 154.444 424.135C154.413 424.091 151.433 419.572 151.859 415.395C151.924 414.756 151.459 414.185 150.821 414.12C150.145 414.074 149.61 414.521 149.546 415.158C149.035 420.179 152.37 425.217 152.514 425.429C152.736 425.764 153.103 425.944 153.477 425.944Z" fill="#241726"/>
<path d="M136.551 393.377C136.774 393.377 136.999 393.313 137.198 393.18C137.731 392.823 137.874 392.102 137.518 391.568C137.488 391.523 134.509 387.002 134.934 382.826C134.998 382.188 134.533 381.617 133.894 381.552C133.233 381.503 132.685 381.954 132.62 382.592C132.11 387.61 135.445 392.65 135.588 392.861C135.811 393.196 136.179 393.377 136.551 393.377Z" fill="#241726"/>
<path d="M145.007 388.02C145.229 388.02 145.454 387.957 145.653 387.823C146.186 387.466 146.33 386.744 145.973 386.211C145.943 386.167 142.963 381.648 143.389 377.471C143.453 376.832 142.988 376.262 142.35 376.196C141.67 376.15 141.14 376.598 141.076 377.234C140.565 382.255 143.9 387.293 144.043 387.505C144.265 387.84 144.633 388.02 145.007 388.02Z" fill="#241726"/>
<path d="M136.413 376.591C136.517 376.591 136.62 376.578 136.725 376.548C137.343 376.378 137.706 375.737 137.536 375.119C137.521 375.067 136.113 369.839 137.829 366.009C138.092 365.424 137.829 364.735 137.244 364.472C136.656 364.21 135.97 364.472 135.707 365.058C133.644 369.663 135.226 375.495 135.295 375.74C135.437 376.254 135.905 376.591 136.413 376.591Z" fill="#241726"/>
<path d="M154.888 408.077C155.11 408.077 155.336 408.014 155.534 407.881C156.068 407.523 156.211 406.801 155.855 406.268C155.824 406.224 152.844 401.703 153.27 397.528C153.335 396.889 152.87 396.319 152.232 396.253C151.566 396.2 151.022 396.655 150.957 397.292C150.446 402.311 153.781 407.35 153.925 407.561C154.147 407.897 154.514 408.077 154.888 408.077Z" fill="#241726"/>
<path d="M16.0932 393.692C16.17 393.692 16.2499 393.684 16.3297 393.668C16.9585 393.538 17.363 392.923 17.2329 392.294C17.2217 392.242 16.1618 386.933 18.1258 383.223C18.4269 382.656 18.2098 381.952 17.6425 381.652C17.0804 381.349 16.3738 381.567 16.0717 382.135C13.7093 386.594 14.9044 392.517 14.9556 392.767C15.0702 393.315 15.5546 393.692 16.0932 393.692Z" fill="#241726"/>
<path d="M22.0181 379.103C22.0969 379.103 22.1747 379.095 22.2556 379.079C22.8833 378.95 23.2878 378.334 23.1578 377.705C23.1465 377.652 22.0846 372.344 24.0497 368.634C24.3507 368.068 24.1337 367.364 23.5664 367.063C23.0042 366.76 22.2976 366.979 21.9955 367.546C19.6332 372.005 20.8302 377.929 20.8824 378.179C20.9951 378.726 21.4784 379.103 22.0181 379.103Z" fill="#241726"/>
<path d="M23.3442 402.104C23.421 402.104 23.5009 402.096 23.5807 402.08C24.2095 401.951 24.6139 401.335 24.4839 400.707C24.4726 400.654 23.4128 395.345 25.3768 391.635C25.6779 391.069 25.4608 390.365 24.8935 390.064C24.3313 389.761 23.6247 389.978 23.3227 390.548C20.9603 395.006 22.1553 400.929 22.2065 401.18C22.3212 401.728 22.8045 402.104 23.3442 402.104Z" fill="#241726"/>
<path d="M19.9147 365.562C19.9915 365.562 20.0714 365.554 20.1513 365.537C20.78 365.408 21.1845 364.793 21.0544 364.164C21.0432 364.112 19.9833 358.802 21.9474 355.092C22.2484 354.526 22.0313 353.823 21.464 353.521C20.9019 353.218 20.1963 353.437 19.8932 354.005C17.5309 358.463 18.7259 364.386 18.7771 364.637C18.8918 365.185 19.3751 365.562 19.9147 365.562Z" fill="#241726"/>
<path d="M29.7637 363.78C29.8415 363.78 29.9203 363.772 30.0012 363.756C30.629 363.627 31.0334 363.011 30.9034 362.382C30.8921 362.329 29.8302 357.021 31.7953 353.311C32.0963 352.744 31.8793 352.041 31.312 351.74C30.7518 351.436 30.0432 351.654 29.7411 352.223C27.3788 356.682 28.5758 362.606 28.6281 362.855C28.7407 363.403 29.224 363.78 29.7637 363.78Z" fill="#241726"/>
<path d="M26.1049 349.959C26.6875 349.959 27.1893 349.522 27.2579 348.931C27.265 348.878 27.9255 343.504 30.9576 340.601C31.4215 340.157 31.4379 339.42 30.9934 338.957C30.548 338.493 29.8107 338.478 29.3499 338.921C25.7045 342.412 24.9775 348.412 24.9488 348.665C24.8751 349.302 25.3328 349.877 25.9697 349.952C26.0147 349.956 26.0598 349.959 26.1049 349.959Z" fill="#241726"/>
<path d="M31.3734 386.082C31.4502 386.082 31.53 386.074 31.6099 386.057C32.2386 385.928 32.6431 385.313 32.5131 384.684C32.5018 384.632 31.442 379.322 33.406 375.612C33.707 375.046 33.49 374.343 32.9227 374.042C32.3605 373.739 31.6539 373.957 31.3519 374.525C28.9895 378.983 30.1845 384.906 30.2357 385.157C30.3504 385.704 30.8337 386.082 31.3734 386.082Z" fill="#241726"/>
<path d="M263.72 374.218C264.294 374.218 264.794 373.793 264.871 373.208C265.536 368.207 262.358 363.067 262.222 362.852C261.88 362.309 261.163 362.149 260.621 362.485C260.078 362.826 259.913 363.542 260.253 364.086C260.281 364.132 263.12 368.74 262.567 372.902C262.482 373.539 262.929 374.123 263.566 374.207C263.619 374.215 263.669 374.218 263.72 374.218Z" fill="#241726"/>
<path d="M274.333 388.061C274.907 388.061 275.406 387.636 275.484 387.052C276.15 382.05 272.972 376.911 272.837 376.694C272.493 376.15 271.776 375.99 271.235 376.326C270.691 376.667 270.526 377.384 270.866 377.928C270.895 377.974 273.734 382.583 273.18 386.744C273.095 387.38 273.542 387.965 274.179 388.05C274.231 388.057 274.281 388.061 274.333 388.061Z" fill="#241726"/>
<path d="M278.148 371.521C278.723 371.521 279.221 371.096 279.299 370.511C279.966 365.51 276.787 360.37 276.652 360.153C276.309 359.609 275.593 359.452 275.051 359.785C274.507 360.126 274.342 360.843 274.682 361.387C274.711 361.433 277.549 366.042 276.995 370.204C276.91 370.84 277.358 371.424 277.995 371.509C278.046 371.517 278.097 371.521 278.148 371.521Z" fill="#241726"/>
<path d="M262.546 337.519C262.619 337.519 262.692 337.512 262.766 337.499C263.396 337.378 263.81 336.769 263.689 336.139C262.742 331.182 258.105 327.308 257.909 327.146C257.411 326.74 256.683 326.809 256.273 327.303C255.865 327.797 255.934 328.53 256.429 328.938C256.47 328.973 260.619 332.451 261.406 336.574C261.512 337.132 262 337.519 262.546 337.519Z" fill="#241726"/>
<path d="M259.014 350.284C259.086 350.284 259.159 350.276 259.233 350.263C259.864 350.142 260.277 349.533 260.157 348.903C259.209 343.946 254.573 340.072 254.376 339.911C253.878 339.504 253.15 339.574 252.741 340.067C252.332 340.561 252.402 341.294 252.896 341.703C252.937 341.737 257.087 345.215 257.873 349.338C257.979 349.897 258.467 350.284 259.014 350.284Z" fill="#241726"/>
<path d="M271.868 351.918C271.941 351.918 272.013 351.911 272.087 351.898C272.718 351.778 273.132 351.167 273.011 350.538C272.064 345.58 267.427 341.707 267.23 341.545C266.732 341.137 266.004 341.209 265.595 341.702C265.186 342.195 265.256 342.928 265.751 343.337C265.792 343.372 269.941 346.849 270.727 350.973C270.834 351.531 271.32 351.918 271.868 351.918Z" fill="#241726"/>
<path d="M269.178 361.818C269.251 361.818 269.323 361.811 269.397 361.798C270.028 361.677 270.442 361.067 270.321 360.438C269.374 355.481 264.737 351.607 264.54 351.445C264.043 351.037 263.312 351.107 262.905 351.602C262.496 352.095 262.566 352.828 263.061 353.237C263.102 353.272 267.251 356.749 268.037 360.873C268.144 361.431 268.631 361.818 269.178 361.818Z" fill="#241726"/>
<path d="M148.998 301.37C152.541 301.37 155.952 300.768 159.218 299.562C173.405 294.323 179.624 279.692 179.881 279.072C180.128 278.479 179.846 277.799 179.253 277.553C178.659 277.305 177.98 277.587 177.735 278.179C177.674 278.322 171.625 292.513 158.394 297.388C150.331 300.358 141.222 299.321 131.322 294.3C130.755 294.006 130.05 294.236 129.76 294.811C129.469 295.383 129.698 296.082 130.271 296.372C136.834 299.701 143.1 301.37 148.998 301.37Z" fill="#241726"/>
<path d="M111.209 478.857C111.298 478.857 111.388 478.847 111.479 478.826C115.085 477.972 128.405 476.208 128.538 476.19C129.175 476.106 129.622 475.521 129.538 474.885C129.454 474.249 128.876 473.79 128.233 473.885C127.681 473.957 114.663 475.684 110.942 476.562C110.318 476.711 109.931 477.336 110.078 477.962C110.206 478.498 110.682 478.857 111.209 478.857Z" fill="#241726"/>
<path d="M109.278 474.147C109.473 474.147 109.669 474.098 109.852 473.994C112.924 472.249 123.411 470.282 127.194 469.672C127.829 469.57 128.259 468.973 128.157 468.34C128.055 467.706 127.463 467.268 126.824 467.377C126.252 467.469 112.765 469.667 108.704 471.975C108.146 472.291 107.95 473.001 108.268 473.56C108.481 473.936 108.874 474.147 109.278 474.147Z" fill="#241726"/>
<path d="M119.798 481.476C119.914 481.476 120.034 481.458 120.152 481.42C122.02 480.822 129.262 480.921 133.674 481.137C134.302 481.157 134.859 480.673 134.89 480.031C134.921 479.39 134.427 478.845 133.785 478.814C132.616 478.761 122.305 478.293 119.442 479.207C118.83 479.403 118.493 480.056 118.69 480.669C118.848 481.161 119.305 481.476 119.798 481.476Z" fill="#241726"/>
<path d="M4.36324 461.916C4.4513 461.916 4.54142 461.906 4.63255 461.885C8.2401 461.031 21.5572 459.267 21.6904 459.249C22.3273 459.165 22.7748 458.58 22.6908 457.944C22.6068 457.308 22.0273 456.864 21.3862 456.944C20.8333 457.016 7.81721 458.743 4.09599 459.621C3.47135 459.77 3.08428 460.396 3.23174 461.021C3.35974 461.557 3.8369 461.916 4.36324 461.916Z" fill="#241726"/>
<path d="M2.43299 457.206C2.62755 457.206 2.82416 457.156 3.00643 457.053C6.70614 454.953 20.2137 452.752 20.3489 452.731C20.9838 452.628 21.4139 452.031 21.3115 451.399C21.2101 450.765 20.6172 450.334 19.9792 450.436C19.4068 450.529 5.92176 452.727 1.85853 455.034C1.30147 455.35 1.10487 456.06 1.42231 456.619C1.63428 456.994 2.02749 457.206 2.43299 457.206Z" fill="#241726"/>
<path d="M12.9525 464.533C13.0693 464.533 13.1891 464.516 13.3068 464.478C15.1705 463.882 22.4153 463.984 26.8288 464.195C27.4677 464.217 28.0146 463.731 28.0453 463.089C28.076 462.448 27.5814 461.903 26.9394 461.872C25.7751 461.814 15.4603 461.349 12.5972 462.265C11.9869 462.461 11.6479 463.114 11.8446 463.727C12.0033 464.219 12.46 464.533 12.9525 464.533Z" fill="#241726"/>
<path d="M205.551 469.958C218.371 469.958 245.149 467.696 264.659 450.624C279.692 437.469 287.625 418.185 288.239 393.305C288.255 392.664 287.747 392.131 287.105 392.114C287.096 392.114 287.086 392.114 287.075 392.114C286.448 392.114 285.93 392.616 285.914 393.248C285.318 417.443 277.656 436.153 263.14 448.863C237.512 471.301 198.762 467.395 198.375 467.352C197.73 467.286 197.164 467.743 197.093 468.381C197.024 469.02 197.485 469.593 198.123 469.663C198.228 469.675 201.018 469.958 205.551 469.958Z" fill="#241726"/>
<path d="M140.114 261.849C140.716 261.849 141.225 261.386 141.272 260.775C141.321 260.137 140.845 259.58 140.207 259.528C140.148 259.522 137.05 259.208 132.792 256.222C132.266 255.853 131.541 255.982 131.173 256.506C130.805 257.031 130.932 257.757 131.457 258.125C136.306 261.526 139.874 261.835 140.024 261.846C140.054 261.848 140.084 261.849 140.114 261.849Z" fill="#241726"/>
<path d="M140.114 270.055C140.716 270.055 141.225 269.593 141.272 268.981C141.321 268.343 140.845 267.786 140.207 267.734C140.148 267.73 137.05 267.416 132.792 264.429C132.266 264.059 131.541 264.188 131.173 264.712C130.805 265.237 130.932 265.963 131.457 266.331C136.306 269.732 139.874 270.041 140.024 270.052C140.054 270.054 140.084 270.055 140.114 270.055Z" fill="#241726"/>
<path d="M151.584 268.299C152.186 268.299 152.695 267.836 152.742 267.225C152.791 266.587 152.315 266.031 151.678 265.978C151.647 265.976 148.54 265.673 144.262 262.672C143.735 262.303 143.011 262.432 142.643 262.956C142.275 263.481 142.402 264.207 142.927 264.575C147.777 267.976 151.344 268.285 151.494 268.296C151.523 268.298 151.554 268.299 151.584 268.299Z" fill="#241726"/>
<path d="M128.918 261.849C129.52 261.849 130.029 261.386 130.076 260.775C130.125 260.137 129.649 259.581 129.012 259.528C128.981 259.526 125.874 259.223 121.597 256.222C121.071 255.853 120.345 255.982 119.978 256.506C119.609 257.031 119.736 257.757 120.262 258.125C125.11 261.526 128.678 261.835 128.827 261.846C128.858 261.848 128.889 261.849 128.918 261.849Z" fill="#241726"/>
<path d="M74.4397 264.866C75.0418 264.866 75.5507 264.403 75.5978 263.792C75.647 263.154 75.1708 262.598 74.5339 262.544C74.5032 262.542 71.3964 262.239 67.1191 259.24C66.5938 258.87 65.8668 258.999 65.5002 259.524C65.1315 260.049 65.2585 260.775 65.7838 261.143C70.6325 264.542 74.2001 264.851 74.3496 264.863C74.3803 264.865 74.41 264.866 74.4397 264.866Z" fill="#241726"/>
<path d="M63.2617 259.99C63.8638 259.99 64.3727 259.528 64.4199 258.916C64.469 258.278 63.9928 257.722 63.3559 257.669C63.3252 257.667 60.2184 257.364 55.9411 254.364C55.4127 253.994 54.6898 254.123 54.3222 254.647C53.9536 255.173 54.0805 255.899 54.6058 256.266C59.4545 259.667 63.0221 259.976 63.1716 259.987C63.2023 259.989 63.232 259.99 63.2617 259.99Z" fill="#241726"/>
<path d="M67.2563 269.575C67.8584 269.575 68.3674 269.111 68.4145 268.501C68.4636 267.863 67.9864 267.306 67.3495 267.254C67.2799 267.248 64.1843 266.93 59.9347 263.949C59.4084 263.58 58.6834 263.709 58.3158 264.233C57.9472 264.758 58.0741 265.484 58.5995 265.852C63.4481 269.253 67.0167 269.561 67.1662 269.572C67.198 269.574 67.2266 269.575 67.2563 269.575Z" fill="#241726"/>
<path d="M55.2745 261.747C55.8767 261.747 56.3856 261.284 56.4327 260.673C56.4818 260.035 56.0057 259.477 55.3677 259.425C55.3032 259.419 52.2066 259.103 47.953 256.12C47.4276 255.75 46.7006 255.879 46.334 256.403C45.9653 256.929 46.0923 257.655 46.6176 258.022C51.4663 261.423 55.0349 261.732 55.1844 261.744C55.2151 261.745 55.2459 261.747 55.2745 261.747Z" fill="#241726"/>
<path d="M343.379 445.126C346.136 445.126 348.971 444.788 351.87 444.03C361.806 441.435 366.447 436.79 368.61 432.923C371.388 434.429 374.397 435.659 377.412 436.427C384.275 438.179 396.968 439.068 404.899 425.363C411.486 413.984 411.519 401.686 408.35 391.542C414.395 390.58 421.744 387.339 426.433 378.086C432.905 365.318 430.304 348.513 424.089 336.64C431.771 332.595 438.934 325.086 439.515 314.085C440.204 301.053 436.021 288.631 428.922 281.232C433.278 277.048 436.536 270.79 437.118 262.023C438.424 242.332 424.133 231.219 417.928 227.355C415.772 226.012 413.549 224.876 411.349 223.967C412.772 220.79 413.959 217.302 414.774 213.691C418.102 198.937 407.434 183.022 395.202 173.909C403.807 167.68 406.268 157.718 406.788 150.277C407.063 146.332 406.855 142.508 406.341 138.984C410.011 139.434 413.93 139.109 417.798 137.678C424.651 135.143 430.307 130.57 434.083 125.894C439.215 132.381 447.434 139.248 454.543 142.795C461.245 146.137 466.504 146.437 469.755 143.662C470.243 143.244 470.301 142.511 469.884 142.023C469.465 141.533 468.733 141.48 468.245 141.894C465.796 143.986 461.3 143.568 455.581 140.714C448.248 137.055 440.229 130.079 435.517 123.982C438.526 119.66 439.844 115.474 438.933 112.952C438.529 111.843 437.074 109.452 432.197 111.168C430.316 111.833 429.214 113.252 429.095 115.169C428.947 117.54 430.304 120.616 432.59 123.892C429.19 128.313 423.871 132.953 416.991 135.498C413.243 136.882 409.451 137.141 405.946 136.633C405.035 131.84 403.592 127.725 402.128 124.789C399.441 119.395 396.25 116.926 393.355 118.026C388.794 119.758 386.996 123.259 388.546 127.396C390.317 132.123 396.389 136.907 403.889 138.562C405.789 150.372 404.224 165.047 393.188 172.479C389.8 170.192 386.344 168.447 383.079 167.411C375.423 164.976 369.707 166.766 367.404 172.321C365.513 176.882 365.714 180.444 367.975 182.35C371.803 185.589 380.511 183.125 393.169 175.249C405.07 183.751 415.692 199.052 412.505 213.18C411.696 216.769 410.541 220.137 409.195 223.145C403.045 220.999 397.31 220.699 393.958 222.632C391.835 223.857 390.756 225.855 390.839 228.412C391.112 236.849 394.094 238.898 396.548 239.131C400.874 239.551 406.343 234.034 410.351 226.067C412.472 226.94 414.623 228.034 416.699 229.329C422.547 232.97 436.02 243.432 434.798 261.868C434.218 270.617 430.999 276.154 427.277 279.654C425.91 278.452 424.453 277.427 422.916 276.604C417.158 273.522 411.195 273.911 406.128 277.692C402.23 280.6 402.519 283.063 403.037 284.273C404.356 287.342 409.785 288.807 415.947 287.752C419.734 287.104 423.686 285.507 427.142 282.783C433.116 288.98 437.936 299.9 437.193 313.962C436.661 324.009 430.05 330.889 422.96 334.606C422.521 333.858 422.065 333.133 421.598 332.434C417.437 326.226 412.691 322.864 408.633 323.172C406.638 323.331 403.822 324.468 401.739 328.982C399.702 333.396 400.87 336.063 402.208 337.526C405.226 340.819 412.275 341.232 419.758 338.548C420.501 338.282 421.25 337.982 421.998 337.652C427.955 348.952 430.488 364.945 424.36 377.034C420.016 385.604 413.146 388.493 407.586 389.299C404.925 382.115 400.681 376.21 396.17 372.795C390.921 368.819 385.692 368.596 382.184 372.202C379.986 374.462 379.393 377.273 380.517 380.117C382.939 386.246 392.549 391.405 402.396 391.862C403.471 391.914 404.706 391.913 406.043 391.81C409.161 401.459 409.213 413.266 402.887 424.196C395.721 436.576 384.212 435.762 377.986 434.172C374.958 433.399 372.121 432.224 369.587 430.84C369.806 430.267 369.973 429.732 370.099 429.242C371.357 424.386 370.078 419.249 366.839 416.159C364.677 414.099 361.967 413.374 359.408 414.163C356.054 415.199 355.609 417.526 355.64 418.82C355.741 422.817 360.375 427.923 366.598 431.754C364.687 435.185 360.49 439.373 351.282 441.777C325.442 448.522 304.512 419.645 304.304 419.351C303.931 418.827 303.208 418.706 302.683 419.079C302.16 419.452 302.038 420.177 302.411 420.7C302.604 420.978 320.107 445.126 343.379 445.126ZM361.47 416.177C362.782 416.177 364.082 416.745 365.233 417.843C367.395 419.907 369.041 424.054 367.848 428.664C367.769 428.971 367.67 429.3 367.548 429.647C361.784 426.012 358.03 421.446 357.963 418.766C357.944 418.033 358.145 416.989 360.093 416.386C360.549 416.246 361.011 416.177 361.47 416.177ZM405.234 389.534C404.242 389.589 403.322 389.584 402.504 389.543C392.584 389.082 384.49 383.85 382.679 379.266C381.889 377.267 382.283 375.437 383.851 373.826C387.612 369.959 392.737 373.115 394.765 374.651C398.867 377.757 402.731 383.061 405.234 389.534ZM420.856 335.615C420.226 335.888 419.597 336.137 418.973 336.36C412.571 338.659 406.238 338.487 403.922 335.956C402.669 334.588 402.644 332.57 403.849 329.957C405.144 327.153 406.815 325.65 408.817 325.492C412.001 325.232 416.041 328.319 419.667 333.73C420.072 334.339 420.47 334.968 420.856 335.615ZM425.457 281.188C421.565 284.115 417.514 285.128 415.554 285.463C410.272 286.369 405.923 285.105 405.173 283.358C404.75 282.371 405.603 280.985 407.516 279.559C411.824 276.346 416.902 276.026 421.818 278.657C423.038 279.307 424.262 280.156 425.457 281.188ZM408.191 225.252C404.535 232.478 399.843 237.122 396.766 236.817C394.643 236.617 393.329 233.525 393.161 228.339C393.106 226.646 393.746 225.439 395.12 224.647C397.857 223.071 402.806 223.4 408.191 225.252ZM391.055 173.824C375.163 183.54 370.531 181.471 369.473 180.576C368.072 179.394 368.1 176.711 369.55 173.214C371.993 167.329 378.632 168.441 382.374 169.63C385.18 170.52 388.135 171.956 391.055 173.824ZM394.711 120.107C396.238 120.107 398.263 122.25 400.047 125.829C401.383 128.51 402.605 132.096 403.442 136.135C397.176 134.527 392.207 130.545 390.723 126.585C389.635 123.681 390.83 121.474 394.18 120.203C394.348 120.139 394.526 120.107 394.711 120.107ZM435.224 112.889C435.934 112.889 436.517 113.112 436.744 113.745C437.284 115.237 436.306 118.375 434.009 121.894C432.29 119.311 431.309 116.998 431.413 115.316C431.475 114.323 431.954 113.722 432.969 113.364C433.7 113.107 434.524 112.889 435.224 112.889Z" fill="#241726"/>
</g>
<defs>
<clipPath id="clip0_626_1079">
<rect width="512" height="512" fill="white" transform="matrix(-1 0 0 1 512 0)"/>
</clipPath>
</defs>
</svg>
