<svg height="512" viewBox="0 0 50 50" width="512" xmlns="http://www.w3.org/2000/svg"><g id="Layer_2" fill="#E37037" data-name="Layer 2"><path d="m31.005 20.45a2.578 2.578 0 0 1 -2.963-.754 8.32 8.32 0 0 1 -1.83-5.8 11.51 11.51 0 0 1 4.165-8.056c2.089-1.7 4.388-.673 5.256 1.741 1.27 3.535.182 7.789-1.988 10.744a6.088 6.088 0 0 1 -2.64 2.125z"/><path d="m20.06 21.06c-1.745.355-3.115-1.075-3.959-2.422-2.063-3.291-3.624-8.984-.655-12.239 1.76-1.931 4.092-.739 5.6.848a10.4 10.4 0 0 1 2.835 6.717c.094 2.674-.787 6.478-3.821 7.096z"/><path d="m10.659 18.477a9.317 9.317 0 0 1 1.123 1.041 9.218 9.218 0 0 1 2.59 5.427c.134 1.625-.3 3.619-1.713 4.608-1.873 1.308-4.118.07-5.422-1.438a8.87 8.87 0 0 1 -2.157-5.25c-.1-1.765.395-4.116 2.057-5.074 1.193-.691 2.534-.08 3.522.686z"/><path d="m40.044 18.339a9.432 9.432 0 0 0 -4.55 5.029c-.629 1.636-.827 3.931.355 5.374a3.137 3.137 0 0 0 2.18 1.083c3.212.36 6.168-3.439 6.765-6.233.485-2.268-.239-6.427-3.4-5.717a6.665 6.665 0 0 0 -1.35.464z"/><path d="m13.281 34.622.051-.084a35.04 35.04 0 0 1 6.326-7.68 7.785 7.785 0 0 1 4.019-2.245c1.664-.209 3.077.966 4.332 1.889a25.144 25.144 0 0 1 3.635 3.265 22.763 22.763 0 0 1 4.584 7.04c.846 2.194 1.584 5.5-.444 7.316-1.61 1.437-4.142.84-5.937.105-2.357-.966-4.665-2.2-7.276-2.184a22.145 22.145 0 0 0 -3.773.524 10.145 10.145 0 0 1 -3.789.133 4.186 4.186 0 0 1 -3-2.125 4.281 4.281 0 0 1 -.125-3.006 12.47 12.47 0 0 1 1.397-2.948z"/></g></svg>